<?xml version="1.0" encoding="utf-8"?>
<!-- Generator: Adobe Illustrator 28.0.0, SVG Export Plug-In . SVG Version: 6.00 Build 0)  -->
<svg version="1.1" id="Ebene_1" xmlns="http://www.w3.org/2000/svg" xmlns:xlink="http://www.w3.org/1999/xlink" x="0px" y="0px"
	 viewBox="0 0 849.3 842" style="enable-background:new 0 0 849.3 842;" xml:space="preserve">
<style type="text/css">
	.st0{fill:#F2F2F2;}
	.st1{fill:#FFFFFF;}
	.st2{fill:#3F3D56;}
	.st3{fill:#FFB6B6;}
	.st4{fill:#4051B5;}
	.st5{fill:#CACACA;}
	.st6{fill:#2F2E41;}
	.st7{fill:#CCCCCC;}
</style>
<path class="st0" d="M842,421c0.1,47.9-8.1,95.5-24.1,140.7c0,0,0,0,0,0.1c-0.1,0.2-0.1,0.4-0.2,0.6v0c-3.4,9.6-7.2,19-11.2,28.3
	c-10.3,23.4-22.7,45.7-37.1,66.8c-3.5,5.1-7.1,10.2-10.8,15.2c-4.1,5.5-8.3,10.9-12.7,16.2c-4,4.9-8.1,9.6-12.4,14.3
	c-5,5.6-10.2,11-15.5,16.3c-12.5,12.5-25.9,24.2-39.9,35c-2.5,1.9-4.9,3.8-7.5,5.6c-5.8,4.3-11.8,8.5-17.9,12.5
	c-13.4,8.8-27.3,16.9-41.6,24.2c-2.5,1.3-5,2.5-7.5,3.7c-9.7,4.7-19.5,9-29.6,12.9c-2.9,1.1-5.8,2.2-8.7,3.3c-0.5,0.2-1,0.4-1.5,0.5
	c-34.5,12.5-70.5,20.3-107.1,23.4c-2.5,0.2-5.1,0.4-7.6,0.6c-2.7,0.2-5.4,0.3-8.1,0.5c-2.1,0.1-4.3,0.2-6.4,0.2c-0.4,0-0.9,0-1.3,0
	c-2.9,0.1-5.8,0.1-8.7,0.2c-1.2,0-2.5,0-3.7,0c-0.6,0-1.2,0-1.7,0c-8.4,0-16.7-0.3-25-0.8c-0.2,0-0.3,0-0.5,0
	c-3-0.2-5.9-0.4-8.8-0.7c-10.5-0.9-20.8-2.1-31.1-3.8c-2.4-0.4-4.7-0.8-7.1-1.2c-10.2-1.8-20.2-4-30.2-6.5c-3-0.8-5.9-1.5-8.8-2.3
	c-16.8-4.7-33.4-10.4-49.5-17.2c-9.2-3.9-18.3-8.1-27.2-12.6c-4-2-8-4.1-11.9-6.3c-1.1-0.6-2.1-1.2-3.2-1.8
	c-7.7-4.3-15.3-8.9-22.7-13.7c-6.1-3.9-12-8-17.9-12.2c-0.7-0.5-1.4-1-2.1-1.5c-4.5-3.3-8.9-6.6-13.2-10.1
	c-9.4-7.5-18.6-15.4-27.3-23.6c-6.1-5.7-12-11.6-17.7-17.6c-33.3-35.2-60.3-75.9-79.8-120.3c-4.1-9.5-7.9-19.1-11.4-28.9
	c0,0,0,0,0-0.1C8,515.9-0.1,468.6,0,421C0,244.2,108.9,92.9,263.3,30.5c111.3-44.8,236.4-40.1,344,12.9
	C746.4,112.1,842,255.4,842,421z"/>
<path class="st1" d="M607.3,43.4v532h-344V30.5C374.6-14.3,499.7-9.6,607.3,43.4L607.3,43.4z"/>
<path class="st0" d="M346.1,286c9.3-15.4,20.4-31.9,37.7-37c20.1-5.8,40.7,5.8,58.1,17.2c52.3,34.2,102.6,71.3,150.8,111.1l-0.1,0.6
	c-37.5-2.6-75-5.2-112.5-7.8c-27.1-1.9-55.1-4-79.1-16.8c-9.1-4.9-17.9-11.4-28.2-11.8c-12.8-0.6-23.9,8.4-32.7,17.7
	c-51.8,55.2-66.8,139.6-125,188.1C251.8,456.9,295.6,369.5,346.1,286z"/>
<path class="st2" d="M632.5,57c-0.9-0.6-1.8-1.1-2.6-1.7c-25.1-16.1-52.1-29.2-80.3-38.9l-6.5,90.2h-41.5V3.2
	c-2.6-0.5-5.2-1-7.9-1.5v104.9h-49.3c-56.5,0-102.3-45.8-102.3-102.3v0c-2.6,0.6-5.3,1.2-7.9,1.8v100.4h-40.1l-6.2-86
	c-29,11.1-56.5,25.7-81.9,43.5c-0.4,0.3-0.9,0.6-1.3,0.9c-2.2,1.6-4.4,3.1-6.6,4.7v502.2h118.3l-2.1-29l-11.5-317h231.6l-11.5,317
	l-2.1,29h117V60.4C636,59.3,634.3,58.1,632.5,57z M334.3,199.7h-33.4l-6.2-85.3h39.6V199.7z M493.7,199.7h-56.1V198
	c0-3.4-2.8-6.2-6.2-6.2c0,0,0,0,0,0h-24.4c-3.4,0-6.2,2.8-6.2,6.2c0,0,0,0,0,0v1.7h-58.7v-85.3h151.5L493.7,199.7z M501.6,199.7
	v-85.3h40.9l-6.2,85.3H501.6z"/>
<path class="st2" d="M817.9,561.6C817.9,561.7,817.9,561.7,817.9,561.6c-0.1,0.3-0.2,0.5-0.2,0.7v0c-3.4,9.6-7.2,19-11.2,28.3
	l-771.2-0.8c-4.1-9.4-7.9-19.1-11.4-28.9c0,0,0,0,0-0.1L817.9,561.6z"/>
<rect x="394.7" y="564.9" class="st1" width="135" height="18"/>
<path class="st1" d="M216,741.2c0.5-4.2,1.1-8.4,2-12.6c4.6-22.6,14.6-43.9,29-61.9c8.2,0.5,15.5-0.8,16.2-16.8
	c0.1-2.8,2.2-5.3,2.7-8.1c-0.8,0.1-1.6,0.2-2.4,0.2c-0.2,0-0.5,0-0.8,0h-0.1c-2.5,0.1-4.6-1.8-4.7-4.3c-0.1-1.1,0.3-2.2,1-3
	c0.3-0.4,0.7-0.8,1-1.2c0.5-0.7,1-1.3,1.6-1.9c0.1-0.1,0.1-0.1,0.2-0.2c0.6-0.7,1.2-1.5,1.8-2.2c-1.1-1.7-2.5-3.1-4.3-4.1
	c-6-3.5-14.2-1.1-18.5,4.3c-4.3,5.4-5.1,12.9-3.6,19.7c1.3,5.8,4.1,11,7.2,16.1c-0.3,0.4-0.7,0.8-1,1.2c-5.9,7.6-11,15.7-15.4,24.3
	c1.2-9.5-13.7-43.9-19.5-51.2c-6.9-8.8-21.1-4.9-22.4,6.2c0,0.1,0,0.2,0,0.3c0.9,0.5,1.7,1,2.5,1.5c2.8,1.9,3.6,5.7,1.7,8.5
	c-1,1.4-2.5,2.4-4.2,2.7l-0.1,0c-11.5,16.4,25.3,59,34.5,49.4c-2.3,6.5-4.2,13.2-5.5,19.9c-1.2,6-2.1,12-2.6,18.1
	c-0.6,7.7-0.5,15.3,0.1,23c0-0.1,0-0.2,0-0.3c-2-16.7-37.1-41.4-47.4-39.4c-5.9,1.2-11.7,0.9-10.8,6.9c0,0.1,0,0.2,0,0.3
	c1.6,0.6,3.1,1.4,4.6,2.2c0.9,0.5,1.7,1,2.5,1.5c2.8,1.9,3.6,5.7,1.7,8.5c-0.8,1.2-1.9,2-3.3,2.4c4.4,3.4,8.8,6.8,13.2,10.1
	c0.7,0.5,1.4,1,2.1,1.5c5.9,4.2,11.8,8.3,17.9,12.2c7.4,4.8,15,9.3,22.7,13.7c1.1,0.6,2.1,1.2,3.2,1.8c-2.7-11.1-4.1-22.4-4.1-33.8
	C215.1,751.6,215.4,746.4,216,741.2z M221.5,705.5L221.5,705.5C221.5,705.5,221.5,705.5,221.5,705.5L221.5,705.5z M213.5,777.4
	l-0.3-0.7c0-0.5,0-1,0-1.5c0-0.1,0-0.3,0-0.4C213.3,775.6,213.4,776.5,213.5,777.4L213.5,777.4z M259.4,778.8
	c0.1-0.5,0.2-0.8,0.3-1.2c0-0.1-0.1-0.2-0.1-0.3c-3.3-7.9-20.9,8.1-28.5,19.6c8.9,4.5,18,8.7,27.2,12.6c0.6-0.8,1.3-1.5,1.9-2.3
	c0.1-0.1,0.1-0.1,0.2-0.2c1.4-1.7,2.7-3.3,4.1-5c0-0.3,0-0.7,0-1c0-4.8-0.6-9.6-1.8-14.3c-2.5,0.1-4.6-1.8-4.7-4.3
	C257.9,781,258.5,779.7,259.4,778.8z"/>
<path class="st3" d="M475.8,570.6c9.1,6.3,21.5,4,27.8-5.1c0.7-1,1.2-2,1.7-3.1l70.6,6.6l-17.3-32.5l-64.4-1.3
	c-10.4-3.9-21.9,1.3-25.9,11.7C465,555.6,468.1,565.4,475.8,570.6L475.8,570.6z"/>
<path class="st4" d="M547.3,568.4l97.7,11l0.3-0.4c0.6-0.8,64.6-82.6,75.3-102.1c6.6-11.7,9-25.3,6.8-38.6l-0.1-0.3l-0.3-0.2
	c-10.7-9-26.3-9.3-37.4-0.8c-25.9,20.1-46.8,45.9-61.1,75.5l-8.1,16.8l-73.3,7.2V568.4z"/>
<path class="st3" d="M468.1,797.2l-18.8,43.8c-2.7,0.2-5.4,0.3-8.1,0.5c-2.1,0.1-4.3,0.2-6.4,0.2L434,842l-0.6-0.2
	c-2.9,0.1-5.8,0.1-8.7,0.2c-1.2,0-2.5,0-3.7,0c-0.6,0-1.2,0-1.7,0l1.2-4.3l1.5-5.1l5.8-20.1l8.4-29l12.5,5.4L468.1,797.2z"/>
<path class="st3" d="M603.7,800.4c-9.7,4.7-19.5,9-29.6,12.9l-9.8-16.5l31.7-13.9L603.7,800.4z"/>
<path class="st5" d="M670.6,725.2V760c-5.8,4.3-11.8,8.5-17.9,12.5v-47.4H670.6z"/>
<path class="st2" d="M733.5,703.1c-5,5.6-10.2,11-15.5,16.3c-12.5,12.5-25.9,24.2-39.9,35h-79.8c-4.3,0-8.4-1.8-11.2-5.1l0,0
	c-1.7-1.9-2.8-4.1-3.4-6.6l0,0c-0.2-1.1-0.3-2.1-0.3-3.2V718c0-8.2,6.7-14.9,14.9-14.9H733.5z"/>
<path class="st6" d="M766.4,619.3l-8.7,37.1c0.8,5.4,1.1,10.8,0.8,16.2c-4.1,5.5-8.3,10.9-12.7,16.2c-4,4.9-8.1,9.6-12.4,14.3
	c-5,5.6-10.2,11-15.5,16.3c-13.9,4.4-30.2,6.1-47.3,6.3c-5.9,0-11.9-0.1-17.9-0.4c-24.4-1.3-49-5.2-69.2-9.2
	c-5.3-1.1-10.4-2.1-15-3.2c-8.8-2-16.1-3.8-21.4-5.2c-6-1.6-9.4-2.6-9.4-2.6l-22.7,38l-20.6,34.5l-26.6,33.9
	c-2.5,0.2-5.1,0.4-7.6,0.6c-2.7,0.2-5.4,0.3-8.1,0.5c-2.1,0.1-4.3,0.2-6.4,0.2L445,813l-0.6-0.2l-9.6-3.1l-3.2-1l-11.7-3.7
	c0,0,2.6-8.2,7.2-21.9c1.7-5,13.6-42.2,26-74.7c3.7-9.6,7.5-19.4,11.4-29.2c3.2-8,6.5-16,9.8-23.8c5.8-13.6,33.7-21,66.5-24.8
	c1.7-0.2,3.3-0.4,5-0.6c16.7-1.8,34.5-2.7,51.1-3.1c8.3-0.2,16.3-0.3,23.8-0.3c2.4,0,4.8,0,7,0h0c6.2,0,11.8,0.1,16.8,0.2
	c1,0,1.9,0,2.8,0.1h0c0.6,0,1.2,0,1.8,0c10.9,0.3,17.6,0.6,17.6,0.6l2.6-20.3l0.5-4.1l0.5-3.9v0l0.1-0.5l0.4,0l7.2-0.1l60.5-1.2
	l25.8-1.1L766.4,619.3z"/>
<path class="st6" d="M602.2,783.7c-2.5,1.3-5,2.5-7.5,3.7c-9.7,4.7-19.5,9-29.6,12.9c-2.9,1.1-5.8,2.2-8.7,3.3
	c-0.3-0.5-0.7-0.9-1-1.3c-13.9-19-22.5-31.2-40.4-59.2c-7.5-11.7-15-23.9-22.3-36.4l52.8-24.6l5.9-2.8l17,33.5l15.2,29.9l3.4,6.7
	L602.2,783.7z"/>
<circle class="st3" cx="687.8" cy="331.4" r="48.6"/>
<path class="st4" d="M774.6,482.6c-0.4-40.2,0.8-28.5-2.4-42.4c-8.5-37.2-44-44-50.2-44.8c-2.6-7.1-10.5-10.6-17.6-8
	c-0.3,0.1-0.6,0.2-0.9,0.4l-11.8,6.1c-11.5,5.2-4.5,12.8-8.5,24.8l-4.2,12.7L645,525.7l6.9,35.8l0,0l4.7,24.2l13.8,15.7l-0.3-2.5
	l-0.3,0.5l0,0l-0.8,1.2c1.1,0.6,2.2,1.2,3.3,1.8c2.8,1.5,5.5,3,8.2,4.5c0.6,0.4,1.3,0.7,1.9,1.1h0c0.4,0.2,0.8,0.4,1.2,0.7
	c10,5.6-27,15.7-18.8,20.5c1.1,0.7,2.3,1.3,3.4,2c37.8,22.1,68,49.7,77.7,57.7c4.4-5.3,8.6-10.7,12.7-16.2c3.7-5,7.3-10,10.8-15.2
	c0.6-4,1-8,1.4-12c0.5-4.7-2-48.7-1.2-53.5c0.4-2.1-1.1-4.2-2.4-6.1c-1.3-1.8-2.5-3.5-2.2-5.2c0.3-1.7,2.1-3.5,3.9-5.3
	c2-1.9,4-3.9,4.3-6c0.8-5.9-2.5-11.8-1.9-17.7c1-9.6,1.8-19.3,2.3-29C774.4,509.3,774.7,495.9,774.6,482.6z"/>
<path class="st3" d="M500.3,581.1c7.6-8,20.2-8.3,28.2-0.7c0.9,0.8,1.6,1.7,2.3,2.6l67.7-21l-10.2,35.4l-62.7,14.5
	c-9.3,6-21.7,3.2-27.7-6.1C492.9,598,493.9,587.7,500.3,581.1L500.3,581.1z"/>
<path class="st4" d="M582.4,600.6l125.7-25.9l-32.6,8.1c0.4-1,37-98.1,41.5-119.9c2.8-13.1,1.1-26.8-5-38.9l-0.2-0.3l-0.3-0.1
	c-12.9-5.4-27.8-1.1-35.9,10.3c-18.8,26.9-31,57.8-35.8,90.2l-2.7,18.5l-44.3,13.3L582.4,600.6z"/>
<path class="st6" d="M348.2,561.1c0.9,2.6,3.4,4.4,6.2,4.3l26.5-0.7c2.8-0.1,5.2-2,6-4.7l3.7-40.1c1.3,0.6,2.8,0.9,4.2,0.9
	c5.3-0.1,9.5-4.6,9.4-9.9c-0.1-5.3-4.6-9.5-9.9-9.4c-0.6,0-1.2,0.1-1.7,0.2c-1.3-1.4-3-2.1-4.9-2.1l-40.8,1.1c-0.3,0-0.7,0.1-1,0.1
	c-3.5,0.6-5.7,4-5.1,7.4c0.1,0.3,0.1,0.6,0.2,0.8L348.2,561.1z M391.3,517.3l2.7-9.6c0.3-1.1,0.3-2.3,0-3.4c0.1,0,0.2-0.1,0.4-0.1
	c3.8-0.1,7,3,7.1,6.8c0.1,3.8-2.9,7-6.7,7.1C393.5,518.1,392.4,517.8,391.3,517.3z"/>
<path class="st2" d="M346,500.8c0.9,5,10.6,8.5,22.4,7.8c10.8-0.5,19.6-4.3,21.2-8.8c-0.6-0.2-1.2-0.3-1.8-0.2l-40.8,1.1
	C346.6,500.7,346.3,500.7,346,500.8z"/>
<path class="st2" d="M168.7,464.5v85.7c0,2.3,1.8,4.1,4.1,4.1h127c2.3,0,4.1-1.8,4.1-4.1v-85.7c0-2.3-1.8-4.1-4.1-4.1h-127
	C170.6,460.4,168.7,462.2,168.7,464.5z"/>
<path class="st4" d="M171.7,465.6v83.6c0,1.2,1,2.2,2.2,2.2h124.9c1.2,0,2.2-1,2.2-2.2v-83.6c0-1.2-1-2.2-2.2-2.2H173.9
	C172.7,463.4,171.7,464.3,171.7,465.6z"/>
<path class="st6" d="M166.1,566.9c0.5,0.6,1.2,0.9,1.9,0.9h136c1.4,0,2.5-1.1,2.5-2.5c0-0.2,0-0.3-0.1-0.5l-2.1-10
	c-0.2-0.8-0.8-1.5-1.6-1.8c-0.3-0.1-0.6-0.2-0.9-0.2H170.1c-0.3,0-0.6,0.1-0.9,0.2c-0.8,0.3-1.4,1-1.6,1.8l-2.1,10
	C165.4,565.6,165.6,566.3,166.1,566.9z"/>
<path class="st2" d="M300.5,557.1h-3.2c-0.3,0-0.5-0.2-0.5-0.5v-1.5c0-0.3,0.2-0.5,0.5-0.5h3.2c0.3,0,0.5,0.2,0.5,0.5v1.5
	C300.9,556.9,300.7,557.1,300.5,557.1z"/>
<path class="st2" d="M292.1,557.1h-3.2c-0.3,0-0.5-0.2-0.5-0.5v-1.5c0-0.3,0.2-0.5,0.5-0.5h3.2c0.3,0,0.5,0.2,0.5,0.5v1.5
	C292.6,556.9,292.3,557.1,292.1,557.1z"/>
<path class="st2" d="M283.7,557.1h-3.2c-0.3,0-0.5-0.2-0.5-0.5v-1.5c0-0.3,0.2-0.5,0.5-0.5h3.2c0.3,0,0.5,0.2,0.5,0.5v1.5
	C284.2,556.9,284,557.1,283.7,557.1z"/>
<path class="st2" d="M275.3,557.1h-3.2c-0.3,0-0.5-0.2-0.5-0.5v-1.5c0-0.3,0.2-0.5,0.5-0.5h3.2c0.3,0,0.5,0.2,0.5,0.5v1.5
	C275.8,556.9,275.6,557.1,275.3,557.1z"/>
<path class="st2" d="M266.9,557.1h-3.2c-0.3,0-0.5-0.2-0.5-0.5v-1.5c0-0.3,0.2-0.5,0.5-0.5h3.2c0.3,0,0.5,0.2,0.5,0.5v1.5
	C267.4,556.9,267.2,557.1,266.9,557.1z"/>
<path class="st2" d="M258.6,557.1h-3.2c-0.3,0-0.5-0.2-0.5-0.5v-1.5c0-0.3,0.2-0.5,0.5-0.5h3.2c0.3,0,0.5,0.2,0.5,0.5v1.5
	C259.1,556.9,258.8,557.1,258.6,557.1z"/>
<path class="st2" d="M250.2,557.1H247c-0.3,0-0.5-0.2-0.5-0.5v-1.5c0-0.3,0.2-0.5,0.5-0.5h3.2c0.3,0,0.5,0.2,0.5,0.5v1.5
	C250.7,556.9,250.5,557.1,250.2,557.1z"/>
<path class="st2" d="M241.8,557.1h-3.2c-0.3,0-0.5-0.2-0.5-0.5v-1.5c0-0.3,0.2-0.5,0.5-0.5h3.2c0.3,0,0.5,0.2,0.5,0.5v1.5
	C242.3,556.9,242.1,557.1,241.8,557.1z"/>
<path class="st2" d="M233.4,557.1h-3.2c-0.3,0-0.5-0.2-0.5-0.5v-1.5c0-0.3,0.2-0.5,0.5-0.5h3.2c0.3,0,0.5,0.2,0.5,0.5v1.5
	C233.9,556.9,233.7,557.1,233.4,557.1z"/>
<path class="st2" d="M225.1,557.1h-3.2c-0.3,0-0.5-0.2-0.5-0.5v-1.5c0-0.3,0.2-0.5,0.5-0.5h3.2c0.3,0,0.5,0.2,0.5,0.5v1.5
	C225.6,556.9,225.3,557.1,225.1,557.1z"/>
<path class="st2" d="M216.7,557.1h-3.2c-0.3,0-0.5-0.2-0.5-0.5v-1.5c0-0.3,0.2-0.5,0.5-0.5h3.2c0.3,0,0.5,0.2,0.5,0.5v1.5
	C217.2,556.9,217,557.1,216.7,557.1z"/>
<path class="st2" d="M208.3,557.1h-3.2c-0.3,0-0.5-0.2-0.5-0.5v-1.5c0-0.3,0.2-0.5,0.5-0.5h3.2c0.3,0,0.5,0.2,0.5,0.5v1.5
	C208.8,556.9,208.6,557.1,208.3,557.1z"/>
<path class="st2" d="M199.9,557.1h-3.2c-0.3,0-0.5-0.2-0.5-0.5v-1.5c0-0.3,0.2-0.5,0.5-0.5h3.2c0.3,0,0.5,0.2,0.5,0.5v1.5
	C200.4,556.9,200.2,557.1,199.9,557.1z"/>
<path class="st2" d="M191.6,557.1h-3.2c-0.3,0-0.5-0.2-0.5-0.5v-1.5c0-0.3,0.2-0.5,0.5-0.5h3.2c0.3,0,0.5,0.2,0.5,0.5v1.5
	C192,556.9,191.8,557.1,191.6,557.1z"/>
<path class="st2" d="M183.2,557.1H180c-0.3,0-0.5-0.2-0.5-0.5v-1.5c0-0.3,0.2-0.5,0.5-0.5h3.2c0.3,0,0.5,0.2,0.5,0.5v1.5
	C183.7,556.9,183.4,557.1,183.2,557.1z"/>
<path class="st2" d="M174.8,557.1h-3.2c-0.3,0-0.5-0.2-0.5-0.5v-1.5c0-0.3,0.2-0.5,0.5-0.5h3.2c0.3,0,0.5,0.2,0.5,0.5v1.5
	C175.3,556.9,175.1,557.1,174.8,557.1z"/>
<path class="st2" d="M300.6,561.3h-3.2c-0.3,0-0.5-0.2-0.5-0.5v-1.5c0-0.3,0.2-0.5,0.5-0.5h3.2c0.3,0,0.5,0.2,0.5,0.5v1.5
	C301,561.1,300.8,561.3,300.6,561.3z"/>
<path class="st2" d="M292.2,561.3H289c-0.3,0-0.5-0.2-0.5-0.5v-1.5c0-0.3,0.2-0.5,0.5-0.5h3.2c0.3,0,0.5,0.2,0.5,0.5v1.5
	C292.7,561.1,292.4,561.3,292.2,561.3z"/>
<path class="st2" d="M283.8,561.3h-3.2c-0.3,0-0.5-0.2-0.5-0.5v-1.5c0-0.3,0.2-0.5,0.5-0.5h3.2c0.3,0,0.5,0.2,0.5,0.5v1.5
	C284.3,561.1,284.1,561.3,283.8,561.3z"/>
<path class="st2" d="M275.4,561.3h-3.2c-0.3,0-0.5-0.2-0.5-0.5v-1.5c0-0.3,0.2-0.5,0.5-0.5h3.2c0.3,0,0.5,0.2,0.5,0.5v1.5
	C275.9,561.1,275.7,561.3,275.4,561.3z"/>
<path class="st2" d="M267,561.3h-3.2c-0.3,0-0.5-0.2-0.5-0.5v-1.5c0-0.3,0.2-0.5,0.5-0.5h3.2c0.3,0,0.5,0.2,0.5,0.5v1.5
	C267.5,561.1,267.3,561.3,267,561.3z"/>
<path class="st2" d="M258.7,561.3h-3.2c-0.3,0-0.5-0.2-0.5-0.5v-1.5c0-0.3,0.2-0.5,0.5-0.5h3.2c0.3,0,0.5,0.2,0.5,0.5v1.5
	C259.2,561.1,258.9,561.3,258.7,561.3z"/>
<path class="st2" d="M250.3,561.3h-3.2c-0.3,0-0.5-0.2-0.5-0.5v-1.5c0-0.3,0.2-0.5,0.5-0.5h3.2c0.3,0,0.5,0.2,0.5,0.5v1.5
	C250.8,561.1,250.6,561.3,250.3,561.3z"/>
<path class="st2" d="M241.9,561.3h-3.2c-0.3,0-0.5-0.2-0.5-0.5v-1.5c0-0.3,0.2-0.5,0.5-0.5h3.2c0.3,0,0.5,0.2,0.5,0.5v1.5
	C242.4,561.1,242.2,561.3,241.9,561.3z"/>
<path class="st2" d="M233.5,561.3h-3.2c-0.3,0-0.5-0.2-0.5-0.5v-1.5c0-0.3,0.2-0.5,0.5-0.5h3.2c0.3,0,0.5,0.2,0.5,0.5v1.5
	C234,561.1,233.8,561.3,233.5,561.3z"/>
<path class="st2" d="M225.2,561.3H222c-0.3,0-0.5-0.2-0.5-0.5v-1.5c0-0.3,0.2-0.5,0.5-0.5h3.2c0.3,0,0.5,0.2,0.5,0.5v1.5
	C225.7,561.1,225.4,561.3,225.2,561.3z"/>
<path class="st2" d="M216.8,561.3h-3.2c-0.3,0-0.5-0.2-0.5-0.5v-1.5c0-0.3,0.2-0.5,0.5-0.5h3.2c0.3,0,0.5,0.2,0.5,0.5v1.5
	C217.3,561.1,217.1,561.3,216.8,561.3z"/>
<path class="st2" d="M208.4,561.3h-3.2c-0.3,0-0.5-0.2-0.5-0.5v-1.5c0-0.3,0.2-0.5,0.5-0.5h3.2c0.3,0,0.5,0.2,0.5,0.5v1.5
	C208.9,561.1,208.7,561.3,208.4,561.3z"/>
<path class="st2" d="M200,561.3h-3.2c-0.3,0-0.5-0.2-0.5-0.5v-1.5c0-0.3,0.2-0.5,0.5-0.5h3.2c0.3,0,0.5,0.2,0.5,0.5v1.5
	C200.5,561.1,200.3,561.3,200,561.3z"/>
<path class="st2" d="M191.7,561.3h-3.2c-0.3,0-0.5-0.2-0.5-0.5v-1.5c0-0.3,0.2-0.5,0.5-0.5h3.2c0.3,0,0.5,0.2,0.5,0.5v1.5
	C192.1,561.1,191.9,561.3,191.7,561.3z"/>
<path class="st2" d="M183.3,561.3h-3.2c-0.3,0-0.5-0.2-0.5-0.5v-1.5c0-0.3,0.2-0.5,0.5-0.5h3.2c0.3,0,0.5,0.2,0.5,0.5v1.5
	C183.8,561.1,183.5,561.3,183.3,561.3z"/>
<path class="st2" d="M174.9,561.3h-3.2c-0.3,0-0.5-0.2-0.5-0.5v-1.5c0-0.3,0.2-0.5,0.5-0.5h3.2c0.3,0,0.5,0.2,0.5,0.5v1.5
	C175.4,561.1,175.2,561.3,174.9,561.3z"/>
<path class="st2" d="M260.3,566.3h-32.5c-0.3,0-0.5-0.2-0.5-0.5v-1.5c0-0.3,0.2-0.5,0.5-0.5h32.5c0.3,0,0.5,0.2,0.5,0.5v1.5
	C260.8,566.1,260.6,566.3,260.3,566.3z"/>
<path class="st2" d="M473,562.3l56.8-49.7c2.7-2.4-2.5,4.7-0.1,7.4c2.4,2.7,11.3,0,8.6,2.4L481.5,572l-14.4,3.3L473,562.3z"/>
<path class="st7" d="M473,562.3l1.4-1.2c1.8,0.9,3.5,2.2,4.8,3.7c1.6,1.8,2.8,4,3.4,6.3l-1,0.9l-11.5,2.6l-2.9,0.7l1.2-2.7
	L473,562.3z"/>
<path class="st2" d="M468.3,572.6c0.9,0.4,1.5,1.1,1.7,2.1l-2.9,0.7L468.3,572.6z"/>
<path class="st6" d="M843.8,403c-5.4,8-13.9,13.6-23.2,16.3c-3.8,1.1-7.6,1.8-11.5,2c-0.5-4.4-1.6-8.7-3.4-12.8
	c0.2,4.3-0.4,8.7-1.8,12.8c-5.9-0.3-11.6-1.9-16.9-4.5c-10.2-5.2-18.1-15.3-19.9-26.7c-2.1-13.3,4-26.4,6.2-39.6
	c2.2-13.3-1.9-30.1-14.9-33.6c-9.9-2.7-8.8-1.5-17,4.6c8.6,12.7-23.1,59-36,55c-7.3-2.3-12-9-13.5-9c-10.2,17.5,9,47-10.3,53.2
	l1.6-1.6c11.7-14.3-12.7-44.7-1-59c3.2-4,6.7-8.8,5.8-13.8c-0.9-4.8-8.6-7.4-10.8-3.4c4-9.2-1.9-21.5-11.8-23.9
	c-8.8-2.1-8.6,0.5-17.4,1.6c-0.6-3.8-1.6-7.5-3.2-11c0.2,3.8-0.3,7.6-1.3,11.2c-3.1-0.1-6.1-1.1-8.5-3.1c-7.2-5.8-5.7-17.9,0.7-24.5
	c6.4-6.6,15.9-9,25-10.5c2.6-18.4,53.3-20.3,60-1.9c2.9-13.7,20-20.8,33.3-16.6c13.3,4.2,22.6,16.7,27.5,29.8
	c4.9,13.1,6.2,27.2,9.2,40.9s8.1,27.6,18.5,36.9c10.4,9.3,27.4,12.4,38.4,3.7C851,384.4,849.2,395,843.8,403z"/>
</svg>
