<?xml version="1.0" encoding="UTF-8"?>
<svg xmlns="http://www.w3.org/2000/svg" version="1.1" viewBox="0 0 545 383.6">
  <defs>
    <style>
      .cls-1 {
        isolation: isolate;
        opacity: .1;
      }

      .cls-2 {
        fill: #2f2e41;
      }

      .cls-3 {
        fill: #3f3d56;
      }

      .cls-4 {
        fill: #ccc;
      }

      .cls-5 {
        fill: #f2f2f2;
      }

      .cls-6 {
        fill: #4051b5;
      }

      .cls-7 {
        fill: #a0616a;
      }
    </style>
  </defs>
  <!-- Generator: Adobe Illustrator 28.6.0, SVG Export Plug-In . SVG Version: 1.2.0 Build 709)  -->
  <g>
    <g id="Layer_1">
      <g id="Layer_1-2" data-name="Layer_1">
        <path class="cls-3" d="M350.3,124.2c9.8-2.2,20.5,5.6,21.9,15.5,1.7,11.9-9.3,21-18.3,26.7-9.8,6.2-20.5,11.7-25.9,22.6-4.7,9.4-5.3,20.8-1.5,30.6,7.4,18.9,28.7,25.4,42.8,38.1,3.4,3.1,6.5,6.6,8.7,10.7,2.9,5.4,4.1,11.5,3.8,17.5-.6,12.4-7.2,23.4-16.3,31.5-9.4,8.3-22.1,12.5-30,22.4-3.4,4.3-6,9.7-5.6,15.2.3,4.8,2.7,9.6,6.7,12.4,1.9,1.4,4.1,2.2,6.5,2.3,1.4.1,1.4-2.1,0-2.2-5.2-.4-9-4.8-10.4-9.5-1.6-5.5.4-11.2,3.6-15.7,3.7-5.2,8.9-8.8,14.2-12.1,5.4-3.3,10.8-6.5,15.7-10.6,9-7.7,15.9-18.2,17.6-30.2.8-6.1.3-12.3-1.8-18.1-1.7-4.6-4.5-8.7-7.8-12.3-6.6-7-15.1-11.9-23.1-17.1-8-5.2-16.2-11.1-20.8-19.7-5.1-9.4-5.2-21.3-.8-31,2.4-5.2,6-9.5,10.4-13,4.8-3.9,10.3-6.8,15.5-10.1,9.1-5.8,18.8-14.2,19.1-25.9.3-9.9-8.1-18.8-17.6-20.4-2.4-.4-4.9-.4-7.3.2-1.4.3-.8,2.5.6,2.2h0Z"/>
        <rect class="cls-5" x="101.5" y="237.3" width="9" height="145.3"/>
        <rect class="cls-5" x="137.4" y="237.3" width="9" height="145.3"/>
        <rect class="cls-5" x="193.4" y="237.3" width="9" height="145.3"/>
        <rect class="cls-5" x="210.4" y="237.3" width="9" height="145.3"/>
        <path class="cls-5" d="M96.8,235.2l-12.2-63.5c-2.2-11.7,5.9-22.8,17.7-24.2l65.4-7.9s9,73.4,9,69.7,89,9.2,55.7,27.7-123.1,13.2-135.5-1.8h-.1Z"/>
        <polygon class="cls-7" points="242.3 343.6 253.4 354.6 268.7 362.5 267.1 376.2 238.1 373.1 234.4 365.7 235.5 359.4 233.4 349.4 242.3 343.6"/>
        <path class="cls-2" d="M265,371l.9-11.6,31.2,14.8s2.4,6.9-5.1,7.9-57.6,1.1-57.6-1.6-1.4-16.1-1.4-16.1l30.4,8.7,1.6-2.1h0Z"/>
        <polygon class="cls-7" points="202.5 312.8 194.5 326.3 190.6 343 177 344.9 172.9 316 179.1 310.6 185.5 310.1 194.7 305.6 202.5 312.8"/>
        <path class="cls-2" d="M181.5,341.5l11.5-2-6.7,33.9s-6,4-8.9-3-15.2-55.6-12.6-56.2,15.3-5.3,15.3-5.3l-1,31.6,2.4,1Z"/>
        <polygon class="cls-7" points="167.8 61.1 166.2 93.4 191.6 93.9 191.6 66.2 167.8 61.1"/>
        <polygon class="cls-1" points="167.8 61.1 166.2 93.4 191.6 93.9 191.6 66.2 167.8 61.1"/>
        <path class="cls-2" d="M125,194.3s-11.6,30.1-3.2,42.3,48.1,19,48.1,19l16.4,15.3,43.3,83.5,25.4-5.8-35.9-85.6s-21.1-34.3-29.1-39.1c-7.9-4.8-22.7-22.6-22.7-22.6l-42.3-7h0Z"/>
        <path class="cls-2" d="M196.9,196.9l16.3,11.5s57.7,15.4,39.2,51.3-46,61.8-46,61.8l-24.3-13.7,39.1-54.9-68.7-41.7,44.4-14.3h0Z"/>
        <path id="uuid-32c083fa-d2b9-413a-9921-933cc214e28e-273" class="cls-7" d="M344.8,153.1c7.6,1.5,13.1,6.7,12.1,11.6-1,4.9-8,7.6-15.6,6-3.1-.6-5.9-1.9-8.4-3.8l-32.3-6.9,2.8-12.8,32.3,6.1c3-.8,6.2-.9,9.2-.2h-.1Z"/>
        <path id="uuid-3df95b4d-9d99-4974-98f2-e22ed77160d1-274" class="cls-7" d="M222.8,235.7c5.6,5.4,7.3,12.7,3.8,16.3s-10.8,2-16.4-3.4c-2.3-2.1-4-4.8-5-7.7l-23.4-23.4,9.3-9.2,23.8,22.6c3,.9,5.7,2.6,7.9,4.8h0Z"/>
        <path class="cls-4" d="M190.3,82h-32.9l-24.2,16.4,2.1,64.5s4.4,16.2-10.6,31.2-5.8,14.3-5.8,14.3l53.4,4.2,32-9.2-11.6-29.1,2.1-9s21.7-15.3,18-31.2c-3.7-15.9-8.5-48.6-8.5-48.6l-14-3.4h0Z"/>
        <path class="cls-4" d="M167.3,176.8l-23.8-78.2s-12.2-4.2-17.4,6.3,1.4,51,1.4,51l27.7,45.7,44.4,33.8,11.1-12.2-43.3-46.5h-.1Z"/>
        <path class="cls-4" d="M267.6,136.5l-63.8-51.1s-12.4,3.4-10.8,15.1,29.9,41.3,29.9,41.3l48.7,22.1,55.7,2.8,2.3-16.3-62-13.9h0Z"/>
        <circle class="cls-7" cx="182.9" cy="54" r="22.2"/>
        <rect class="cls-3" x="342" y="125.6" width="7" height="256"/>
        <polygon class="cls-3" points="343.7 161.2 280.2 109.2 281.8 108 345.3 160 343.7 161.2"/>
        <path class="cls-6" d="M347,130.1h-4c-6.9,0-12.5-5.6-12.5-12.5v-34c0-6.9,5.6-12.5,12.5-12.5h4c6.9,0,12.5,5.6,12.5,12.5v34c0,6.9-5.6,12.5-12.5,12.5Z"/>
        <ellipse class="cls-6" cx="279.5" cy="97.1" rx="18.5" ry="30.5"/>
        <path class="cls-3" d="M346,114.6c-10.7,0-31-1.5-31-7s4.8-4.7,14.3-6l.3,2c-10.3,1.4-12.6,3.4-12.6,4,0,1.7,10.2,5,29,5s29-3.3,29-5-3.5-3-14.4-4.2l.2-2c7.4.8,16.2,2.6,16.2,6.2,0,5.5-20.3,7-31,7Z"/>
        <path class="cls-2" d="M171.5,16.8s-8.9-6.4-16.8,7.4c-5.4,9.5-8.3,27.4-9.5,37.9-.6,4.8,1.9,9.5,6.2,11.7l28,14.2s-10.4-39.5,4-45.5c14.3-5.9,13.8-4.4,13.8-4.4,0,0,11.4,24.7-3.5,35.6l12.4,7.9s8.4-46.5-6.9-55.3c-15.3-8.9-11.9-15.3-27.7-9.4h0Z"/>
      </g>
    </g>
  </g>
</svg>