<?xml version="1.0" encoding="UTF-8"?>
<svg xmlns="http://www.w3.org/2000/svg" version="1.1" viewBox="0 0 938 604">
  <defs>
    <style>
      .cls-1 {
        isolation: isolate;
        opacity: .1;
      }

      .cls-2 {
        fill: none;
        stroke: #3f3d56;
        stroke-miterlimit: 10;
        stroke-width: 5px;
      }

      .cls-3 {
        fill: #3f3d56;
      }

      .cls-4 {
        fill: #ffb9b9;
      }

      .cls-5 {
        fill: #575a89;
      }

      .cls-6 {
        fill: #f2f2f2;
      }

      .cls-7 {
        fill: #4051b5;
      }
    </style>
  </defs>
  <!-- Generator: Adobe Illustrator 28.6.0, SVG Export Plug-In . SVG Version: 1.2.0 Build 709)  -->
  <g>
    <g id="Layer_1">
      <path class="cls-6" d="M680.6,566.7l-4.9-60.6-13.9,64.1s.2,16.2.6,33.9h17.8c.6-20.2.3-37.3.3-37.3Z"/>
      <path class="cls-6" d="M430,588.2c-1.4-5.7-2.3-11.4-2.9-17.2l-1.9-21c-.8-5.7-1.7-10.8-2.5-15.3-6.2-31.8-12.6-33-12.6-33-.3.2-.5.4-.8.7-.8.7-1.5,1.4-2.1,2.2-10.2,13-17.1,46.6-20.8,68.9-2,12.3-3,21.2-3,21.2,0,0,.9,3.8,2.2,9.2h46.6c-.2-5.3-.9-10.6-2.1-15.8Z"/>
      <path class="cls-6" d="M796.2,0H141.8C63.8,0,0,63.8,0,141.8v320.4c0,78,63.8,141.8,141.8,141.8h207.4l-2.7-12.6s-6.9-44.4,0-79.1c2.2-10.9,3.7-21.9,4.6-32.9.9-12.5,2.9-24.9,6.1-37,.2-.7.4-1.4.6-2.1-1.7-.5-2.5-.8-2.1-1.1,1.1-.6,1.7-2.6,2-5,1.8-16.3,5.3-32.5,10.4-48.1-7,4.4-11.6,4.8-14.6,3.1-10.6-2.9-6.2-26.8-6.2-26.8,0,0,6.6-51.7,8.8-70.4,1.3-10.8,17.4-16.9,31.7-20.2,1.5-3.2,2.6-6.5,1.9-9.9,0-.2-.1-.5-.2-.7-1.8-4-5.5-7.4-6.9-11.5-.6-1.1-1-2.3-1.3-3.6-1.2-7.2,5.5-13.4,7.4-20.3-2-1.9-3.4-4.3-4.3-6.9-2.9-6-1.5-13.3,8-18.9,1.9-1.1,3.9-2.1,5.9-3.1.7-.5,1.6-.9,2.4-1.1,6.8-3.1,13.6-6,17.6-12,1-1.5,2-3.3,3.6-4.1.8-.3,1.6-.5,2.5-.6,13-1,24.9,10.2,37.8,8.6,3.9-.5,7.9-2.1,11.7-.9,2.5.8,4.4,2.7,6.1,4.7,9.2,11,13,25.5,10.4,39.5-1.6,8.6-5.6,17.4-2.8,25.6,2.1,6,7.8,11,7.8,17.3,0,5.3-3.7,9.5-7.3,13.6.5.5.9,1,1.4,1.5,8.8,10.1,7.2,18.6,5.9,22.1h0s-4.5,43.8-4.5,43.8l-3.8,29.4s-.9,12.1-9.9,14.7c-2.6,1.2-6,1.5-10.5.2-2.9-.9-5.3-1.8-7.4-2.6,2,6.3,5.3,19,4.8,31.4-.8,17.3,1.5,18.8,1.5,18.8-.1.2-.3.3-.5.5,9.1,20.1,9.2,40.7-.3,61.3-10.7,23.3.8,77.6.8,77.6,0,0,.8,8.5,1.2,17.9h164.3c-2.6-24.9-5.8-49.9-7.1-52.7-2.3-4.6.6-80.3,1.7-106.7-.5-.1-1-.2-1.4-.4-.8-.2-1.5-.5-2.1-.7,0,1.3.1,2.7.4,4,1,2.3-1.4,3.9-5.3,5,2.3,11.2,5.1,32-4.5,36-9.9,4.1-10.1-21.1-9.5-34.2-1.2,0-2.5,0-3.7,0-11.8,0,3.5-137.2,2.8-146.2-.7-9.1,5.6-46,5.6-46,0,0,2.1-7.7,8.4-9.1s36.2-18.8,36.2-18.8c1.7-2.4,3.8-4.4,6.3-5.9v-1c.8-.7,1.6-1.4,2.5-2-.4-6.1-1.2-13.9-1.8-19.2-3.4-3.4-5.6-7.8-6.5-12.5-1.3-1-2.5-2.1-3.6-3.2-2.9-3.3-4.5-7.5-4.7-11.9-.1-4.3.5-8.7,1.9-12.8.4-1.4.9-2.7,1.6-3.9,1-1.4,2.2-2.6,3.6-3.6.4-.3.9-.6,1.3-.9.9-1.8,2.3-3.3,3.9-4.5,3.6-2.3,8.1-2.1,12.4-2,0,0,.1,0,.2,0,.8-.1,1.6-.2,2.4-.3.9-.2,1.7-.9,1.9-1.9.6.6,1.2,1.1,1.7,1.7.9,0,1.7,0,2.6,0,.4-.9.8-1.7,1.3-2.5.3.9.6,1.8.9,2.7.9,0,1.7.2,2.6.4.7-.5,1.4-1.1,2-1.6.2-.1.7,1.6,1,2.2.5.1.9.2,1.4.4.7,0,1.5-.2,2-.2,2.4,0,4.9.5,7,1.7,1.9,1.3,3.4,3.1,4.4,5.1,2.7,4.3,4.4,9.2,5,14.3,1.3,1.8,2.3,3.9,2.8,6.2,1.1,7-5.5,12.8-6.8,19.8-.7,3.7,0,7.8-1.8,11.1-.8,1.3-1.9,2.5-3.2,3.3-.8.6-1.5,1.1-2.4,1.6,0,4.2.5,8.4,1.4,12.5l.9,3.4c1.4,1,2.9,2.2,4.5,3.5,0,0,19.5,8.4,26.5,12.5,6.1,3.7,12.8,4.1,14.8,8.9h.5c0,.1,7,77.4,7.7,90.7s9.1,94.7,7.7,98.2c-.5,1.3-3.8,2.8-7.8,3.9,2.3,10.6,6,33.6-4.1,37.8-10.3,4.3-10-23.2-9.4-35.8-1.4-.1-2.3-.5-2.4-1.1-.1-.6-.5-3.1-1-7-.9.1-1.8.3-2.7.4-.2,0-.4,0-.6,0,8.8,27.8-10.7,101.4-14.5,115.8-2,7.5-4.1,26.2-6,45h86.1c78,0,141.8-63.8,141.8-141.8V141.8C938,63.8,874.2,0,796.2,0Z"/>
      <ellipse class="cls-3" cx="210" cy="169" rx="95" ry="86.4"/>
      <path class="cls-4" d="M366.5,451.5h0s32-22,32-32,22-75,34-46-17,70-17,70c0,0-32,58-51,68s-35,4-35,4v-27l18.3-27.1c4.2-6.2,11.2-9.9,18.7-9.9Z"/>
      <path class="cls-5" d="M275.5,298.3s48,15.2,53,22.2,7-5,21,41,17.5,90.5,17.5,90.5c0,0-34.5,11.5-30.5,56.5s-6,94-6,94h-12.5l-27.5-85,33-129s-46.9-79.3-48-90.2Z"/>
      <circle class="cls-4" cx="259.5" cy="196.5" r="60"/>
      <path class="cls-4" d="M282.5,241.5s-17,56-2,64,32,44,32,44l-26,29h-60l-27-30-11-51,15-12s16-40,16-61,63,17,63,17Z"/>
      <path class="cls-7" d="M287.5,303.5s-12-3-5,9,14,34-11,35-50-12-58-39-11-25-14-24-35,34-35,34l11,62,4,222h146s6-64-4-79,9-53,9-53c0,0,17-26,4-76s-42-91-47-91Z"/>
      <path class="cls-5" d="M206.5,284.5s-15-7-28,5-42,22-42,28,25,177,8,207-35,78-35,78h83.4s13.6-50,27.6-77,13-103,9-126-23-115-23-115Z"/>
      <polygon class="cls-4" points="118.5 549.5 123.4 602.5 177.4 602.5 172.5 536.5 118.5 549.5"/>
      <polygon class="cls-3" points="364.5 521.5 377.5 602.5 666.5 602.5 691.5 439.5 364.5 521.5"/>
      <polygon class="cls-3" points="702.5 428.5 705.5 443.5 331.5 533.5 331.5 520.5 702.5 428.5"/>
      <polygon class="cls-3" points="544.5 455.5 542.5 472.5 564.5 469.5 555.5 452.5 544.5 455.5"/>
      <path class="cls-2" d="M423.5,283.5s44-3,56,31,40,95,51,104,23,33,21,41"/>
      <path class="cls-7" d="M430,283c0,4.7-5,8.5-13,8.5s-12-3.8-12-8.5,4-8.5,12-8.5,13,3.8,13,8.5Z"/>
      <path class="cls-5" d="M356,439s7.5-31.5-6.5-77.5-16-34-21-41-53-22.2-53-22.2c.3,3.6,5.6,14.5,12.6,27.6-1.3-4.7-3.1-9.3-5.6-13.5-7-12,5-9,5-9,5,0,34,41,47,91s-4,76-4,76l25.5-31.5Z"/>
      <path class="cls-5" d="M276,298s5.9,22.5,11,25.7,34.9,34.3,34.9,34.3l-3.9-25.1-16-24-4.3-3.1-21.7-7.9Z"/>
      <path class="cls-1" d="M143,367l1.4-51.5s-32.9,14-35.9,74,5,173,16,174,63-11,63-11c0,0,8-145,5-164s-49.5-21.5-49.5-21.5Z"/>
      <path class="cls-5" d="M145.5,315.5h-8.1s-32.9,14-35.9,74,5,173,16,174,63-11,63-11c0,0,8-145,5-164s-40-73-40-73Z"/>
      <ellipse class="cls-3" cx="188" cy="180.5" rx="62" ry="69.5"/>
      <ellipse class="cls-4" cx="232.5" cy="218.5" rx="12.5" ry="18.5"/>
      <circle class="cls-3" cx="126" cy="111" r="51"/>
      <path class="cls-3" d="M132.6,151.9c-25.1,12.8-55.8,2.8-68.6-22.3-2.9-5.7-4.7-11.9-5.3-18.3-4.2,27.8,14.9,53.9,42.7,58.1,27.8,4.2,53.9-14.9,58.1-42.7.6-4.1.8-8.4.4-12.5-2.5,16.3-12.6,30.3-27.3,37.8Z"/>
      <path class="cls-3" d="M98,119.4c-17.4-22.2-13.4-54.2,8.8-71.6,5-3.9,10.8-6.9,16.9-8.7-28.1,1.2-50,24.9-48.8,53.1,1.2,28.1,24.9,50,53.1,48.8,4.2-.2,8.3-.9,12.4-2.1-16.4.7-32.2-6.6-42.3-19.5Z"/>
      <ellipse class="cls-3" cx="263" cy="150" rx="36" ry="26"/>
    </g>
  </g>
</svg>