<?xml version="1.0" encoding="UTF-8"?>
<svg xmlns="http://www.w3.org/2000/svg" version="1.1" viewBox="0 0 748.8 516">
  <defs>
    <style>
      .cls-1 {
        fill: #2f2e41;
      }

      .cls-2 {
        fill: #e6e6e6;
      }

      .cls-3 {
        fill: #ffb6b6;
      }

      .cls-4 {
        fill: #3f3d56;
      }

      .cls-5 {
        fill: #ffb7b7;
      }

      .cls-6 {
        fill: #f2f2f2;
      }

      .cls-7 {
        fill: #4051b5;
      }
    </style>
  </defs>
  <!-- Generator: Adobe Illustrator 28.7.1, SVG Export Plug-In . SVG Version: 1.2.0 Build 142)  -->
  <g>
    <g id="Layer_1">
      <path class="cls-6" d="M134.5,498.2c-2.1.1-3.2-2.4-1.6-3.9l.2-.6s0,0,0-.1c-2.1-5-9.2-4.9-11.2,0-1.8,4.4-4.2,8.9-4.8,13.5-.3,2.1-.1,4.2.3,6.2-4.3-9.4-6.6-19.7-6.6-30s.1-5.2.4-7.8c.2-2.1.6-4.2,1-6.3,2.3-11.3,7.3-22,14.5-31,3.5-1.9,6.3-4.9,8.1-8.4.6-1.3,1.1-2.7,1.3-4.1-.4,0-1.5-5.9-1.2-6.3-.5-.8-1.5-1.2-2.1-2.1-3-4-7.1-3.3-9.2,2.2-4.6,2.3-4.6,6.1-1.8,9.8,1.8,2.3,2,5.5,3.6,8-.2.2-.3.4-.5.6-3,3.8-5.5,7.9-7.7,12.2.6-4.8-.3-10.5-1.8-14.2-1.7-4.2-5-7.8-7.9-11.4-3.5-4.4-10.6-2.5-11.2,3.1,0,0,0,.1,0,.2.4.2.8.5,1.3.8,2.3,1.5,1.5,5.2-1.2,5.6h0c.2,1.6.4,3.1.8,4.6-3.7,14.3,4.3,19.5,15.7,19.8.3.1.5.3.7.4-1.2,3.3-2.1,6.6-2.8,10-.6,3-1,6-1.3,9-.3,3.8-.3,7.7,0,11.5h0c-.8-4.3-3.1-8.3-6.4-11-4.9-4.1-11.9-5.6-17.3-8.8-2.6-1.6-5.9.5-5.4,3.4h0c.8.5,1.6.8,2.3,1.3.4.2.8.5,1.3.8,2.3,1.5,1.5,5.2-1.2,5.6h0s0,0-.1,0c1.4,3.2,3.3,6.2,5.6,8.8,2.3,12.5,12.3,13.7,22.9,10h0c1.2,5.1,2.9,10,5,14.7h18c0-.2.1-.4.2-.6-1.7.1-3.3,0-5-.3,1.3-1.6,2.7-3.3,4-4.9,0,0,0,0,0,0,.7-.8,1.4-1.7,2-2.5h0c0-2.6-.3-5.1-.9-7.6h0s0,0,0,0Z"/>
      <g>
        <polygon class="cls-5" points="639.1 490 629.3 490.2 623.8 445.9 638.3 445.6 639.1 490"/>
        <path class="cls-1" d="M605.3,510.5h0c0,1.7,1.2,3,2.6,3h19.6s1.9-7.7,9.8-11.1l.5,11.1h10.1l-1.2-17.8s2.7-9.5-2.9-14.4c-5.6-4.9-1.1-4.2-1.1-4.2l-2.2-11-15.3,1.8v17.3c-.1,0-7.5,17.2-7.5,17.2l-10.9,5.4c-1,.5-1.6,1.6-1.6,2.8h0Z"/>
      </g>
      <g>
        <polygon class="cls-5" points="558.8 488.3 549 489.5 539.3 445.9 553.8 444.2 558.8 488.3"/>
        <path class="cls-1" d="M527,512h0c.2,1.7,1.5,2.9,2.9,2.8l19.5-1.8s1.2-7.9,8.7-11.9l1.6,11,10.1-1-2.9-17.6s1.8-9.7-4.3-14.1-1.5-4.1-1.5-4.1l-3.2-10.8-15,3.2,1.5,17.2-5.8,17.8-10.3,6.4c-.9.6-1.4,1.7-1.3,2.9h0Z"/>
      </g>
      <path id="b-5375" class="cls-1" d="M568.8,80.4c-1.1-19.5-1.7-36.6,4-29.3,0-17.3,14-31.3,31.3-31.3s31.3,14,31.3,31.3v23.3c0,2.3-1.9,4.2-4.2,4.2l-58.2,6c-2.3,0-4.2-1.9-4.2-4.2Z"/>
      <circle id="c" class="cls-5" cx="596.4" cy="55.3" r="22.9"/>
      <path id="d-5376" class="cls-1" d="M565.4,52.9c-.3-16.4,10.4-30.5,24.7-24.7h4.7c13.7,0,24.7,11.1,24.7,24.7l-7.7,23.7-2.2-23.3-3.4-9.4-.7,9.4h-5.1c-4.4.1-8.8-.6-12.9-1.9-7.6-2.5-14.9.2-22.2,1.9v-.5Z"/>
      <path id="e-5377" class="cls-7" d="M609.8,181.3l-58.4-2.2c.4-2.1.2-5.2,1.4-5.4-1.7-4.3.7-4.3.8-6.5.4-8.5-1.6-17.3-5.4-26.3-2.5-7-2.6-13-.1-17.8,2.1-4,5.6-7,9.9-8.5l12.8-15.4c3.3-4,8.2-12.7,13.5-12.7l28-1c.8-.5,10.6,8,20.2,12.1,10.4,4.5,8.2,16.8,8.2,17h0c0,.1-.1.2-.1.2l-22.1,18.6-7,39.2c.7,2,.5,3.5-.8,4.4,1.9,1.4.6,2.8-.8,4.3h0s0,0,0,0h0Z"/>
      <path id="f-5378" class="cls-1" d="M551.8,175l-27.5,82.4-11.7,94.5,18.2,111.1,34.3-5.7-16.8-87.3,20.5-87.6,48.6,174.1,28.4.7-19.3-201-15.4-76.9-59.2-4.5h0s0,0,0,0h0Z"/>
      <path id="g-5379" class="cls-2" d="M1.2,516h746.3c.7,0,1.2-.6,1.2-1.2s-.6-1.2-1.2-1.2H1.2c-.7,0-1.2.6-1.2,1.2s.6,1.2,1.2,1.2h0Z"/>
      <path class="cls-4" d="M320.5,304.1h-12.2v-16.2h12.2v16.2ZM309.4,303.1h10.2v-14.2h-10.2v14.2Z"/>
      <path class="cls-4" d="M358.9,304.1h-12.2v-16.2h12.2v16.2ZM347.7,303.1h10.2v-14.2h-10.2v14.2Z"/>
      <path class="cls-4" d="M333.6,82.8c-20.5,0-37.2-16.7-37.2-37.2s16.7-37.2,37.2-37.2,37.2,16.7,37.2,37.2-16.7,37.2-37.2,37.2ZM333.6,9.3c-20,0-36.2,16.3-36.2,36.2s16.3,36.2,36.2,36.2,36.2-16.3,36.2-36.2-16.3-36.2-36.2-36.2Z"/>
      <path id="h-5380" class="cls-1" d="M360.2,23c-2.2,1.2-4.6,1.9-7,2.2-10.2,1.4-20.6.2-30.2-3.4-1.6,4-5.4,6.7-9.5,8s-8.5,1.4-12.7,1.4c-.9.1-1.9,0-2.7-.5-1.9-1.3-1-4.3.1-6.3l5.5-10c1.6-3,3.3-6,5.9-8.2,3.2-2.8,7.4-4.1,11.6-5,9.8-2,20-1.6,29.7,1,10.4,2.7,23.7,12.2,9.5,20.8Z"/>
      <ellipse id="i" class="cls-4" cx="356" cy="45.6" rx="3.2" ry="6"/>
      <ellipse id="j" class="cls-4" cx="341" cy="45.6" rx="3.2" ry="6"/>
      <path class="cls-4" d="M293.3,175.3l-5.7-21c-3.6-26.9.1-45.9,11-56.5,11.2-11,26.3-8.8,26.4-8.8h.6c0,.1-.3.7-.3.7-.1.3-13,28.9-19.3,44.7-6.2,15.6,3.9,39.3,4,39.6l.3.7-17.1.7h0ZM321.6,89.9c-4.9,0-14.6,1.1-22.3,8.7-10.7,10.4-14.3,29.1-10.7,55.6l5.5,20.2,14.9-.6c-1.7-4.1-9.6-25-3.7-39.7,5.8-14.5,17.1-39.8,19-44.1-.6,0-1.5-.1-2.6-.1Z"/>
      <path class="cls-4" d="M373.9,175.3l-17.1-.7.3-.7c.1-.2,10.2-24,4-39.6-6.3-15.7-19.2-44.4-19.3-44.7l-.3-.6h.6c.2-.1,15.2-2.3,26.4,8.7,10.9,10.7,14.6,29.7,11,56.4l-5.7,21.1h0ZM358.3,173.7l14.9.6,5.5-20.2c3.5-26.4,0-45.1-10.7-55.5-9.5-9.3-21.9-8.8-24.9-8.6,1.9,4.3,13.2,29.6,19,44.1,5.9,14.7-2.1,35.6-3.7,39.7Z"/>
      <circle id="k" class="cls-1" cx="302.5" cy="177.4" r="8.8"/>
      <circle id="l" class="cls-1" cx="365.4" cy="177.4" r="8.8"/>
      <path class="cls-1" d="M326.1,310.4h-24.1v-3.2c0-5.8,4.7-10.5,10.5-10.5h3.1c5.8,0,10.5,4.7,10.5,10.5v3.2Z"/>
      <path class="cls-1" d="M365.2,310.4h-24.1v-3.2c0-5.8,4.7-10.5,10.5-10.5h3.1c5.8,0,10.5,4.7,10.5,10.5v3.2Z"/>
      <path id="m-5381" class="cls-4" d="M253.9,345.4h159.5c.1,0,.3-.6.3-1.2s-.1-1.2-.3-1.2h-159.5c-.1,0-.3.6-.3,1.2s.1,1.2.3,1.2Z"/>
      <g>
        <path class="cls-3" d="M601.1,241.7c-2.4,6.1-7.4,9.8-11.3,8.3-3.9-1.5-5.1-7.7-2.7-13.7,1-2.7,2.6-4.9,4.3-6.4l10.3-25.7,11.9,5.1-11.5,24.7c.3,2.3,0,5-1.1,7.6h0Z"/>
        <path class="cls-7" d="M616.1,92.3s26.3,4.8,25,16.8c-1.3,12-20.2,77.9-20.2,77.9l-12.5,42.6-16.2-5.5,12-62.5,12-69.4Z"/>
      </g>
      <path class="cls-3" d="M468.2,129.8c2.3.9,4.1,2.3,5.4,3.8l22.2,7.6-3.9,10.4-22.1-8.8c-2,.2-4.3-.2-6.5-1.1-5.2-2.2-8.3-6.6-6.9-9.9s6.7-4.2,11.9-2.1h0Z"/>
      <path class="cls-7" d="M593.8,100.1h0s-50.6,68.3-50.6,68.3l-59.3-16.3,2.6-15.5,45.2,8.6,25.2-38.7c8.2-15.9,24.4-19.1,37-6.3h0Z"/>
      <path id="n-5382" class="cls-2" d="M444.7,121.8l43.2,20.1c.5.2.7.8.5,1.4-.2.5-.8.7-1.2.5l-43.6-14.9,1.2-7.1h0Z"/>
      <path class="cls-7" d="M445.1,119c3.2,2.7,3.9,7,1.6,9.8-2.3,2.8-4.8,4.4-8,1.8-2.3-1.9-3.1-3.3-4.6-4.3-2.9-1.8-7.1-3.7-5.5-5.5,1.1-1.3,4-2.3,7.1-2.8,3.7-.6,7.7-.4,9.4,1h0Z"/>
      <path class="cls-4" d="M435.8,118c1.5,2.2,1.4,5.1-.4,7.2-.4.4-.8.8-1.2,1.1-2.9-1.8-7.1-3.7-5.5-5.5,1.1-1.3,4-2.3,7.1-2.8h0Z"/>
    </g>
  </g>
</svg>