<?xml version="1.0" encoding="utf-8"?>
<!-- Generator: Adobe Illustrator 27.8.1, SVG Export Plug-In . SVG Version: 6.00 Build 0)  -->
<svg version="1.1" id="Ebene_1" xmlns="http://www.w3.org/2000/svg" xmlns:xlink="http://www.w3.org/1999/xlink" x="0px" y="0px"
	 viewBox="0 0 559.2 582.5" style="enable-background:new 0 0 559.2 582.5;" xml:space="preserve">
<style type="text/css">
	.st0{fill:#F2F2F2;}
	.st1{fill:#FFFFFF;}
	.st2{fill:#6C63FF;}
	.st3{fill:#E4E4E4;}
	.st4{fill:#9E616A;}
	.st5{fill:#CCCCCC;}
	.st6{fill:#2F2E41;}
	.st7{fill:#CACACA;}
	.st8{fill:#6C63FF;stroke:#FFFFFF;stroke-miterlimit:10;}
</style>
<path class="st0" d="M512.9,498.3l-25.6,23.6l20.4-34.2c-16-29.1-42.3-54.2-42.3-54.2s-54.4,52.1-54.4,93.1s24.4,55.3,54.4,55.3
	c30.1,0,54.4-14.3,54.4-55.3C519.7,517.5,517,507.9,512.9,498.3z"/>
<path class="st1" d="M480.7,523.2v2c-0.1,23.5-4.1,41.8-11.8,54.7c-0.1,0.2-0.2,0.4-0.3,0.6l-0.9-0.5l-0.8-0.5
	c8.6-13.9,11.7-33.6,11.8-54.1c0-0.7,0-1.3,0-2c0-8.7-0.6-17.4-1.4-26c-0.1-0.7-0.1-1.3-0.2-2c-1.2-11.2-2.9-22-4.6-31.3
	c-0.1-0.7-0.2-1.3-0.4-2c-3-15.8-6.1-27.2-6.8-29.7c-0.1-0.3-0.1-0.5-0.1-0.5l1-0.3l0,0l1-0.3c0,0,0.2,0.6,0.5,1.7
	c1.1,4,3.8,14.7,6.6,28.9c0.1,0.6,0.2,1.3,0.4,2c1.4,7.6,2.8,16,3.9,24.9c0.3,2.2,0.5,4.4,0.8,6.6c0.1,0.7,0.2,1.3,0.2,2
	C480.1,506.5,480.6,515.2,480.7,523.2z"/>
<path class="st1" d="M474,461.8c-0.7,0.1-1.3,0.2-2,0.2c-1.9,0.2-3.8,0.3-5.6,0.3c-8,0-16-1.8-23.2-5.2c-0.4,0.5-0.8,1.1-1.3,1.6
	c7.6,3.7,16,5.6,24.5,5.6c2,0,4-0.1,6-0.3c0.7-0.1,1.4-0.2,2-0.3c5.5-0.8,10.9-2.4,16-4.8c-0.4-0.6-0.9-1.1-1.3-1.6
	C484.3,459.6,479.2,461.1,474,461.8z"/>
<path class="st1" d="M479,495.3c-0.7,0-1.4,0.1-2.1,0.1c-0.2,0-0.4,0-0.6,0c-17.7,0-34.2-8.6-44.3-23.1c-0.4,0.6-0.8,1.2-1.2,1.8
	c10.5,14.7,27.4,23.3,45.5,23.3c0.3,0,0.6,0,0.8,0c0.7,0,1.4,0,2.1-0.1c10.7-0.5,21-4.2,29.7-10.4c-0.3-0.6-0.6-1.2-1-1.8
	C499.5,491.3,489.4,494.8,479,495.3z"/>
<path class="st1" d="M480.7,523.2c-0.7,0.1-1.4,0.1-2.1,0.1c-0.8,0-1.5,0-2.2,0c-24,0-45.1-15.9-51.9-38.9c-0.5,0.8-0.9,1.6-1.3,2.4
	c7.6,23,29,38.5,53.2,38.5c0.8,0,1.5,0,2.2,0c0.7,0,1.4-0.1,2.1-0.1c14.1-1.1,27.3-7.5,36.9-18c-0.2-0.7-0.5-1.5-0.7-2.2
	C507.6,515.5,494.6,522.1,480.7,523.2z"/>
<path id="f3dd3be3-e3f2-4729-8854-c6cb5bd65852-1616" class="st2" d="M420.7,125.9L142.2,90.4c-0.8-0.1-1.5-0.1-2.3-0.1
	c-0.7,0-1.5,0-2.2,0.1c-0.7,0.1-1.5,0.2-2.2,0.4c-0.7,0.2-1.4,0.4-2.1,0.7c-0.7,0.3-1.3,0.6-2,1c-0.7,0.4-1.3,0.8-1.9,1.2
	c-0.6,0.4-1.2,0.9-1.8,1.5c-0.6,0.5-1.1,1.1-1.7,1.7c-0.5,0.6-1,1.2-1.5,1.9c-0.5,0.7-0.9,1.4-1.3,2.1c-0.4,0.7-0.8,1.5-1.2,2.3
	s-0.7,1.6-1,2.4c-0.3,0.9-0.6,1.7-0.8,2.6s-0.4,1.8-0.6,2.8c-0.2,0.9-0.3,1.9-0.3,2.8s-0.1,1.9-0.1,2.9c0,1,0,2,0.1,2.9
	s0.2,2,0.3,2.9c0.2,1,0.3,1.9,0.6,2.9s0.5,1.9,0.8,2.8c0.3,0.9,0.6,1.8,1,2.6c0.4,0.9,0.7,1.7,1.2,2.5s0.9,1.6,1.3,2.4
	c0.5,0.8,1,1.5,1.5,2.2c0.5,0.7,1.1,1.4,1.7,2c0.6,0.6,1.2,1.2,1.8,1.8s1.2,1.1,1.9,1.6c0.6,0.5,1.3,0.9,2,1.4
	c0.7,0.4,1.4,0.8,2.1,1.1c0.7,0.3,1.4,0.6,2.2,0.9c0.7,0.2,1.5,0.4,2.2,0.6c0.7,0.1,1.5,0.3,2.3,0.3L420.7,168
	c0.8,0.1,1.6,0,2.4-0.2c0.4-0.1,0.8-0.3,1.2-0.4c0.4-0.2,0.8-0.4,1.1-0.6c0.4-0.2,0.7-0.5,1-0.8c0.3-0.3,0.7-0.6,1-1
	c0.3-0.4,0.6-0.7,0.9-1.1c0.3-0.4,0.6-0.8,0.9-1.3c0.3-0.5,0.5-0.9,0.8-1.4c0.2-0.5,0.5-1,0.7-1.5c0.2-0.5,0.4-1.1,0.6-1.7
	c0.2-0.6,0.3-1.2,0.5-1.8c0.2-0.6,0.3-1.3,0.4-1.9s0.2-1.3,0.3-2c0.1-0.7,0.1-1.3,0.2-2c0-0.7,0.1-1.4,0.1-2.1c0-0.7,0-1.4-0.1-2.1
	s-0.1-1.4-0.2-2.1c-0.1-0.7-0.2-1.4-0.3-2c-0.1-0.7-0.3-1.3-0.4-2c-0.1-0.6-0.3-1.3-0.5-1.9c-0.2-0.6-0.4-1.2-0.6-1.8
	c-0.2-0.6-0.4-1.1-0.7-1.7c-0.2-0.5-0.5-1.1-0.8-1.6c-0.3-0.5-0.6-1-0.9-1.5c-0.3-0.5-0.6-0.9-0.9-1.3c-0.3-0.4-0.6-0.8-1-1.2
	c-0.3-0.4-0.7-0.7-1-1c-0.4-0.3-0.7-0.6-1.1-0.9c-0.4-0.2-0.8-0.5-1.2-0.7c-0.4-0.2-0.8-0.3-1.2-0.5
	C421.6,126.1,421.2,126,420.7,125.9"/>
<path id="f1003c66-3f14-4be1-907c-7cdab0d8529f-1617" class="st3" d="M420.7,206.1l-278.6-6.7c-1.5,0-3,0.1-4.5,0.5
	c-0.7,0.2-1.5,0.4-2.2,0.7c-0.7,0.3-1.4,0.6-2.1,0.9c-0.7,0.4-1.4,0.7-2,1.2c-0.7,0.4-1.3,0.9-1.9,1.4c-0.6,0.5-1.2,1.1-1.8,1.6
	c-0.6,0.6-1.1,1.2-1.7,1.9c-0.5,0.7-1,1.3-1.5,2.1s-0.9,1.5-1.3,2.2c-0.4,0.8-0.8,1.6-1.2,2.4c-0.4,0.8-0.7,1.7-1,2.5
	c-0.3,0.9-0.6,1.8-0.8,2.7c-0.2,0.9-0.4,1.9-0.6,2.8c-0.2,0.9-0.3,1.9-0.3,2.9c-0.1,1-0.1,1.9-0.1,2.9c0,1,0,2,0.1,2.9
	c0.1,1,0.2,1.9,0.3,2.9c0.2,0.9,0.3,1.9,0.6,2.8c0.2,0.9,0.5,1.8,0.8,2.7c0.3,0.9,0.6,1.7,1,2.5c0.4,0.8,0.7,1.6,1.2,2.4
	c0.4,0.8,0.9,1.5,1.3,2.2c0.5,0.7,1,1.4,1.5,2c0.5,0.7,1.1,1.3,1.7,1.9c0.6,0.6,1.2,1.1,1.8,1.6c0.6,0.5,1.2,1,1.9,1.4
	c0.6,0.4,1.3,0.8,2,1.2c0.7,0.4,1.4,0.7,2.1,0.9c0.7,0.3,1.4,0.5,2.2,0.6c0.7,0.2,1.5,0.3,2.2,0.4c0.8,0.1,1.5,0.1,2.3,0.1
	l278.6-8.5c0.4,0,0.8-0.1,1.2-0.1c0.4-0.1,0.8-0.2,1.2-0.3c0.4-0.2,0.8-0.3,1.2-0.5c0.4-0.2,0.8-0.5,1.1-0.7c0.4-0.3,0.7-0.6,1-0.9
	c0.3-0.3,0.7-0.7,1-1.1c0.3-0.4,0.6-0.8,0.9-1.2s0.6-0.9,0.9-1.4c0.3-0.5,0.5-1,0.8-1.5s0.5-1.1,0.7-1.6c0.2-0.6,0.4-1.1,0.6-1.7
	c0.2-0.6,0.3-1.2,0.5-1.8c0.2-0.6,0.3-1.3,0.4-1.9c0.1-0.7,0.2-1.3,0.3-2c0.1-0.7,0.1-1.4,0.2-2c0-0.7,0.1-1.4,0.1-2.1
	c0-0.7,0-1.4-0.1-2.1c0-0.7-0.1-1.4-0.2-2c-0.1-0.7-0.2-1.3-0.3-2c-0.1-0.7-0.3-1.3-0.4-1.9c-0.1-0.6-0.3-1.2-0.5-1.8
	s-0.4-1.2-0.6-1.7c-0.2-0.6-0.4-1.1-0.7-1.6c-0.2-0.5-0.5-1-0.8-1.5c-0.3-0.5-0.6-0.9-0.9-1.4c-0.3-0.4-0.6-0.8-0.9-1.2
	c-0.3-0.4-0.6-0.7-1-1.1c-0.3-0.3-0.7-0.6-1-0.9c-0.4-0.3-0.7-0.5-1.1-0.7c-0.4-0.2-0.8-0.4-1.2-0.5c-0.4-0.1-0.8-0.3-1.2-0.3
	C421.6,206.1,421.2,206.1,420.7,206.1"/>
<path id="e5b3fa8a-e15d-46b1-859f-01f7147e98c8-1618" class="st3" d="M420.7,281.2l-278.6,20.4c-0.8,0.1-1.5,0.2-2.3,0.3
	c-0.8,0.2-1.5,0.3-2.2,0.6c-0.7,0.2-1.5,0.5-2.2,0.9c-0.7,0.3-1.4,0.7-2.1,1.1c-0.7,0.4-1.4,0.9-2,1.4c-0.6,0.5-1.3,1-1.9,1.6
	c-0.6,0.6-1.2,1.2-1.8,1.8s-1.1,1.3-1.7,2c-0.5,0.7-1,1.4-1.5,2.2c-0.5,0.8-0.9,1.5-1.3,2.4c-0.4,0.8-0.8,1.6-1.2,2.5
	c-0.4,0.9-0.7,1.7-1,2.6c-0.3,0.9-0.6,1.9-0.8,2.8s-0.4,1.9-0.6,2.9c-0.2,1-0.3,1.9-0.3,2.9c-0.1,1-0.1,2-0.1,2.9c0,1,0,2,0.1,2.9
	s0.2,1.9,0.3,2.8c0.2,0.9,0.3,1.9,0.6,2.8c0.2,0.9,0.5,1.8,0.8,2.6c0.3,0.8,0.6,1.6,1,2.4c0.4,0.8,0.7,1.5,1.2,2.3s0.9,1.4,1.3,2.1
	c0.5,0.7,1,1.3,1.5,1.9c0.5,0.6,1.1,1.2,1.7,1.7c0.6,0.5,1.2,1,1.8,1.5c0.6,0.4,1.2,0.8,1.9,1.2c0.6,0.4,1.3,0.7,2,1
	c0.7,0.3,1.4,0.5,2.1,0.7c0.7,0.2,1.5,0.3,2.2,0.4c0.7,0.1,1.5,0.1,2.2,0.1c0.8,0,1.5-0.1,2.3-0.1l278.6-35.5
	c0.4-0.1,0.8-0.1,1.2-0.3c0.4-0.1,0.8-0.3,1.2-0.5c0.4-0.2,0.8-0.4,1.2-0.7c0.4-0.3,0.8-0.5,1.1-0.9c0.4-0.3,0.7-0.7,1-1
	c0.3-0.4,0.7-0.7,1-1.2c0.3-0.4,0.6-0.8,0.9-1.3c0.3-0.5,0.6-0.9,0.9-1.5c0.3-0.5,0.5-1,0.8-1.6s0.5-1.1,0.7-1.7
	c0.2-0.6,0.4-1.2,0.6-1.8c0.2-0.6,0.3-1.2,0.5-1.9c0.2-0.7,0.3-1.3,0.4-2c0.1-0.7,0.2-1.3,0.3-2c0.1-0.7,0.1-1.4,0.2-2.1
	c0-0.7,0.1-1.4,0.1-2.1c0-0.7,0-1.4-0.1-2.1c0-0.7-0.1-1.4-0.2-2c-0.1-0.7-0.2-1.3-0.3-2s-0.3-1.3-0.4-1.9c-0.1-0.6-0.3-1.2-0.5-1.8
	c-0.2-0.6-0.4-1.1-0.6-1.7c-0.2-0.5-0.4-1-0.7-1.5c-0.2-0.5-0.5-1-0.8-1.4s-0.6-0.9-0.9-1.3c-0.3-0.4-0.6-0.8-0.9-1.1
	c-0.3-0.3-0.6-0.7-1-1c-0.3-0.3-0.7-0.6-1-0.8c-0.4-0.2-0.7-0.4-1.1-0.6c-0.4-0.2-0.8-0.3-1.2-0.4
	C422.4,281.2,421.6,281.1,420.7,281.2"/>
<path id="bafb1f3d-b2ca-45c8-ab7e-ed03dda6d8fc-1619" class="st4" d="M268.9,284.9c4,6.6,12.6,8.7,19.2,4.8c5.5-3.3,8.1-10,6.1-16.2
	l54-110.9l-25.8-15.7l-46.6,117.8c-0.2,0.1-0.4,0.1-0.5,0.2c-0.2,0.1-0.3,0.2-0.5,0.2c-0.2,0.1-0.3,0.2-0.5,0.3s-0.3,0.2-0.5,0.3
	C267,269.7,264.9,278.3,268.9,284.9L268.9,284.9z"/>
<path id="a23fb8c4-4f70-46f7-bb51-5893ecfd1d6a-1620" class="st5" d="M337.9,205.3l-38.4-9.8c0,0,1.3-2.8,3.3-7.5s4.9-11.2,8.1-18.7
	s6.7-15.7,10.2-23.9s6.8-16.3,9.7-23.3s6.1-11.2,9.3-13.6c2.7-2,6.1-2.9,9.4-2.5c2.6,0.4,5.1,1.3,7.3,2.8c1,0.6,2,1.4,2.9,2.2
	l8.9,16.2L337.9,205.3z"/>
<path id="bf4ad07a-caea-45f0-95a0-f5e060234fe8-1621" class="st3" d="M30.9,196.5c-0.9,0.1-1.9,0.2-2.8,0.4
	c-0.9,0.2-1.8,0.4-2.7,0.7c-0.9,0.3-1.8,0.6-2.7,1c-0.9,0.4-1.8,0.8-2.6,1.3c-0.8,0.5-1.6,1-2.4,1.5s-1.6,1.1-2.3,1.8
	c-0.7,0.6-1.5,1.3-2.2,2c-0.7,0.7-1.4,1.5-2,2.3c-0.7,0.8-1.3,1.6-1.9,2.5c-0.6,0.8-1.1,1.7-1.6,2.6c-0.5,0.9-1,1.8-1.4,2.8
	c-0.4,1-0.8,1.9-1.2,2.9c-0.4,1-0.7,2.1-1,3.1c-0.3,1.1-0.5,2.1-0.7,3.2c-0.2,1.1-0.3,2.1-0.4,3.2s-0.1,2.2-0.1,3.3s0,2.2,0.1,3.2
	s0.2,2.1,0.4,3.1c0.2,1,0.4,2,0.7,3c0.3,1,0.6,2,1,2.9c0.4,0.9,0.8,1.8,1.2,2.7c0.4,0.9,0.9,1.7,1.4,2.5c0.5,0.8,1.1,1.6,1.6,2.3
	c0.6,0.7,1.2,1.4,1.9,2.1c0.6,0.7,1.3,1.3,2,1.8c0.7,0.6,1.4,1.1,2.2,1.6c1.5,1,3.1,1.7,4.8,2.3c1.7,0.6,3.5,1,5.3,1.2
	c0.9,0.1,1.8,0.1,2.7,0.1c0.9,0,1.9-0.1,2.8-0.2c0.9-0.1,1.8-0.3,2.8-0.5c0.9-0.2,1.8-0.5,2.7-0.8c0.9-0.3,1.8-0.7,2.6-1.1
	c0.9-0.4,1.7-0.9,2.5-1.4c0.8-0.5,1.6-1,2.3-1.6c0.8-0.6,1.5-1.2,2.2-1.8c0.7-0.6,1.4-1.3,2.1-2c0.7-0.7,1.3-1.5,1.9-2.3
	c0.6-0.8,1.2-1.6,1.7-2.4c0.5-0.8,1.1-1.7,1.5-2.6c0.5-0.9,0.9-1.8,1.3-2.7c0.4-0.9,0.8-1.9,1.1-2.8c0.3-1,0.6-2,0.9-3s0.5-2,0.6-3
	c0.2-1,0.3-2.1,0.4-3.1s0.1-2.1,0.1-3.1c0-1,0-2.1-0.1-3.1s-0.2-2-0.4-3c-0.2-1-0.4-2-0.6-2.9s-0.6-1.9-0.9-2.8
	c-0.3-0.9-0.7-1.8-1.1-2.6c-0.4-0.8-0.8-1.6-1.3-2.4c-0.9-1.6-2-3-3.3-4.3c-0.6-0.7-1.2-1.3-1.9-1.9c-0.7-0.6-1.3-1.1-2.1-1.6
	c-0.7-0.5-1.4-1-2.2-1.4c-0.8-0.4-1.5-0.8-2.3-1.1c-1.7-0.7-3.4-1.2-5.2-1.5c-0.9-0.1-1.8-0.2-2.7-0.3
	C32.7,196.4,31.8,196.4,30.9,196.5"/>
<path id="b68b3c2d-1cd9-4a2b-b264-66241f72f014-1622" class="st3" d="M30.9,309.7c-0.9,0.1-1.9,0.2-2.8,0.4
	c-0.9,0.2-1.8,0.4-2.7,0.7c-0.9,0.3-1.8,0.6-2.7,1c-0.9,0.4-1.8,0.8-2.6,1.3c-0.8,0.5-1.6,1-2.4,1.5c-0.8,0.5-1.6,1.1-2.3,1.8
	c-0.7,0.6-1.5,1.3-2.2,2c-0.7,0.7-1.4,1.5-2,2.3c-0.7,0.8-1.3,1.6-1.9,2.5c-0.6,0.8-1.1,1.7-1.6,2.6c-0.5,0.9-1,1.8-1.4,2.8
	c-0.4,1-0.8,1.9-1.2,2.9c-0.4,1-0.7,2.1-1,3.1c-0.3,1.1-0.5,2.1-0.7,3.2c-0.2,1.1-0.3,2.1-0.4,3.2c-0.1,1.1-0.1,2.2-0.1,3.3
	s0,2.2,0.1,3.2c0.1,1.1,0.2,2.1,0.4,3.1c0.2,1,0.4,2,0.7,3c0.3,1,0.6,2,1,2.9c0.4,0.9,0.8,1.8,1.2,2.7c0.4,0.9,0.9,1.7,1.4,2.5
	c0.5,0.8,1.1,1.6,1.6,2.3c0.6,0.7,1.2,1.4,1.9,2.1c0.6,0.7,1.3,1.3,2,1.8c0.7,0.6,1.4,1.1,2.2,1.6c1.5,1,3.1,1.7,4.8,2.3
	c1.7,0.6,3.5,1,5.3,1.2c0.9,0.1,1.8,0.1,2.7,0.1c0.9,0,1.9-0.1,2.8-0.2c0.9-0.1,1.8-0.3,2.8-0.5c0.9-0.2,1.8-0.5,2.7-0.8
	c0.9-0.3,1.8-0.7,2.6-1.1c0.9-0.4,1.7-0.9,2.5-1.4c0.8-0.5,1.6-1,2.3-1.6c0.8-0.6,1.5-1.2,2.2-1.8c0.7-0.6,1.4-1.3,2.1-2
	c0.7-0.7,1.3-1.5,1.9-2.3c0.6-0.8,1.2-1.6,1.7-2.4c0.5-0.8,1.1-1.7,1.5-2.6c0.5-0.9,0.9-1.8,1.3-2.7c0.4-0.9,0.8-1.9,1.1-2.8
	c0.3-1,0.6-2,0.9-3s0.5-2,0.6-3c0.2-1,0.3-2.1,0.4-3.1c0.1-1,0.1-2.1,0.1-3.1c0-1,0-2.1-0.1-3.1s-0.2-2-0.4-3c-0.2-1-0.4-2-0.6-2.9
	s-0.6-1.9-0.9-2.8c-0.3-0.9-0.7-1.8-1.1-2.6c-0.4-0.8-0.8-1.6-1.3-2.4c-0.9-1.6-2-3-3.3-4.3c-0.6-0.7-1.2-1.3-1.9-1.9
	c-0.7-0.6-1.3-1.1-2.1-1.6c-0.7-0.5-1.4-1-2.2-1.4c-0.8-0.4-1.5-0.8-2.3-1.1c-1.7-0.7-3.4-1.2-5.2-1.5c-0.9-0.1-1.8-0.2-2.7-0.3
	C32.7,309.6,31.8,309.6,30.9,309.7"/>
<path id="a5644fa4-417a-45bc-a470-f5aa82f96b47-1623" class="st2" d="M30.9,73.9c-0.9,0-1.8,0-2.8,0.1c-0.9,0.1-1.8,0.2-2.7,0.4
	c-0.9,0.2-1.8,0.4-2.7,0.7c-0.9,0.3-1.8,0.6-2.6,1c-0.8,0.4-1.6,0.8-2.4,1.3c-0.8,0.5-1.6,1-2.3,1.5c-0.8,0.6-1.5,1.2-2.2,1.8
	c-0.7,0.6-1.4,1.3-2,2.1c-0.7,0.7-1.3,1.5-1.9,2.3c-0.6,0.8-1.1,1.6-1.6,2.5c-0.5,0.9-1,1.7-1.4,2.6c-0.4,0.9-0.8,1.8-1.2,2.8
	c-0.4,1-0.7,2-1,3c-0.3,1-0.5,2.1-0.7,3.1c-0.2,1.1-0.3,2.1-0.4,3.2c-0.1,1.1-0.1,2.2-0.1,3.3c0,1.1,0,2.2,0.1,3.3s0.2,2.1,0.4,3.2
	c0.2,1.1,0.4,2.1,0.7,3.1s0.6,2,1,3c0.4,1,0.8,1.9,1.2,2.8c0.4,0.9,0.9,1.8,1.4,2.6s1.1,1.7,1.6,2.5c0.6,0.8,1.2,1.5,1.9,2.3
	s1.3,1.4,2,2c0.7,0.6,1.4,1.2,2.2,1.8c0.7,0.6,1.5,1.1,2.3,1.5c0.8,0.5,1.6,0.9,2.4,1.3c0.9,0.4,1.7,0.7,2.6,1
	c1.8,0.6,3.6,0.9,5.4,1.1c1.8,0.2,3.7,0.1,5.5-0.2c0.9-0.1,1.8-0.3,2.7-0.5c0.9-0.2,1.8-0.5,2.6-0.8c0.9-0.3,1.7-0.7,2.5-1.1
	c0.8-0.4,1.6-0.9,2.3-1.4c0.8-0.5,1.5-1,2.2-1.6c0.7-0.6,1.4-1.2,2.1-1.8c0.7-0.7,1.3-1.3,1.9-2.1c0.6-0.7,1.2-1.5,1.7-2.3
	c0.5-0.8,1.1-1.6,1.5-2.4c0.5-0.8,0.9-1.7,1.3-2.6c0.4-0.9,0.8-1.8,1.1-2.7c0.3-1,0.6-1.9,0.9-2.9c0.3-1,0.5-2,0.6-3
	c0.2-1,0.3-2,0.4-3.1s0.1-2.1,0.1-3.1c0-1,0-2.1-0.1-3.1c-0.1-1-0.2-2-0.4-3c-0.2-1-0.4-2-0.6-3c-0.3-1-0.6-2-0.9-2.9
	c-0.3-0.9-0.7-1.8-1.1-2.7c-0.4-0.9-0.8-1.7-1.3-2.6c-0.5-0.8-1-1.6-1.5-2.4c-0.5-0.8-1.1-1.5-1.7-2.3c-0.6-0.7-1.2-1.4-1.9-2.1
	s-1.3-1.3-2.1-1.8c-0.7-0.6-1.4-1.1-2.2-1.6c-0.8-0.5-1.5-0.9-2.3-1.4c-0.8-0.4-1.7-0.8-2.5-1.1c-0.9-0.3-1.7-0.6-2.6-0.8
	c-0.9-0.2-1.8-0.4-2.7-0.5C32.7,74,31.8,74,30.9,73.9 M30.9,70.9c4,0.1,8,1.1,11.6,3c3.6,1.9,6.7,4.4,9.3,7.5
	c2.7,3.2,4.8,6.9,6.2,10.9c3,8.5,3,17.8,0,26.3c-1.4,4-3.5,7.7-6.2,10.9c-2.6,3.1-5.7,5.7-9.3,7.6c-3.6,1.9-7.6,2.9-11.6,3.1
	c-4.1,0.1-8.1-0.7-11.8-2.4c-3.7-1.7-7.1-4.2-9.8-7.3c-2.9-3.3-5.2-7-6.7-11.1c-3.3-8.9-3.3-18.7,0-27.6c1.5-4.1,3.8-7.9,6.7-11.2
	c2.7-3.1,6.1-5.6,9.8-7.3C22.8,71.6,26.8,70.8,30.9,70.9L30.9,70.9z"/>
<g id="b65364ff-7d92-487e-8061-939b37583c0d">
	<path id="efb13e16-1633-4e88-9f48-a8cd4f1f0a11-1625" class="st4" d="M376,504.1l-23.5-0.1l7.6,61.3l15.9,0.1V504.1z"/>
	<path id="b5b13dc0-906f-47cb-af24-0252d232cfd5-1626" class="st6" d="M380,580.8l-51.3-0.3v-0.6c0-1.3,0.1-2.6,0.4-3.9
		c0.5-2.5,1.5-5,3-7.1c1.5-2.2,3.4-4.1,5.5-5.5c2.2-1.4,4.6-2.4,7.1-2.9c1.3-0.2,2.6-0.4,3.9-0.4l0,0l31.3,0.2L380,580.8z"/>
</g>
<g id="b7f9c824-5877-4162-b4d5-ccd00fd098dd">
	<path id="a1d436e5-b88b-4a37-a10d-47f639496f81-1627" class="st4" d="M300.8,503.8l-23.4-0.1l7.5,61.3l15.9,0.1V503.8z"/>
	<path id="aa34d611-dd92-4168-ad92-5f109db8b699-1628" class="st6" d="M304.9,580.4l-51.1-0.3v-0.6c0-1.3,0.1-2.6,0.4-3.9
		c0.5-2.5,1.5-5,2.9-7.1c1.5-2.2,3.3-4.1,5.5-5.5c2.2-1.4,4.6-2.4,7.1-2.9c1.3-0.2,2.6-0.4,3.9-0.4l0,0l31.2,0.2L304.9,580.4z"/>
</g>
<path id="a2716e79-bed1-4374-9a2b-fced6059ca2b-1629" class="st6" d="M299.8,253.1L260.5,400l14.4,140.8l31.9,0.9l-6.9-127.1
	l39.8-63.4l8.6,191.4l28.9-2l16.1-164.6c5.5-12.9,9.5-26.3,12-40c1.9-10.8,2.9-21.7,2.8-32.7c0-7.4-0.6-14.7-1.7-22
	c-0.4-2.7-0.9-5.4-1.6-8.1l-11.7-11.9L299.8,253.1z"/>
<path class="st5" d="M352,277.6c-6.6,0-12.8-0.2-18.5-0.6c-5.8-0.4-11.5-1.1-17.1-2.3c-4.8-0.9-9.5-2.4-14-4.4
	c-3.6-1.6-6.7-4-9.1-7.2l-0.3-0.4l10.8-70l11.6-78.7c1.6-10.8,11-18.7,21.9-18.3l36.3,1.1c11.2,0.3,20.1,9.7,19.7,21
	c0,0.2,0,0.4,0,0.6l-4.8,78.3l17.6,77.2l-1.2,0.2c-0.5,0.1-2.4,0.3-5.5,0.7c-4,0.4-8,0.8-12,1.2c-5.7,0.5-11.2,0.9-16.5,1.1
	C364.3,277.5,357.9,277.6,352,277.6z"/>
<path id="ad5d6a80-02ce-46d1-bab9-e92b7dd0c553-1630" class="st6" d="M331.8,81.8C331.8,81.8,331.8,81.8,331.8,81.8
	c-3.2,0-5.8-2.6-5.8-5.8V43.6c0-5.8,1.2-11.5,3.4-16.9c4.4-10.4,12.7-18.8,23.1-23.2c22-9.4,47.5,0.7,56.9,22.7
	c2.3,5.4,3.5,11.2,3.5,17v32.4c0,0.8-0.2,1.6-0.5,2.3c-0.6,1.4-1.7,2.5-3.1,3.1c-0.7,0.3-1.5,0.5-2.3,0.5L331.8,81.8L331.8,81.8z"/>
<path id="b726e025-86c8-4394-a2c8-021cc2286f1b-1631" class="st4" d="M389.1,32.5c8.5,15.5,2.8,34.9-12.7,43.3
	c-7.4,4.1-16.1,5-24.2,2.7c-8.1-2.3-14.9-7.8-19-15.2c-8.5-15.5-2.8-34.9,12.7-43.3c7.4-4,16.1-5,24.2-2.7
	C378.2,19.6,385,25.1,389.1,32.5L389.1,32.5z"/>
<path id="f57fd208-21ef-4a3c-a796-e350b3c4ef74-1632" class="st6" d="M315.7,46.3c0-4.6,0.9-9.1,2.7-13.4c3.5-8.2,10-14.8,18.3-18.4
	c4.2-1.8,8.8-2.8,13.4-2.8l6.5,0c0.1,0,0.1,0,0.2,0c18.9,0,34.2,15.3,34.2,34.2v0.6l-13.7,0.1l-4.7-13.1l-0.9,13.1l-7.1,0l-2.4-6.6
	l-0.5,6.6l-46,0.2L315.7,46.3z"/>
<path id="a4aedf3a-b803-468c-96e6-3db664c8a6b9-1633" class="st4" d="M260.5,114.4c-2.1,0.5-4.1,1.5-5.8,2.8
	c-1.3,1.1-2.5,2.3-3.4,3.8c-1.8,2.9-2.5,6.2-2.2,9.5c0.2,1.7,0.6,3.3,1.4,4.9c3.5,7.4,12.4,10.6,19.8,7.1c0.5-0.3,1.1-0.5,1.6-0.9
	c0.1-0.1,0.3-0.2,0.4-0.3c0.1-0.1,0.3-0.2,0.4-0.3c0.1-0.1,0.2-0.2,0.4-0.3c0.1-0.1,0.2-0.2,0.4-0.3l75.7,26.9
	c4.8,1.7,10.1,0,13.1-4.1l17.9-24.8L358.4,124L347,136.9l-69.3-13.8c-0.1-0.2-0.2-0.4-0.2-0.5s-0.2-0.4-0.3-0.5
	c-0.1-0.2-0.2-0.4-0.3-0.5c-0.1-0.2-0.2-0.3-0.3-0.5C273.3,115.6,266.8,112.9,260.5,114.4z"/>
<path id="f92404ba-5ab9-4b2c-8e33-361dae08dca6-1634" class="st5" d="M348.2,128.8c2.3-2.8,5.4-6.5,8.6-10.1s6.5-7.2,8.9-9.9
	s4.1-4.5,4.1-4.5c5.4-8.2,16.5-10.5,24.7-5c6,4,9,11.1,7.7,18.2c-0.4,2.3-1.3,4.5-2.7,6.5c0,0-2.5,3.2-6.2,8.1s-8.7,11.2-13.7,17.6
	s-10.1,12.7-14,17.4s-6.7,7.7-7.1,7.5L345,133.8C344.6,133.6,346,131.6,348.2,128.8z"/>
<path id="ed7e3964-87ca-4ccc-8578-c3f29353ddd2-1635" class="st6" d="M356.3,80.8c-0.2,1-0.1,2.1,0.2,3.1c0.2,0.5,0.4,1,0.8,1.4
	c0.3,0.4,0.6,0.7,0.9,1c1.1,0.9,2.4,1.4,3.8,1.4c0.1,0,0.2,0,0.3,0c0.1,0,0.2,0,0.3,0c0.1,0,0.2,0,0.3,0c0.1,0,0.2,0,0.3,0l4.9-0.9
	l6.7-14.3v13.1l22.1-4V25.9l-37.1,0.2l0.9,1.1c3,3.6,5,7.9,5.8,12.6c0.7,4.7,0.6,9.5-0.3,14.2c-0.9,4.7-2.2,9.3-4,13.8
	c-1.5,4-3.3,7.8-5.3,11.6C356.6,79.8,356.5,80.3,356.3,80.8z"/>
<path class="st7" d="M99.3,582.5H558c0.7,0,1.2-0.5,1.2-1.2c0-0.7-0.5-1.2-1.2-1.2H99.3c-0.7,0-1.2,0.5-1.2,1.2
	C98.1,582,98.7,582.5,99.3,582.5C99.3,582.5,99.3,582.5,99.3,582.5z"/>
<path class="st8" d="M19.7,130.6c-1.1-0.1-2.1-0.6-3-1.5c-1.8-1.7-2.6-4.7-1.9-7.3l2.5-9.5c0.4-1.4,0-3-1-3.9l-6.6-6.7
	c-2.3-2.3-2.8-6.4-1.2-9.2c1-1.6,2.5-2.4,4.1-2.2l8.1,0.9c1.2,0.1,2.2-0.7,2.6-2.1l2.4-9.4c0.8-3.3,3.7-4.8,6.3-3.4
	c1.5,0.8,2.7,2.5,3.2,4.5l2.4,9.9C38,92,39,93,40.1,93.2l7.7,0.8c2.6,0.3,4.8,3.3,4.8,6.7c0,2-0.7,3.8-2,4.9l-6.2,5.3
	c-0.9,0.8-1.3,2.3-0.9,3.7l2.4,9.7c0.8,3.3-0.6,6.8-3.1,7.7c-1.5,0.5-3.1,0.1-4.4-1.2l-6.3-6.4c-0.9-0.9-2.2-1-3.1-0.2l-6.4,5.5
	C21.8,130.3,20.7,130.6,19.7,130.6z M29.7,78.7 M35.5,91.2 M18.8,127.3"/>
</svg>
