<?xml version="1.0" encoding="utf-8"?>
<!-- Generator: Adobe Illustrator 28.0.0, SVG Export Plug-In . SVG Version: 6.00 Build 0)  -->
<svg version="1.1" id="Ebene_1" xmlns="http://www.w3.org/2000/svg" xmlns:xlink="http://www.w3.org/1999/xlink" x="0px" y="0px"
	 viewBox="0 0 801.2 614.3" style="enable-background:new 0 0 801.2 614.3;" xml:space="preserve">
<style type="text/css">
	.st0{fill:#F2F2F2;}
	.st1{fill:#FFFFFF;}
	.st2{fill:#E6E6E6;}
	.st3{fill:#E4E4E4;}
	.st4{fill:#4051B5;}
	.st5{fill:#F0F0F0;}
	.st6{fill:#FFB6B6;}
	.st7{fill:#2F2E41;}
	.st8{opacity:0.1;enable-background:new    ;}
	.st9{fill:#CACACA;}
</style>
<path class="st0" d="M543.8,612.3c-0.8,0.7-1.6,1.3-2.4,2h-98.9c-0.6-0.6-1.1-1.3-1.7-2c-4.6-5.5-8.6-11.4-12-17.6
	c-8.1-14.6-10.9-33.8-10.9-53.3c0-1.2,0-2.4,0-3.6c0.1-5.5,0.4-11,0.8-16.4c0.1-0.9,0.2-1.9,0.3-2.8c0.7-7.7,1.8-15.3,2.9-22.3
	c0.1-0.9,0.3-1.8,0.5-2.7c2.4-14,5.6-27.8,9.6-41.4c0,0,0.1,0,0.4,0.1c0.7,0.2,2.5,0.7,5.1,1.5c7.1,2.1,20.4,6.3,35.8,12.7
	c0.8,0.3,1.7,0.7,2.5,1.1c13,5.4,25.6,11.7,37.6,18.9c0.7,0.5,1.5,0.9,2.2,1.4v0.1l-1.6,52.4l14.5-43.7c3,2.2,5.8,4.6,8.5,7
	c0.7,0.7,1.5,1.3,2.2,2c6.1,5.6,11.3,12.1,15.5,19.3C576.2,563.9,567.1,592.6,543.8,612.3z"/>
<path class="st1" d="M529.8,614.3h-2.6c0-0.6,0-1.3-0.1-2c-1.1-19.7-9.5-41.5-21-62.5c-0.4-0.8-0.8-1.5-1.3-2.3
	c-5.6-10-11.8-19.8-18.3-29.1c-0.5-0.7-1-1.5-1.5-2.2c-8.6-12.2-17.4-23.5-25.4-33.2c-0.6-0.7-1.1-1.4-1.7-2
	c-11.9-14.2-21.6-24.6-25.6-28.6c-0.6-0.6-1-1.1-1.3-1.4c-0.3-0.3-0.5-0.5-0.5-0.5l0.9-0.9l0,0l0.9-0.9c0,0,0.6,0.6,1.6,1.6
	c0.8,0.9,2,2.1,3.4,3.6c5,5.3,13.2,14.2,22.7,25.6c0.6,0.7,1.1,1.3,1.7,2c6.5,7.8,13.5,16.7,20.5,26.3c1.8,2.4,3.5,4.8,5.1,7.1
	c0.5,0.7,1,1.4,1.5,2.2c7,10.1,13,19.7,18.2,29l1.3,2.3c13.3,24.2,20.4,45.6,21.3,64C529.8,613,529.8,613.6,529.8,614.3z"/>
<path class="st1" d="M474.6,464.5c-0.5,0.6-0.9,1.3-1.4,1.9c-3.8,4.9-8.2,9.2-13.1,12.9c-0.7,0.5-1.4,1.1-2.2,1.6
	c-2,1.4-4.2,2.7-6.3,3.9c-9,5-18.9,8-29.2,8.8c-0.3,0-0.7,0.1-1,0.1c-0.1,0.9-0.3,1.8-0.4,2.7c0.3,0,0.7,0,1-0.1
	c10.8-0.7,21.4-3.8,30.9-9.1c2.3-1.3,4.6-2.7,6.8-4.2c0.7-0.5,1.5-1.1,2.2-1.6c5.2-4,9.9-8.7,13.9-13.9c0.5-0.6,0.9-1.3,1.4-1.9
	C476.3,465.2,475.4,464.9,474.6,464.5z"/>
<path class="st1" d="M514.2,484.5c-0.3,0.6-0.6,1.2-0.9,1.9c-5.9,11.7-14.8,21.5-26,28.4c-0.8,0.5-1.6,1-2.4,1.4
	c-0.2,0.1-0.5,0.3-0.7,0.4c-20.1,11.2-44.5,11.9-65.3,2c-0.2-0.1-0.5-0.2-0.7-0.3c-0.1,0.9-0.2,1.9-0.2,2.8c0.2,0.1,0.5,0.2,0.7,0.3
	c21.4,9.9,46.2,8.9,66.8-2.5c0.3-0.2,0.6-0.4,1-0.6c0.8-0.5,1.6-0.9,2.4-1.4c11.4-7.1,20.6-17.2,26.7-29.1c0.3-0.6,0.6-1.2,0.9-1.9
	C515.7,485.5,515,485,514.2,484.5z"/>
<path class="st1" d="M537.3,501.7c-0.1,0.6-0.3,1.3-0.4,1.9c-4.2,17.4-14.8,32.5-29.7,42.4c-0.8,0.5-1.6,1-2.3,1.5
	c-0.8,0.5-1.7,1-2.6,1.5c-27.5,15.2-61.7,10.7-84.3-11.2c-0.2-0.2-0.4-0.4-0.6-0.5c0,1.2,0,2.4,0,3.7c0.2,0.2,0.3,0.3,0.5,0.5
	c23.5,21.3,57.9,25.3,85.6,9.9c0.9-0.5,1.7-1,2.6-1.5c0.8-0.5,1.6-1,2.4-1.5c15.1-10,26-25.2,30.6-42.7c0.2-0.6,0.3-1.2,0.5-1.8
	C538.8,503.1,538.1,502.4,537.3,501.7z"/>
<path class="st1" d="M468.4,367.8H0V16.4h468.4V367.8z"/>
<circle class="st2" cx="113.5" cy="71.1" r="18.6"/>
<path class="st2" d="M156.5,58.7c-1.7,0-3.1,1.4-3.1,3.1c0,1.7,1.4,3.1,3.1,3.1h226.9c1.7,0,3.1-1.4,3.1-3.1c0-1.7-1.4-3.1-3.1-3.1
	H156.5z"/>
<path class="st2" d="M156.5,77.3c-1.7,0-3.1,1.4-3.1,3.1c0,1.7,1.4,3.1,3.1,3.1l0,0H300c1.7,0,3.1-1.4,3.1-3.1
	c0-1.7-1.4-3.1-3.1-3.1c0,0,0,0,0,0H156.5z"/>
<path class="st2" d="M468.4,367.8H0V16.4h468.4V367.8z M5.2,362.5h457.9V21.6H5.2L5.2,362.5z"/>
<path class="st3" d="M26.2,123.6v209h416v-209H26.2z M440.2,175.3H338.7v-49.8h101.5V175.3z M235.2,175.3v-49.8h101.5v49.8H235.2z
	 M336.7,177.3v49.8H235.2v-49.8H336.7z M233.2,175.3H131.7v-49.8h101.5V175.3z M233.2,177.3v49.8H131.7v-49.8H233.2z M129.7,227.1
	H28.2v-49.8h101.5V227.1z M129.7,229.1v49.8H28.2v-49.8H129.7z M131.7,229.1h101.5v49.8H131.7V229.1z M233.2,280.8v49.8H131.7v-49.8
	H233.2z M235.2,280.8h101.5v49.8H235.2V280.8z M235.2,278.8v-49.8h101.5v49.8H235.2z M338.7,229.1h101.5v49.8H338.7V229.1z
	 M338.7,227.1v-49.8h101.5v49.8H338.7z M129.7,125.6v49.8H28.2v-49.8H129.7z M28.2,280.8h101.5v49.8H28.2V280.8z M338.7,330.6v-49.8
	h101.5v49.8H338.7z"/>
<path class="st4" d="M196.9,179.8l-41.4-0.9c-4.1-16-2.3-31.3,1-45.4l41.4,0.9C193.8,149.2,193.4,164.8,196.9,179.8z"/>
<polygon class="st1" points="163.7,143.5 163.7,141.9 185.1,142.7 185.1,144.3 "/>
<polygon class="st1" points="163.6,149.8 163.6,148.2 185.1,149 185,150.6 "/>
<polygon class="st1" points="163.5,156.1 163.5,154.5 185,155.3 184.9,156.9 "/>
<polygon class="st1" points="163.4,162.4 163.4,160.8 184.9,161.6 184.8,163.2 "/>
<polygon class="st1" points="163.3,168.7 163.3,167.1 184.8,167.9 184.8,169.5 "/>
<path class="st5" d="M106.9,295.8l-41.4-0.9c-4.1-16-2.3-31.3,1-45.4l41.4,0.9C103.8,265.2,103.4,280.8,106.9,295.8z"/>
<polygon class="st1" points="73.7,259.5 73.7,257.9 95.1,258.7 95.1,260.3 "/>
<polygon class="st1" points="73.6,265.8 73.6,264.2 95.1,265 95,266.6 "/>
<polygon class="st1" points="73.5,272.1 73.5,270.5 95,271.3 94.9,272.9 "/>
<polygon class="st1" points="73.4,278.4 73.4,276.8 94.9,277.6 94.8,279.2 "/>
<polygon class="st1" points="73.3,284.7 73.3,283.1 94.8,283.9 94.8,285.5 "/>
<path class="st5" d="M322.9,242.8l-41.4-0.9c-4.1-16-2.3-31.3,1-45.4l41.4,0.9C319.8,212.2,319.4,227.8,322.9,242.8z"/>
<polygon class="st1" points="289.7,206.5 289.7,204.9 311.1,205.7 311.1,207.3 "/>
<polygon class="st1" points="289.6,212.8 289.6,211.2 311.1,212 311,213.6 "/>
<polygon class="st1" points="289.5,219.1 289.5,217.5 311,218.3 310.9,219.9 "/>
<polygon class="st1" points="289.4,225.4 289.4,223.8 310.9,224.6 310.8,226.2 "/>
<polygon class="st1" points="289.3,231.7 289.3,230.1 310.8,230.9 310.8,232.5 "/>
<path class="st4" d="M304.9,232.8l-41.4-0.9c-4.1-16-2.3-31.3,1-45.4l41.4,0.9C301.8,202.2,301.4,217.8,304.9,232.8z"/>
<polygon class="st1" points="271.7,196.5 271.7,194.9 293.1,195.7 293.1,197.3 "/>
<polygon class="st1" points="271.6,202.8 271.6,201.2 293.1,202 293,203.6 "/>
<polygon class="st1" points="271.5,209.1 271.5,207.5 293,208.3 292.9,209.9 "/>
<polygon class="st1" points="271.4,215.4 271.4,213.8 292.9,214.6 292.8,216.2 "/>
<polygon class="st1" points="271.3,221.7 271.3,220.1 292.8,220.9 292.8,222.5 "/>
<path class="st4" d="M457.6,324.1l-41.4-0.9c-4.1-16-2.3-31.3,1-45.4l41.4,0.9C454.5,293.5,454.1,309.2,457.6,324.1z"/>
<polygon class="st1" points="424.3,287.8 424.4,286.3 445.8,287 445.8,288.6 "/>
<polygon class="st1" points="424.3,294.1 424.3,292.6 445.7,293.3 445.7,294.9 "/>
<polygon class="st1" points="424.2,300.4 424.2,298.9 445.6,299.6 445.6,301.2 "/>
<polygon class="st1" points="424.1,306.7 424.1,305.2 445.5,305.9 445.5,307.5 "/>
<polygon class="st1" points="424,313 424,311.5 445.4,312.2 445.4,313.8 "/>
<path class="st5" d="M412.9,187.8l-41.4-0.9c-4.1-16-2.3-31.3,1-45.4l41.4,0.9C409.8,157.2,409.4,172.8,412.9,187.8z"/>
<polygon class="st1" points="379.7,151.5 379.7,149.9 401.1,150.7 401.1,152.3 "/>
<polygon class="st1" points="379.6,157.8 379.6,156.2 401.1,157 401,158.6 "/>
<polygon class="st1" points="379.5,164.1 379.5,162.5 401,163.3 400.9,164.9 "/>
<polygon class="st1" points="379.4,170.4 379.4,168.8 400.9,169.6 400.8,171.2 "/>
<polygon class="st1" points="379.3,176.7 379.3,175.1 400.8,175.9 400.8,177.5 "/>
<path class="st6" d="M455.4,290.7c5.4-1.3,8.7-6.8,7.4-12.2c-0.1-0.6-0.3-1.1-0.6-1.7l26.1-24.4l-18.1-4.3l-22,23.8
	c-4.9,2.6-6.8,8.7-4.2,13.7C446.1,289.7,450.9,291.8,455.4,290.7L455.4,290.7z"/>
<path class="st3" d="M468.9,271l-12.2-17.2l45.7-47.3L513,132c2-13.9,14.8-23.5,28.7-21.5c1.5,0.2,3.1,0.6,4.5,1.1l0,0
	c13.3,4.5,20.4,18.9,15.9,32.1l-27.1,80.4L468.9,271z"/>
<polygon class="st6" points="554.7,588.6 541.2,588.6 534.8,536.5 554.7,536.5 "/>
<path class="st7" d="M562,614.3h-9.6l-1.7-9.1l-4.4,9.1h-25.4c-3.2,0-5.7-2.6-5.7-5.7c0-1.9,0.9-3.6,2.5-4.7l20.3-14v-9.2l21.4,1.3
	L562,614.3z"/>
<polygon class="st6" points="638.1,574.9 626.2,581.3 595.6,538.6 613.2,529.1 "/>
<path class="st7" d="M656.7,593.9l-8.4,4.6l-5.8-7.1l0.5,10l-22.3,12.2c-2.8,1.5-6.2,0.5-7.8-2.3c-0.9-1.6-0.9-3.6-0.1-5.3l11.1-22
	l-4.4-8l19.4-9.1L656.7,593.9z"/>
<path class="st7" d="M560.4,570.1h-27.9v-99.4l-17.3-64.8c-12.4-46.4-15.7-94.7-9.7-142.3l0-0.2l0.2-0.1c0.4-0.4,44.7-37,72.7-9
	c18.9,18.9,1.1,86.7,0.1,90.4v116.9L560.4,570.1z"/>
<path class="st3" d="M497,281.6l9-90c-1.2-2.5-18-18-0.4-45.3l19-44.6l35.6-0.6l0.1,0.1c17,17,24.4,41.3,19.6,64.9l-10.5,52.4
	l9.1,36.4L497,281.6z"/>
<polygon class="st7" points="543.7,471.1 601.1,551.8 623.1,536.2 575.2,437.7 "/>
<circle class="st6" cx="539.1" cy="59.7" r="32.9"/>
<polygon class="st8" points="531,178.6 540,232.6 531,277.6 513,277.6 521.2,232.6 "/>
<path class="st6" d="M539.6,323.9c4.1-3.7,4.5-10.1,0.8-14.2c-0.4-0.4-0.8-0.8-1.3-1.2l11.5-33.8l-18,4.7l-8.2,31.4
	c-3.1,4.6-1.9,10.9,2.7,14C530.9,327.4,536.1,327.1,539.6,323.9z"/>
<path class="st3" d="M542.2,300.2l-18.8-9.4l18.1-63.2l-25.7-70.8c-4.8-13.2,2-27.7,15.2-32.5c1.5-0.5,3-0.9,4.5-1.2l0,0
	c13.8-2.3,26.9,7,29.2,20.8l13.9,83.6L542.2,300.2z"/>
<path class="st9" d="M801.2,613.1c0,0.7-0.5,1.2-1.2,1.2c0,0,0,0,0,0H152.7c-0.7,0-1.2-0.5-1.2-1.2s0.5-1.2,1.2-1.2l0,0H800
	C800.7,611.9,801.2,612.4,801.2,613.1z"/>
<path class="st7" d="M666.9,58.1c-4.1,6.7-12.9,9.7-20.7,8.4c-7.8-1.3-14.6-6.4-19.6-12.5c-5-6.1-8.5-13.3-11.9-20.5
	c-3.4-7.1-6.8-14.4-11.8-20.5c-5-6.1-11.7-11.2-19.5-12.6c-4.2-0.8-9-0.3-12.1,2.7c-2.1,2.2-3.3,5.2-3.2,8.3
	c-4.5-1.6-9.5,0.8-11.1,5.3c-0.4,1.1-0.5,2.2-0.5,3.3c-0.1,0-0.2,0-0.3,0c-14.5-8.2-36.5-3.5-36.5,5.5c-8,0-17.7,7.9-17.7,19.8v0
	c16.4,0,26.1,21.1,16.5,36.2c-2.5,3.9-5.2,7.5-8.2,11h20.6c1.7-2.5,2.8-5.4,3-8.4c0.8,2.7,1.2,5.5,1.3,8.4c0,0,56.2,7.2,41.7-48.8
	c1,0,1.9-0.3,2.7-0.8c2.2-1.3,3.4-4.1,3.6-6.9c0.5,0.1,1.1,0.3,1.6,0.4c3.9,1,7.9,2.4,10.5,5.4c4.5,5.1,3.5,12.8,5.2,19.3
	c2,7.9,7.8,14.3,14.4,19.2c7,5.3,15.2,9.3,23.9,10.1c8.7,0.8,18-1.8,24.1-8.2S671.1,65.8,666.9,58.1z"/>
</svg>
