<?xml version="1.0" encoding="UTF-8"?>
<svg xmlns="http://www.w3.org/2000/svg" version="1.1" viewBox="0 0 727.5 721.3">
  <defs>
    <style>
      .cls-1 {
        fill: #2f2e41;
      }

      .cls-2 {
        fill: #ffb6b6;
      }

      .cls-3 {
        fill: #3f3d56;
      }

      .cls-4 {
        fill: #ccc;
      }

      .cls-5 {
        fill: #fff;
      }

      .cls-6 {
        fill: #f2f2f2;
      }

      .cls-7 {
        fill: #4051b5;
      }

      .cls-8 {
        fill: #cacaca;
      }
    </style>
  </defs>
  <!-- Generator: Adobe Illustrator 28.7.1, SVG Export Plug-In . SVG Version: 1.2.0 Build 142)  -->
  <g>
    <g id="Layer_1">
      <path class="cls-5" d="M227.6,37.2v455.8h294.7V26.1c-95.3-38.4-202.5-34.4-294.7,11Z"/>
      <path class="cls-6" d="M198.6,56.1v438.2h100.2l-1.8-24.8-9.9-271.5h198.4l-9.9,271.5-1.8,24.8h101.3V64c-1.9-1.4-3.7-2.7-5.6-4.1-.4-.3,1.3-7.5.9-7.8-21.8-15.2-45.4-27.8-70.2-37.3l-7.3,80.7h-34.4V9.5c-2.2-.6-4.5-1.1-6.8-1.6h0c0,48.4-39.2,87.6-87.6,87.6h-42.2V5.7c-2.3.4-4.5.8-6.7,1.3v88.6h-35.5l-5.6-77.3c-24.2,8.4-47.3,19.6-68.8,33.4-.7.5-1.5,1-2.2,1.4-1.5,1-3,2-4.5,3ZM458.6,102.3h33.9l-5.3,73.1h-28.6v-73.1ZM322.1,102.3h129.8v73.1h-50.3v-1.4c0-2.9-2.4-5.3-5.3-5.3h-20.9c-2.9,0-5.3,2.4-5.3,5.3h0v1.5h-48v-73.1ZM285.6,175.4l-5.3-73.1h35v73.1h-29.7Z"/>
      <path class="cls-4" d="M47.1,481.2s0,0,0,0c0,.2.1.3.2.5h0c2.9,8.2,6.1,16.3,9.6,24.2l660.7-.7c3.5-8.1,6.8-16.3,9.8-24.7,0,0,0,0,0,0l-680.3.7Z"/>
      <path class="cls-2" d="M295.2,356.2c-2,8.3-10.3,13.4-18.6,11.4-.9-.2-1.7-.5-2.6-.9l-37.2,40.3-6.8-27.7,36.4-34c3.9-7.6,13.3-10.6,20.9-6.6,6.4,3.3,9.6,10.5,7.9,17.5h0Z"/>
      <path class="cls-7" d="M252.9,391.9l-50.6,56.8h-.4c-.2-.1-4-.8-10.1-1.9-22-4-73.3-13.6-86-18.1-7.3-2.5-13.9-6.8-19.1-12.5,1.3-7.2,2.7-12.6,4.1-15.2,1-1.9.8-4.4.9-7.2,3.3-2.3,7.2-3.7,11.3-4,25.3-1.8,50.7,2.2,74.2,11.9l13.3,5.5.5-.4,45.1-33.1.3-.2,15.5,17.3,1,1.1Z"/>
      <path class="cls-2" d="M358.5,720.2c-.7,0-1.3-.1-2-.2-8.5-.7-16.9-1.7-25.2-3l-9.1-21.3-4.4-10.2,16.5-7.1,10.7-4.6,5.1,17.5,2.1,7.3,5,17.2,1.3,4.3Z"/>
      <path class="cls-8" d="M173.3,621.3v29.9c5,3.7,10.1,7.3,15.3,10.7v-40.6h-15.3Z"/>
      <path class="cls-3" d="M119.5,602.3c4.3,4.8,8.7,9.4,13.3,14,10.7,10.7,22.2,20.7,34.2,30h68.4c3.7,0,7.2-1.6,9.6-4.3h0c1.4-1.6,2.4-3.6,2.9-5.7h0c.2-.9.3-1.8.3-2.8v-18.4c0-7.1-5.7-12.8-12.8-12.8h-115.8Z"/>
      <path class="cls-1" d="M91.3,530.6l7.4,31.7c-.7,4.6-1,9.3-.7,13.9,3.5,4.7,7.1,9.3,10.9,13.9,3.4,4.2,7,8.3,10.6,12.3,4.3,4.8,8.7,9.4,13.3,14,11.9,3.7,25.9,5.3,40.6,5.4,5.1,0,10.2,0,15.3-.4,20.9-1.1,9.4-4.4,26.7-7.9,4.6-.9,8.9-1.8,12.8-2.7,7.5-1.7,13.8-3.3,18.3-4.5,5.1-1.3,23.6-10.6,23.6-10.6l14.6,31.7,12.9,30,16.9,37.9c2.2.2,4.4.4,6.5.5,2.3.2,4.6.3,6.9.4,1.8,0,3.7.2,5.5.2l.6.2.5-.2,8.3-2.6,2.8-.9,10-3.2s-2.2-7-6.2-18.8c-1.4-4.3-11.6-36.2-22.3-64-3.2-8.3-6.4-16.6-9.8-25-2.8-6.8-5.6-13.7-8.4-20.4-4.9-11.7-28.8-17.9-57-21.2-1.4-.2-2.9-.3-4.3-.5-14.3-1.5-29.5-2.3-43.8-2.6-7.1-.2,18.6-.2,12.2-.3-2.1,0-4.1,0-6,0h0c-5.3,0-10.1.1-14.4.2-.8,0-1.6,0-2.4,0h0c-.5,0-1.1,0-1.6,0-9.3.2-15.1.5-15.1.5l-2.2-17.4-.5-3.5-.4-3.3h0s0-.4,0-.4h-.4s-6.2-.1-6.2-.1l-51.8-1-22.1-.9-1.7,19.6Z"/>
      <path class="cls-1" d="M259.9,594.8c-6.2,10.7-11.1,30.9-17.5,40.9-12.3,19.2-19.5,29.7-28,41.6-8.8-4.8-17.3-9.9-25.7-15.5-4.4-2.9-8.8-6-13.1-9.1l5.1-11.6,2.9-5.7,13-25.6,14.6-28.7,5.1,2.4,43.6,11.3Z"/>
      <path class="cls-4" d="M698.1,448.1c1-2.9-.6-5.9-3.5-6.9-.2,0-.5-.1-.7-.2-.3,0-.6,0-.9-.1l-34.9-.9c-1.6,0-3.1.6-4.2,1.8-.5-.1-1-.2-1.5-.2-4.6-.1-8.4,3.5-8.5,8.1s3.5,8.4,8.1,8.5c0,0,0,0,0,0,1.3,0,2.5-.2,3.6-.7l3.2,34.3c.6,2.3,2.7,3.9,5.1,4l22.7.6c2.4,0,4.5-1.5,5.3-3.7l6.1-44.6ZM652.2,455.8c-3.3,0-5.9-2.8-5.8-6.1,0-3.3,2.8-5.8,6-5.8.1,0,.2,0,.3,0-.2.9-.2,1.9,0,2.9l2.3,8.2c-.9.5-1.9.7-2.9.7h0Z"/>
      <path class="cls-5" d="M693.9,441c-.7,4.3-9.1,7.2-19.2,6.7-9.2-.4-16.8-3.7-18.2-7.5.5-.2,1-.2,1.6-.2l34.9.9c.3,0,.6,0,.9.1Z"/>
      <path class="cls-4" d="M475.4,396.1v87.9h61.6v-87.9c0-1.3-.8-2.4-2.1-2.8-.3,0-.6-.1-.9-.1h-55.6c-1.6,0-3,1.3-3,3h0ZM499.4,426.3c0-3.6,3-6.5,6.6-6.5,3.6,0,6.5,2.9,6.5,6.5v10.2c0,3.6-3,6.6-6.6,6.5-3.6,0-6.5-2.9-6.5-6.5v-10.2Z"/>
      <path class="cls-3" d="M475.2,481.1v8.5c0,.9.7,1.7,1.7,1.7h58.6c.9,0,1.7-.7,1.7-1.7v-8.5h-61.9Z"/>
      <path class="cls-4" d="M378.5,263.7v160.4c0,4.3,3.5,7.7,7.7,7.7h237.7c4.3,0,7.7-3.5,7.7-7.7v-160.4c0-4.3-3.5-7.7-7.7-7.7h-237.7c-4.3,0-7.7,3.4-7.7,7.7Z"/>
      <path class="cls-5" d="M384.1,265.7v156.4c0,2.3,1.8,4.1,4.1,4.1h233.8c2.3,0,4.1-1.8,4.1-4.1v-156.4c0-2.3-1.8-4.1-4.1-4.1h-233.8c-2.3,0-4.1,1.9-4.1,4.1Z"/>
      <path class="cls-6" d="M432.5,490.7c.5.6,1.2,1,2,1h139.1c1.4,0,2.6-1.1,2.6-2.6,0-.2,0-.4,0-.5l-2.2-10.3c-.2-.8-.8-1.5-1.6-1.9-.3-.1-.6-.2-.9-.2h-134.8c-.3,0-.6,0-.9.2-.8.3-1.4,1-1.6,1.9l-2.2,10.3c-.2.8,0,1.5.5,2.1Z"/>
      <path class="cls-3" d="M614.4,283.1h-218.7c-.5,0-.9-.4-.9-.9,0-.5.4-.8.9-.9h218.7c.5,0,.9.4.9.9,0,.5-.4.8-.9.9Z"/>
      <ellipse class="cls-3" cx="410.6" cy="271.7" rx="5.1" ry="5.2"/>
      <ellipse class="cls-3" cx="428.2" cy="271.7" rx="5.1" ry="5.2"/>
      <ellipse class="cls-3" cx="445.8" cy="271.7" rx="5.1" ry="5.2"/>
      <path class="cls-3" d="M603.8,267.8h-12.5c-.5,0-.9.4-.9,1,0,.5.4.9.9.9h12.5c.5,0,.9-.4.9-1,0-.5-.4-.9-.9-.9Z"/>
      <path class="cls-3" d="M603.8,271.4h-12.5c-.5,0-.9.4-.9,1,0,.5.4.9.9.9h12.5c.5,0,.9-.4.9-1,0-.5-.4-.9-.9-.9Z"/>
      <path class="cls-3" d="M603.8,274.9h-12.5c-.5,0-.9.4-.9,1,0,.5.4.9.9.9h12.5c.5,0,.9-.4.9-1,0-.5-.4-.9-.9-.9Z"/>
      <rect class="cls-7" x="490.5" y="330.4" width="43.5" height="9.3" rx="3.3" ry="3.3"/>
      <rect class="cls-7" x="468.5" y="349" width="87.6" height="9.3" rx="3.3" ry="3.3"/>
      <rect class="cls-7" x="468.5" y="367.6" width="87.6" height="9.3" rx="3.3" ry="3.3"/>
      <ellipse class="cls-3" cx="361.4" cy="490.7" rx="20.1" ry="6.4"/>
      <ellipse class="cls-3" cx="361.4" cy="486.4" rx="20.1" ry="6.4"/>
      <path class="cls-3" d="M362.9,490.7h-3s.8-56.1.8-56.1c.2-18.6-9.4-35.9-25.4-45.5l-57.3-34.2,1.5-2.6,57.3,34.2c16.9,10.1,27.1,28.4,26.8,48.1l-.8,56Z"/>
      <rect class="cls-7" x="272.3" y="320.2" width="14.6" height="60" rx="7.3" ry="7.3"/>
      <path class="cls-3" d="M274.5,392.7c-12,0-21.7-9.6-21.9-21.6l-.2-23h3s.2,23,.2,23c.1,10.4,8.6,18.7,19,18.6,4.2,0,8.2-1.5,11.4-4l20.4-16.1,1.9,2.4-20.4,16.1c-3.8,3-8.6,4.7-13.5,4.7Z"/>
      <ellipse class="cls-3" cx="256.9" cy="345.1" rx="9" ry="21.8"/>
      <path class="cls-7" d="M193.4,462.6c-.8-4.9-1.3-10.3-1.6-15.9-.8-12.9-.7-27-.8-40,0-5.9-.5-12.3-1.1-18.3-1.1-11-7.4-20.9-17-26.5-3.2-1.9-6.1-4.2-8.6-7-1.3-1.5-1.5-4.9-1.7-8.6-.2-4.4-.4-9-2.8-11.4h-.1c0-.1-.1-.2-.1-.2-10-3.3-26.8-1.2-31.8,0h-.2c0,0-.1.2-.1.2-2.1,2.7-2,7.1-1.8,11.3,0,3.8.2,7.4-1.5,8.5-1.3.8-2.6,1.6-3.8,2.4-14.8,9.4-22.2,14.2-27.7,29.6-.7,2.2-1.1,4.5-1,6.8,0,2.8.1,5.3-.9,7.2-1.4,2.6-2.8,8-4.1,15.2-6.9,37.8-11,125.6,5.9,127.7,1.3.2-1.4,2.8-2.3,4.1-1.3,1.9-2.5,3.6-1.8,4.8.4.9,1.6,1.3,3.6,1.3,7.7,0,86.8-11.6,89-15.8.1-.3.2.2,0,0,37.1-4.8,17.5-43.6,12.4-75.6Z"/>
      <path class="cls-2" d="M282.7,500.5c-6-6.2-15.9-6.4-22.1-.4-.7.6-1.3,1.3-1.8,2.1l-53.2-16.1,8.2,27.7,49.3,11c7.4,4.6,17.1,2.4,21.7-4.9,3.9-6.2,3-14.2-2.1-19.4h0Z"/>
      <path class="cls-7" d="M218.4,516.3l-73.1-13.4c-.3-.8-29.6-76.7-33.3-93.7-2.3-10.3-1-21,3.7-30.5v-.2c.1,0,.4-.1.4-.1,10.1-4.3,21.8-1,28.2,7.9,14.9,21,24.7,45.1,28.6,70.5l2.2,14.5,34.8,10.1,8.4,35Z"/>
      <path class="cls-2" d="M194.5,311.2c-11,20.1-36.1,27.4-56.2,16.5-20.1-11-27.4-36.1-16.5-56.2s36.1-27.4,56.2-16.5c8.4,4.6,15,12,18.6,20.9.2.5.4.9.5,1.4,4,11.1,3,23.4-2.6,33.8Z"/>
      <path class="cls-1" d="M200.5,277.3c-1.8-5-1-2.4-2.8-7.4,1.2,4.4-.7,6.9-.5,7.4h-49.3v-28.7c14.4-5.7,28.6-10.6,37.1,0,15.8,0,28.7,12.8,28.7,28.7h-13.1Z"/>
      <path class="cls-1" d="M160.7,356.1c0-.5,0-1.1-.2-1.6-.7-3.9-1.7-7.7-3.2-11.4-1.4-4-2.9-8-4.3-12,1.9,7.3,1.3,14.9-1.6,21.8-8.3-6.5-4.3-16.2-13.9-21.3-25.8-13.6-34.8-35.5-27.5-69.3,2.6-12,17.5-24,43.7-24s37.8,13,38.3,39.2c-32.2,7.6-25.2,75.9-31.3,78.6Z"/>
      <circle class="cls-1" cx="112.5" cy="246.5" r="17.1"/>
      <path class="cls-1" d="M104.5,241.6c-2.9,3.4-7.5,4.7-11.6,6.5-14.8,6.5-25.4,19.8-28.4,35.7-1.1,6.4-1,12.9-2.8,19.1-1.8,6.2-6.2,12.3-12.6,13.3-4.3.7-8.6-.9-12.7-2.6-2.2-.9-4.4-1.8-6.7-2.7,2.3-5.8,4.6-11.6,7-17.5-3.7,5.5-8,10.6-12.9,15.1C16,305.3,8,302.1,0,298.9c19.7,0,16.3-19,20.7-38.1,2.4-10.5,23-17.6,27-27.6,6.3-15.7,24.1-23.3,39.8-17,6.8,2.7,12.3,7.8,15.7,14.2,4,1.6,4.2,7.9,1.3,11.2Z"/>
      <path class="cls-5" d="M181.1,239h0c3.4,1.1,5.2,4.8,4.1,8.1l-15.1,45.3c-1.1,3.4-4.8,5.2-8.1,4.1h0c-3.4-1.1-5.2-4.8-4.1-8.1l15.1-45.3c1.1-3.4,4.8-5.2,8.1-4.1h0Z"/>
      <circle class="cls-5" cx="160.6" cy="299.3" r="17.1"/>
      <circle class="cls-7" cx="160.6" cy="299.3" r="4.3"/>
      <path class="cls-6" d="M408.1,713.9c.9,2.2,1.9,4.5,2.9,6.7h-.5c-.2,0-.3,0-.4,0-7.1.4-14.2.7-21.4.7-.3,0-.7,0-1,0,0,0,0,0,0,0,2,0,3.7-1.5,3.8-3.4,0-1.1-.4-2.1-1.2-2.8,0-.4-.2-.6-.2-1,0,0,0-.2,0-.2,2.1-4.9,7.8-7.2,12.7-5.1,2.3,1,4.2,2.9,5.2,5.2Z"/>
      <path class="cls-6" d="M474,681.2c0,0,0,.2,0,.2-1.3.5-2.5,1.1-3.7,1.8-.7.4-1.4.8-2,1.2-2.3,1.5-2.9,4.5-1.4,6.8.8,1.1,2,1.9,3.3,2.1h0c0,0,.1,0,.2,0-3.8,9.1-10.3,16.8-18.6,22.1-.4,0-.8.2-1.2.2-2,.4-4,.7-6,1-7,1.1-14.1,2.1-21.3,2.8,1.4-7.3,2.2-14.6,2.2-22,0-4.1-.2-8.3-.7-12.4-.4-3.4-.9-6.7-1.6-10-.3-1.7-.7-3.4-1.1-5-2.2-8.9-5.5-17.5-9.8-25.6-3.4-6.6-7.5-12.9-12.2-18.7-5.6-3-10.1-7.7-12.9-13.4-1-2-1.8-4.2-2.2-6.5.6,0,1.3.1,1.9.2.2,0,.4,0,.6,0h0c2,0,3.6-1.4,3.7-3.4,0-.9-.2-1.7-.8-2.4-.3-.3-.5-.7-.8-1-.4-.5-.8-1-1.2-1.5,0,0,0,0-.1-.2-.5-.6-1-1.2-1.4-1.8.9-1.3,2-2.5,3.4-3.3,4.7-2.8,11.3-.9,14.7,3.4,3.4,4.3,4.1,10.3,2.9,15.7-1.2,4.6-3.1,8.9-5.7,12.8.3.3.5.6.8,1,4.4,5.6,8.2,11.6,11.5,17.9.3.5.5,1,.8,1.5-.8-7.7.2-15.4,2.9-22.6,2.8-6.7,8-12.4,12.6-18.2,5.5-7,16.8-3.9,17.8,4.9,0,0,0,.2,0,.2-.7.4-1.3.8-2,1.2-2.3,1.5-2.9,4.5-1.4,6.8.8,1.1,2,1.9,3.3,2.1h0c-1.6,16.6-11.5,31.1-26.3,38.8-.4.2-.8.4-1.2.6,1.3,3.5,2.3,7.1,3.2,10.8.4,1.7.8,3.4,1.2,5.1,1,4.8,1.7,9.6,2,14.4.5,6.1.4,12.2,0,18.3v-.2c1.3-6.8,5-12.9,10.3-17.3,7.9-6.5,19-8.8,27.5-14,2.6-1.7,6.1-.9,7.8,1.7.7,1.1,1,2.5.8,3.8Z"/>
    </g>
  </g>
</svg>