<?xml version="1.0" encoding="utf-8"?>
<!-- Generator: Adobe Illustrator 27.9.0, SVG Export Plug-In . SVG Version: 6.00 Build 0)  -->
<svg version="1.1" id="Ebene_1" xmlns="http://www.w3.org/2000/svg" xmlns:xlink="http://www.w3.org/1999/xlink" x="0px" y="0px"
	 viewBox="0 0 731.7 550.6" style="enable-background:new 0 0 731.7 550.6;" xml:space="preserve">
<style type="text/css">
	.st0{fill:#FF6884;}
	.st1{fill:#3F3D56;}
	.st2{fill:#A0616A;}
	.st3{fill:#2F2E41;}
	.st4{fill:#E6E6E6;}
	.st5{fill:#FFFFFF;}
	.st6{fill:#4051B5;}
</style>
<circle class="st0" cx="317.7" cy="132.6" r="46"/>
<g>
	<path class="st1" d="M0,334.1c0,0.7,0.5,1.2,1.2,1.2h729.3c0.7,0,1.2-0.5,1.2-1.2c0-0.7-0.5-1.2-1.2-1.2H1.2
		C0.5,332.9,0,333.5,0,334.1z"/>
	<g>
		<polygon class="st2" points="467,81.6 470.8,130.6 526.3,107.4 495,57.6 		"/>
		<circle class="st2" cx="465.3" cy="55.2" r="41.3"/>
		<polygon class="st2" points="388,440.6 395,503.4 346,496.6 362,438.6 		"/>
		<polygon class="st2" points="579,449.6 586,512.4 537,505.6 553,447.6 		"/>
		<path class="st3" d="M462.5,260.1c-0.7,0-54.1,2.7-89.5,4.5c-16.7,0.8-29.5,15.3-28.2,32l12.6,162.5l36,1l0.9-131l71.1,4
			L462.5,260.1L462.5,260.1z"/>
		<path class="st3" d="M619.5,259.1c0,0,9,69,2,76S395,329.6,395,329.6s48.2-69.5,56.8-71.5c8.7-2,146.7-9,146.7-9L619.5,259.1z"/>
		<path id="uuid-395a52e4-5c72-4314-a9bf-6720c6920e4c-1059" class="st2" d="M335.1,172.2c-8.4-11.7-9.1-25.5-1.7-30.8
			s20.2-0.2,28.6,11.5c3.4,4.6,5.7,10,6.6,15.7l34.8,50l-19.8,13.7l-35.8-48.8C342.8,180.8,338.4,177,335.1,172.2L335.1,172.2z"/>
		<path id="uuid-2bcb0f29-4cb0-4836-b3e1-c42200070018-1060" class="st2" d="M465.7,331c-12.7,6.6-26.5,5.4-30.7-2.7
			c-4.2-8.1,2.7-20.1,15.4-26.7c5.1-2.7,10.7-4.2,16.4-4.3l54.4-27.4l10.8,21.5L478.6,320C475.2,324.7,470.8,328.4,465.7,331
			L465.7,331z"/>
		<path class="st4" d="M465,112.6l51-21l96,148c0,0-67,15-90,18s-49-9-49-9S465,112.6,465,112.6z"/>
		<path class="st1" d="M527,137.6l-18.5-57.7l24,18.2c0,0,68,45,68,64s21,77,21,77s23.5,19.5,15.5,37.5s10.5,15.5,12.5,28.5
			S621,335.6,621,335.6s-7.5-73.5-31.5-73.5S527,137.6,527,137.6z"/>
		<path class="st1" d="M468.6,111.1l-25.1,10c0,0,4,70,8,76s18,38,18,38v10.4c0,0-28,8.6-27,13.6s66,19,66,19s-13-40-21-53
			S468.6,111.1,468.6,111.1z"/>
		<path class="st1" d="M527.5,97.1c0,0,56-3,68,27s22,128,22,128l-122,66.4l-21-32.4l82-64C556.5,222.1,527.5,97.1,527.5,97.1z"/>
		<path class="st1" d="M452.5,121.1c0,0-29-4-34,30s-1.8,38.5-1.8,38.5l-8.2,19.5l-27-30l-26,17c0,0,47,76,66,74s47-57,47-57
			S452.5,121.1,452.5,121.1z"/>
		<path class="st3" d="M597.3,270.1l-14.8,210l-38.5-1.5c0,0-8.5-198.5-8.5-201.5s4-20,29-21S597.3,270.1,597.3,270.1z"/>
		<path class="st3" d="M541.5,484.1c0,0,20-6,23-2s20,6,20,6l5,49c0,0-14,10-16,12s-55,4-56-8s14-27,14-27L541.5,484.1L541.5,484.1z
			"/>
		<path class="st3" d="M394.5,470.1c0,0,6-5,8,9s9,37-1,40s-110,4-110-5v-9l9-7l18-2.9c0,0,35-32.1,39-32.1s17,13,17,13L394.5,470.1
			L394.5,470.1z"/>
		<path class="st3" d="M506,77.6c0,0-20-24-28-22s-3,5-3,5l-20-22c0,0-16-6-31,13c0,0-9-16,0-25s12-8,14-13s16-9,16-9
			s-0.8-7.2,3.6-3.6S473,4.6,473,4.6s0.1-4,4.5,0s9.5,2,9.5,2s0,6.9,3.5,7c3.5,0,9.5-5,10.5-1s8,6,9,18S506,77.6,506,77.6z"/>
	</g>
</g>
<g>
	<path class="st1" d="M122.3,107.2h162.8c9.7,0,17.5,7.9,17.5,17.5v0c0,9.7-7.9,17.5-17.5,17.5H122.3c-9.7,0-17.5-7.9-17.5-17.5v0
		C104.7,115.1,112.6,107.2,122.3,107.2z"/>
	<rect x="125.4" y="30.6" class="st5" width="159.9" height="175.3"/>
	<path class="st1" d="M286.3,206.9H124.4V29.6h161.9V206.9z M126.4,204.9h157.9V31.6H126.4L126.4,204.9L126.4,204.9z"/>
	<path class="st1" d="M115.2,132.7h180.4c12.9,0,23.4,10.5,23.4,23.4v0c0,12.9-10.5,23.4-23.4,23.4H115.2
		c-12.9,0-23.4-10.5-23.4-23.4v0C91.8,143.1,102.3,132.7,115.2,132.7z"/>
	<ellipse class="st1" cx="332.3" cy="157.5" rx="4.2" ry="14"/>
	<ellipse class="st1" cx="73.4" cy="156.3" rx="5" ry="13.6"/>
	<rect x="74.7" y="154.4" class="st1" width="28.8" height="2.9"/>
	<rect x="306.4" y="155.6" class="st1" width="23.4" height="4.2"/>
	<path class="st1" d="M302.3,338H129.4c-13.7,0-24.8-11.1-24.8-24.8V189.3c0-13.7,11.1-24.8,24.8-24.8h172.9
		c13.7,0,24.8,11.1,24.8,24.8v123.8C327.1,326.8,316,338,302.3,338z"/>
	<circle class="st6" cx="123.5" cy="258.3" r="5.4"/>
	<circle class="st6" cx="131" cy="275.9" r="5.4"/>
	<circle class="st6" cx="136.5" cy="291.7" r="5.4"/>
	<circle class="st6" cx="146.1" cy="308" r="5.4"/>
	<circle class="st6" cx="161.9" cy="308" r="5.4"/>
	<circle class="st6" cx="177.8" cy="308" r="5.4"/>
	<circle class="st6" cx="193.7" cy="308" r="5.4"/>
	<circle class="st6" cx="209.5" cy="308" r="5.4"/>
	<circle class="st6" cx="225.4" cy="308" r="5.4"/>
	<circle class="st6" cx="241.2" cy="308" r="5.4"/>
	<circle class="st6" cx="257.1" cy="308" r="5.4"/>
	<circle class="st6" cx="273" cy="308" r="5.4"/>
	<circle class="st6" cx="288.8" cy="308" r="5.4"/>
	<circle class="st6" cx="152.6" cy="291.7" r="5.4"/>
	<circle class="st6" cx="168.8" cy="291.7" r="5.4"/>
	<circle class="st6" cx="184.9" cy="291.7" r="5.4"/>
	<circle class="st6" cx="201.1" cy="291.7" r="5.4"/>
	<circle class="st6" cx="217.2" cy="291.7" r="5.4"/>
	<circle class="st6" cx="233.4" cy="291.7" r="5.4"/>
	<circle class="st6" cx="249.6" cy="291.7" r="5.4"/>
	<circle class="st6" cx="265.7" cy="291.7" r="5.4"/>
	<circle class="st6" cx="281.9" cy="291.7" r="5.4"/>
	<circle class="st6" cx="298" cy="291.7" r="5.4"/>
	<circle class="st6" cx="147.3" cy="275.9" r="5.4"/>
	<circle class="st6" cx="163.6" cy="275.9" r="5.4"/>
	<circle class="st6" cx="179.9" cy="275.9" r="5.4"/>
	<circle class="st6" cx="196.2" cy="275.9" r="5.4"/>
	<circle class="st6" cx="212.4" cy="275.9" r="5.4"/>
	<circle class="st6" cx="228.7" cy="275.9" r="5.4"/>
	<circle class="st6" cx="245" cy="275.9" r="5.4"/>
	<circle class="st6" cx="261.3" cy="275.9" r="5.4"/>
	<circle class="st6" cx="277.6" cy="275.9" r="5.4"/>
	<circle class="st6" cx="293.9" cy="275.9" r="5.4"/>
	<circle class="st6" cx="310.1" cy="275.9" r="5.4"/>
	<circle class="st6" cx="139.8" cy="258.3" r="5.4"/>
	<circle class="st6" cx="156.1" cy="258.3" r="5.4"/>
	<circle class="st6" cx="172.4" cy="258.3" r="5.4"/>
	<circle class="st6" cx="188.6" cy="258.3" r="5.4"/>
	<circle class="st6" cx="204.9" cy="258.3" r="5.4"/>
	<circle class="st6" cx="221.2" cy="258.3" r="5.4"/>
	<circle class="st6" cx="237.5" cy="258.3" r="5.4"/>
	<circle class="st6" cx="253.8" cy="258.3" r="5.4"/>
	<circle class="st6" cx="270.1" cy="258.3" r="5.4"/>
	<circle class="st6" cx="286.3" cy="258.3" r="5.4"/>
	<circle class="st6" cx="302.6" cy="258.3" r="5.4"/>
	<circle class="st6" cx="128.1" cy="187.8" r="21.3"/>
	<circle class="st6" cx="300.9" cy="187.8" r="21.3"/>
	<path class="st6" d="M180.5,179.4h65.7c2.9,0,5.6,1.7,6.9,4.3l17.7,37.1c2.4,5.1-1.3,10.9-6.9,10.9h-96.1c-5.2,0-8.9-5.2-7.2-10.1
		l12.7-37.1C174.3,181.5,177.3,179.4,180.5,179.4L180.5,179.4z"/>
</g>
<rect x="155.6" y="56.6" class="st1" width="96.4" height="2"/>
<rect x="155.6" y="74.6" class="st1" width="96.4" height="2"/>
<rect x="155.6" y="92.6" class="st1" width="96.4" height="2"/>
</svg>
