<?xml version="1.0" encoding="utf-8"?>
<!-- Generator: Adobe Illustrator 28.0.0, SVG Export Plug-In . SVG Version: 6.00 Build 0)  -->
<svg version="1.1" id="Ebene_1" xmlns="http://www.w3.org/2000/svg" xmlns:xlink="http://www.w3.org/1999/xlink" x="0px" y="0px"
	 viewBox="0 0 588.1 695" style="enable-background:new 0 0 588.1 695;" xml:space="preserve">
<style type="text/css">
	.st0{fill:#F0F0F0;}
	.st1{fill:#FFFFFF;}
	.st2{fill:#FF6582;}
	.st3{fill:#CCCCCC;}
	.st4{fill:#E6E6E6;}
	.st5{fill:#3F3D56;}
	.st6{fill:#4051B5;}
	.st7{fill:#F2F2F2;}
	.st8{fill:#FFB6B6;}
	.st9{fill:#2F2E41;}
</style>
<path class="st0" d="M256.5,659.4l-1.9,8.2l0.5,0.5c-0.1,0.2-0.2,0.5-0.3,0.8c-1,2.2-2.1,4.4-3.4,6.5c-1.7,2.8-3.6,5.5-5.5,8.1
	c-1.1,1.5-2.2,2.9-3.3,4.3c0,0-0.1,0.1-0.1,0.1c0-0.1,0-0.1,0-0.2l-0.4-0.1l-2.1-9l-0.6,1.4v0l-1,2.3c0.1,0.4,0.2,0.8,0.3,1.3
	c0,0,0,0,0,0c0,0,0,0,0,0c-0.1-0.3-0.3-0.5-0.4-0.8l-1.6,3.6l-3.2-0.7c-1.7-0.9-3.3-1.7-5-2.6c-22.5-12.2-43.4-27.8-57.5-49.1
	c-5.6-8.5-9.8-17.8-12.5-27.5c-5.3-19.4-4.4-40.3,5.3-57.7c0,0,0,0,0,0c0,0,0,0,0,0c0.2-0.4,0.5-0.9,0.8-1.3c0.2,0.5,0.4,1,0.6,1.5
	v0c2.6,6.8,5.8,13.4,9.4,19.7c0.3,0.5,0.6,1,0.9,1.5c8.9,15,20.6,28.2,34.3,38.9c0,0,0.1,0.1,0.1,0.1c0,0,0.1,0.1,0.2,0.1
	c3.1,2.4,6.2,4.7,9.5,6.8v0c2.5,1.7,5.2,3.2,7.8,4.7c5.7,3.2,11.8,6.2,17.1,10c5.2,3.7,9.5,8,11.8,13.9c0.2,0.5,0.3,0.9,0.5,1.4
	l-4.1,12.7L256.5,659.4z"/>
<path class="st1" d="M239.5,680.1L239.5,680.1l-1,2.4c-1.5-8.6,0.3-17.6-1-26.3c-0.1-1-0.3-1.9-0.5-2.9c-1.3-5.5-4.3-10.6-9.6-13.1
	c-1.5-0.7-3.2-1.2-4.8-1.5c-3.3-0.7-6.7-0.8-10-1.2c-0.8-0.1-1.7-0.2-2.5-0.4c-4.3-0.7-8.4-2.2-12-4.6c-4.4-3.1-8.3-7-11.4-11.5
	c-2.1-2.8-4-5.7-5.8-8.7c-0.2-0.4-0.5-0.8-0.7-1.2c-4.1-7.2-7.5-14.7-10.1-22.6c-1.3-4-2.5-8.1-3.4-12.2c-2-9-3-18.3-2.9-27.5
	c0,0,0,0,0,0c0,0,0,0,0,0c0-0.4,0-0.8,0-1.3c0-0.9,1.4-0.7,1.3,0.2c0,0.4,0,0.8,0,1.2v0c-0.1,8.9,0.8,17.7,2.7,26.4
	c0.1,0.4,0.2,0.9,0.3,1.3c2.7,12,7.2,23.6,13.5,34.2c0.1,0.1,0.1,0.2,0.2,0.4c1.5,2.5,3,4.9,4.6,7.2c3,4.5,6.7,8.5,11,11.9
	c3.6,2.7,7.8,4.5,12.2,5.3c0.4,0.1,0.9,0.2,1.3,0.2c0.3,0.1,0.7,0.1,1.1,0.2c3.4,0.4,6.8,0.6,10.2,1.2c1.5,0.3,3,0.7,4.5,1.2
	c4.8,1.9,8.6,5.8,10.3,10.7c0.9,2.3,1.5,4.8,1.8,7.2c0.1,0.8,0.2,1.6,0.3,2.4v0c0.1,1.3,0.2,2.7,0.2,4c0,1.7,0,3.3-0.1,5
	C239,671.9,239.1,676,239.5,680.1z"/>
<path class="st1" d="M181.5,612.1c-7.9,4-17.5,1.7-22.7-5.4c-0.5-0.7,0.6-1.5,1.1-0.8c4.8,6.6,13.8,8.8,21.1,5
	C181.8,610.4,182.3,611.7,181.5,612.1L181.5,612.1z"/>
<path class="st1" d="M209.5,636.1c2.8-8.3,2.3-17.3-1.2-25.3c-0.4-0.8,0.9-1.3,1.2-0.5c3.7,8.3,4.1,17.7,1.2,26.3
	C210.5,637.4,209.3,636.9,209.5,636.1L209.5,636.1z"/>
<path class="st1" d="M167.5,575.5c3.3-0.9,6-3.4,7-6.7c0.3-0.8,1.5-0.3,1.2,0.5c-1.2,3.6-4.1,6.4-7.8,7.4c-0.3,0.1-0.7,0-0.9-0.4
	C167,576,167.2,575.6,167.5,575.5z"/>
<path class="st0" d="M242.4,688C242.4,688,242.5,687.9,242.4,688c0,0,0,0.2,0,0.3L242.4,688z"/>
<path class="st0" d="M272.1,626.4l-1.4,4.9l-8.6-1.6l-2.8,8.8l-0.5,1.5l-2,6l-4.1,12.7l3.8,0.6l-1.9,8.2l0.5,0.5l0.1,0.2l0.9,1
	l5.7,6.2l-15.5,13.2l-2.5-0.6l-1.3-0.3c0,0-0.1,0.1-0.1,0.1c0-0.1,0-0.1,0-0.2l-0.4-0.1l-2.1-9l-0.6,1.4v0l-1,2.3
	c0.1,0.4,0.2,0.8,0.3,1.3c0,0,0,0,0,0c0,0,0,0,0,0c-0.1-0.3-0.3-0.5-0.4-0.8c-2-4.1-3.9-8.3-5.6-12.6c-4.3-10.2-7.7-20.8-10.1-31.6
	c-0.1-0.5-0.2-0.9-0.3-1.4v0c-1.5-7-2.4-14.1-2.7-21.2v0c-0.2-3.9-0.1-7.8,0.1-11.7c0.6-10.1,2.8-20,6.6-29.4c0,0,0-0.1,0.1-0.1
	c7.1-17.9,19.7-33.5,36.7-41.8c0.7-0.4,1.4-0.7,2.2-1h0l0,0c0.5-0.2,0.9-0.4,1.4-0.6c-0.2,0.5-0.3,1-0.5,1.6c-2,7-3.5,14.1-4.3,21.3
	v0c-0.1,0.5-0.2,1.1-0.2,1.7v0c-1.9,17.4-0.5,35,4,52c0,0,0,0.1,0,0.1C267.4,614.3,269.6,620.5,272.1,626.4z"/>
<path class="st1" d="M256.1,669.2c-0.8,1.1-1.6,2.1-2.4,3.1c-0.8,1-1.6,2-2.4,3c-2.1,2.5-3.9,5.3-5.5,8.1c-0.8,1.5-1.5,3-2,4.6
	l-1.3-0.3c0,0-0.1,0.1-0.1,0.1c0-0.1,0-0.1,0-0.2c2.3-7.3,7.6-12.9,12.2-19c0.2-0.2,0.3-0.4,0.5-0.6L256.1,669.2z"/>
<path class="st1" d="M267,531.9c-0.3,0.3-0.5,0.7-0.8,1c-2,2.5-3.8,5.1-5.5,7.8c-3.1,4.7-5.8,9.7-8.2,14.8c-0.2,0.4-0.4,0.8-0.6,1.2
	c-5.1,11.2-8.4,23.2-9.8,35.4c0,0.1,0,0.2,0,0.3c-0.3,2.9-0.5,5.7-0.6,8.6c-0.3,5.4,0.2,10.9,1.6,16.1c0.2,0.7,0.4,1.4,0.7,2
	c0.6,1.6,1.4,3.2,2.2,4.7c0.6,1.1,1.4,2.1,2.1,3.1c0.5,0.6,1,1.2,1.5,1.8c0.3,0.3,0.6,0.7,0.9,1c0.3,0.2,0.5,0.5,0.8,0.8
	c2.7,2.6,5.7,5,8.1,7.9l-0.5,1.5c-2.3-3-5.4-5.5-8.1-8c-1.7-1.6-3.3-3.4-4.7-5.3c-0.2-0.3-0.4-0.5-0.5-0.8c-0.9-1.4-1.7-2.8-2.4-4.3
	c-0.3-0.8-0.7-1.5-0.9-2.3c-1.6-5.2-2.4-10.6-2.2-16c0-3.5,0.2-6.9,0.6-10.4c0-0.5,0.1-0.9,0.2-1.3c1-8.2,2.9-16.3,5.5-24.1
	c3.4-9.9,8-19.4,13.8-28.2c1.7-2.5,3.4-5,5.2-7.3c0.2-0.3,0.5-0.7,0.8-1C266.6,530.2,267.5,531.2,267,531.9z"/>
<path class="st1" d="M241.2,593c-8.7-1.5-15-9.2-14.9-18c0-0.4,0.3-0.7,0.7-0.7c0.4,0,0.6,0.3,0.7,0.6c-0.1,8.2,5.8,15.3,13.9,16.7
	C242.4,591.9,242.1,593.2,241.2,593L241.2,593z"/>
<path class="st1" d="M249.1,629.1c7.2-4.9,12.3-12.4,14.2-20.9c0.2-0.8,1.5-0.5,1.3,0.3c-2,8.9-7.3,16.6-14.9,21.7
	C249.1,630.7,248.4,629.5,249.1,629.1z"/>
<path class="st1" d="M252,555.4c3.2,1.3,6.8,0.9,9.6-1.1c0.7-0.5,1.4,0.7,0.7,1.2c-3.1,2.1-7.1,2.6-10.6,1.2
	c-0.4-0.1-0.6-0.5-0.5-0.8C251.3,555.5,251.7,555.3,252,555.4z"/>
<path class="st0" d="M394.6,111.9c-7.6-40.5,4.3-86.6,37.5-111.1c-1.9,44.8,12.1,88.8,39.6,124.2c10.6,13.6,23.9,27.7,23.5,45
	c-0.3,10.8-6.1,20.8-13.7,28.3c-7.7,7.5-17.1,13-26.4,18.3l-1.5,2.3C426.2,188.1,402.2,152.4,394.6,111.9z"/>
<path class="st1" d="M432.7,1.4C418.8,32.6,415,67.3,422,100.7c1.5,7.1,3.7,14.3,7.4,20.6c3.6,6.2,8.9,11.2,15.1,14.7
	c5.8,3.3,12.1,6.1,17,10.8c5.1,4.9,7.4,11.7,7.2,18.7c-0.2,8.6-3.6,16.6-7.1,24.4c-3.9,8.6-8.1,17.4-7.8,27.1c0,1.2-1.8,1.1-1.8,0
	c-0.4-16.8,11.7-30.3,14.4-46.4c1.3-7.5,0.3-15.5-5-21.3c-4.6-5.1-11.1-7.9-17-11.3c-6.2-3.5-11.4-7.8-15.3-13.8
	c-4-6.1-6.5-13.2-8.2-20.3c-3.8-16.1-5-32.6-3.6-49.1c1.5-18.8,6.2-37.2,13.9-54.4C431.6-0.6,433.2,0.3,432.7,1.4L432.7,1.4z"/>
<path class="st1" d="M419.1,90.1c-11.9,0.8-22.7-7.1-25.4-18.7c-0.3-1.1,1.5-1.6,1.8-0.5c2.5,10.8,12.6,18.2,23.7,17.3
	C420.3,88.2,420.3,90,419.1,90.1z"/>
<path class="st1" d="M441.4,134.7c7.8-8.8,12-20.3,11.8-32.1c0-1.2,1.8-1.1,1.8,0c0.2,12.3-4.2,24.2-12.3,33.4
	C441.9,136.9,440.6,135.6,441.4,134.7z"/>
<path class="st1" d="M420.9,37.2c4.6,0.6,9.2-1.1,12.2-4.6c0.8-0.9,2,0.4,1.3,1.3c-3.4,3.8-8.5,5.8-13.5,5.1c-0.5,0-0.9-0.4-0.9-0.9
	C420,37.6,420.4,37.2,420.9,37.2L420.9,37.2z"/>
<path class="st0" d="M567.6,34.3c-0.5,0.6-0.9,1.1-1.4,1.7c-6.2,7.6-11.7,15.8-16.6,24.3c-0.4,0.7-0.8,1.3-1.1,2
	c-11.5,20.7-19.1,43.4-22.3,66.8c-1.3,9.3-1.9,18.8-1.7,28.2c0.2,13,1.5,27.1-2.5,39.1c-0.4,1.3-0.9,2.5-1.4,3.7l-64,20.4
	c-0.2,0-0.3,0-0.5-0.1l-2.5,0.9c0-0.5-0.1-1-0.1-1.5c0-0.3,0-0.6-0.1-0.8c0-0.2,0-0.4,0-0.5c0-0.1,0-0.1,0-0.2c0-0.2,0-0.3,0-0.5
	c-0.2-2.8-0.4-5.6-0.5-8.5c0,0,0,0,0,0c-1.1-21.6-0.4-43.4,3.6-64.5c0.1-0.6,0.2-1.3,0.4-1.9c1.9-9.5,4.5-18.8,7.8-27.9
	c1.9-5,4-9.8,6.3-14.6c6.1-12.2,14.1-23.4,23.7-33.2c19.1-19.4,44.2-32.6,71.1-33C566.2,34.3,566.9,34.3,567.6,34.3z"/>
<path class="st1" d="M567.7,35.2c-29.9,16.5-53.8,42-68.3,72.8c-3.1,6.6-5.6,13.6-6.5,20.9c-0.8,7.1,0.3,14.3,3.2,20.8
	c2.6,6.1,6,12.1,7,18.8c1.1,7-1.1,13.8-5.5,19.3c-5.4,6.7-12.9,11.2-20.3,15.2c-8.3,4.5-17,9.1-22.6,16.9c-0.7,1-2.1-0.2-1.4-1.1
	c9.8-13.7,27.6-17.1,39.4-28.4c5.5-5.2,9.5-12.2,8.8-20c-0.6-6.9-4.1-13-6.8-19.2c-2.8-6.5-4.4-13.1-3.9-20.3
	c0.5-7.3,2.8-14.4,5.7-21.1c6.7-15.1,15.7-29.1,26.7-41.3c12.5-14.1,27.3-26,43.8-35.1C568,32.9,568.7,34.6,567.7,35.2L567.7,35.2z"
	/>
<path class="st1" d="M503.4,97.8c-10-6.5-13.8-19.3-9-30.2c0.5-1.1,2.2-0.4,1.7,0.7c-4.5,10.2-0.9,22.1,8.5,28.1
	C505.5,97,504.4,98.4,503.4,97.8L503.4,97.8z"/>
<path class="st1" d="M494.4,146.8c11.6-2.4,21.8-9,28.7-18.6c0.7-1,2.1,0.2,1.4,1.1c-7.2,10-17.9,16.8-29.9,19.3
	C493.4,148.8,493.2,147,494.4,146.8L494.4,146.8z"/>
<path class="st1" d="M536.7,56.6c3.3,3.3,8,4.7,12.5,3.7c1.1-0.2,1.4,1.6,0.2,1.8c-5,1-10.2-0.5-13.9-4.1c-0.4-0.3-0.5-0.9-0.2-1.3
	C535.7,56.4,536.3,56.3,536.7,56.6L536.7,56.6z"/>
<path class="st0" d="M156.1,63.5c-3.5-2.5-7.4-5.1-11.7-5c-10.5,0.3-16.1,15.6-26.6,15.1c-6.7-0.3-11.1-7.1-17.3-9.6
	c-8.1-3.2-18.4,3.1-19.3,11.7l1-1c31.5,7.7,64.1,9.2,96.1,4.4C170.9,74,163.5,68.8,156.1,63.5z"/>
<circle class="st2" cx="175.7" cy="45.6" r="36.4"/>
<path class="st0" d="M260.8,38.7c-4.5-3.2-9.4-6.5-15-6.4c-13.4,0.3-20.6,19.9-33.9,19.2c-8.5-0.4-14.2-9.1-22.1-12.2
	c-10.3-4.1-23.4,3.9-24.6,14.9l1.3-1.2c40.1,9.8,81.7,11.7,122.5,5.7C279.7,52,270.2,45.4,260.8,38.7z"/>
<path class="st3" d="M587.9,403.7l-38.6-206.6c-1.4-7-7.4-12.2-14.5-12.4c-0.3,0-0.6,0-0.9,0l-26.3,0.9l-2.8,0.1l-13.1,0.5l-2.8,0.1
	l-8.4,0.3l-170.2,6.1c-0.3,0-0.5,0-0.8,0l-38.1-0.8l-14.1-0.3l-0.5,0l-10.4-0.2l-90.8-1.9l-24.1-0.5l-11.9-0.2l-2.8-0.1l-13.5-0.3
	l-2.8-0.1l-13.8-0.3l-2.8-0.1l-15.2-0.3l-2.4,0l-13.6-0.3l-2.1,0h-0.3c-7.4,0-13.8,5.4-15,12.7L0.2,414.5
	c-1.4,8.3,4.3,16.1,12.5,17.4c0.8,0.1,1.6,0.2,2.4,0.2h200.4c2.9,0,5.8,1,8.2,2.7l3.8,2.8c2.6,1.9,5.8,3,9,3h118.1
	c4,0,7.9-1.6,10.7-4.5c2.4-2.4,5.6-3.8,9-4l199.2-10.5c8.4-0.4,14.8-7.6,14.4-16C588.1,405,588,404.4,587.9,403.7L587.9,403.7z"/>
<path class="st4" d="M556.3,398.1L534.8,185c0-0.1,0-0.2,0-0.3c-0.4-3.4-2.1-6.5-4.7-8.7l-46.3-38.5c-2-1.7-4.5-2.7-7.1-2.9
	c-21.2-1.4-128.8-6.4-168.5,28.1c-2.4,2.1-5.7,3.1-8.9,2.6c-3.2-0.5-6-2.4-7.7-5.2c-3.4-5.3-7.8-9.8-13-13.3
	c-2.3-1.6-4.8-3.1-7.3-4.4c-2.2-1.2-4.6-2.3-7.3-3.4c-2.3-0.9-4.7-1.9-7.3-2.7c-13.4-4.5-31.4-7.8-55.4-9c-10-0.5-20.8-0.5-32.2-0.2
	c-10.4,0.3-21.5,0.9-32.8,1.9l-0.2,0L59,176c-3.5,2.2-5.8,5.9-6.2,10l-0.2,1.4L28.1,406.1c-0.4,3.8,0.7,7.5,3.2,10.4
	c2.4,2.8,5.9,4.5,9.6,4.5h189.9c2.5,0,5,0.9,6.9,2.5l8.3,6.6c2.2,1.7,4.8,2.7,7.6,2.8l83.5,1.4h0.2c2.1,0,4.2-0.5,6-1.6l16.1-8.9
	c1.5-0.8,3.1-1.3,4.8-1.4l180-9.5c3.5-0.2,6.8-1.9,9.1-4.6C555.6,405.3,556.7,401.7,556.3,398.1z"/>
<path class="st1" d="M493.5,359.7l-2.5-33.2l-10.6-139.9l-1.6-20.7c-0.8-11.3-10.1-20.1-21.4-20.3c-39-1-109.5,0.8-144.1,24
	c-8,5.4-18.7,4.1-25.1-3.1c-4.8-5.3-10.5-9.6-16.9-12.6c-4.7-2.3-9.6-4.3-14.6-5.9c-14.6-4.7-33.1-7.5-55.5-8.5l-53-0.3h-0.1
	c-7.6,0-13.9,5.9-14.4,13.5l-2.3,36.4l-10,159.5c-0.8,12.1,8.4,22.6,20.5,23.3c0.4,0,0.7,0,1.1,0c88.9,1.3,127.8,20.1,144.7,35.6
	c7.4,6.8,18.5,7.7,26.9,2.2c30.8-20.1,81.9-25.7,122.6-26.6c12.5-0.3,23.9-0.1,33.6,0.2c12.1,0.4,22.3-9,22.8-21.2
	C493.6,361.3,493.5,360.5,493.5,359.7L493.5,359.7z"/>
<path class="st1" d="M52,405.9c0,0-0.1,0-0.1,0c-0.8-0.1-1.4-0.7-1.3-1.5c0,0,0,0,0,0l15.3-216.1c0-0.8,0.7-1.4,1.5-1.3c0,0,0,0,0,0
	c0.8,0.1,1.4,0.7,1.3,1.5c0,0,0,0,0,0L53.4,404.6C53.3,405.4,52.7,405.9,52,405.9z"/>
<path class="st1" d="M70.4,397.4c0,0-0.1,0-0.1,0c-0.8-0.1-1.4-0.7-1.3-1.5c0,0,0,0,0,0l15.3-216.1c0-0.8,0.7-1.4,1.5-1.3
	c0,0,0,0,0,0c0.8,0.1,1.4,0.7,1.3,1.5c0,0,0,0,0,0L71.8,396.1C71.8,396.9,71.1,397.4,70.4,397.4z"/>
<path class="st1" d="M87.4,393.2c0,0-0.1,0-0.1,0c-0.8-0.1-1.4-0.7-1.3-1.5c0,0,0,0,0,0l15.3-216.1c0-0.8,0.7-1.4,1.5-1.3
	c0,0,0,0,0,0c0.8,0.1,1.4,0.7,1.3,1.5c0,0,0,0,0,0L88.8,391.9C88.8,392.6,88.1,393.2,87.4,393.2z"/>
<path class="st1" d="M104.4,384.7c0,0-0.1,0-0.1,0c-0.8-0.1-1.4-0.7-1.3-1.5c0,0,0,0,0,0l15.3-216.1c0-0.8,0.7-1.4,1.5-1.3
	c0,0,0,0,0,0c0.8,0.1,1.4,0.7,1.3,1.5c0,0,0,0,0,0l-15.3,216.1C105.8,384.1,105.1,384.7,104.4,384.7z"/>
<path class="st1" d="M539.2,407.3c0,0,0.1,0,0.1,0c0.8-0.1,1.4-0.7,1.3-1.5c0,0,0,0,0,0l-15.3-216.1c0-0.8-0.7-1.4-1.5-1.3
	c0,0,0,0,0,0c-0.8,0.1-1.4,0.7-1.3,1.5c0,0,0,0,0,0L537.8,406C537.9,406.8,538.5,407.3,539.2,407.3z"/>
<path class="st1" d="M520.8,394.6c0,0,0.1,0,0.1,0c0.8-0.1,1.4-0.7,1.3-1.5c0,0,0,0,0,0L506.9,177c0-0.8-0.7-1.4-1.5-1.3
	c0,0,0,0,0,0c-0.8,0.1-1.4,0.7-1.3,1.5c0,0,0,0,0,0l15.3,216.1C519.5,394,520.1,394.6,520.8,394.6z"/>
<path class="st1" d="M503.8,380.4c0,0,0.1,0,0.1,0c0.8-0.1,1.4-0.7,1.3-1.5c0,0,0,0,0,0l-15.3-216.1c0-0.8-0.7-1.4-1.5-1.3
	c0,0,0,0,0,0c-0.8,0.1-1.4,0.7-1.3,1.5c0,0,0,0,0,0l15.3,216.1C502.5,379.9,503.1,380.4,503.8,380.4z"/>
<path class="st5" d="M156.2,187.9c31.9-10.2,67.5-7.5,97.8,6.9c8.6,4.1,16.8,9.1,24.3,15c2.1,1.7,5.2-1.3,3-3
	c-27.8-21.5-62.7-31.8-97.7-28.7c-9.7,0.9-19.3,2.8-28.5,5.7C152.5,184.7,153.6,188.8,156.2,187.9L156.2,187.9z"/>
<path class="st5" d="M331.9,211.4c29.7-15.6,65.2-19,97.5-10.1c9.2,2.5,18.1,6.1,26.5,10.5c2.4,1.3,4.6-2.4,2.1-3.7
	c-30.8-16.4-67.7-20.2-101.3-11c-9.4,2.6-18.4,6.1-27,10.6C327.3,209,329.5,212.7,331.9,211.4z"/>
<path class="st5" d="M331.9,239.8c29.7-15.6,65.2-19,97.5-10.1c9.2,2.5,18.1,6.1,26.5,10.5c2.4,1.3,4.6-2.4,2.1-3.7
	c-30.8-16.4-67.7-20.2-101.3-11c-9.4,2.6-18.4,6.1-27,10.6C327.3,237.4,329.5,241,331.9,239.8L331.9,239.8z"/>
<path class="st5" d="M459.1,266.6c0-0.7-0.4-1.4-1-1.8c-24.6-12.9-52.6-18.1-80.2-15c-0.2,0-0.3,0-0.5,0.1h0c-0.2,0-0.3,0-0.5,0.1
	c-16.4,1.9-32.4,6.8-47,14.5c-0.6,0.4-1,1.1-1,1.8v52.8c0,1.2,1,2.1,2.2,2.1c0.2,0,0.3,0,0.5-0.1c0.7-0.2,1.3-0.4,2-0.5
	c14.8-4,30-6.4,45.3-7.1c0.3,0,0.7,0,1,0c12.5-0.5,25-0.1,37.4,1.3c0.3,0,0.5,0,0.8,0.1c0.6,0.1,1.3,0.1,1.9,0.2
	c0.3,0,0.5,0.1,0.7,0.1c2.5,0.3,4.9,0.7,7.4,1c3.6,0.6,7.1,1.2,10.7,1.9c0.2,0,0.5,0.1,0.7,0.1c5.7,1.1,11.4,2.5,17.1,3.9
	c1.2,0.3,2.3-0.4,2.6-1.5c0-0.2,0.1-0.3,0.1-0.5L459.1,266.6C459.1,266.6,459.1,266.6,459.1,266.6z"/>
<path class="st2" d="M381.2,252.7c-1.6-0.8-3.3-0.9-5-0.4c-1.5,0.6-2.7,1.7-3.3,3.1c-0.6,1.4-0.9,2.8-1.1,4.3
	c-0.1,0.6-0.1,1.3,0.5,1.6c0.4,0.2,0.9,0.1,1.3-0.2c0.3-0.3,0.6-0.6,0.7-1c2.1-3.2,5.6-5.2,9.5-5.2l1.6,0.6
	C384,254.3,382.6,253.4,381.2,252.7z"/>
<path class="st1" d="M398.1,264.8c-1.2-1.8-2.7-3.7-4.9-4.3c-2.6-0.7-5.3,0.7-7.6,2c-6.8,3.9-13.3,8.3-19.7,12.9l0,0.1l14.7-0.9
	c3.5-0.2,7.2-0.5,10.3-2c1.1-0.7,2.4-1.2,3.7-1.4c1.6,0.1,3.2,0.8,4.3,2.1c6.8,6.4,8.7,16.2,16.3,21.8
	C410.4,284.6,404.7,274.5,398.1,264.8z"/>
<path class="st1" d="M379.7,313.5c-0.3,0-0.7,0-1,0c-2.4-0.8-4.8-1.6-7.2-2.3c-1.6-0.4-3.2-0.8-4.8-1.1c-1.8-0.4-3.7-0.7-5.5-1
	c-3.5-0.5-7-0.8-10.6-0.9c-0.1,0-0.2-0.1-0.2-0.2c0-0.1,0.1-0.2,0.2-0.2c0,0,0,0,0,0c0.5,0,0.9,0,1.3,0c3.5,0.1,7.1,0.5,10.6,1
	c1.8,0.3,3.7,0.7,5.5,1c1.6,0.4,3.3,0.8,4.9,1.2C375.2,311.9,377.5,312.6,379.7,313.5z"/>
<path class="st1" d="M420.6,315.2c-0.2,0-0.5-0.1-0.7-0.1c-1-0.8-2-1.6-3-2.3c-1.3-0.9-2.6-1.8-4-2.6c-3-1.8-6.2-3.4-9.4-4.8
	c-5.1-2.1-10.5-3.8-15.9-5c-6.2-1.4-12.5-2.3-18.8-2.9c-6.3-0.7-12.7-1-19-1.4c-0.3,0-0.3-0.4,0-0.4c0.8,0.1,1.6,0.1,2.4,0.2
	c6.4,0.4,12.8,0.9,19.2,1.6c6.3,0.7,12.6,1.8,18.8,3.3c5.3,1.3,10.4,3.1,15.4,5.3c2.9,1.3,5.6,2.8,8.3,4.4c1.7,1.1,3.3,2.2,4.9,3.4
	C419.3,314.1,419.9,314.7,420.6,315.2z"/>
<path class="st1" d="M417.9,314.9c-0.3,0-0.5-0.1-0.8-0.1c-0.3-0.2-0.6-0.5-0.9-0.7c-2.2-1.6-4.5-3-6.8-4.3
	c-2.1-1.2-4.3-2.2-6.6-3.2c-5.1-2.1-10.5-3.8-15.9-5c-6.2-1.4-12.5-2.3-18.8-2.9c-6.3-0.7-12.7-1-19-1.4c-0.3,0-0.3-0.4,0-0.4
	c0.8,0.1,1.6,0.1,2.4,0.2c6.4,0.4,12.8,0.8,19.2,1.6c6.3,0.7,12.6,1.8,18.8,3.3c5.3,1.3,10.4,3.1,15.4,5.3c1.9,0.8,3.7,1.8,5.5,2.8
	C413,311.4,415.5,313,417.9,314.9z"/>
<path class="st1" d="M439.3,318.3c-0.2,0-0.5-0.1-0.7-0.1c-0.3-0.3-0.5-0.6-0.7-0.8c-1.2-1.4-2.4-2.8-3.6-4.2
	c-4.7-5.6-9.1-11.3-13.3-17.2c-3.6-5-7-10.1-10.2-15.3c-1.5-2.5-3-5-4.5-7.5c-1.1-2-2.2-3.9-3.3-5.9c-0.3-0.6-0.6-1.1-0.9-1.7
	c-0.7-1.3-1.4-2.7-2.1-4c-0.8-1.6-2-3-3.4-4.1c-0.7-0.5-1.6-0.8-2.4-0.8c-1.2,0-2.4,0.3-3.5,0.9c-7.9,3.7-15.4,8.3-22.3,13.7
	c-6.7,5.2-12.8,11.2-18.1,17.9c-0.2,0.2-0.5,0-0.4-0.2c0.6-0.8,1.3-1.6,1.9-2.4c5.1-6,10.8-11.5,17.1-16.3c0,0,0,0,0.1,0
	c0.6-0.4,1.1-0.9,1.7-1.3c3.5-2.6,7.2-5,10.9-7.1c1.9-1.1,3.9-2.2,5.9-3.2c0.5-0.3,1-0.5,1.5-0.8c0.5-0.3,1-0.5,1.5-0.7
	c1-0.5,2.1-0.8,3.2-0.9c3.9-0.1,6,3.9,7.4,6.6c0.4,0.8,0.9,1.7,1.3,2.5c1.7,3.2,3.5,6.3,5.3,9.4c1.1,1.9,2.3,3.8,3.5,5.7
	c1.7,2.7,3.4,5.4,5.2,8c0,0,0,0,0,0c0,0,0,0,0,0c2.1,3.1,4.2,6.2,6.5,9.3c3.8,5.3,7.9,10.4,12.1,15.4
	C436.4,314.9,437.9,316.6,439.3,318.3z"/>
<path class="st1" d="M459.1,312.1v0.7c-1.4-1.6-2.8-3.3-4.2-4.9c-0.6-0.7-1.2-1.4-1.8-2c-2.5-2.9-5.1-5.7-7.6-8.6
	c-2.6-2.8-5.1-5.7-7.7-8.5c-0.6-0.7-1.2-1.4-1.9-2c-0.5-0.6-1.1-1.1-1.7-1.6c-0.6-0.5-1.3-0.9-2-1.1c-0.9-0.2-1.7-0.2-2.6,0
	c-1,0.2-1.9,0.6-2.9,0.9c-1,0.3-1.9,0.6-2.9,0.9c-2,0.6-3.9,1.3-5.8,1.9c-0.1,0-0.2,0-0.3-0.1c0,0,0,0,0,0c0-0.1,0-0.2,0.1-0.3
	c0,0,0,0,0,0c0.5-0.2,1-0.3,1.5-0.5c2-0.7,3.9-1.3,5.9-1.9c1-0.3,2-0.6,2.9-0.9c0.9-0.3,1.9-0.5,2.8-0.6c1.6,0.1,3.1,0.8,4.2,2
	c0.6,0.6,1.2,1.2,1.7,1.8c0.7,0.7,1.3,1.4,2,2.1c2.6,2.9,5.2,5.7,7.8,8.6c2.6,2.9,5.2,5.8,7.7,8.7c0.2,0.2,0.4,0.4,0.6,0.6
	C456.3,308.8,457.7,310.4,459.1,312.1z"/>
<path class="st2" d="M388.8,255.7l-0.4,0.2c-1.8-3.1-5.1-5-8.6-5.2c-5.8-0.4-10.9,3.5-11.4,8.6c-0.2,2.1,0.4,4.2,1.7,5.9l-0.4,0.2
	c-1.4-1.8-2-4-1.8-6.2c0.5-5.4,5.8-9.4,11.8-9C383.5,250.5,386.9,252.5,388.8,255.7z"/>
<path class="st1" d="M360.2,266.2c-3.1-1.3-6.6-1.1-9.5,0.6c5.2,0.8,10.4,1.9,15.5,3.2C364,268.9,362.3,267.2,360.2,266.2z"/>
<path class="st1" d="M350.6,266.8l-0.6,0.4C350.2,267.1,350.4,266.9,350.6,266.8L350.6,266.8z"/>
<path class="st1" d="M434,287.7c-0.5-0.7-1.2-1.2-2.1-1.5l-0.8,0c6.3,9.8,14.6,18.3,24.3,24.8C448.3,303.2,441.1,295.5,434,287.7z"
	/>
<path class="st1" d="M367.9,269.2c-0.2-0.2-0.5-0.5-0.7-0.7c-1.8-1.9-3.9-3.5-6.2-4.6c-1.2-0.5-2.5-0.8-3.8-0.8
	c-1.3,0-2.7,0.3-3.9,0.8c-0.6,0.2-1.2,0.5-1.7,0.7c-0.7,0.3-1.3,0.6-1.9,0.9c-1.2,0.6-2.4,1.2-3.6,1.8c-2.3,1.3-4.6,2.7-6.8,4.1
	c-1.1,0.8-2.2,1.6-3.3,2.4c-1,0.8-2,1.5-3,2.3c-0.2,0.2-0.5-0.1-0.3-0.3c0.3-0.2,0.5-0.4,0.8-0.6c0.7-0.6,1.5-1.2,2.2-1.7
	c1.4-1,2.8-2,4.2-3c2.2-1.5,4.6-2.9,6.9-4.1c1.2-0.6,2.4-1.2,3.6-1.8c0.4-0.2,0.7-0.3,1.1-0.5c0.9-0.4,1.8-0.7,2.7-1
	c1.3-0.4,2.7-0.5,4-0.4c1.3,0.2,2.6,0.6,3.7,1.1c2.3,1.3,4.4,3,6.2,4.9C368.4,269.1,368,269.4,367.9,269.2z"/>
<path class="st5" d="M156.2,216.3c31.9-10.2,67.5-7.5,97.8,6.9c8.6,4.1,16.8,9.1,24.3,15c2.1,1.7,5.2-1.3,3-3
	c-27.8-21.5-62.7-31.8-97.7-28.7c-9.7,0.9-19.3,2.8-28.5,5.7C152.5,213,153.6,217.1,156.2,216.3L156.2,216.3z"/>
<path class="st5" d="M156.2,244.6c31.9-10.2,67.5-7.5,97.8,6.9c8.6,4.1,16.8,9.1,24.3,15c2.1,1.7,5.2-1.3,3-3
	c-27.8-21.5-62.7-31.8-97.7-28.7c-9.7,0.9-19.3,2.8-28.5,5.7C152.5,241.3,153.6,245.4,156.2,244.6L156.2,244.6z"/>
<path class="st5" d="M156.2,272.9c31.9-10.2,67.5-7.5,97.8,6.9c8.6,4.1,16.8,9.1,24.3,15c2.1,1.7,5.2-1.3,3-3
	c-27.8-21.5-62.7-31.8-97.7-28.7c-9.7,0.9-19.3,2.8-28.5,5.7C152.5,269.7,153.6,273.8,156.2,272.9L156.2,272.9z"/>
<path class="st5" d="M156.2,301.3c31.9-10.2,67.5-7.5,97.8,6.9c8.6,4.1,16.8,9.1,24.3,15c2.1,1.7,5.2-1.3,3-3
	c-27.8-21.5-62.7-31.8-97.7-28.7c-9.7,0.9-19.3,2.8-28.5,5.7C152.5,298,153.6,302.1,156.2,301.3L156.2,301.3z"/>
<path class="st5" d="M156.2,329.6c31.9-10.2,67.5-7.5,97.8,6.9c8.6,4.1,16.8,9.1,24.3,15c2.1,1.7,5.2-1.3,3-3
	c-27.8-21.5-62.7-31.8-97.7-28.7c-9.7,0.9-19.3,2.8-28.5,5.7C152.5,326.3,153.6,330.4,156.2,329.6L156.2,329.6z"/>
<path class="st6" d="M271.2,142.4v79.4c0,1.4-2.4,2.5-5.5,2.8c-0.6,0.1-1.1,0.1-1.7,0.1c-1.8,0-3.5-0.3-5.1-0.8
	c-0.3-0.1-0.6-0.3-0.9-0.4c-0.8-0.5-1.2-1-1.2-1.6v-85.5c2.6,0.9,5,1.8,7.3,2.7C266.6,140.1,269,141.2,271.2,142.4z"/>
<rect x="299.7" y="169.6" class="st4" width="2.1" height="256.8"/>
<path class="st7" d="M487.4,376.6c-4.3,4.5-10.4,7-16.7,6.8c-9.6-0.3-21.1-0.5-33.6-0.2l-0.1-0.1l54-70l2.3,46.7
	C493.9,365.9,491.7,372,487.4,376.6z"/>
<polygon class="st8" points="353,621.2 350.1,644.6 347.9,662.4 347,669.5 334.5,669.5 334.5,663.2 334.5,642.1 334.5,621.2 "/>
<polygon class="st8" points="265.7,618.8 262.1,629.7 259.3,638.5 258.8,640 256.9,646 252.7,658.7 250.7,665.1 239.3,662.9 
	238.4,662.7 239.1,658.9 239.6,656.5 244.6,630.7 245.4,626.6 245.5,625.9 245.9,624 247.5,615.3 259.7,617.6 261.1,617.9 "/>
<path class="st9" d="M371.8,482c-7.2,39.3-9,56.3-9,56.3s5.4,6.3,1.8,9.8s0,10.7,0,10.7l-8,86.8l-6.5-1.1l-15.6-2.5l-5.6-0.9
	l3.6-81.4c0,0-3.6-7.2-1.8-9c1.8-1.8-1.8-12.5-1.8-12.5l-4.5-85l-27.7,93c0,0,2.7,3.6,0,6.3c-2.7,2.7-8,16.1-8,16.1l-16.5,57.7
	l-1.4,4.9l-8.6-1.6l-9.4-1.8l-1.7-0.3l-3.1-0.6l-2-0.4l-0.7-0.1l-3.2-0.6l1-4.3l0.5-2.3l14-62l0.3-1.4l0.3-1.5c0,0-1.8-4.5,0.9-7.2
	c1.6-1.7,2.3-4,1.8-6.3c-0.1-0.1-0.2-0.2-0.2-0.3c-0.3-0.4-0.5-0.9-0.6-1.5c-0.2-1.1,0-2.7,1.8-4.5c0.5-0.5,0.9-1.2,1.3-1.8
	c2.7-5.2,4.1-16.1,4.1-16.1s2.4-86.4,10.3-99.6c0.3-0.6,0.8-1.1,1.3-1.5c8.9-5.4,94.8,0,94.8,0s0.1,0.6,0.3,1.8
	C374.9,424.2,377.9,448.6,371.8,482z"/>
<path id="fa90ba82-4976-41ea-9b03-d8a96d925ef6-198" class="st8" d="M369,323.2l2.5-15.1l46.2,7.8l65.5,4.7c3.6-4,9.9-4.3,13.9-0.7
	c4,3.6,4.3,9.9,0.7,13.9c-3.6,4-9.9,4.3-13.9,0.7c-1-0.9-1.8-2-2.4-3.3l-40.2,2.7L369,323.2z"/>
<path id="fb44d525-e05f-4433-9150-930b9a652ce4-199" class="st6" d="M334.5,312.8l3.3-13.5c0,0,17.7-3.3,31.7-0.1l52.6,10.1
	l-4.3,31.8L334.5,312.8z"/>
<path id="ed2da19a-1c50-4597-bafc-ed19ebf50383-200" class="st8" d="M212.3,423.8l29.5-64l21.5-45.3l18.6,11l-58,105.3
	c1.4,5.2-1.7,10.6-6.9,12.1c-5.2,1.4-10.6-1.7-12.1-6.9c-1.4-5.2,1.7-10.6,6.9-12.1C211.9,423.9,212.1,423.8,212.3,423.8
	L212.3,423.8z"/>
<path id="a46ff28a-e8a9-4d92-ab46-12a75733fdc3-201" class="st6" d="M297.2,295.1l-14.3-6.6c0,0-2.5-0.9-8,6.7s-52.5,79-52.5,79
	l29.9,13.5L297.2,295.1z"/>
<path class="st9" d="M369.2,683.5l-18.6-12.9v-8.4l-2.7,0.2l-13.4,0.8l-3.5,0.2l-2.4,29.2l0,0.4h8.8l0.1-0.4l1.5-7.9l3.8,7.9
	l0.2,0.4h23.3c0.7,0,1.4-0.1,2-0.4c2.7-1.1,3.9-4.2,2.8-6.9C370.6,684.8,370,684,369.2,683.5L369.2,683.5z"/>
<path class="st9" d="M269.9,684.2l-8.1-8.8l-5.7-6.2l-0.9-1l-0.1-0.2l-0.5-0.5l1.9-8.2l-3.8-0.6l-13.2-2.2l-0.7-0.1l-1.4-0.2l-0.3,0
	l-4.5,14.2l-4.1,12.8l-0.4,1.4l5.4,1.2l3.2,0.7l1.6-3.6l0.2-0.4l1-2.3v0l0.6-1.4l2.1,9l0.4,0.1l0,0l1.3,0.3l2.5,0.6l17.3,4l1.2,0.3
	c2.8,0.6,5.6-1.1,6.3-4C271.5,687.2,271.1,685.5,269.9,684.2z"/>
<path class="st8" d="M350.2,253.9c-4.1,7.5-11.3,12.8-19.7,14.6c-0.5,0.1-0.9,0.2-1.4,0.2c-15.9,2.5-30.8-8.4-33.3-24.3
	c-2.5-15.9,8.4-30.8,24.3-33.3c15.9-2.5,30.8,8.4,33.3,24.3C354.4,241.8,353.2,248.2,350.2,253.9z"/>
<path class="st9" d="M338.6,214.3c-9.5-6.6-17.9-7.6-24.8-5.7c-0.9-1.4-2.1-2.5-3.6-3.2c-5.4-13.5-21.7-21.7-35.8-17.7
	c-14.1,4-23.9,19.6-21.2,34.1c1.6,9,7.3,16.7,9.5,25.5c4.4,17.1-6.3,36.6-23,42.1c15.8,3.2,33.3-6.5,39-21.6
	c2.8-7.3,2.9-15.4,3.3-23.2c0.1-5.4,0.8-10.8,2-16.1c0.6-2.4,1.5-4.7,2.6-6.8c2.4-4.8,6.3-8.6,11.2-10.9c-0.9,2.7-0.4,5.7,1.3,8
	c-3.7,4.7-5.7,9.7-5.7,12.7c-7.7,14.1,3.3,26.2,17.4,33.9c5.6,3.1,12.1,4.2,18.5,3.2l0.6-2.5l0.8,2.3l2.7,7.6
	c3.1,1.5,6.1,3.1,9.2,4.9c-1.1-5.4-2.1-10.8-2.7-16.1c-0.9-7.2,2.2-17.9,4.4-24.3c1.4-4,2.1-8.2,2.1-12.4v-0.2l2.2,7l7.9-3.4
	C354.7,223.1,356.2,213.5,338.6,214.3z"/>
<path class="st6" d="M277.9,407.8c1-4.1,1-8.4,0-12.5c-1.8-6.3,1.8-8.9,1.8-8.9l0.9-96.6c3.8-3.8,13.9-3.8,19.6-3.5v-4.3
	c0-3.3,2.6-5.9,5.9-5.9h26.2c3.3,0,5.9,2.6,5.9,5.9v5.1l7.7,0.1c13.4,1,25.1,14.2,25.1,14.2L359.3,346c0,0,3.6,36.7,8,41.1
	c4.5,4.5,2.7,7.2,2.7,7.2s-2.7,9.8,2.7,13.4c5.4,3.6,1.8,9.8,1.8,9.8s-96.6,1.8-99.3-0.9C272.5,414,277.9,407.8,277.9,407.8z"/>
<path class="st3" d="M455.9,693.8c0,0.7-0.5,1.2-1.2,1.2c0,0,0,0,0,0H174.4c-0.7,0-1.2-0.5-1.2-1.2s0.5-1.2,1.2-1.2h280.3
	C455.3,692.6,455.8,693.1,455.9,693.8C455.9,693.8,455.9,693.8,455.9,693.8z"/>
</svg>
