<?xml version="1.0" encoding="utf-8"?>
<!-- Generator: Adobe Illustrator 27.8.1, SVG Export Plug-In . SVG Version: 6.00 Build 0)  -->
<svg version="1.1" id="Ebene_1" xmlns="http://www.w3.org/2000/svg" xmlns:xlink="http://www.w3.org/1999/xlink" x="0px" y="0px"
	 viewBox="0 0 534.7 589.1" style="enable-background:new 0 0 534.7 589.1;" xml:space="preserve">
<style type="text/css">
	.st0{fill:#F2F2F2;}
	.st1{fill:#3F3D56;}
	.st2{fill:#FFFFFF;}
	.st3{fill:#A0616A;}
	.st4{fill:#CCCCCC;}
	.st5{fill:#2F2E41;}
	.st6{fill:#E6E6E6;}
	.st7{fill:#4051b5;}
</style>
<path class="st0" d="M225,273.3c-70.1,0-127-56.9-127-127s56.9-127,127-127s127,56.9,127,127C351.9,216.4,295.1,273.2,225,273.3z
	 M225,21.3c-69,0-125,56-125,125s56,125,125,125s125-56,125-125l0,0C349.9,77.3,294,21.4,225,21.3L225,21.3z"/>
<path class="st1" d="M234.7,174.1h81.4c0.6,0,1-0.4,1-1s-0.4-1-1-1h-81.4c-0.6,0-1,0.4-1,1S234.1,174.1,234.7,174.1z"/>
<path class="st2" d="M336.4,171.1c-14.2,0-25.6,11.5-25.6,25.6v108.7c0,14.2,11.5,25.6,25.6,25.6h168.7c14.2,0,25.6-11.5,25.6-25.6
	V196.7c0-14.2-11.5-25.6-25.6-25.6H336.4z"/>
<path class="st1" d="M505.1,411.9H336.4c-14.7,0-26.6-17.8-26.6-39.8V209.9c0-21.9,11.9-39.7,26.6-39.8h168.7
	c14.7,0,26.6,17.8,26.6,39.8v162.3C531.8,394.1,519.8,411.9,505.1,411.9z M336.4,173.1c-13.6,0-24.6,16.5-24.6,36.8v162.3
	c0,20.3,11,36.8,24.6,36.8h168.7c13.6,0,24.6-16.5,24.6-36.8V209.9c0-20.3-11-36.8-24.6-36.8H336.4z"/>
<path class="st3" d="M231.8,164.7c-5.2,0.9-8.8,5.8-8,11.1c0.1,0.5,0.2,1,0.4,1.5l-50.3,44.3l18.6,13.1l44.5-51.8
	c4.1-1.7,6.5-6,5.9-10.4c-0.8-5.1-5.6-8.6-10.7-7.8c0,0,0,0,0,0C232,164.7,231.9,164.7,231.8,164.7z"/>
<path class="st1" d="M212.7,214.9c0,0-11.3,13.1-25.2,27.9c-1,1-1.9,2-2.9,3.1c-8.4,8.9-17.5,18.1-25.3,25.3
	c-8.4,7.7-15.4,13-18.8,13.1c-0.3,0-0.6,0-0.8-0.1c-10.2-3.1-1.8,0.6-6.1,6.8c-4.4,6.2-3.8-1.9-13.6-6.8c-9.8-4.9-4.6,0-8.5,7.6
	c-1.2,2.4-11.8,1.9-25.8,0.1c-1.6-13.4-3.9-24.9-3.9-24.9c0-8,0.8-16,2.4-23.8c24.4-0.4,44.6-0.7,45.6-0.4c2.7,0.8,8.4-1.2,14.7-4.8
	c0.9-0.5,2.6-1.7,4.9-3.4c2-1.5,4.4-3.3,7.1-5.3c3-2.3,8.1-3.6,9.8-7.6c4.8-11.7,3.2-3,4.5-3.5c1.5-0.6,4.1-0.9,5.6-1.8
	c0.9-0.4,1.3-1.3,1.2-2.2c-0.1-0.4-0.2-0.7-0.4-1.1c-1.4-2.8,0.7-3,2.7-3.3c0.8,0,1.6-0.3,2.3-0.7c8-6.3,14-11.2,14-11.2l2.2,2.2
	l0,0l12.8,12.9L212.7,214.9z"/>
<path class="st0" d="M201.8,587.9H75.4c-5.4,0-9.8-5.6-9.8-12.4V441.2c0-6.8,4.4-12.4,9.8-12.4h126.4c5.4,0,9.8,5.6,9.8,12.4v134.3
	C211.6,582.3,207.2,587.9,201.8,587.9z"/>
<path class="st4" d="M0,587.6c-0.1,0.7,0.5,1.4,1.2,1.5h532.3c0.8-0.2,1.3-1,1.1-1.9c-0.1-0.6-0.6-1-1.1-1.1H1.2
	C0.5,586.2-0.1,586.9,0,587.6z"/>
<polygon class="st3" points="289.6,569.2 302.3,569.2 308.4,520.1 289.6,520.1 "/>
<path class="st5" d="M289.1,582.5l39.2,0V582c0-8.4-6.8-15.3-15.3-15.3h0l-7.2-5.4l-13.4,5.4l-3.4,0L289.1,582.5z"/>
<polygon class="st3" points="210.4,563.4 222.7,566.8 241.8,521.2 223.7,516.1 "/>
<path class="st5" d="M206.4,576.1l37.7,10.6l0.1-0.5c2.3-8.1-2.4-16.5-10.5-18.8l0,0l-5.4-7.2l-14.3,1.6l-3.3-0.9L206.4,576.1z"/>
<path class="st5" d="M177.8,354.1c0,0-4.1-0.4,6.4,3.2c11.3,3.9,28.5,3.4,45,9.3c5.1,1.8,10.2,3.7,15.3,5.5c1,0.4,2.1,0.8,3.1,1.1
	c6.7,2.4,13.2,4.9,19.4,7.2c0.9,0.3,1.7,0.7,2.6,1c0,0,0,0,0.1,0c20.2,7.7,36,14.2,38.6,16.8c2.8,2.8,4,21.7,4.3,45.1
	c0.6,43.3-1.7,102-1.7,102l-23.6-0.1c0,0-0.2-0.5-0.4-1.5c-0.5-1.8-1.5-5.1-2.8-9.5c-5.4-18.2-16.2-54.2-22.1-70.7
	c-1.7-4.7-3-7.8-3.7-8.5c-4-4.1,0-5.9,4-8.5s0-3.4-2.9-6.8c-2.9-3.4,1.1-11.1,1.1-11.1s-2.7-0.1-6.9-0.2c-6.3-0.2-16-0.4-25.8-0.6
	c0,0,0,0,0,0c-3.7-0.1-7.3-0.2-10.8-0.3c-2.7-0.1-5.3-0.1-7.7-0.2c-7.2-0.2-12.6-0.3-14-0.3c-4.4,0-1,0-3.7-3.5
	c-0.4-0.5-0.9-1-1.3-1.5c-0.7-0.7-1.4-1.4-2.2-2.1c-0.6-0.3,0.2,1.3-0.2,3.4c-0.2,1.1-0.8,2.2-1.5,3c-4,4.4-16.1-0.3-16.1-0.3
	c-20,10-36.5,9.3-49.1,4.6c-9.1-3.5-17.3-9.1-23.8-16.3c-2.6-2.7-4.9-5.7-7-8.9l-1.6-0.3c0,0-2.2-74.4,0.3-79.4c4-7.8,63-2,63-2
	L177.8,354.1z"/>
<path class="st1" d="M287.7,53.1h81.4c0.6,0,1-0.4,1-1s-0.4-1-1-1h-81.4c-0.6,0-1,0.4-1,1S287.1,53.1,287.7,53.1z"/>
<path class="st6" d="M397.9,132.6c-16.5-22-26.1-46.5-26.4-74.5c-1.1-3.1,0.5-6.6,3.7-7.7l56.3-19.9c3.1-1.1,6.6,0.5,7.7,3.7
	l26.4,74.5c1.1,3.1-0.5,6.6-3.7,7.7l-56.3,19.9C402.5,137.4,399.1,135.8,397.9,132.6z"/>
<path class="st2" d="M394.3,108.6c-9.9-10-14.2-27.9-17-47.9c-1-2.9,0.5-6.2,3.4-7.2l48.4-17.1c2.9-1,6.2,0.5,7.2,3.4l23.5,66.3
	c1,2.9-0.5,6.2-3.4,7.2l-30,10.6C413.3,128.5,398.9,121.7,394.3,108.6z"/>
<path class="st7" d="M437,75.5L399.3,89c-1.2,0.4-2.6-0.2-3.1-1.4s0.2-2.6,1.4-3.1c0,0,0,0,0,0L435.4,71c1.2-0.4,2.6,0.2,3.1,1.5
	C438.9,73.7,438.3,75.1,437,75.5L437,75.5z"/>
<path class="st7" d="M403.2,73.6l-8.3,3c-1.2,0.4-2.6-0.2-3.1-1.5c-0.4-1.2,0.2-2.6,1.5-3.1l8.3-3c1.2-0.4,2.6,0.2,3.1,1.5
	C405.1,71.8,404.4,73.2,403.2,73.6L403.2,73.6z"/>
<path class="st7" d="M444.1,95.4l-37.7,13.4c-1.2,0.4-2.6-0.2-3.1-1.5c-0.4-1.2,0.2-2.6,1.5-3.1l37.7-13.4c1.2-0.4,2.6,0.2,3.1,1.4
	S445.4,94.9,444.1,95.4C444.1,95.4,444.1,95.4,444.1,95.4L444.1,95.4z"/>
<path class="st7" d="M440.6,85.5l-37.7,13.4c-1.2,0.4-2.6-0.2-3.1-1.5c-0.4-1.2,0.2-2.6,1.5-3.1l37.7-13.4c1.2-0.4,2.6,0.2,3.1,1.5
	C442.4,83.6,441.8,85,440.6,85.5z"/>
<circle class="st7" cx="374.8" cy="56.1" r="10"/>
<path class="st1" d="M193.9,34.1h-81.4c-0.6,0-1-0.4-1-1s0.4-1,1-1h81.4c0.6,0,1,0.4,1,1S194.4,34.1,193.9,34.1z"/>
<path class="st6" d="M7.1,69.6C14.2,43,27.6,20.3,49.4,2.8c1.8-2.8,5.5-3.6,8.3-1.9l50.4,32c2.8,1.8,3.6,5.5,1.9,8.3L67.7,108
	c-1.8,2.8-5.5,3.6-8.3,1.9L9,77.9C6.2,76.1,5.3,72.4,7.1,69.6z"/>
<path class="st2" d="M23.8,51.9C25.5,37.8,37,23.4,51,8.9c1.7-2.6,5.2-3.4,7.8-1.7l43.3,27.5c2.6,1.7,3.4,5.2,1.7,7.8l-37.7,59.4
	c-1.7,2.6-5.2,3.4-7.8,1.7l-26.8-17C19.8,79.1,16.3,63.6,23.8,51.9z"/>
<path class="st7" d="M76.2,65L42.3,43.7c-1.1-0.7-1.5-2.2-0.8-3.3c0.7-1.1,2.2-1.5,3.3-0.8L78.7,61c1.1,0.7,1.5,2.2,0.8,3.3
	C78.8,65.4,77.3,65.7,76.2,65L76.2,65z"/>
<path class="st7" d="M56.8,37.3l-7.4-4.7c-1.1-0.7-1.5-2.2-0.8-3.3c0.7-1.1,2.2-1.5,3.3-0.8l7.4,4.7c1.1,0.7,1.5,2.2,0.8,3.3
	C59.4,37.6,57.9,38,56.8,37.3z"/>
<path class="st7" d="M64.9,82.9L31.1,61.6c-1.1-0.7-1.5-2.2-0.8-3.3c0.7-1.1,2.2-1.5,3.3-0.8l33.8,21.3c1.1,0.7,1.5,2.2,0.8,3.3
	C67.5,83.2,66,83.6,64.9,82.9z"/>
<path class="st7" d="M70.5,73.9L36.7,52.6c-1.1-0.7-1.5-2.2-0.8-3.3c0.7-1.1,2.2-1.5,3.3-0.8l0,0l33.8,21.3c1.1,0.7,1.5,2.2,0.8,3.3
	C73.1,74.3,71.7,74.7,70.5,73.9L70.5,73.9z"/>
<circle class="st7" cx="106.8" cy="37.1" r="10"/>
<circle class="st7" cx="321.8" cy="177.1" r="10"/>
<path class="st5" d="M275,427c-4.2,22.7-21.8,76-32.5,107.1c-4.9,14.2-5.3,8.9-5.3,8.9l-5.5-1.8l-9.4-3l-3.4-1.1l-4.1-1.3
	c0,0-2-36.2-2.7-63.4c-0.2-8.8-0.6-15-1.2-16.3c-2.6-5.1,1.8-5.6,6.3-6.9c4.6-1.3,1-3.2-0.8-7.4c-1.2-2.8,1.2-6.4,2.9-8.5
	c0.5-0.6,1-1.2,1.5-1.7c0,0-11.7-4-24.9-8.5c0,0,0,0,0,0c-1.3-0.5-2.7-0.9-4-1.4c4.7-1.7,7.8-3,8.5-3.7c4.1-4,5.9,0,8.5,4
	s3.4,0,6.8-2.9c3.4-2.9,11.1,1.1,11.1,1.1s0.1-2.7,0.2-6.9c0.2-6.3,0.4-16,0.6-25.8c0,0,0,0,0,0c0.1-3.7,0.2-7.3,0.3-10.8
	c7.1,5.4,13.9,10.7,20.1,15.6c0,0,0,0,0,0c14.9,11.8,26.1,21.2,27.7,24.2C276.2,418.1,275.9,421.8,275,427z"/>
<path class="st1" d="M178.8,342.1l-3.7,2.4l-9.4,6.1l-12.8,8.3l-68.1,44.2c0,0-8.4-17.2-0.7-32.1c1-1.9,1.8-3.9,2.4-5.9
	c3.1-10.7-2.9-15.3-2.9-15.3s-10-9.7-0.4-18.7c2-1.8,3.1-5.6,3.6-10.5c0.8-8,0.1-18.8-1.1-28.6c-1.6-13.4-3.9-24.9-3.9-24.9
	c0-8,0.8-16,2.4-23.8c1.8-8.4,4.8-16.5,9.1-23.1c1.6-2.5,3.4-4.8,5.5-6.9c2.9-2.9,6.2-5.4,10-7.2c5.6-2.7,15.1-1.1,23.5,0.1
	c1.7,0.2,3.3,0.5,4.9,0.6c1.5,0.2,3.1,0.3,4.6,0.3l3.5,12.7l1.3,4.8l0.7,2.4l1.5,5.5l0.6,2.2l10,36.4l8.1,29.7l4.5,16.4l6.7,24.5
	L178.8,342.1z"/>
<circle class="st3" cx="123" cy="168" r="30.4"/>
<path class="st5" d="M117.3,193.1l-2.5,7.9c-5.5-2.7-11-5.5-15.6-9.5s-8.1-9.7-8.3-15.8c-0.1-3.2,0.7-6.3,0.1-9.5
	c-0.6-3.5-2.8-6.6-3.8-10c-1.9-7.4,1.7-15.1,8.6-18.4c5-2.2,10.8-1.6,16.3-2.1s11.6-3,13.1-8.3c0.6-2,0.5-4.3,2.3-5.6
	c1.8-1.2,4.3-0.9,5.7,0.8c2.6,2.9,1.9,6.8,1.3,10.3c7.2-0.9,13.6-4.9,17.8-10.8c4,3.8,4.2,10.1,0.5,14.1c0,0,0,0-0.1,0.1
	c3.6,0,6.6-2.4,7.5-5.9c2.1,2.9,4.2,5.9,4.9,9.4s-0.6,7.7-3.8,9.2c-1.6,0.6-3.4,0.9-5.2,0.8l-13.5,0.3c-8.3,0.2-15,6.9-15.2,15.2
	l0,0c-3.9-0.4-8-0.7-11.7,0.9c-1.7,0.7-3.2,2-4.2,3.6c-2.5,4.2,0,8.6,2.1,12.4c1.8,3.3,3.6,7.2,2.1,10.7"/>
<path class="st6" d="M255.9,501.3l-56.3-19.9c-3.1-1.1-4.8-4.6-3.7-7.7l26.4-74.5c1.1-3.1,4.6-4.8,7.7-3.7l56.3,19.9
	c3.1,1.1,4.8,4.6,3.7,7.7c-0.3,28-9.9,52.6-26.4,74.5C262.5,500.8,259,502.4,255.9,501.3z"/>
<path class="st2" d="M235.1,488.9l-30-10.6c-2.9-1-4.5-4.3-3.4-7.2l23.5-66.3c1-2.9,4.3-4.5,7.2-3.4l48.4,17.1
	c2.9,1,4.5,4.3,3.4,7.2c-2.8,20-7,37.9-17,47.9C262.6,486.7,248.2,493.5,235.1,488.9z"/>
<path class="st7" d="M223.1,437.5c0.4-1.2,1.8-1.9,3.1-1.5l37.7,13.4c1.2,0.4,1.9,1.8,1.5,3.1c-0.4,1.2-1.8,1.9-3.1,1.5c0,0,0,0,0,0
	l-37.7-13.4C223.3,440.1,222.6,438.7,223.1,437.5z"/>
<path class="st7" d="M256.9,435.5c0.4-1.2,1.8-1.9,3.1-1.5l8.3,3c1.2,0.4,1.9,1.8,1.5,3.1c-0.4,1.2-1.8,1.9-3.1,1.5c0,0,0,0,0,0
	l-8.3-3C257.1,438.2,256.4,436.8,256.9,435.5z"/>
<path class="st7" d="M216,457.3c0.4-1.2,1.8-1.9,3.1-1.5l37.7,13.4c1.2,0.4,1.9,1.8,1.5,3.1c-0.4,1.2-1.8,1.9-3.1,1.5c0,0,0,0,0,0
	l-37.7-13.4C216.2,459.9,215.5,458.6,216,457.3z"/>
<path class="st7" d="M219.5,447.4c0.4-1.2,1.8-1.9,3.1-1.5l37.7,13.4c1.2,0.4,1.9,1.8,1.5,3.1c-0.4,1.2-1.8,1.9-3.1,1.5c0,0,0,0,0,0
	L221,450.5C219.7,450,219.1,448.6,219.5,447.4z"/>
<path class="st3" d="M238.8,396.6c-1.5-5.1-6.8-8.1-11.9-6.7c-0.5,0.1-1,0.3-1.5,0.5l-49.7-45l-10.9,20l56.5,38.3
	c2.2,3.9,6.7,5.8,11,4.6c5-1.4,7.9-6.5,6.6-11.5C238.9,396.7,238.9,396.7,238.8,396.6z"/>
<path class="st1" d="M201.7,364.8l-1.9,2.4l-11.4,14.2l-1.5,1.9c0,0-16.3-11.2-33.9-24.4c-21.2-15.9-44.2-34.6-43.2-40.3
	c1.9-10.5-0.8-1.7-7.5-5.3c-6.7-3.6,1.5-4,5.2-14.3c3.7-10.3-0.5-4.5-8.5-7.5c-5.4-2-2.6-47.9-0.1-78.2c2.9-2.9,6.2-5.4,10-7.2
	c6.7-3.2,19.1-0.2,28.4,0.7c5.3,38.8,12.9,95.5,12.5,97.3c-0.5,2.7,2.2,8.2,6.4,14.1c2,2.8,12.3,13.4,22.6,23.7
	C190.2,353.4,201.7,364.8,201.7,364.8z"/>
<path class="st7" d="M446.9,222.1H341c-1.3,0-2.3-1-2.3-2.3c0-1.3,1-2.3,2.3-2.3c0,0,0,0,0,0h105.9c1.3,0,2.3,1,2.3,2.3
	C449.2,221,448.2,222.1,446.9,222.1z"/>
<path class="st7" d="M500.5,242.9H341c-1.3,0-2.3-1-2.3-2.3c0-1.3,1-2.3,2.3-2.3c0,0,0,0,0,0h159.5c1.3,0,2.3,1,2.3,2.3
	C502.8,241.9,501.8,242.9,500.5,242.9z"/>
<path class="st7" d="M500.5,259.2H341c-1.3,0-2.3,1-2.3,2.3s1,2.3,2.3,2.3h159.5c1.3,0,2.3-1,2.3-2.3S501.8,259.2,500.5,259.2
	L500.5,259.2z"/>
</svg>
