<?xml version="1.0" encoding="UTF-8"?>
<svg xmlns="http://www.w3.org/2000/svg" version="1.1" viewBox="0 0 657 776.1">
  <defs>
    <style>
      .cls-1 {
        fill: #2f2e41;
      }

      .cls-2 {
        fill: #feb8b8;
      }

      .cls-3 {
        fill: #e6e6e6;
      }

      .cls-4 {
        fill: #e4e4e4;
      }

      .cls-5 {
        fill: #3f3d56;
      }

      .cls-6 {
        fill: #f0f0f0;
      }

      .cls-7 {
        fill: #4051b5;
      }
    </style>
  </defs>
  <!-- Generator: Adobe Illustrator 28.6.0, SVG Export Plug-In . SVG Version: 1.2.0 Build 709)  -->
  <g>
    <g id="Layer_1">
      <path class="cls-6" d="M645.5,760.7c-3.7,5-8.3,9.3-13.6,12.6-1.1.7-2.3,1.4-3.4,2h-27.5c.3-.7.6-1.3,1-2,17.5-36.9,9.5-80.9-19.8-109.3,16.6,5.1,32,15.2,42.1,29.4,4.9,6.9,8.4,14.7,10.2,23,1.7-16.5-1-33.2-7.7-48.4,13.5,11,24,26,28,43,4,16.9,1.1,35.8-9.2,49.8Z"/>
      <path id="b35682e1-9f03-403a-b8b0-c3d37d0d1380-630" class="cls-5" d="M656.7,776.1h-257.7v-2.1h258.1l-.4,2.1Z"/>
      <path class="cls-7" d="M308.7,263.3c0,38.6-13.5,71.6-39.2,96.2-18.2,17.4-46.3,41.9-46.3,67.7v21.4h-85.5v-21.4c0-26.1-28.2-50.6-46.3-67.7-25.1-23.7-39.2-58.9-39.2-96.2v-.8c.2-70.8,57.8-128.1,128.7-127.8,70.8.2,128.1,57.8,127.8,128.6Z"/>
      <path id="ecc2cf6c-8ee8-498c-972d-3c77e28b77e9-631" class="cls-5" d="M223.2,451.5c-1.7,0-3-1.3-3-3v-21.4c0-25.1,24.8-48.6,42.9-65.7,1.5-1.4,3-2.8,4.4-4.1,25-23.9,38.3-56.4,38.3-94,0-70.2-55-125.2-125.2-125.2h-.4c-68.8,0-124.6,55.7-124.9,124.5v.7c0,36.8,13.9,71.1,38.2,94,1.2,1.2,2.5,2.4,3.8,3.6,18.3,17.2,43.4,40.7,43.4,66.3v21.4c0,1.7-1.3,3-3,3s-3-1.3-3-3h0v-21.4c0-23-24-45.5-41.5-61.9-1.3-1.2-2.6-2.4-3.8-3.6-25.5-24.1-40.1-59.9-40.1-98.4v-.7c.2-72,58.9-130.5,130.9-130.5h.4c72.1-.4,130.9,57.8,131.2,129.9,0,.5,0,.9,0,1.4,0,39.3-13.9,73.3-40.1,98.4-1.4,1.3-2.9,2.7-4.4,4.2-17.3,16.4-41,38.8-41,61.3v21.4c0,1.7-1.3,3-3,3h0Z"/>
      <path id="b22bef41-3cd7-4c1e-881c-c9a642005cb0-632" class="cls-7" d="M209,490h-57c-2.8,0-5-2.2-5-5s2.2-5,5-5h57c2.8,0,5,2.2,5,5s-2.2,5-5,5Z"/>
      <path class="cls-5" d="M186.6,523.5h-12.3c-4.3,0-8.4-1.2-12.1-3.4-1.1-.7-1.6-2-1.3-3.2.3-1.3,1.5-2.1,2.8-2.1h33.4c1.3,0,2.5.9,2.8,2.1.4,1.2-.2,2.6-1.3,3.2-3.7,2.2-7.8,3.4-12.1,3.4Z"/>
      <path class="cls-5" d="M209,505.8h-57.3s-.2-.4-.2-.4c-.3-1.4,0-2.9.9-4.1.9-1.2,2.3-1.9,3.8-1.8h48.6c1.5,0,2.9.7,3.8,1.8.9,1.1,1.2,2.6.9,4v.4c0,0-.5,0-.5,0Z"/>
      <path id="e0eb6627-54a4-4797-861b-0d156b8b485b-633" class="cls-4" d="M47.9,145.4c-1.2,0-2.4-.4-3.3-1.2L1.7,106.7c-2.1-1.8-2.2-5-.4-7.1,1.8-2,4.9-2.2,7-.5l42.9,37.5c2.1,1.8,2.3,5,.5,7.1-1,1.1-2.3,1.7-3.8,1.7h0Z"/>
      <path id="e13fc22b-cd18-4b6e-a2d4-df4b74c6b7e7-634" class="cls-4" d="M306,145.4c-2.8,0-5-2.2-5-5,0-1.4.6-2.8,1.7-3.8l42.9-37.5c2.1-1.8,5.3-1.5,7,.5,1.8,2.1,1.6,5.2-.5,7l-42.9,37.5c-.9.8-2.1,1.2-3.3,1.2Z"/>
      <path id="a74da646-4683-465e-97fe-dd817e7fc328-635" class="cls-7" d="M223.2,472.3h-85.5c-2.8,0-5-2.2-5-5s2.2-5,5-5h85.5c2.8,0,5,2.2,5,5s-2.2,5-5,5Z"/>
      <path class="cls-3" d="M178.4,341.6l-17.8,106.9h-10.1l18.1-108.5c.5-2.7,3-4.6,5.8-4.1s4.6,3,4.1,5.8Z"/>
      <path class="cls-3" d="M212.6,448.5h-10.1l-17.8-106.9c-.5-2.7,1.4-5.3,4.1-5.8s5.3,1.4,5.8,4.1l18.1,108.5Z"/>
      <path id="be3a5c8a-fbb4-472c-819b-e8dd06032f6a-636" class="cls-3" d="M148,338.1c0-2.8,2.2-5,5-5h55c2.8,0,5,2.2,5,5s-2.2,5-5,5h-55c-2.8,0-5-2.2-5-5Z"/>
      <path id="e9f776ed-f4b6-47dc-b212-c247d99ecb23-637" class="cls-4" d="M180.5,95.5c-2.8,0-5-2.2-5-5V5C175.5,2.2,177.7,0,180.5,0s5,2.2,5,5v85.5c0,2.8-2.2,5-5,5Z"/>
      <path id="eba1f826-879a-4c25-b118-6bb025be95d0-638" class="cls-2" d="M589.2,762.1h-12.3l-5.8-47.3h18.1v47.3Z"/>
      <path id="f6694a1b-3521-46e6-aa9c-51f4297aac52-639" class="cls-1" d="M592.3,774h-39.5v-.5c0-8.5,6.9-15.4,15.4-15.4h24.1v15.9Z"/>
      <path id="fae71c2d-33fb-45f7-8331-19b4de5eddc8-640" class="cls-2" d="M496.1,761.7l-11.8-3.2,6.6-47.2,17.5,4.7-12.2,45.7Z"/>
      <path id="b3b10fd6-5fa4-49f3-8270-96ad6a3a1e0e-641" class="cls-1" d="M496,774l-38.2-10.2v-.5c2.3-8.2,10.8-13.1,19-10.9h0l23.3,6.2-4.1,15.3Z"/>
      <path id="f6267da0-acb1-421a-9dac-5a6151c1f955-642" class="cls-1" d="M596.3,497.1l10.3,11.9-13.3,242.4h-28.4l-14.3-186.6-44.3,191.6-29.5-7.2,26.8-243.3,92.7-8.8Z"/>
      <path id="ea0dabd6-18d7-4484-8048-4cddc34702bd-643" class="cls-3" d="M510.4,340.6l28.2-14.2,43.4.8,37.4,19.1-21.3,106.2,9.2,55.4h0c-35.5,9.1-72.7,9.4-108.3.9h-.3c0,0,21.1-75,12.1-97.8l-.5-70.4Z"/>
      <path id="a75b604a-8411-40e9-b5d3-81fba8b6e00c-644" class="cls-2" d="M592.1,284c0-17.7-14.4-31.9-32.1-31.9-17.7,0-31.9,14.4-31.9,32.1s14.4,31.9,32.1,31.9c17.6,0,31.8-14.3,31.9-31.9v-.2Z"/>
      <path id="b97e8772-edf1-4d51-bb40-aaab108bf113-645" class="cls-2" d="M506.5,418.1c2.3,5.9,8.9,8.8,14.8,6.5.6-.2,1.2-.5,1.8-.9l57.4,30.3,1.9-14-55.7-32.9c-3.7-5.2-10.9-6.4-16.1-2.8-4.4,3.1-6,8.7-4.1,13.7h0Z"/>
      <path id="b7638692-4395-4c34-bc33-e4b41c888504-646" class="cls-2" d="M583,420.5c-3.5,5.3-10.7,6.7-15.9,3.1-.6-.4-1.1-.8-1.6-1.3l-62.6,17,.5-17.7,62.3-16.2c4.7-4.3,12-3.9,16.3.8,3.6,3.9,4,9.8,1,14.2h0Z"/>
      <path id="fb7d8996-2760-43c1-a9a4-d402d6d3756c-647" class="cls-3" d="M607.3,347.1l12.2-.8s14.3,18.9,6.4,39.3c0,0,1.4,73.5-30.3,70.5s-41.7-3-41.7-3l9.5-26.5,21.3-6.6s-6.5-28.9,5.8-40.9l16.8-32Z"/>
      <path id="a9eb06d8-8cbf-43ab-991d-4f9eccd60edd-648" class="cls-3" d="M519.1,346.5l-1.7-8.8s-25.4-.6-30.5,38c0,0-22.9,57.7-.5,65.1s47.1,0,47.1,0l-1.9-25.4-24.7-5s12.7-16.5,5.8-30.8l6.3-33Z"/>
      <path id="ba7ab43e-494b-455d-a87f-0e0f24cb0a47-649" class="cls-1" d="M571.2,299.7c-2.4-.9-5-.9-7.4-1.3-8.9-1.6-15.8-10.7-14.9-19.7.2-1.2.2-2.4,0-3.5-.6-2.6-3.5-3.9-6.1-4.3s-5.3,0-7.9-.6c-3.9-1.1-6.9-4.6-7.9-8.6-.8-4-.4-8.2,1.3-12l1.2,2.6c1.3-1.4,2.1-3,2.5-4.9,2.2.1,4.1,1.4,5.2,3.3,1.6.7,1.4-2.9,3-3.6.7-.2,1.5,0,2.1.3,3.5,1.2,7.2-.6,10.6-1.8,6-2.2,12.3-2.9,18.6-2.1,4.2.5,8.4,1.7,11.7,4.4,2.6,2.3,4.7,5.1,6.2,8.3,4,7.5,7,15.8,7,24.3,0,7-2.2,13.8-6.2,19.5-2.1,3-8.7,13.3-13.1,12.2-5.5-1.4.8-9.8-5.8-12.4Z"/>
    </g>
  </g>
</svg>