<?xml version="1.0" encoding="UTF-8"?>
<svg xmlns="http://www.w3.org/2000/svg" version="1.1" viewBox="0 0 964.7 806">
  <defs>
    <style>
      .cls-1 {
        fill: #ff6584;
      }

      .cls-2 {
        fill: #2f2e41;
      }

      .cls-3 {
        fill: #e6e6e6;
      }

      .cls-4 {
        fill: #3f3d56;
      }

      .cls-5 {
        fill: #ffb8b8;
      }

      .cls-6 {
        fill: #4051b5;
      }
    </style>
  </defs>
  <!-- Generator: Adobe Illustrator 28.6.0, SVG Export Plug-In . SVG Version: 1.2.0 Build 709)  -->
  <g>
    <g id="Layer_1">
      <path class="cls-5" d="M209.4,503.7l16.5,9.5c6.3,3.6,14.4,1.5,18-4.9.4-.6.7-1.3.9-2h0c2.5-6.8-1-14.4-7.8-17-1.2-.5-2.5-.7-3.9-.8l-19.9-1.1-60.1-18.2-9.7-36.3-25.3,14.2,17.4,41.2,73.9,15.3Z"/>
      <path class="cls-2" d="M130.9,315.4c-3.8,4.3-3.1,9.5-.3,13.7s7.4,7.7,11.4,11.5c2.6,2.4,5,4.9,6.2,7.8,1.3,3,.8,6.5-1.4,9-2.6,3.1-7.6,5.3-12.4,7.1-13.8,5.2-27.9,9.1-42.4,11.7,12.2-14.2,18.3-30.3,17.4-45.7-.2-3.2-.7-6.5.5-9.8,1.6-4,5-6.9,9.1-7.9,4.8-1.4,11.2,0,12,3.2"/>
      <polygon class="cls-5" points="26.5 772.2 44 772.9 78.4 614 48.5 615.3 26.5 772.2"/>
      <polygon class="cls-5" points="200.8 738 186.4 745.6 96.4 612 125 599.4 200.8 738"/>
      <circle class="cls-5" cx="100.4" cy="337.9" r="27.6"/>
      <path class="cls-5" d="M86.4,352.3s-9.9,20.5-23.5,19.7c0,0-25.8-10.6-34.1,18.2l-9.1,22.7,120.5,20.5s-6.8-41.7-22.7-42.4c0,0-18.2-1.5-15.9-8.3s10.6-22.7,10.6-22.7l-25.8-7.6Z"/>
      <path class="cls-2" d="M126.6,456.9l-18.2,39.4,15,63.7,73,137s-33.6,30.2-42,35c-7.3,4.2-67.8-109.6-70-133-.7-7.7-14,149-14,149,0,0-50-8.3-64-11,0,0,10.1-71.3,16-138,4.6-51.4.4-98,26.1-120.1l-2.3-44,60.6-2.3,19.7,24.2Z"/>
      <path class="cls-2" d="M32.4,801.4l27.8,4c4.5,1.7,9.5-.3,11.6-4.6h0c1.7-3.4,1.1-7.6-1.5-10.4l-11.8-12.7-8.5-18.3c-5.1-5.2-8.6-3.4-10.5,5.2l-13.6-4.3-3.6,23.9c-1.1,7.4,3.1,14.5,10.1,17.1Z"/>
      <path class="cls-2" d="M191,776.3h28.1c4.7.9,9.3-1.8,10.8-6.4h0c1.2-3.6,0-7.6-3-10l-13.6-10.8-11.1-16.9c-5.8-4.4-9-2.1-9.6,6.7l-14.1-2.2v24.2c0,7.5,5.2,13.9,12.5,15.5Z"/>
      <path class="cls-2" d="M86.5,295.5c-4.7-2-10.3-1.2-14.8,1.1s-8.1,6.2-11.3,10.2c-10.9,13.9-17.2,30.8-18.2,48.4-.2,4.8,0,9.9,2.5,14,2.8,4.5,7.8,7.1,12.8,8.9,16.8,5.8,35.1,4.8,51.2-2.8-8.4-6.8-16.2-14.4-23.3-22.6-1.3-1.5-2.7-3.5-2-5.4.4-.9,1.1-1.7,1.9-2.3l16.2-14.1-.4,5.7c6.6-.4,12.3-4.7,14.6-10.9-.8,1.6.7,3.5,2.4,3.9s3.5-.4,5.1-1.1c3.9-1.7,8.2-3.7,9.9-7.6,1.1-2.8,1-5.9-.2-8.6-1.3-2.7-3.1-5.1-5.3-7-11.1-10.2-26.7-14.1-41.3-10.3"/>
      <path class="cls-5" d="M81,499.7l12.1,14.6c4.7,5.6,13,6.4,18.6,1.8.6-.5,1.1-1,1.6-1.5h0c4.8-5.5,4.2-13.9-1.4-18.6-1-.9-2.1-1.6-3.3-2.1l-18.3-8-49.9-38.1,3.7-37.4-28.7,4.4,1.8,44.7,63.8,40.2Z"/>
      <path class="cls-2" d="M156.1,466.8s-11.8-43.2-18-43.2-14.6-.7-14.6-.7c0,0-9.9-28.8-60.6-19.7s-28.8-8.3-43.2-1.5S0,456.1,0,456.1c0,0,78.1-25.8,94.7-11.4,9.6,8.4,20,15.7,31.1,22,0,0-7.6,18.9,30.3,0Z"/>
      <rect class="cls-4" x="120.7" y="773.9" width="306" height="2"/>
      <circle class="cls-3" cx="661.7" cy="243.9" r="185"/>
      <rect class="cls-4" x="320.7" y="140.9" width="306" height="2"/>
      <rect class="cls-4" x="320.7" y="195.9" width="601" height="2"/>
      <path class="cls-4" d="M736.7,392.9c-102.6,0-186-83.4-186-186S634.1,20.9,736.7,20.9s186,83.4,186,186-83.4,186-186,186ZM736.7,22.9c-101.5,0-184,82.5-184,184s82.5,184,184,184,184-82.5,184-184S838.2,22.9,736.7,22.9h0Z"/>
      <circle class="cls-6" cx="719.5" cy="24.4" r="24.4"/>
      <circle class="cls-1" cx="551.4" cy="193.9" r="15.8"/>
      <circle class="cls-6" cx="928.6" cy="194.1" r="36.1"/>
      <path class="cls-4" d="M421.4,336.5h-109.5v2h109.5c11.2,0,20.3,9.1,20.3,20.3,0,11.2-9.1,20.3-20.3,20.3h-165.7c-11.2,0-20.3-9.1-20.3-20.3,0-11.2,9.1-20.3,20.3-20.3h6.2v-2h-6.2c-12.3,0-22.3,10-22.3,22.3,0,12.3,10,22.3,22.3,22.3h165.7c12.3,0,22.3-10,22.3-22.3,0-12.3-10-22.3-22.3-22.3Z"/>
      <path class="cls-4" d="M421.4,405.5h-109.5v2h109.5c11.2,0,20.3,9.1,20.3,20.3,0,11.2-9.1,20.3-20.3,20.3h-165.7c-11.2,0-20.3-9.1-20.3-20.3,0-11.2,9.1-20.3,20.3-20.3h6.2v-2h-6.2c-12.3,0-22.3,10-22.3,22.3,0,12.3,10,22.3,22.3,22.3h165.7c12.3,0,22.3-10,22.3-22.3,0-12.3-10-22.3-22.3-22.3Z"/>
      <path class="cls-4" d="M421.4,474.5h-109.5v2h109.5c11.2,0,20.3,9.1,20.3,20.3,0,11.2-9.1,20.3-20.3,20.3h-165.7c-11.2,0-20.3-9.1-20.3-20.3,0-11.2,9.1-20.3,20.3-20.3h6.2v-2h-6.2c-12.3,0-22.3,10-22.3,22.3,0,12.3,10,22.3,22.3,22.3h165.7c12.3,0,22.3-10,22.3-22.3,0-12.3-10-22.3-22.3-22.3Z"/>
      <path id="be0e5baf-e5ec-4f16-9492-7d4921bb2c9b-268" class="cls-6" d="M274.2,331.2c-3.3,0-5.9,2.8-5.8,6,0,3.2,2.6,5.8,5.8,5.8h26.1c3.3,0,6-2.6,6-5.9,0-3.3-2.6-6-5.8-6,0,0-.1,0-.2,0h-26.1Z"/>
      <path id="f5faaf73-4e1d-4e3d-a937-9f255bff3911-269" class="cls-1" d="M274.2,401.2c-3.3,0-5.9,2.8-5.8,6,0,3.2,2.6,5.8,5.8,5.8h26.1c3.3,0,6-2.6,6-5.9,0-3.3-2.6-6-5.8-6,0,0-.1,0-.2,0h-26.1Z"/>
      <path id="bdcbecaa-58f8-42a6-983f-c76dd899917c-270" class="cls-4" d="M274.2,469.2c-3.3,0-5.9,2.8-5.8,6,0,3.2,2.6,5.8,5.8,5.8h26.1c3.3,0,6-2.6,6-5.9,0-3.3-2.6-6-5.8-6,0,0-.1,0-.2,0h-26.1Z"/>
      <path id="bbcd49d7-9efc-41e7-bbf8-c6009cf796dd-271" class="cls-3" d="M263.9,352.9c-3.3,0-5.9,2.8-5.8,6,0,3.2,2.6,5.8,5.8,5.8h149.1c3.3,0,6-2.5,6.1-5.8,0-3.3-2.5-6-5.8-6.1,0,0,0,0,0,0,0,0-.1,0-.2,0h-149.1Z"/>
      <path id="b24c44c6-9087-448d-956a-9230903e4c37-272" class="cls-3" d="M263.9,421.9c-3.3,0-5.9,2.8-5.8,6,0,3.2,2.6,5.8,5.8,5.8h149.1c3.3,0,6-2.5,6.1-5.8,0-3.3-2.5-6-5.8-6.1,0,0,0,0,0,0,0,0-.1,0-.2,0h-149.1Z"/>
      <path id="f49c9183-be6f-4e21-8191-a3b3cb38d75e-273" class="cls-3" d="M263.9,490.9c-3.3,0-5.9,2.8-5.8,6,0,3.2,2.6,5.8,5.8,5.8h149.1c3.3,0,6-2.6,6.1-5.8,0-3.3-2.6-6-5.8-6.1,0,0,0,0,0,0,0,0-.1,0-.2,0h-149.1Z"/>
      <path class="cls-4" d="M415.3,714.3c-1.6-10-4.6-19.8-9-28.9l-.6-1.3-4.8,5.3,3.5-7.9-.2-.5c-3.1-6.2-6.6-12.2-10.4-18l-.7-1.1-.9,1,.7-1.5-.3-.5c-4.7-7-8.3-11.5-8.3-11.5l-1-1.3-.7,1.5c-.1.3-12,27.7-13.6,54.8v.4s8,9.7,8,9.7l-8.2-5.1v1.9c0,3.2.3,6.4.7,9.5.4,2.7.8,5.4,1.3,8,.8,0,1.5.3,2.2.7-.6-2.9-1.1-5.9-1.5-8.9-.3-2.4-.5-4.9-.6-7.4l15.8,9.9-15.6-18.9c1.4-22.9,10.3-46,12.7-52.1,1.3,1.7,3.8,5.1,6.9,9.6l-5.5,12.2,7.8-8.6c3.4,5.3,6.5,10.7,9.3,16.3l-8.4,18.8,11.4-12.6c4,8.5,6.7,17.6,8.2,26.9,2,15,1.6,29.5-1.1,40.7-2.6,10.7-7.1,17.3-12.5,18.1-1.1.2-2.2,0-3.3-.2-.9.6-1.9.9-3,.9h-.3c1.7.9,3.5,1.4,5.4,1.5.5,0,.9,0,1.4-.1,6.3-.9,11.3-7.9,14.2-19.6,2.8-11.4,3.2-26.2,1.1-41.5Z"/>
      <path class="cls-4" d="M397.7,774.7c-8.2,0-20.1-4.5-31.9-12.8-1.7-1.2-3.4-2.6-5-4l-1.3-1.2,5-1.4-6.6-.2-.3-.3c-12.5-13-20.2-31.5-20.3-31.6l-.6-1.5h1.6c.2,0,3.9.3,9.5,1.1h.4s0,0,0,0l1.2.2c4.6.7,9.1,1.7,13.6,2.9h.5c0,.1,1.5,3.8,1.5,3.8l-.2-3.3,1.4.4c6.5,1.9,12.7,4.7,18.3,8.5,17.9,12.5,27.8,28.2,22.6,35.7-1.8,2.6-5.1,3.8-9.4,3.8ZM363.6,757.7c1.1.9,2.2,1.8,3.4,2.6,16.4,11.5,34,15.8,38.5,9.5,4.4-6.3-5.7-21.4-22.1-32.9-5.1-3.4-10.6-6-16.4-7.8l.9,12.9-5.8-14.4c-3.8-1-7.8-1.9-11.7-2.5l.6,9.4-4-9.9c-3.1-.4-5.6-.7-7.1-.8,2.1,4.6,8.9,18.7,18.9,29.2l18.3.7-13.5,3.9Z"/>
    </g>
  </g>
</svg>