<?xml version="1.0" encoding="UTF-8"?>
<svg xmlns="http://www.w3.org/2000/svg" version="1.1" viewBox="0 0 792.3 727.8">
  <defs>
    <style>
      .cls-1 {
        fill: #2f2e41;
      }

      .cls-2 {
        fill: #e6e6e6;
      }

      .cls-3 {
        fill: #3f3d56;
      }

      .cls-4 {
        fill: #ccc;
      }

      .cls-5 {
        fill: #ffb8b8;
      }

      .cls-6 {
        fill: #fff;
      }

      .cls-7 {
        fill: #f2f2f2;
      }

      .cls-8 {
        fill: #4051b5;
      }
    </style>
  </defs>
  <!-- Generator: Adobe Illustrator 28.6.0, SVG Export Plug-In . SVG Version: 1.2.0 Build 709)  -->
  <g>
    <g id="Layer_1">
      <path class="cls-2" d="M362.9,172.9h-4V63.4C358.9,28.4,330.5,0,295.5,0H63.4C28.4,0,0,28.4,0,63.4H0v601c0,35,28.4,63.4,63.4,63.4h232.1c35,0,63.4-28.4,63.4-63.4V250.9h4v-78Z"/>
      <path class="cls-6" d="M298,16.5h-30.3c4.7,11.5-.8,24.6-12.3,29.3-2.7,1.1-5.6,1.7-8.5,1.7H114c-12.4,0-22.5-10.1-22.5-22.5,0-2.9.6-5.8,1.7-8.5h-28.3c-26.1,0-47.3,21.2-47.3,47.3v600.1c0,26.1,21.2,47.3,47.3,47.3h233.2c26.1,0,47.3-21.2,47.3-47.3h0V63.8c0-26.1-21.2-47.3-47.3-47.3h0Z"/>
      <path class="cls-4" d="M46.4,298.9c-.6,0-1-.4-1-1v-35c0-.6.4-1,1-1s1,.4,1,1v35c0,.6-.4,1-1,1Z"/>
      <path class="cls-4" d="M53.4,304.4c-.6,0-1-.4-1-1v-46c0-.6.4-1,1-1s1,.4,1,1v46c0,.6-.4,1-1,1Z"/>
      <path class="cls-4" d="M60.4,307.9c-.6,0-1-.4-1-1v-53c0-.6.4-1,1-1s1,.4,1,1v53c0,.6-.4,1-1,1Z"/>
      <path class="cls-4" d="M67.4,316.9c-.6,0-1-.4-1-1v-71c0-.6.4-1,1-1s1,.4,1,1v71c0,.6-.4,1-1,1Z"/>
      <path class="cls-4" d="M74.4,330.4c-.6,0-1-.4-1-1v-98c0-.6.4-1,1-1s1,.4,1,1v98c0,.6-.4,1-1,1Z"/>
      <path class="cls-4" d="M81.4,316.9c-.6,0-1-.4-1-1v-71c0-.6.4-1,1-1s1,.4,1,1v71c0,.6-.4,1-1,1Z"/>
      <path class="cls-4" d="M88.4,323.4c-.6,0-1-.4-1-1v-84c0-.6.4-1,1-1s1,.4,1,1v84c0,.6-.4,1-1,1Z"/>
      <path class="cls-4" d="M95.4,306.4c-.6,0-1-.4-1-1v-50c0-.6.4-1,1-1s1,.4,1,1v50c0,.6-.4,1-1,1Z"/>
      <path class="cls-4" d="M102.4,310.4c-.6,0-1-.4-1-1v-58c0-.6.4-1,1-1s1,.4,1,1v58c0,.6-.4,1-1,1Z"/>
      <path class="cls-4" d="M109.4,298.9c-.6,0-1-.4-1-1v-35c0-.6.4-1,1-1s1,.4,1,1v35c0,.6-.4,1-1,1Z"/>
      <path class="cls-4" d="M115.4,298.9c-.6,0-1-.4-1-1v-35c0-.6.4-1,1-1s1,.4,1,1v35c0,.6-.4,1-1,1Z"/>
      <path class="cls-4" d="M122.4,304.4c-.6,0-1-.4-1-1v-46c0-.6.4-1,1-1s1,.4,1,1v46c0,.6-.4,1-1,1Z"/>
      <path class="cls-4" d="M129.4,307.9c-.6,0-1-.4-1-1v-53c0-.6.4-1,1-1s1,.4,1,1v53c0,.6-.4,1-1,1Z"/>
      <path class="cls-4" d="M136.4,316.9c-.6,0-1-.4-1-1v-71c0-.6.4-1,1-1s1,.4,1,1v71c0,.6-.4,1-1,1Z"/>
      <path class="cls-4" d="M143.4,346.4c-.6,0-1-.4-1-1v-130c0-.6.4-1,1-1s1,.4,1,1v130c0,.6-.4,1-1,1Z"/>
      <path class="cls-4" d="M150.4,316.9c-.6,0-1-.4-1-1v-71c0-.6.4-1,1-1s1,.4,1,1v71c0,.6-.4,1-1,1Z"/>
      <path class="cls-4" d="M157.4,323.4c-.6,0-1-.4-1-1v-84c0-.6.4-1,1-1s1,.4,1,1v84c0,.6-.4,1-1,1Z"/>
      <path class="cls-4" d="M164.4,306.4c-.6,0-1-.4-1-1v-50c0-.6.4-1,1-1s1,.4,1,1v50c0,.6-.4,1-1,1Z"/>
      <path class="cls-4" d="M171.4,310.4c-.6,0-1-.4-1-1v-58c0-.6.4-1,1-1s1,.4,1,1v58c0,.6-.4,1-1,1Z"/>
      <path class="cls-4" d="M178.4,298.9c-.6,0-1-.4-1-1v-35c0-.6.4-1,1-1s1,.4,1,1v35c0,.6-.4,1-1,1Z"/>
      <path class="cls-4" d="M184.4,298.9c-.6,0-1-.4-1-1v-35c0-.6.4-1,1-1s1,.4,1,1v35c0,.6-.4,1-1,1Z"/>
      <path class="cls-4" d="M191.4,304.4c-.6,0-1-.4-1-1v-46c0-.6.4-1,1-1s1,.4,1,1v46c0,.6-.4,1-1,1Z"/>
      <path class="cls-4" d="M198.4,307.9c-.6,0-1-.4-1-1v-53c0-.6.4-1,1-1s1,.4,1,1v53c0,.6-.4,1-1,1Z"/>
      <path class="cls-4" d="M205.4,316.9c-.6,0-1-.4-1-1v-71c0-.6.4-1,1-1s1,.4,1,1v71c0,.6-.4,1-1,1Z"/>
      <path class="cls-4" d="M212.4,330.4c-.6,0-1-.4-1-1v-98c0-.6.4-1,1-1s1,.4,1,1v98c0,.6-.4,1-1,1Z"/>
      <path class="cls-8" d="M217.4,374.7c-.6,0-1-.4-1-1v-186.5c0-.6.4-1,1-1s1,.4,1,1v186.5c0,.6-.4,1-1,1Z"/>
      <path class="cls-4" d="M219.4,316.9c-.6,0-1-.4-1-1v-71c0-.6.4-1,1-1s1,.4,1,1v71c0,.6-.4,1-1,1Z"/>
      <path class="cls-4" d="M226.4,323.4c-.6,0-1-.4-1-1v-84c0-.6.4-1,1-1s1,.4,1,1v84c0,.6-.4,1-1,1Z"/>
      <path class="cls-4" d="M233.4,306.4c-.6,0-1-.4-1-1v-50c0-.6.4-1,1-1s1,.4,1,1v50c0,.6-.4,1-1,1Z"/>
      <path class="cls-4" d="M240.4,310.4c-.6,0-1-.4-1-1v-58c0-.6.4-1,1-1s1,.4,1,1v58c0,.6-.4,1-1,1Z"/>
      <path class="cls-4" d="M247.4,298.9c-.6,0-1-.4-1-1v-35c0-.6.4-1,1-1s1,.4,1,1v35c0,.6-.4,1-1,1Z"/>
      <path class="cls-4" d="M253.4,298.9c-.6,0-1-.4-1-1v-35c0-.6.4-1,1-1s1,.4,1,1v35c0,.6-.4,1-1,1Z"/>
      <path class="cls-4" d="M260.4,304.4c-.6,0-1-.4-1-1v-46c0-.6.4-1,1-1s1,.4,1,1v46c0,.6-.4,1-1,1Z"/>
      <path class="cls-4" d="M267.4,307.9c-.6,0-1-.4-1-1v-53c0-.6.4-1,1-1s1,.4,1,1v53c0,.6-.4,1-1,1Z"/>
      <path class="cls-4" d="M274.4,316.9c-.6,0-1-.4-1-1v-71c0-.6.4-1,1-1s1,.4,1,1v71c0,.6-.4,1-1,1Z"/>
      <path class="cls-4" d="M281.4,346.4c-.6,0-1-.4-1-1v-130c0-.6.4-1,1-1s1,.4,1,1v130c0,.6-.4,1-1,1Z"/>
      <path class="cls-4" d="M288.4,316.9c-.6,0-1-.4-1-1v-71c0-.6.4-1,1-1s1,.4,1,1v71c0,.6-.4,1-1,1Z"/>
      <path class="cls-4" d="M295.4,323.4c-.6,0-1-.4-1-1v-84c0-.6.4-1,1-1s1,.4,1,1v84c0,.6-.4,1-1,1Z"/>
      <path class="cls-4" d="M302.4,306.4c-.6,0-1-.4-1-1v-50c0-.6.4-1,1-1s1,.4,1,1v50c0,.6-.4,1-1,1Z"/>
      <path class="cls-4" d="M309.4,310.4c-.6,0-1-.4-1-1v-58c0-.6.4-1,1-1s1,.4,1,1v58c0,.6-.4,1-1,1Z"/>
      <path class="cls-4" d="M316.4,298.9c-.6,0-1-.4-1-1v-35c0-.6.4-1,1-1s1,.4,1,1v35c0,.6-.4,1-1,1Z"/>
      <path class="cls-3" d="M74.4,540.5v35.7l28-17.8-28-17.9Z"/>
      <ellipse class="cls-8" cx="179.4" cy="558.3" rx="20" ry="20" transform="translate(-342.1 290.2) rotate(-45)"/>
      <path class="cls-3" d="M266.7,574.3h-6.9c-1.9,0-3.4-1.5-3.4-3.4v-25.1c0-1.9,1.5-3.4,3.4-3.4h6.9c1.9,0,3.4,1.5,3.4,3.4v25.2c0,1.9-1.5,3.4-3.4,3.4ZM288.4,570.9v-25.2c0-1.9-1.5-3.4-3.4-3.4h-6.9c-1.9,0-3.4,1.5-3.4,3.4v25.2c0,1.9,1.5,3.4,3.4,3.4h6.9c1.9,0,3.4-1.5,3.4-3.4h0Z"/>
      <path class="cls-4" d="M269.1,401.4H93.8c-.7,0-1.2-.5-1.2-1.2,0-.7.5-1.2,1.2-1.2h175.3c.7,0,1.2.5,1.2,1.2s-.5,1.2-1.2,1.2Z"/>
      <path class="cls-4" d="M269.1,161.4H93.8c-.7,0-1.2-.5-1.2-1.2,0-.7.5-1.2,1.2-1.2h175.3c.7,0,1.2.5,1.2,1.2,0,.7-.5,1.2-1.2,1.2Z"/>
      <path class="cls-7" d="M552.6,317.5c-.1,0-.2,0-.4,0l-34.2-4.5c-1.5-.2-2.6-1.6-2.4-3.2,0-.5.3-1,.6-1.4l23.8-28.4c1-1.2,2.8-1.4,4-.4.4.3.7.8.9,1.3l10.3,32.9c.5,1.5-.4,3.1-1.8,3.5-.3,0-.6.1-.8.1h0Z"/>
      <path class="cls-7" d="M488.6,471.4c-1.5,0-2.8-1.2-2.8-2.8l-.4-37.1c0-1.6,1.2-2.8,2.8-2.9.5,0,1.1.1,1.5.4l29.3,18.2c1.3.8,1.7,2.6.9,3.9-.2.4-.5.6-.9.9l-28.9,18.9c-.4.3-1,.5-1.5.5h0Z"/>
      <path class="cls-7" d="M760.6,528.4c-1.5,0-2.8-1.2-2.8-2.8l-.4-37.1c0-1.6,1.2-2.8,2.8-2.9.5,0,1.1.1,1.5.4l29.3,18.2c1.3.8,1.7,2.6.9,3.9-.2.4-.5.6-.9.9l-28.9,18.9c-.4.3-1,.5-1.5.5h0Z"/>
      <path class="cls-1" d="M618.2,403.6c-8.1-3.7-13.4-14.4-13.1-24.9s5.8-20.3,13.5-25.3c7.6-4.8,17-5.6,25.2-1.9,8.2,3.5,19.2,4.4,24.1,13.1,3.8,6.7,2.4,21.5-.3,28.9-2.3,6.4-8,10-13.5,12-12.4,4.5-26,3.4-37.5-3"/>
      <polygon class="cls-5" points="707.9 697.4 696.4 701.7 674.4 659.4 691.4 653.1 707.9 697.4"/>
      <path class="cls-1" d="M687,701.5l22.2-8.2h0l5.2,14h0l-36.1,13.4h0c-2.9-7.7,1.1-16.3,8.8-19.1h0Z"/>
      <polygon class="cls-5" points="597.7 709.2 585.4 709.2 579.6 661.9 597.7 661.9 597.7 709.2"/>
      <path class="cls-1" d="M576.7,705.7h23.6v14.9h-38.5c0-8.2,6.7-14.9,14.9-14.9Z"/>
      <path class="cls-5" d="M560.4,538.8c5.9-.6,10.2-5.9,9.5-11.8,0-.6-.2-1.3-.4-1.9l40.3-69.6-14.1-5.6-40.3,68c-5.6,2-8.5,8.2-6.4,13.8,1.7,4.7,6.4,7.6,11.4,7h0Z"/>
      <path class="cls-1" d="M600.8,480.2l-21.4-13.3,20.2-36.8c3.7-6.7,12.1-9.1,18.8-5.5,6.7,3.7,9.1,12.1,5.5,18.8-.1.2-.3.5-.4.7l-22.6,36.2Z"/>
      <path class="cls-1" d="M682.7,677.1c-1.7,0-3.2-1-4-2.5l-53.3-109.8c-.9-1.7-3-2.4-4.7-1.5-.9.5-1.6,1.4-1.8,2.4l-19,104.6c-.4,2.1-2.3,3.6-4.4,3.6h-12.1c-2.3,0-4.3-1.8-4.5-4.1-7.4-81.6-3.4-141,12-176.5.9-2,3.1-3.1,5.3-2.5l61.4,16.5c1.6.4,2.8,1.7,3.2,3.2l38.5,157.1c.6,2.3-.7,4.7-3,5.4l-12.2,3.8c-.4.1-.9.2-1.4.2Z"/>
      <circle class="cls-5" cx="634.9" cy="389" r="24.6"/>
      <path class="cls-8" d="M658.1,425s-22-12-39,1c0,0-21.5,21.5-14.5,42.5l-17.5,49.5c13.8,26.3,54.4,22,74,0l-1.5-47.5-1.5-45.5Z"/>
      <path class="cls-1" d="M672.1,557.2c-3.8.1-7.6-.7-11-2.5-5.4-2.9-8.7-8.3-9.9-16.2-1.9-13.1-.3-31.1,1.3-50.2,2.2-24.8,4.4-50.5-1.6-64.6-1-2.3,0-4.9,2.4-5.9.8-.3,1.7-.4,2.5-.3l17.2,3c1.8.3,3.3,1.7,3.7,3.6l23.9,121.3c.4,2-.6,4.1-2.5,4.9-5.2,2.4-16,6.9-26,6.9Z"/>
      <path class="cls-1" d="M581.9,555.6c-.6,0-1.2-.1-1.8-.4-2.8-1.2-6.8-3-11.6-5.3-13.5-6.3,22.1-93.4,29.4-110.8.3-.6.6-1.1,1.1-1.6l19.5-17.8c2-1.5,4.8-1.2,6.3.8.9,1.1,1.2,2.7.8,4-3.4,11.5-9.5,30.7-15.9,51.1-10.1,32.1-20.6,65.4-23.4,76.5-.5,2-2.3,3.4-4.4,3.4h0Z"/>
      <path class="cls-5" d="M719,534.5c3-5.1,1.4-11.7-3.7-14.7-.5-.3-1.1-.6-1.7-.8l-31.2-74.1-13,7.9,30,73.2c-1.7,5.7,1.5,11.7,7.2,13.5,4.8,1.5,9.9-.5,12.5-4.8h0Z"/>
      <path class="cls-1" d="M673.1,476l-17.2-38.3c-3.1-7,0-15.1,6.9-18.3,7-3.1,15.1,0,18.3,6.9.1.2.2.5.3.7l15.2,39.8-23.5,9.1Z"/>
      <path class="cls-1" d="M652.4,358.5c1.8.3,3.6-.7,4.3-2.4.7-1.7.5-3.6-.4-5.1-.9-1.5-2.2-2.8-3.8-3.7-1.8-1.2-3.8-1.9-6-2.1-2.2-.1-4.3.7-5.8,2.2-1.5,1.6-1.9,3.9-1,5.9.9,1.7,2.8,2.7,4.6,3.4,3.6,1.3,7.5,1.8,11.4,1.5"/>
      <path class="cls-1" d="M661.1,385c-3.8,1.1-3.6-.9-5.7-4.3s-4.8-7.4-8.8-7.2c-3.3.2-5.5,3.1-7.9,5.4-4.1,4.1-10.2,6.7-15.8,5.4s-10.4-7.1-9.1-12.8c.8-3.2,3-5.9,5.9-7.5,2.9-1.5,6.1-2.5,9.3-2.7,7.2-.8,14.5,0,21.4,2.2,4.8,1.6,9.5,4.2,11.9,8.6s4.4,10.8-.2,12.8h-1Z"/>
      <path class="cls-1" d="M649,345.8c-3.2-4.1-2-10.6,1.8-14.2s9.4-4.8,14.6-4.3c10.5,1.1,19.7,7.6,24,17.3,3.3,7.5,3.3,16.2,6.2,23.8,6.4,16.5,25.1,24.7,41.6,18.3.6-.2,1.2-.5,1.8-.8,5.2-2.4,10.1-7.1,9.8-12.8,3.3,12.6-2.6,27.1-13.8,33.8-6.6,3.9-14.3,5.3-21.9,6.2-5,.6-10,1-14.9-.2-6.8-1.7-12.4-6.7-15.8-12.8s-4.8-13.2-4.8-20.1c0-5.4.7-10.9.3-16.3s-2-11-5.9-14.8-10.6-5-14.9-1.7c-1.7,1.3-3,3.3-5,4.3s-5,.2-5.2-2l2-3.8Z"/>
      <path class="cls-3" d="M780.3,722h-307.3c-.7,0-1.2-.5-1.2-1.2,0-.7.5-1.2,1.2-1.2h307.3c.7,0,1.2.5,1.2,1.2,0,.7-.5,1.2-1.2,1.2Z"/>
    </g>
  </g>
</svg>