<?xml version="1.0" encoding="utf-8"?>
<!-- Generator: Adobe Illustrator 27.9.0, SVG Export Plug-In . SVG Version: 6.00 Build 0)  -->
<svg version="1.1" id="Ebene_1" xmlns="http://www.w3.org/2000/svg" xmlns:xlink="http://www.w3.org/1999/xlink" x="0px" y="0px"
	 viewBox="0 0 747.6 526" style="enable-background:new 0 0 747.6 526;" xml:space="preserve">
<style type="text/css">
	.st0{fill:#FFB8B8;}
	.st1{fill:#2F2E41;}
	.st2{fill:#4051B5;}
	.st3{fill:#3F3D56;}
	.st4{fill:#CCCCCC;}
	.st5{fill:#E6E6E6;}
	.st6{fill:#FFFFFF;}
</style>
<g id="Group_33" transform="translate(-227 -187)">
	<path id="Path_498-352" class="st0" d="M836.4,535.2c3.2-4.1,2.4-10-1.7-13.2c-0.4-0.3-0.9-0.6-1.4-0.9l1.9-21.3l-12.7-4.3
		l-2.2,30.2c-2.1,4.8,0.1,10.3,4.8,12.4C829.1,539.9,833.8,538.7,836.4,535.2L836.4,535.2z"/>
	<path id="Path_499-353" class="st0" d="M899.8,701.2h-11.4l-5.4-44.1h16.9L899.8,701.2z"/>
	<path id="Path_500-354" class="st1" d="M880.2,697.9h22v13.9h-35.9C866.3,704.1,872.5,697.9,880.2,697.9L880.2,697.9z"/>
	<path id="Path_501-355" class="st0" d="M873.9,671.9l-11.1,2.7l-15.8-41.5l16.4-4L873.9,671.9z"/>
	<path id="Path_502-356" class="st1" d="M854.2,673l21.4-5.3l3.3,13.5l-34.9,8.6C842.2,682.4,846.8,674.8,854.2,673
		C854.2,673,854.2,673,854.2,673L854.2,673z"/>
	<path id="Path_503-357" class="st1" d="M886.4,687.1c-2.2,0-4-1.6-4.2-3.8l-13.2-122.5l-11.4,37.5l16.2,58.5
		c0.6,2.1-0.5,4.3-2.5,5.1l-12.9,5.2c-2.2,0.9-4.6-0.2-5.5-2.4c0-0.1,0-0.1-0.1-0.2l-19.9-57c-2.2-6.2-3.1-12.8-2.8-19.4l2.8-61.5
		l73,3.1l-1.1,152.2c0,2.2-1.7,4-3.9,4.2l-14.2,1.1C886.6,687.1,886.5,687.1,886.4,687.1z"/>
	<circle id="Ellipse_83" class="st0" cx="874.3" cy="365.8" r="24.6"/>
	<path id="Path_504-358" class="st2" d="M892.4,533.6c-6.5,0-14.5-0.5-22.8-1.1c-11.4-0.7-23.1-1.5-31.9-1c-2.4,0.2-4.8-0.8-6.2-2.7
		c-9-11.6,4.9-56.7,5.5-58.6l11.3-50.5l0.5,0.1l-0.5-0.1c2.5-11.1,10.5-19.3,20.8-21.4c9.7-1.9,19,1.9,25,10.4
		c0.3,0.4,0.6,0.9,1,1.4c19.6,29,8.5,100.9,7.8,105.5c1,1.2,6.6,8.2,5.1,13.1c-0.6,2-2.3,3.3-5,4
		C899.5,533.4,895.9,533.7,892.4,533.6L892.4,533.6z"/>
	<path id="Path_505-359" class="st1" d="M838.1,533.6c-2.2,0-5.2-0.8-9.3-2.5c-1.7-0.7-7-2.9-0.6-59.1c3.2-27.6,7.7-55,7.7-55.2
		l0-0.3l0.2-0.1c0.1-0.1,11.7-5.3,13.7-12.1c0.1-0.2,0.1-0.5,0.2-0.7c1.1-3.1,4.6-4.8,7.8-3.8c3.4,0.8,5.5,4.1,4.9,7.5
		c-0.7,4.4-2,8.7-4,12.8c-5.4,11.2-9.1,40.9-9.2,41.2c-0.2,2.5-5.1,62.7-6.1,67.2c-0.3,1.6-0.9,3.5-2.7,4.5
		C840,533.5,839.1,533.7,838.1,533.6L838.1,533.6z"/>
	<path id="Path_506-360" class="st1" d="M864.9,531.3c-0.4,0-0.9-0.1-1.2-0.4c-7.2-5.5,4.5-72.1,11.4-95c1.4-4.6,2.6-8.5,3.7-11.7
		l0,0c1.9-5.7,3.3-11.6,4-17.5c0.4-3.2,1.2-5.1,2.5-5.6c0.9-0.4,2-0.1,3.2,0.8c6.4-0.3,12.6,2.3,18.4,5.2l5.2,2.6l5.8,103.1
		c-0.2,6.6-13.1,11.2-18.8,11.5c-9.1,0.5-25.4,2-32.6,6.5C866.1,531.1,865.5,531.3,864.9,531.3L864.9,531.3z"/>
	<path id="Path_507-361" class="st1" d="M832.5,512c-0.1,0-0.2,0-0.3,0l-11.8-0.7c-2.3-0.1-4.1-2.1-4-4.5c0-0.1,0-0.2,0-0.4
		l5.3-35.3l10-49.5c1-4.8,5.7-7.9,10.5-6.9c0.3,0.1,0.6,0.1,0.9,0.2l0,0c4.2,1.3,6.8,5.5,6.1,9.9l-8,49.6l-4.7,33.9
		C836.4,510.4,834.6,512,832.5,512L832.5,512z"/>
	<path id="Path_508-362" class="st0" d="M872.7,473.4c2.7-4.4,8.5-5.8,12.9-3.1c0.5,0.3,0.9,0.6,1.3,1l19.3-9.3l8.5,10.3l-27.4,12.8
		c-3.7,3.7-9.7,3.6-13.3-0.1C870.9,481.9,870.4,477.1,872.7,473.4L872.7,473.4z"/>
	<path id="Path_509-363" class="st1" d="M899.5,483.4c-2,0-3.7-1.3-4.1-3.2l-2.8-11.6c-0.4-1.8,0.3-3.7,1.9-4.6l16.9-10.1l-8.6-31.6
		c-1.6-5.7,1.8-11.6,7.5-13.2c5.5-1.5,11.3,1.6,13.1,7l9.5,29.1c2.4,7.3-0.2,15.3-6.4,19.8L902,482.6
		C901.2,483.1,900.4,483.4,899.5,483.4z"/>
	<path id="Path_511-364" class="st3" d="M716.9,187H243.7c-9.2,0-16.7,7.5-16.7,16.7v50.9c0,9.2,7.5,16.7,16.7,16.7h473.2
		c9.2,0,16.7-7.5,16.7-16.7v-50.9C733.5,194.5,726.1,187,716.9,187z M731.8,254.6c0,8.2-6.7,14.9-14.9,14.9H243.7
		c-8.2,0-14.9-6.7-14.9-14.9v-50.9c0-8.2,6.7-14.9,14.9-14.9h473.2c8.2,0,14.9,6.7,14.9,14.9V254.6z"/>
	<path id="Path_512-365" class="st4" d="M716.9,391.6H243.7c-9.2,0-16.7-7.5-16.7-16.7V324c0-9.2,7.5-16.7,16.7-16.7h473.2
		c9.2,0,16.7,7.5,16.7,16.7v50.9C733.5,384.1,726.1,391.5,716.9,391.6z M243.7,309c-8.2,0-14.9,6.7-14.9,14.9v50.9
		c0,8.2,6.7,14.9,14.9,14.9h473.2c8.2,0,14.9-6.7,14.9-14.9V324c0-8.2-6.7-14.9-14.9-14.9H243.7z"/>
	<path id="Path_513-366" class="st4" d="M716.9,511.8H243.7c-9.2,0-16.7-7.5-16.7-16.7v-50.9c0-9.2,7.5-16.7,16.7-16.7h473.2
		c9.2,0,16.7,7.5,16.7,16.7v50.9C733.5,504.4,726.1,511.8,716.9,511.8z M243.7,429.3c-8.2,0-14.9,6.7-14.9,14.9v50.9
		c0,8.2,6.7,14.9,14.9,14.9h473.2c8.2,0,14.9-6.7,14.9-14.9v-50.9c0-8.2-6.7-14.9-14.9-14.9H243.7z"/>
	<path id="Path_514-367" class="st2" d="M307.6,258.2c-16,0-29-13-29-29s13-29,29-29c16,0,29,13,29,29S323.7,258.2,307.6,258.2
		L307.6,258.2z"/>
	<path id="Path_515-368" class="st4" d="M674,252.8H364.1c-3.9,0-7-3.1-7-7s3.1-7,7-7H674c3.9,0,7,3.1,7,7S677.9,252.8,674,252.8z"
		/>
	<path id="Path_516-369" class="st4" d="M573,223H364.1c-3.9,0-7-3.1-7-7s3.1-7,7-7H573c3.9,0,7,3.1,7,7S576.9,223,573,223z"/>
	<path id="Path_517-370" class="st5" d="M307.6,378.4c-16,0-29-13-29-29s13-29,29-29c16,0,29,13,29,29
		C336.7,365.4,323.7,378.4,307.6,378.4L307.6,378.4z"/>
	<path id="Path_518-371" class="st5" d="M674,373.1H364.1c-3.9,0-7-3.1-7-7s3.1-7,7-7H674c3.9,0,7,3.1,7,7S677.9,373.1,674,373.1z"
		/>
	<path id="Path_519-372" class="st5" d="M573,343.3H364.1c-3.9,0-7-3.1-7-7s3.1-7,7-7H573c3.9,0,7,3.1,7,7S576.9,343.3,573,343.3z"
		/>
	<path id="Path_520-373" class="st5" d="M307.6,498.7c-16,0-29-13-29-29s13-29,29-29c16,0,29,13,29,29
		C336.7,485.7,323.7,498.7,307.6,498.7L307.6,498.7z"/>
	<path id="Path_521-374" class="st5" d="M674,493.4H364.1c-3.9,0-7-3.1-7-7s3.1-7,7-7H674c3.9,0,7,3.1,7,7S677.9,493.4,674,493.4z"
		/>
	<path id="Path_522-375" class="st5" d="M573,463.5H364.1c-3.9,0-7-3.1-7-7s3.1-7,7-7H573c3.9,0,7,3.1,7,7S576.9,463.5,573,463.5z"
		/>
	<path id="Path_395-376" class="st6" d="M306.1,239.4c-0.7,0-1.4-0.2-2-0.7l0,0l-7.5-5.8c-1.5-1.1-1.7-3.2-0.6-4.7
		c1.1-1.5,3.2-1.7,4.7-0.6l4.9,3.7l11.5-15c1.1-1.5,3.2-1.7,4.7-0.6l0,0l-0.1,0.1l0.1-0.1c1.5,1.1,1.7,3.2,0.6,4.7L308.8,238
		C308.2,238.9,307.2,239.3,306.1,239.4L306.1,239.4z"/>
	<path id="Path_523-377" class="st4" d="M973.6,713h-198c-0.6,0-1-0.4-1-1s0.4-1,1-1h198c0.6,0,1,0.4,1,1S974.2,713,973.6,713z"/>
	<path id="Path_561-378" class="st1" d="M883.4,372.4c0,0-3-16.5-9.8-14.6c-6.8,2-24.3,4-24.3-3.8c0-7.8,16.5-14.7,26.2-13.7
		c9.7,0.9,26.3,3.8,25.4,18.4c-0.7,9.2-3.6,18.1-8.3,26L883.4,372.4z"/>
</g>
</svg>
