<?xml version="1.0" encoding="utf-8"?>
<!-- Generator: Adobe Illustrator 27.9.0, SVG Export Plug-In . SVG Version: 6.00 Build 0)  -->
<svg version="1.1" id="Ebene_1" xmlns="http://www.w3.org/2000/svg" xmlns:xlink="http://www.w3.org/1999/xlink" x="0px" y="0px"
	 viewBox="0 0 583 529.6" style="enable-background:new 0 0 583 529.6;" xml:space="preserve">
<style type="text/css">
	.st0{fill:#FFB6B6;}
	.st1{fill:#E6E6E6;}
	.st2{fill:#A0616A;}
	.st3{fill:#4051B5;}
	.st4{fill:#2F2E41;}
	.st5{opacity:0.1;enable-background:new    ;}
	.st6{fill:#F2F2F2;}
</style>
<path id="uuid-f8ba9176-caa4-4aaa-aa33-5402b823e72a-755" class="st0" d="M280.2,106.1c6.5-6.6,15.2-8.6,19.4-4.5
	c4.2,4.1,2.3,12.8-4.1,19.4c-2.6,2.7-5.7,4.7-9.2,5.9l-27.9,27.6l-12.7-13.3l28.8-25.8C275.6,111.9,277.6,108.7,280.2,106.1z"/>
<path class="st1" d="M191.2,83.3l29.2,64.8l46.6-25.2l16.7,8.9c0,0-38.1,63.7-64.2,56.5s-72.5-73-64.1-93.4S191.2,83.3,191.2,83.3
	L191.2,83.3z"/>
<g>
	<path id="uuid-070545a9-7559-45f6-9b62-076b2f028fa8-756" class="st2" d="M326.5,119.9c-6.8-6.3-9-14.9-5-19.2
		c4-4.3,12.8-2.7,19.5,3.6c2.7,2.5,4.9,5.6,6.1,9.1l28.4,27.1l-13,13.1L336,125.4C332.5,124.3,329.2,122.4,326.5,119.9z"/>
	<path class="st3" d="M469.5,124.1l-54.8,58.3c0,0-12.3,12.2-32.6-5.4s-42.8-46.4-42.8-46.4l12.6-13.7l22.4,20
		c0,0,13.3,5.3,14.2,8.8s-1.7,4.9,2.5,3.8s4.2-3.6,4.5,0.2s-2.3,8.1,2.5,3.9s6.2-1.7,6.2-1.7l35-46.4c0,0,22.6-17.9,29.1-1.9
		C475,119.6,469.5,124.1,469.5,124.1L469.5,124.1z"/>
</g>
<g>
	<polygon class="st0" points="178.3,515.1 199.6,515.1 209.8,433 178.3,433 	"/>
	<path class="st4" d="M251.3,514.6L251.3,514.6c0.7,1.1,1,4.7,1,6l0,0c0,4-3.2,7.2-7.2,7.2h-66c-2.7,0-4.9-2.2-4.9-4.9v-2.7
		c0,0-3.3-8.3,3.5-18.4c0,0,8.3,8,20.8-4.5l3.7-6.7l26.6,19.5l14.8,1.8C246.8,512.3,249.6,511.8,251.3,514.6L251.3,514.6
		L251.3,514.6z"/>
</g>
<rect x="423.8" y="58.1" class="st4" width="52.8" height="78"/>
<polygon class="st2" points="464.7,112.3 462.9,89.9 438.3,89.9 432.9,113.6 "/>
<polygon class="st5" points="464.7,112.3 462.9,89.9 438.3,89.9 432.9,113.6 "/>
<polygon class="st0" points="194.5,87.5 194.9,58.7 177.2,47.7 157.9,71.3 "/>
<polygon class="st5" points="194.5,87.5 195.6,59.5 177.2,47.7 183.4,82.4 "/>
<circle class="st2" cx="446.7" cy="70.2" r="26.9"/>
<path class="st4" d="M439.9,41.9c0,0,0-11,10.2-8.7s13.4,6.3,13.4,6.3s3.9,6.3,10.2,7.1c6.3,0.8,11.8,18.9,11,22.8
	s-4.7,14.2,0.8,18.9s13.4,11.8,11,18.9c-2.4,7.1-9.5,25.2-9.5,25.2s19.8,2.9,18.2,15.2c0,0-9.5-7.4-22.1-7.4s-11-22.9-11-22.9
	s-0.8-14.2-3.2-18.1c-2.4-3.9,0.8-26-11-37.8C446.2,49.8,439.9,41.9,439.9,41.9L439.9,41.9z"/>
<path class="st4" d="M443.1,39.6c0,0-15,3.2-20.5,18.1s-2.7,17.8-2.7,17.8s-1.2,9-7.9,12.2c-6.7,3.2-1.2,16.6-1.2,16.6
	s-1.6,13.4-22.8,18.1c-21.3,4.7,26.7,41,26.7,41s-3.4-17.1,18.6-17.9c22.1-0.8-4.3-41.2-4.3-41.2l-2.4-26c0,0,4.7-29.9,18.9-33.9
	S443.1,39.6,443.1,39.6L443.1,39.6z"/>
<circle class="st0" cx="194.5" cy="36.2" r="31.5"/>
<path class="st4" d="M237.5,277.4l-29.3,199.7h-36.8l4.9-114l2.6-59.9l-7.5-28.5c0,0-3.4-6.3-6.3-14c-3.2-8.7-5.8-19.1-2-24
	c1.4-1.8,5-3.2,10-4.2c3-0.6,6.5-1.1,10.3-1.5c21.8-2.2,52.7-0.8,52.7-0.8l0.8,26l0.4,14.5L237.5,277.4z"/>
<g>
	<polygon class="st0" points="57.1,483.3 75.9,493.4 123.7,425.8 96,410.9 	"/>
	<path class="st4" d="M121.6,517.4L121.6,517.4c0.1,1.3-1.3,4.6-2,5.8l0,0c-1.9,3.5-6.3,4.8-9.8,2.9l-58.1-31.2
		c-2.4-1.3-3.3-4.3-2-6.7l1.3-2.4c0,0,1-8.8,11.8-14.6c0,0,3.6,11,20.5,5.9l6.4-4.1l14.2,29.8l12.1,8.6
		C118.7,513.2,121.5,514.2,121.6,517.4L121.6,517.4L121.6,517.4z"/>
</g>
<path class="st4" d="M237.3,270.7l-15.6,31.2l-45.5,61.2l-74.9,100.8l-32.4-17.4l88.9-149.7l6.9-28.7c0,0,0-3.1,0.3-7.5
	c0.6-8.8,2.5-22.7,8-28.2c0.7-0.7,1.6-1.3,2.4-1.7c1.7-0.7,4.4-0.6,7.9,0.3c14.5,3.5,41.6,18.3,53.5,25.2L237.3,270.7L237.3,270.7z"
	/>
<g>
	<polygon class="st2" points="462.7,517.6 444.4,517.6 435.7,447 462.7,447 	"/>
	<path class="st4" d="M400,517.2L400,517.2c-0.6,1-0.9,4.1-0.9,5.2l0,0c0,3.4,2.8,6.2,6.2,6.2H462c2.3,0,4.2-1.9,4.2-4.2V522
		c0,0,2.8-7.1-3-15.8c0,0-7.2,6.8-17.9-3.9l-3.2-5.7l-22.9,16.7l-12.7,1.6C403.9,515.2,401.4,514.8,400,517.2L400,517.2L400,517.2z"
		/>
</g>
<g>
	<polygon class="st2" points="534.9,496.1 517.9,503 482.9,441.1 507.9,430.8 	"/>
	<path class="st4" d="M476.7,519.6L476.7,519.6c-0.2,1.1,0.7,4.1,1.2,5.1l0,0c1.3,3.2,4.9,4.7,8.1,3.4l52.4-21.6
		c2.2-0.9,3.2-3.4,2.3-5.5l-0.9-2.2c0,0-0.1-7.6-8.8-13.5c0,0-4,9.1-18,3.2l-5.1-4.1l-14.8,24.2l-11.1,6.3
		C479.5,516.3,477.1,516.8,476.7,519.6L476.7,519.6L476.7,519.6z"/>
</g>
<path class="st4" d="M471.1,275.4l-7.5,28.5l2,46.3l3.3,76.9l0.1,2.2l0.4,8.6l1.7,39.9h-36.8l-16.4-111.5l-13-88.2l1.4-44.9l0.1-2.3
	c0,0,65.8-2.9,73,6.4S471.1,275.4,471.1,275.4L471.1,275.4z"/>
<path class="st4" d="M522.3,449.1l-6.2,3.2L493,464.3l-3.4,1.7l-20.2-28.1l-51.5-71.6l-13-88.2l1.4-44.9c5.8-1.9,10.5-2.6,12.8-1.5
	c10.6,5,10.1,37.6,10.1,37.6l6.5,28.8l29.9,52.1L522.3,449.1L522.3,449.1z"/>
<g>
	<path class="st6" d="M389.2,457.9c-0.5-1.4-4.1-0.8-4.4-2.1c-0.3-1.3,3.1-2.4,5.7-6c0.5-0.7,3.5-4.8,2.3-6.5
		c-2.2-3.3-17.4,4.9-21,0.3c-0.8-1-1.1-2.7-3.5-6c-0.9-1.3-1.6-1.9-2.3-1.9c-1,0-1.4,1.3-3,3.7c-2.4,3.5-3.3,3.1-4.9,5.9
		c-1.2,2.1-1.3,3.5-2.2,3.6c-1.2,0.1-1.7-2.5-3.2-2.6c-1.5-0.1-3,2.5-3.8,4.6c-1.4,3.8-0.5,6.8-0.3,9.7c0.2,3.2-0.3,7.8-3.7,13.8
		l-32.6,52c7-10.6,26.9-39.5,34.9-50.1c2.3-3.1,4.8-6.1,8.6-6.7c3.7-0.6,8.2,1.3,14.4,1.2c0.7,0,2.8-0.1,3.3-1.2
		c0.4-0.9-0.6-1.7-0.2-2.5c0.5-1.1,2.7-0.6,5.8-1.4c2.1-0.5,3.6-1.4,4.8-2.1C384.2,463.2,389.9,459.8,389.2,457.9L389.2,457.9
		L389.2,457.9z"/>
	<path class="st6" d="M303.8,470c-0.8-0.2-1.6,1.8-2.3,1.6c-0.7-0.2-0.3-2.2-1.3-4.6c-0.2-0.4-1.3-3.1-2.5-3
		c-2.2,0.1-2.6,9.9-5.9,10.4c-0.7,0.1-1.7-0.2-3.9,0c-0.9,0.1-1.4,0.2-1.6,0.6c-0.3,0.5,0.2,1.1,0.9,2.5c1,2.2,0.5,2.5,1.5,4.1
		c0.7,1.2,1.3,1.7,1.1,2.1c-0.3,0.6-1.7,0.1-2.2,0.8c-0.5,0.7,0.4,2.2,1.2,3.2c1.5,1.8,3.2,2.2,4.7,3c1.6,0.8,3.8,2.4,5.7,5.8
		l16.1,31c-3.2-6.5-11.6-24.6-14.5-31.6c-0.8-2-1.6-4.1-0.8-6.2c0.8-2,3-3.6,4.7-6.7c0.2-0.4,0.8-1.4,0.4-1.9
		c-0.3-0.5-1-0.2-1.3-0.6c-0.4-0.6,0.5-1.5,1-3.2c0.4-1.2,0.4-2.2,0.3-3C304.9,474,304.9,470.3,303.8,470L303.8,470L303.8,470z"/>
	<path class="st6" d="M319.8,477.6l0.5-4.7l0.3-0.3c1.4-1.4,2.3-2.8,2.7-4.3c0.1-0.2,0.1-0.5,0.1-0.7c0.2-1,0.4-2.2,1.3-3.4
		c0.5-0.7,1.9-2.3,3.3-1.7c0.4,0.1,0.6,0.4,0.8,0.7c0,0,0.1-0.1,0.1-0.1c0.6-0.6,1-0.8,1.4-1c0.3-0.2,0.6-0.3,1.2-0.8
		c0.2-0.2,0.4-0.4,0.6-0.5c0.5-0.4,1.1-1,2-0.8c0.9,0.3,1.2,1.1,1.4,1.7c0.4,1,0.5,1.7,0.6,2.2c0,0.2,0.1,0.4,0.1,0.4
		c0.2,0.5,2.7,0.6,3.7,0.7c2.1,0.1,4,0.2,4.4,1.7c0.3,1-0.3,2.2-2,3.5c-0.5,0.4-1.1,0.7-1.5,0.9c0.3,0.3,0.5,0.6,0.5,1.1l0,0
		c0,1.2-1.2,2.1-3.6,2.7c-0.6,0.2-1.4,0.4-2.4,0.3c-0.5,0-0.9-0.1-1.3-0.2c-0.1,0.2-0.2,0.4-0.3,0.6c-0.5,0.6-1.4,0.8-2.6,0.4
		c-1.3-0.4-2.3-0.8-3.2-1.3c-0.8-0.4-1.5-0.7-2-0.8c-1.1-0.1-2,0.5-3.2,1.4L319.8,477.6L319.8,477.6L319.8,477.6z"/>
	<path class="st6" d="M328.3,451l-4.6,0.7l-0.4-0.2c-1.7-1-3.3-1.5-4.8-1.5c-0.2,0-0.5,0-0.7,0c-1,0.1-2.2,0.2-3.6-0.4
		c-0.8-0.3-2.7-1.3-2.5-2.8c0-0.4,0.2-0.7,0.4-1c-0.1,0-0.1-0.1-0.2-0.1c-0.7-0.4-1-0.8-1.4-1.1c-0.2-0.3-0.5-0.5-1-1
		c-0.2-0.2-0.5-0.3-0.6-0.4c-0.6-0.4-1.2-0.8-1.2-1.7c0-1,0.8-1.5,1.3-1.8c0.9-0.6,1.6-0.9,2-1.1c0.2-0.1,0.3-0.2,0.4-0.2
		c0.4-0.3-0.1-2.8-0.3-3.7c-0.4-2.1-0.8-3.9,0.5-4.7c0.9-0.6,2.2-0.2,3.9,1.1c0.5,0.4,0.9,0.8,1.2,1.2c0.2-0.3,0.5-0.6,1-0.8l0,0
		c1.1-0.3,2.3,0.6,3.5,2.8c0.3,0.5,0.7,1.3,0.9,2.3c0.1,0.5,0.1,0.9,0.2,1.3c0.2,0,0.5,0,0.7,0.2c0.7,0.4,1.1,1.2,1.1,2.4
		c0,1.3-0.2,2.4-0.4,3.4c-0.2,0.9-0.3,1.6-0.2,2.2c0.1,1.1,1,1.8,2.1,2.8L328.3,451L328.3,451L328.3,451z"/>
	<path class="st6" d="M328.9,437l0.5-4.7l0.3-0.3c1.4-1.4,2.3-2.8,2.7-4.3c0.1-0.2,0.1-0.5,0.1-0.7c0.2-1,0.4-2.2,1.3-3.4
		c0.5-0.7,1.9-2.3,3.3-1.7c0.4,0.1,0.6,0.4,0.8,0.7c0,0,0.1-0.1,0.1-0.1c0.6-0.6,1-0.8,1.4-1c0.3-0.2,0.6-0.3,1.2-0.8
		c0.2-0.2,0.4-0.4,0.6-0.5c0.5-0.4,1.1-1,2-0.8c0.9,0.3,1.2,1.1,1.4,1.7c0.4,1,0.5,1.7,0.6,2.2c0,0.2,0.1,0.4,0.1,0.4
		c0.2,0.5,2.7,0.6,3.7,0.7c2.1,0.1,4,0.2,4.4,1.7c0.3,1-0.3,2.2-2,3.5c-0.5,0.4-1.1,0.7-1.5,0.9c0.3,0.3,0.5,0.6,0.5,1.1l0,0
		c0,1.2-1.2,2.1-3.6,2.7c-0.6,0.2-1.4,0.4-2.4,0.3c-0.5,0-0.9-0.1-1.3-0.2c-0.1,0.2-0.2,0.4-0.3,0.6c-0.5,0.6-1.4,0.8-2.6,0.4
		c-1.3-0.4-2.3-0.8-3.2-1.3c-0.8-0.4-1.5-0.7-2-0.8c-1.1-0.1-2,0.5-3.2,1.4L328.9,437L328.9,437L328.9,437z"/>
	<path class="st6" d="M313.8,526.6l-0.8-0.8l0-1.2l0,1.2l-1.1-0.1c0-0.1,0-0.4,0-0.8c0-2.1-0.2-8.7,0.7-18.7
		c0.6-7,1.7-14.1,3.2-21.2c1.5-7,3-12.3,4.2-16.5c0.9-3.2,1.8-6.2,2.8-9.1c2.4-7.8,4.7-15.3,6.1-23.7c0.3-1.9,1-5.8-0.4-10.4
		c-0.8-2.7-2.1-5.2-4-7.5l1.8-1.5c2,2.5,3.5,5.3,4.4,8.3c1.5,5.1,0.8,9.4,0.4,11.5c-1.4,8.6-3.7,16.1-6.2,24
		c-0.9,2.9-1.8,5.9-2.7,9.1c-1.2,4.2-2.7,9.4-4.2,16.3c-1.4,6.9-2.5,14-3.1,20.9c-0.9,9.9-0.8,16.4-0.7,18.5
		C314.2,526,314.2,526.2,313.8,526.6L313.8,526.6L313.8,526.6z"/>
	<path class="st6" d="M319.5,420.3c-0.1,0-0.2,0-0.3-0.1c-1.9-0.5-3.4-2.1-4.5-4.6c-0.5-1.2-0.6-2.4-0.9-4.9c0-0.4-0.2-2.3,0-4.9
		c0.1-1.7,0.3-2.4,0.8-2.9c0.5-0.6,1.2-0.9,1.9-1.1c0-0.2,0.1-0.4,0.2-0.6c0.6-0.9,1.6-0.5,2.1-0.3c0.3,0.1,0.6,0.2,1,0.3
		c0.6,0.1,1,0,1.5-0.2c0.5-0.2,1.2-0.3,2.1-0.3c1.8,0,3.1,0.8,3.5,1.1c2.3,1.4,3,3.5,3.9,6c0.2,0.5,0.8,2.3,0.9,4.7
		c0.1,1.7-0.1,2.4-0.4,2.9c-0.5,1-1.3,1.5-3.3,2.5c-2.1,1-3.1,1.6-3.9,1.8C322.2,420.3,321,420.7,319.5,420.3L319.5,420.3
		L319.5,420.3z"/>
</g>
<path class="st1" d="M583,528.8L583,528.8c0,0.5-0.4,0.8-0.8,0.8H0v-1.7h582.2C582.7,527.9,583,528.3,583,528.8z"/>
<path class="st1" d="M162,65.2l35.8,17.2c0,0,37.9,112.4,37.9,118.1s10.7,9.3,4.3,15.7s12,11.9,2.1,17s-71.9,33.3-78.8,30.8
	c-19-7,0.8-32.7,0.8-32.7s-14.3-11.5-12.1-17.2S139.1,98.8,139.1,98.8L162,65.2L162,65.2z"/>
<path class="st4" d="M192.6,43.7l4.1,8.1c0,0,4.1-14.6,10.5-17.8s7.3-8.1,7.3-8.1s8.1,10.5,13.8,8.1s8.1-4.1,1.6-13.8
	s-4.9-4.9-4.9-4.9s-5.7-8.1-4.9-5.7s-4.9-6.5-4.9-4.1s-4.1-4.9-4.1-2.4c0,2.4-17-5.7-14.6-2.4S182.1-5.7,174,7.3
	s-19.3,10.6-15.3,18.7s2.4,30,2.4,30h11.2C172.2,55.9,183.7,34,192.6,43.7L192.6,43.7z"/>
<path class="st3" d="M431.1,112.4l0.7-0.2l32.3-9.1l25.8,35.1l-17.2,73l6.4,29.3c0,0-52.2-13.6-73-2.1c0,0-1.4-6.5,0-9.7
	s3.6-16.4,1.4-22.3s4.3-33.8,4.3-33.8s-2.1-18.6,7.2-27.9S431.1,112.4,431.1,112.4L431.1,112.4z"/>
<path class="st3" d="M401.8,244.2l-113.4-56.4c-0.6-0.3-1.1-0.7-1.5-1.1l-17.7-20.9c-1.2-1.4-1.4-3.3-0.6-5l33.2-69.6
	c0.6-1.2,1.7-2.1,3-2.5c1.3-0.4,2.7-0.1,3.8,0.7l80,54.9c1.6,1.1,2.4,3.2,1.8,5.1l-16.2,56.5c-0.4,1.5,0.1,3.2,1.4,4.2l32.1,24.1
	c1.7,1.3,2.3,3.7,1.4,5.6l-1,2.2c-0.5,1.1-1.5,2-2.7,2.4c-0.5,0.2-1,0.3-1.5,0.3C403.1,244.7,402.4,244.6,401.8,244.2z"/>
<path class="st6" d="M400.9,230.5l-31.6-26.3c-0.3-0.2-0.5-0.5-0.6-0.8c-0.3-0.6-0.3-1.3-0.1-1.9l18-52.6c0.5-1.4,0-2.9-1.2-3.7
	l-74.9-51.3c-0.8-0.5-1.7-0.7-2.6-0.5c-0.9,0.2-1.7,0.9-2.1,1.7l-31.6,64.2c-0.5,1-0.4,2.1,0.1,3c0.1,0.1,0.1,0.3,0.2,0.4l15.9,21
	c0.3,0.4,0.7,0.7,1.2,1l106,51.3c0.4,0.2,0.9,0.3,1.4,0.3c0.8,0,1.7-0.3,2.3-0.9c0.1-0.1,0.1-0.2,0.2-0.2c0.5-0.6,0.8-1.4,0.7-2.2
	C402,232,401.6,231.1,400.9,230.5z"/>
<path class="st3" d="M286.5,155.4c0.3,0,0.5-0.1,0.6-0.4l25.7-51c0.2-0.4,0-0.8-0.3-1c-0.4-0.2-0.8,0-1,0.3l-25.7,51
	c-0.2,0.4,0,0.8,0.3,1C286.3,155.3,286.4,155.4,286.5,155.4L286.5,155.4z"/>
<path class="st3" d="M300.1,164c0.3,0,0.5-0.1,0.6-0.4l25.7-51c0.2-0.4,0-0.8-0.3-1c-0.4-0.2-0.8,0-1,0.3l-25.7,51
	c-0.2,0.4,0,0.8,0.3,1C299.9,163.9,300,164,300.1,164L300.1,164z"/>
<path class="st3" d="M311.6,171.1c0.3,0,0.5-0.1,0.6-0.4l25.7-51c0.2-0.4,0-0.8-0.3-1c-0.4-0.2-0.8,0-1,0.3l-25.7,51
	c-0.2,0.4,0,0.8,0.3,1C311.3,171.1,311.4,171.1,311.6,171.1L311.6,171.1z"/>
<path id="uuid-03f01c0a-1974-4ec8-8b69-52a915a70377-757" class="st0" d="M271,164.2c8.9-2.6,17.4-0.2,19.1,5.5
	c1.7,5.7-4.2,12.4-13.1,15c-3.5,1.1-7.3,1.3-10.9,0.7L228.4,196l-4.6-17.8l37.7-8.6C264.2,167,267.4,165.2,271,164.2L271,164.2z"/>
<path class="st1" d="M204.2,101l-5.9,70.8l53,0.6l10.3,15.8c0,0-64.3,37.2-83.6,18.2s-27.9-99-10.7-112.7S204.2,101,204.2,101z"/>
<g>
	<path id="uuid-7eb47ac4-3db4-4d62-bd0a-b38893e38622-758" class="st2" d="M377.9,228.9c-9.2-0.7-16.4-6-15.9-11.9
		s8.3-10.1,17.5-9.4c3.7,0.2,7.3,1.3,10.5,3.2l39.1,3.4l-2,18.3l-38.3-5.3C385.3,228.7,381.6,229.2,377.9,228.9L377.9,228.9z"/>
	<path class="st3" d="M492.2,142.9l-6.4,79.8c0,0-2,17.2-28.8,16.1s-62.3-9.5-62.3-9.5l1.3-18.6l29.9,1.6c0,0,13.7-4.1,16.6-2
		s1.8,4.9,4.3,1.4s1.1-5.4,3.6-2.7s3.3,7.8,4.4,1.5s3.8-5.2,3.8-5.2l-1.6-58.1c0,0,6.5-28.1,21.6-19.6
		C493.8,136,492.2,142.9,492.2,142.9L492.2,142.9z"/>
</g>
</svg>
