<?xml version="1.0" encoding="UTF-8"?>
<svg xmlns="http://www.w3.org/2000/svg" version="1.1" viewBox="0 0 1008.9 607.4">
  <defs>
    <style>
      .cls-1 {
        isolation: isolate;
        opacity: .2;
      }

      .cls-2 {
        fill: #e6e6e6;
      }

      .cls-3 {
        fill: #fff;
      }

      .cls-4 {
        fill: #4051b5;
      }
    </style>
  </defs>
  <!-- Generator: Adobe Illustrator 28.7.1, SVG Export Plug-In . SVG Version: 1.2.0 Build 142)  -->
  <g>
    <g id="Layer_1">
      <path class="cls-2" d="M1008.9,474c0,8.5-6.8,15.4-15.3,15.4H322.3c-8.5,0-15.3-6.9-15.3-15.4V15.4C307,6.9,313.8,0,322.3,0h671.4c8.5,0,15.3,6.9,15.3,15.4h0v458.6Z"/>
      <path class="cls-3" d="M1001,466.5c0,8.2-6.7,14.9-14.9,14.9H330.3c-8.2,0-14.9-6.7-14.9-14.9V23.1c0-8.2,6.7-14.9,14.9-14.9h655.8c8.2,0,14.9,6.7,14.9,14.9v443.4Z"/>
      <path id="a90d98f2-fe2a-41dc-85de-0aa221261a3e-5650" class="cls-2" d="M350.4,27.5h616.2c4.9,0,8.8,4,8.8,8.9v415.3c0,4.9-4,8.8-8.8,8.8H350.4c-4.9,0-8.9-4-8.9-8.8h0V36.3c0-4.9,4-8.9,8.9-8.9h0Z"/>
      <path class="cls-3" d="M358.2,37.4h599.9c4.9,0,8.8,4,8.8,8.9v393.1c0,4.9-4,8.8-8.8,8.8H358.2c-4.9,0-8.9-4-8.9-8.8h0V46.3c0-4.9,4-8.9,8.9-8.9h0Z"/>
      <path class="cls-2" d="M853.9,529c0,8.5-6.8,15.4-15.3,15.4H167.3c-8.5,0-15.3-6.9-15.3-15.4h0V70.4c0-8.5,6.8-15.4,15.3-15.4h671.4c8.5,0,15.3,6.9,15.3,15.4h0v458.6Z"/>
      <path class="cls-3" d="M846,521.5c0,8.2-6.7,14.9-14.9,14.9H175.3c-8.2,0-14.9-6.7-14.9-14.9V78.1c0-8.2,6.7-14.9,14.9-14.9h655.8c8.2,0,14.9,6.7,14.9,14.9v443.4Z"/>
      <path id="b54624cf-b287-45f0-8f58-93aafc1fcbba-5651" class="cls-2" d="M195.4,82.5h616.2c4.9,0,8.8,4,8.8,8.9v415.3c0,4.9-4,8.8-8.8,8.8H195.4c-4.9,0-8.9-4-8.9-8.8h0V91.3c0-4.9,4-8.9,8.9-8.9h0Z"/>
      <path class="cls-3" d="M203.2,92.4h599.9c4.9,0,8.8,4,8.8,8.9v393.1c0,4.9-4,8.8-8.8,8.8H203.2c-4.9,0-8.9-4-8.9-8.8h0V101.3c0-4.9,4-8.9,8.9-8.9h0Z"/>
      <path class="cls-2" d="M701.9,592c0,8.5-6.8,15.4-15.3,15.4H15.3c-8.5,0-15.3-6.9-15.3-15.4V133.4c0-8.5,6.8-15.4,15.3-15.4h671.4c8.5,0,15.3,6.9,15.3,15.4h0v458.6Z"/>
      <path class="cls-3" d="M694,584.5c0,8.2-6.7,14.9-14.9,14.9H23.3c-8.2,0-14.9-6.7-14.9-14.9V141.1c0-8.2,6.7-14.9,14.9-14.9h655.8c8.2,0,14.9,6.7,14.9,14.9v443.4Z"/>
      <path id="a665a07e-790f-4a9c-be99-8c13ca89238c-5652" class="cls-2" d="M43.4,145.5h616.2c4.9,0,8.8,4,8.8,8.9v415.3c0,4.9-4,8.8-8.8,8.8H43.4c-4.9,0-8.8-4-8.9-8.8V154.3c0-4.9,4-8.9,8.8-8.9h0Z"/>
      <path class="cls-3" d="M51.2,155.4h599.9c4.9,0,8.8,4,8.8,8.9v393.1c0,4.9-4,8.8-8.8,8.8H51.2c-4.9,0-8.8-4-8.9-8.8V164.3c0-4.9,4-8.9,8.8-8.9h0Z"/>
      <path class="cls-4" d="M494.6,240.6v272c0,3.3-2.7,6-6,6H203.6c-3.3,0-6-2.7-6-6V208.6c0-3.3,2.7-6,6-6h249l42,38Z"/>
      <path id="b3cdc3b1-5d0a-4cee-b54c-a38ee088c012-5653" class="cls-3" d="M248,268.8c-2.1,0-3.7,1.7-3.7,3.8,0,2,1.7,3.7,3.7,3.7h99c2.1,0,3.8-1.6,3.8-3.7,0-2.1-1.6-3.8-3.7-3.8,0,0,0,0,0,0,0,0,0,0-.1,0h-99Z"/>
      <path id="b79c0997-055d-434d-8704-cfc1ccad2281-5654" class="cls-3" d="M248,304c-2.1,0-3.7,1.7-3.7,3.8,0,2,1.7,3.7,3.7,3.7h196c2.1,0,3.8-1.6,3.8-3.7,0-2.1-1.6-3.8-3.7-3.8,0,0,0,0-.1,0h-196Z"/>
      <path id="ed7d1f14-d1d4-40af-b9ad-7b5b5ece23df-5655" class="cls-3" d="M248,339.2c-2.1,0-3.7,1.7-3.7,3.8,0,2,1.7,3.7,3.7,3.7h196c2.1,0,3.8-1.6,3.8-3.7,0-2.1-1.6-3.8-3.7-3.8,0,0,0,0,0,0,0,0,0,0-.1,0h-196Z"/>
      <path id="ba3b747a-a6b2-4f39-a169-6ef4c21cd2ce-5656" class="cls-3" d="M248,374.5c-2.1,0-3.7,1.7-3.7,3.8,0,2,1.7,3.7,3.7,3.7h196c2.1,0,3.8-1.6,3.8-3.7s-1.6-3.8-3.7-3.8c0,0,0,0,0,0,0,0,0,0-.1,0h-196Z"/>
      <path id="b6e4b743-2497-479e-800a-91c8b21b3df9-5657" class="cls-3" d="M248,409.7c-2.1,0-3.7,1.7-3.7,3.8,0,2,1.7,3.7,3.7,3.7h196c2.1,0,3.8-1.6,3.8-3.7,0-2.1-1.6-3.8-3.7-3.8,0,0,0,0,0,0,0,0,0,0-.1,0h-196Z"/>
      <path id="f91f499d-e7c9-446d-84c9-bf78465468f6-5658" class="cls-3" d="M248,444.9c-2.1,0-3.7,1.7-3.7,3.8,0,2,1.7,3.7,3.7,3.7h196c2.1,0,3.8-1.6,3.8-3.7,0-2.1-1.6-3.8-3.7-3.8,0,0,0,0,0,0,0,0,0,0-.1,0h-196Z"/>
      <path class="cls-4" d="M494.6,240.6h-38c-2.2,0-4-1.8-4-4v-34h0l42,38Z"/>
      <path class="cls-1" d="M494.6,240.6h-38c-2.2,0-4-1.8-4-4v-34h0l42,38Z"/>
    </g>
  </g>
</svg>