<?xml version="1.0" encoding="UTF-8"?>
<svg xmlns="http://www.w3.org/2000/svg" xmlns:xlink="http://www.w3.org/1999/xlink" version="1.1" viewBox="0 0 1076.4 733.5">
  <defs>
    <style>
      .cls-1, .cls-2, .cls-3 {
        fill: none;
      }

      .cls-4, .cls-3, .cls-5, .cls-6 {
        isolation: isolate;
      }

      .cls-4, .cls-7, .cls-6 {
        opacity: .1;
      }

      .cls-8 {
        fill: url(#linear-gradient-2);
      }

      .cls-9 {
        fill: #3f3d56;
      }

      .cls-10 {
        fill: url(#linear-gradient);
      }

      .cls-11 {
        fill: #535461;
      }

      .cls-2 {
        stroke: #535461;
        stroke-width: 2px;
      }

      .cls-2, .cls-3 {
        stroke-miterlimit: 10;
      }

      .cls-3 {
        opacity: .2;
        stroke: #6c63ff;
      }

      .cls-12 {
        fill: #6f758d;
      }

      .cls-13 {
        fill: #9d9cb5;
      }

      .cls-14 {
        fill: #fbbebe;
      }

      .cls-15, .cls-6 {
        fill: #4051b5;
      }

      .cls-16 {
        fill: #454b69;
      }

      .cls-5 {
        opacity: 0;
      }

      .cls-17 {
        fill: #dcdfed;
      }
    </style>
    <linearGradient id="linear-gradient" x1="487.8" y1="1158.1" x2="487.8" y2="482.7" gradientTransform="translate(-61.6 -427)" gradientUnits="userSpaceOnUse">
      <stop offset="0" stop-color="gray" stop-opacity=".2"/>
      <stop offset=".5" stop-color="gray" stop-opacity=".1"/>
      <stop offset="1" stop-color="gray" stop-opacity=".1"/>
    </linearGradient>
    <linearGradient id="linear-gradient-2" x1="-807.5" y1="1156.8" x2="-807.5" y2="531.3" gradientTransform="translate(5.5 -427) rotate(-180) scale(1 -1)" gradientUnits="userSpaceOnUse">
      <stop offset="0" stop-color="gray" stop-opacity=".2"/>
      <stop offset=".5" stop-color="gray" stop-opacity=".1"/>
      <stop offset="1" stop-color="gray" stop-opacity=".1"/>
    </linearGradient>
  </defs>
  <!-- Generator: Adobe Illustrator 28.7.1, SVG Export Plug-In . SVG Version: 1.2.0 Build 142)  -->
  <g>
    <g id="Layer_1">
      <g id="Layer_1-2" data-name="Layer_1">
        <path class="cls-6" d="M1068.8,281.3h-91.9v111.4h85.2c.2,1.1.4,2.3.7,3.5h-85.9v89.9h.4c2.4-1,4.8-1.9,7.2-2.9l1.6-.6c2.4-1,4.8-2.1,7.2-3.2.8-.4,1.7-.8,2.5-1.2,13.2-6.5,25.4-14.9,36.2-25,.3-.3.6-.5.9-.8,1.5-1.4,2.9-2.8,4.3-4.3.5-.5,1-1.1,1.5-1.6,1.7-1.8,3.2-3.6,4.8-5.5.2-.3.4-.6.7-.8,6.2-7.7,11.5-16.1,15.6-25.1,0-.3.2-.5.4-.8,1.3-2.8,2.4-5.7,3.4-8.6.4-1.2.8-2.5,1.2-3.7,0-.4.2-.7.3-1.1,5.1-17.8,5.7-36.4,5.7-54.9v-6.5c0-7.5,0-15-.2-22.4,0-1.9,0-3.9,0-5.8,0-4.9-.3-9.9-.5-14.8,0-1.4,0-2.8-.2-4.1,0-.8,0-1.6,0-2.4-.2-2.9-.4-5.7-.6-8.6h-.3Z"/>
        <path class="cls-6" d="M976.9,157.2h50.4c-8.3-11.5-17.2-22.5-26.8-32.8-7.5-8.2-15.4-16.2-23.6-23.8v56.7h0Z"/>
        <path class="cls-6" d="M976.9,160.7v117.2h91.7v-1c0-.9-.2-1.9-.2-2.8s-.2-2.2-.3-3.2-.2-2.4-.4-3.5-.3-2.4-.4-3.5-.3-2.3-.4-3.5-.3-2.3-.5-3.5c0-1-.3-1.9-.4-2.9-.2-1.4-.4-2.7-.7-4.1v-.6c-1.7-9.9-3.9-19.8-6.8-29.4-3-10.2-6.8-20.2-11.4-29.9-4.9-10.2-10.6-20-17.1-29.3h-53.1Z"/>
        <path class="cls-6" d="M758.5,281.3v111.4h196.4v-111.4h-196.4ZM758.5,396.2v75.5c22.9-7.3,49-4.3,72.7,1.7,18.3,4.7,36.2,11,54.5,15.5,8.2,2.1,16.5,3.7,24.9,4.7l2.1.2,3,.3,3,.2h14.2c.9,0,1.9,0,2.8-.1h1.8c.7-.1,1.5-.2,2.2-.3,1.5-.1,3-.3,4.5-.5.6,0,1.2-.1,1.8-.2h.9c1.5-.3,3-.5,4.5-.8,1.1-.2,2.2-.4,3.3-.6v-95.7h-196.3.1ZM904.6,157.2v3.4h-146.1v117.2h196.4v-117.2h-9.8v-3.4h9.8v-75.7c-38.2-30.8-82.8-54.9-132.6-66-20.9-4.6-42.3-6.9-63.8-6.7v148.4h146.1,0ZM455.6,156.5l.7.7h280.3V9.9c-49.9,4.2-98.6,20.9-137.8,48.7-18.8,13.3-35.8,29.1-56.9,39.4-11.1,5.5-23.2,8.6-35.6,9.2l-50.7,49.4h0ZM453.7,96.1v33.4l27.1-26.4c-10.1-3.5-18-5.9-27.1-6.9h0ZM452.8,515.7h.9v73.1c10.2-.8,20.4-1.8,30.5-3.1,45.3-5.9,89.8-17.4,132.2-34.3h0c4.6-1.8,9.1-3.7,13.6-5.7,3-1.3,6-2.7,8.9-4,4.4-2,8.8-4.1,13.2-6.3,19.4-9.5,38-20.3,55.9-32.4,1.1-.8,2.2-1.5,3.3-2.3,2.2-1.5,4.4-3.1,6.6-4.6,1.1-.8,2.2-1.6,3.3-2.4l2.2-1.7c2.2-1.7,4.5-3.3,6.7-5h0c2.1-1.5,4.2-3,6.3-4.4v-86.4h-225.2c.2-.5.3-1,.5-1.5-.2.5-.3,1-.5,1.5h-57.7v119.4h-.9.2ZM453.7,160.7v117.2h282.9v-117.2h-282.9,0ZM453.7,281.3v111.5h282.9v-111.4h-282.9,0ZM397.1,99.5l34.6,33.7v-37.3c-11.6.7-23.1,1.9-34.6,3.6ZM156.4,281.3v111.4h275.2v-111.4H156.4ZM223,556.6c41.7,15.9,85.3,26.2,129.7,30.8h.2c8.4.9,16.8,1.6,25.2,2.1h.3c17.7,1,35.5,1.2,53.2.6v-193.8H156.4l1,128.3M80.2,392.8h54.3v-111.4h-21.5c-2.2,3.9-4.4,7.9-6.4,11.9-1.1,2.1-2.2,4.3-3.2,6.5-14.1,29.3-23.1,61.6-23.2,93.1h0ZM80.2,396.2c.4,22.6,5.5,44.9,16.7,65.4,9.3,17,22.2,32,37.5,45v-110.4h-54.2ZM115,277.9h19.5v-29c-7,9.3-13.5,19-19.5,29ZM236.9,157.2h188.2l.7-.7-1-1h0l-52.9-51.6c-15.7,3.3-31.2,7.4-46.5,12.4-1.4.5-2.9,1-4.3,1.4-29.4,10-57.7,23.2-84.2,39.4h0ZM156.4,222.6v55.3h275.2v-114l-3.9-3.1h-196.4c-27.6,17.3-52.8,38.1-75,61.9h0Z"/>
        <path class="cls-6" d="M976.9,219.8v58.1h91.7v-1c0-.9-.2-1.9-.2-2.8s-.2-2.2-.3-3.2-.2-2.4-.4-3.5-.3-2.4-.4-3.5-.3-2.3-.4-3.5-.3-2.3-.5-3.5c0-1-.3-1.9-.4-2.9-.2-1.4-.4-2.7-.7-4.1v-.6c-1.7-9.9-3.9-19.8-6.8-29.4h-81.6Z"/>
        <path class="cls-6" d="M1068.8,281.3h-91.9v111.4h85.2c.2,1.1.4,2.3.7,3.5h-85.9v89.9h.4c2.4-1,4.8-1.9,7.2-2.9l1.6-.6c2.4-1,4.8-2.1,7.2-3.2.8-.4,1.7-.8,2.5-1.2,13.2-6.5,25.4-14.9,36.2-25,.3-.3.6-.5.9-.8,1.5-1.4,2.9-2.8,4.3-4.3.5-.5,1-1.1,1.5-1.6,1.7-1.8,3.2-3.6,4.8-5.5.2-.3.4-.6.7-.8,6.2-7.7,11.5-16.1,15.6-25.1,0-.3.2-.5.4-.8,1.3-2.8,2.4-5.7,3.4-8.6.4-1.2.8-2.5,1.2-3.7,0-.4.2-.7.3-1.1,5.1-17.8,5.7-36.4,5.7-54.9v-6.5c0-7.5,0-15-.2-22.4,0-1.9,0-3.9,0-5.8,0-4.9-.3-9.9-.5-14.8,0-1.4,0-2.8-.2-4.1,0-.8,0-1.6,0-2.4-.2-2.9-.4-5.7-.6-8.6h-.3Z"/>
        <polygon class="cls-6" points="885.8 177.5 885.8 277.9 954.9 277.9 954.9 177.5 945.1 177.5 945.1 143.5 904.6 143.5 904.6 177.5 885.8 177.5"/>
        <rect class="cls-6" x="885.8" y="281.3" width="69.1" height="111.4"/>
        <path class="cls-6" d="M954.9,396.2h-69.1v92.7c8.2,2.1,16.5,3.7,24.9,4.7l2.1.2,3,.3c1,0,2,.2,3,.2h14.2c.9,0,1.9-.1,2.8-.2h1.7c0-.1,2.2-.3,2.2-.3,1.5-.1,3-.3,4.5-.5l1.8-.2h.9c1.5-.3,3-.5,4.5-.8,1.1-.2,2.2-.4,3.3-.6v-95.7l.2.2Z"/>
        <rect class="cls-6" x="453.6" y="165.6" width="57" height="112.3"/>
        <polygon class="cls-6" points="453.6 281.3 453.6 392.8 736.6 392.8 736.6 344.7 585.9 344.7 585.9 373.1 510.6 373.1 510.6 281.3 453.6 281.3"/>
        <path class="cls-6" d="M452.7,515.7h.9v73.1c10.2-.8,20.4-1.8,30.5-3.1,45.4-5.8,89.8-17.4,132.3-34.3,12.2-4.9,24.1-10.2,35.7-15.9,19.3-9.5,38-20.4,55.8-32.4,4.5-3,8.8-6.1,13.2-9.3,3-2.2,6-4.5,9-6.6,2.1-1.5,4.2-3,6.3-4.4v-86.4h-225.1c.2-.5.3-1,.5-1.5-.2.5-.3,1-.5,1.5h-57.8v119.4h-.9,0Z"/>
        <path class="cls-6" d="M305,157.2h37.1v-10.3h-16.7v-30.6c-1.4.5-2.9,1-4.3,1.4v29.1h-16.2v10.3h.1Z"/>
        <path class="cls-6" d="M215.4,277.9h216.3v-112.3h-9.6v83h-43.8v-49.1h-36.2v-38.8h-37.1v38.8h-36.2v49.1h-53.4v29.3h0Z"/>
        <path class="cls-6" d="M215.4,281.3v111.4h216.2v-111.4h-216.2,0ZM223,556.6c41.7,15.9,85.3,26.2,129.7,30.8h.2c8.4.9,16.8,1.6,25.2,2.1h.3c17.7,1,35.5,1.2,53.2.6v-193.8h-216.2v39.5h-59l.3,88.2"/>
        <path class="cls-6" d="M130.7,396.2h-50.4c.4,22.6,5.6,44.8,16.7,65.4,9.3,17.1,22.2,32,37.5,45v-70.9h-3.8v-39.5Z"/>
        <path class="cls-6" d="M80.2,392.8h50.5v-93.1h-27.3c-14.2,29.4-23.2,61.6-23.2,93.1Z"/>
        <rect class="cls-6" x="453.6" y="196.8" width="30.5" height="35.2"/>
        <rect class="cls-6" x="453.6" y="269.8" width="30.5" height="8.1"/>
        <rect class="cls-6" x="453.6" y="281.3" width="30.5" height="23.6"/>
        <rect class="cls-6" x="453.6" y="342.7" width="30.5" height="35.2"/>
        <rect class="cls-6" x="453.6" y="415.7" width="30.5" height="35.2"/>
        <path class="cls-6" d="M453.6,515.7h-.9.9v8.2h30.5v-35.2h-30.5v27Z"/>
        <path class="cls-6" d="M453.6,561.6v27.2c10.2-.8,20.4-1.8,30.5-3.1v-24h-30.5Z"/>
        <rect class="cls-6" x="605.7" y="390.2" width="130.9" height="2.6"/>
        <rect class="cls-6" x="605.7" y="396.2" width="130.9" height="9.9"/>
        <rect class="cls-6" x="605.7" y="438.6" width="130.9" height="15.9"/>
        <path class="cls-6" d="M605.7,487v16h102.4c4.5-3,8.8-6.1,13.2-9.3,3-2.2,6-4.5,9-6.6h-124.6Z"/>
        <path class="cls-6" d="M605.7,535.4v15.9h10.8c12.2-4.9,24.1-10.2,35.7-15.9h-46.5Z"/>
        <rect class="cls-6" x="352.7" y="292.1" width="25.8" height="22.9"/>
        <rect class="cls-6" x="910.6" y="185.4" width="25.8" height="22.9"/>
        <rect class="cls-6" x="910.6" y="238.6" width="25.8" height="22.9"/>
        <rect class="cls-6" x="910.6" y="291.8" width="25.8" height="22.9"/>
        <rect class="cls-6" x="910.6" y="345" width="25.8" height="22.9"/>
        <rect class="cls-6" x="910.6" y="398.2" width="25.8" height="22.9"/>
        <rect class="cls-6" x="910.6" y="451.5" width="25.8" height="22.9"/>
        <rect class="cls-6" x="254.4" y="292.1" width="25.8" height="22.9"/>
        <rect class="cls-6" x="352.7" y="348.6" width="25.8" height="22.9"/>
        <rect class="cls-6" x="254.4" y="348.6" width="25.8" height="22.9"/>
        <rect class="cls-6" x="352.7" y="405.1" width="25.8" height="22.9"/>
        <rect class="cls-6" x="254.4" y="405.1" width="25.8" height="22.9"/>
        <rect class="cls-6" x="352.7" y="461.7" width="25.8" height="22.9"/>
        <rect class="cls-6" x="254.4" y="461.7" width="25.8" height="22.9"/>
        <rect class="cls-6" x="352.7" y="518.2" width="25.8" height="22.9"/>
        <rect class="cls-6" x="254.4" y="518.2" width="25.8" height="22.9"/>
        <polygon class="cls-6" points="378.5 589.5 378.5 574.7 352.7 574.7 352.7 587.4 378.5 589.5"/>
        <path class="cls-6" d="M976.9,249.2v13.1h88.2v-13.1h-88.2,0ZM1056.3,250h7.2v11.5h-7.2v-11.5ZM1047.5,250h7.2v11.5h-7.2v-11.5ZM1038.7,250h7.2v11.5h-7.2v-11.5ZM1029.9,250h7.2v11.5h-7.2v-11.5ZM1021.2,250h7.3v11.5h-7.2v-11.5h0ZM1012.4,250h7.2v11.5h-7.2v-11.5ZM1003.6,250h7.2v11.5h-7.2v-11.5ZM994.8,250h7.2v11.5h-7.2v-11.5ZM986.1,250h7.2v11.5h-7.2v-11.5ZM977.3,250h7.2v11.5h-7.2v-11.5Z"/>
        <path class="cls-6" d="M976.9,287.4v13.1h88.2v-13.1h-88.2,0ZM1056.3,288.2h7.2v11.5h-7.2v-11.5ZM1047.5,288.2h7.2v11.5h-7.2v-11.5ZM1038.7,288.2h7.2v11.5h-7.2v-11.5ZM1029.9,288.2h7.2v11.5h-7.2v-11.5ZM1021.2,288.2h7.3v11.5h-7.2v-11.5h0ZM1012.4,288.2h7.2v11.5h-7.2v-11.5ZM1003.6,288.2h7.2v11.5h-7.2v-11.5ZM994.8,288.2h7.2v11.5h-7.2v-11.5ZM986.1,288.2h7.2v11.5h-7.2v-11.5ZM977.3,288.2h7.2v11.5h-7.2v-11.5Z"/>
        <path class="cls-6" d="M976.9,325.5v13.1h88.2v-13.1h-88.2,0ZM1056.3,326.4h7.2v11.5h-7.2v-11.5ZM1047.5,326.4h7.2v11.5h-7.2v-11.5ZM1038.7,326.4h7.2v11.5h-7.2v-11.5ZM1029.9,326.4h7.2v11.5h-7.2v-11.5ZM1021.2,326.4h7.3v11.5h-7.2v-11.5h0ZM1012.4,326.4h7.2v11.5h-7.2v-11.5ZM1003.6,326.4h7.2v11.5h-7.2v-11.5ZM994.8,326.4h7.2v11.5h-7.2v-11.5ZM986.1,326.4h7.2v11.5h-7.2v-11.5ZM977.3,326.4h7.2v11.5h-7.2v-11.5Z"/>
        <path class="cls-6" d="M976.9,363.7v13.1h88.2v-13.1h-88.2,0ZM1056.3,364.5h7.2v11.5h-7.2v-11.5ZM1047.5,364.5h7.2v11.5h-7.2v-11.5ZM1038.7,364.5h7.2v11.5h-7.2v-11.5ZM1029.9,364.5h7.2v11.5h-7.2v-11.5ZM1021.2,364.5h7.3v11.5h-7.2v-11.5h0ZM1012.4,364.5h7.2v11.5h-7.2v-11.5ZM1003.6,364.5h7.2v11.5h-7.2v-11.5ZM994.8,364.5h7.2v11.5h-7.2v-11.5ZM986.1,364.5h7.2v11.5h-7.2v-11.5ZM977.3,364.5h7.2v11.5h-7.2v-11.5Z"/>
        <path class="cls-6" d="M976.9,401.8v13.1h82.9c0-.3.2-.5.3-.8h-3.9v-11.5h7.2v2.9c.4-1.2.8-2.5,1.2-3.7h-87.8.1ZM1047.5,402.7h7.2v11.5h-7.2v-11.5ZM1038.7,402.7h7.2v11.5h-7.2v-11.5ZM1029.9,402.7h7.2v11.5h-7.2v-11.5ZM1021.2,402.7h7.3v11.5h-7.2v-11.5h0ZM1012.4,402.7h7.2v11.5h-7.2v-11.5ZM1003.6,402.7h7.2v11.5h-7.2v-11.5ZM994.8,402.7h7.2v11.5h-7.2v-11.5ZM986.1,402.7h7.2v11.5h-7.2v-11.5ZM977.3,402.7h7.2v11.5h-7.2v-11.5Z"/>
        <path class="cls-6" d="M976.9,440v13.1h55.1c.3-.3.6-.5.9-.8h-2.9v-11.4h7.2v7.2l1.6-1.7v-5.5h4.8c.2-.3.4-.6.7-.8h-67.4ZM1021.2,440.8h7.3v11.5h-7.2v-11.5h0ZM1012.4,440.8h7.2v11.5h-7.2v-11.5ZM1003.6,440.8h7.2v11.5h-7.2v-11.5ZM994.8,440.8h7.2v11.5h-7.2v-11.5ZM986.1,440.8h7.2v11.5h-7.2v-11.5ZM977.3,440.8h7.2v11.5h-7.2v-11.5Z"/>
        <path class="cls-6" d="M976.9,478.1v7.9h.4v-7.1h7.2v4.3l1.5-.6v-3.6h7.2v.4c.8-.4,1.7-.8,2.5-1.2h-19,.2Z"/>
        <path class="cls-6" d="M397.8,277.9h0ZM452.7,515.7h.9-.9ZM511.4,396.2h0c.2-.5.3-1,.5-1.5-.2.5-.3,1-.5,1.5h0ZM397.8,277.9h0ZM904.6,157.2v3.4h40.5v-3.4h-40.5ZM452.7,515.7h.9-.9ZM511.4,396.2h0c.2-.5.3-1,.5-1.5-.2.5-.3,1-.5,1.5h0ZM397.8,277.9h0ZM452.7,515.7h.9-.9ZM511.4,396.2h0c.2-.5.3-1,.5-1.5-.2.5-.3,1-.5,1.5h0Z"/>
        <rect class="cls-6" x="74.5" y="698" width="1001.9" height="35.4"/>
        <rect class="cls-11" x="104.8" y="472.9" width="5.1" height="114"/>
        <path class="cls-9" d="M141.7,586.5l-.3,5.1-.4,7.2-.2,3-.4,7.2-.2,3-.4,7.2-5.1,82.5c-.5,7.4-6.6,13.1-13.9,13.1h-26.6c-7.4,0-13.5-5.7-13.9-13.1l-5.1-82.5-.4-7.2-.2-3-.5-7.2-.2-3-.4-7.2-.3-5.1c-.2-4,2.8-7.4,6.8-7.7h54.7c4,0,7.2,3.2,7.2,7.2v.4h-.2Z"/>
        <polygon class="cls-13" points="141.3 591.7 140.9 598.9 73.7 598.9 73.3 591.7 141.3 591.7"/>
        <polygon class="cls-13" points="140.7 601.9 140.3 609.2 74.3 609.2 73.9 601.9 140.7 601.9"/>
        <polygon class="cls-13" points="140.1 612.2 139.6 619.5 75 619.5 74.5 612.2 140.1 612.2"/>
        <path class="cls-15" d="M65.5,515.6c29.5,21.3,41.8,54.7,41.8,54.7,0,0-35.5-1.2-65-22.6S.4,493,.4,493c0,0,35.6,1.2,65.1,22.6Z"/>
        <path class="cls-2" d="M.4,493s36.9,20.5,48.7,37.4,58.1,39.8,58.1,39.8"/>
        <path class="cls-15" d="M84.5,472.6c16.1,11.6,22.7,29.8,22.7,29.8,0,0-19.3-.7-35.4-12.3s-22.7-29.8-22.7-29.8c0,0,19.3.7,35.4,12.3Z"/>
        <path class="cls-2" d="M49.2,460.3s20.1,11.2,26.5,20.4,31.6,21.7,31.6,21.7"/>
        <path class="cls-15" d="M130.6,501.4c-18.4,20.3-22.3,46.8-22.3,46.8,0,0,26-6.4,44.4-26.7s22.3-46.7,22.3-46.7c0,0-26,6.4-44.4,26.6Z"/>
        <path class="cls-2" d="M175.1,474.8s-24,20.8-30.1,35.1-36.6,38.3-36.6,38.3"/>
        <circle class="cls-3" cx="406.3" cy="56.9" r="19.8"/>
        <circle class="cls-3" cx="406.3" cy="56.9" r="35.8"/>
        <circle class="cls-3" cx="406.3" cy="56.9" r="56.4"/>
        <path class="cls-10" d="M543,725.2c-.5-3.9-3.2-9-3.2-9l-14.5-21.2h0s-2.3-10.6,0-15.8-8.1-18.1-8.1-18.1c0,0-1.3-3.2,2-7.2s-2-15.6-2-15.6c0,0-2.5-24.2-2.8-28s-2.3-24.2-2.3-24.2l-4.8-43.5-8.6-115.4-.2-2.2c1.1-.5,1.6-.8,1.6-.8l-1.8-63.8,1.5-1.3c13-11.5,42.9-38,42.6-38.6-.4-.7-3.6-44.4-4-55.3-.3-7.8-2.1-15.5-5.1-22.6-.8-1.5-2.9-11-3.8-15.1l-.4-1.8s-8.8-16.3-8-23.8,2.3-13-16.4-15.6c0,0-15.8-2.3-25.1-8.5-5.5-3.7-11.6-6.7-17.9-8.8,0,0-3.4-6-6.8-4.8v-12.7c5.3-2.1,8.7-7.1,8.8-12.8v-45.9c-.1-7.8-6.5-14-14.2-13.9h-39.8c-.6,0-1.2,0-1.7,0v-21c0-.6-.3-1.2-.7-1.6-.4-.4-1-.7-1.7-.7-1.3,0-2.3,1-2.4,2.3v22.5c-4.5,2.4-7.4,7-7.4,12.1v45.9c0,5.6,3.5,10.7,8.8,12.8v12.1c-1.6-.2-4,.9-6.7,6.5,0,0-13.6,7.7-18.3,8.5s-21.4,6.5-21.4,6.5c-2.5,1.8-5.6,2.7-8.6,2.7-5.2,0-9.5,11.1-8.9,17.2s-.4,10.5-5.2,10.8-2.2,9.9-2.2,10c0,.3-.2,1-.5,2.1-.9,4.2-3,13.3-3.7,14.7-3.1,7.2-4.8,14.8-5.2,22.6-.4,11-3.6,54.6-4,55.3-.2.5,20.3,18.8,34.7,31.6l2.1,1.8-6.6,60.5s0,6.8,6.8,11.9v2.2c-.3,7-.9,15.7-2,17.9-2,4-1.5,25.2-1.5,25.2,0,0-2,43.3-4.6,48s-3.1,14.6-2.3,16.6-2.5,53.9-2.5,53.9l-2.5,23.2s.8,22.3-1.5,22.8-3.6,15.8-3.6,15.8c0,0-8.1,10.9-4.6,14.8s-.5,5.7-.9,6.7-7.8,4.7-2.4,18.5c0,0,.1.3.2.4-5,6.8-20.9,28.7-19.9,32,.7,2.1,2.2,3.9,4.2,5,3.7,2.2,10.1,3.2,20.3,0,16.9-5.3,15.7-9.2,15.7-9.2,0,0,.1-6.2,7.1-6.7s12.2-6.8,12.2-6.8l-.8-3-1.1-4.1c.1-1.2,1-3.2,4.9-4.4,5.9-1.7,4.3-12.6,4.3-12.6,0,0-.5-11.4,2-12.9s1.5-20.3,1.5-20.3c0,0,2.8-13.6,6.9-22.8s8.9-63.6,8.9-63.6c0,0,3.3-26.7,6.4-34.4s5.9-29.2,5.9-29.2c0,0,18.8-35.6,19.1-43.5,0,0,2.4-7.4,4.8.8s9.2,27.7,9.2,27.7l6.6,24,7.9,35.9,5.1,30.2s-.7,11.5,1.3,15.5,4.8,13.1,3.3,14.8,3.1,9.9,4.3,11.6,0,38.4,0,38.4c0,0,5.8,31.2,14.2,36.6.6.4,1.2.7,1.9.9-.1,3.4-.2,7.9,0,10.3,0,.5,0,1.1.3,1.5.8,1,9.4,7.7,11.2,7.7s8.1,4.3,8.4,6.4,18.6,11,21.2,11.3,15.2,2.5,17-1c.4-1,.5-2.2.3-3.3l-.4.3ZM497.9,279.4l1.3,1.1s1.3,10.2,2.3,13.3-.2,9-.2,9c0,0,.2,4.3,1.3,6.5s-2.2,7.1-2.2,7.1h-3.1l-1-38.2,1.6,1.3h0ZM360.1,312.4c-.5-1-.5-2.1-.2-3.1.3-.6.5-1.1.6-1.7.4-1.6.6-3.1.7-4.8h0c-.1-.6-1.1-6-.2-9s2.3-13.3,2.3-13.3l.9-.7,2-1.7s0-.6.1-1.7c.4,9,.8,18.8.2,19.4-1,1-4.7,10.6-3.8,11,.3.1-.1,4-.8,9.2-.8-1.1-1.4-2.3-1.9-3.5h0Z"/>
        <path class="cls-12" d="M408.6,59.2v30.3c0,1.3-1,2.3-2.3,2.3s-2.3-1-2.3-2.3v-30.3c0-1.3,1-2.3,2.3-2.3s2.3,1,2.3,2.3h0Z"/>
        <path class="cls-12" d="M454.1,140.3v47.1c0,7.8-6.4,14.2-14.2,14.2h-20.4c-7.8,0-14.2-6.4-14.2-14.2v-47.1c0-7.8,6.4-14.2,14.2-14.2h20.4c7.8,0,14.2,6.4,14.2,14.2h0Z"/>
        <path class="cls-9" d="M374.1,316.9l-3.9,48s-5.8-5.3-13.4-12.2c-14-12.8-33.9-31.1-33.7-31.5.4-.7,3.5-44.3,3.9-55.2.3-7.8,2-15.4,5-22.6.7-1.4,2.7-10.5,3.6-14.7.3-1.3.5-2.2.5-2.2l6.5-2.6s27.2,30.4,27.2,31-1.9,23.9-1.9,23.9l-1.9,1.7-.8.7s-1.3,10.2-2.2,13.2c-.9,2.9,0,8.4.2,8.9h0c0,1.6-.3,3.2-.7,4.8-.2.6-.4,1.2-.6,1.8-.3,1-.3,2.2.2,3.1.5,1.4,1.2,2.7,2,3.9h10.1-.1Z"/>
        <path class="cls-9" d="M539.2,321.1c.3.6-28.8,27.1-41.4,38.5l-5.7,5.2-3.9-48h10s3.3-4.8,2.2-7-1.3-6.5-1.3-6.5c0,0,1.1-5.9.2-9s-2.2-13.2-2.2-13.2l-1.3-1.1-1.5-1.3s-1.9-23.3-1.9-23.9,27.2-31,27.2-31l6.5,2.6s.2.7.4,1.8c.9,4,3,13.6,3.7,15,3,7.2,4.7,14.8,5,22.6.4,10.9,3.5,54.5,3.9,55.2h0Z"/>
        <path class="cls-9" d="M539.3,728.5c-1.7,3.5-14,1.2-16.5,1s-20.3-9.2-20.6-11.2-6.4-6.4-8.2-6.4-10.1-6.7-10.9-7.7c-.2-.5-.3-1-.2-1.5-.3-4.1.2-14.5.2-14.5l35.8,2,17.4,26.2s2.6,5,3.1,9c.2,1.1,0,2.2-.3,3.2h.2Z"/>
        <path class="cls-4" d="M539.3,728.5c-1.7,3.5-14,1.2-16.5,1s-20.3-9.2-20.6-11.2-6.4-6.4-8.2-6.4-10.1-6.7-10.9-7.7c-.2-.5-.3-1-.2-1.5-.3-4.1.2-14.5.2-14.5l35.8,2,17.4,26.2s2.6,5,3.1,9c.2,1.1,0,2.2-.3,3.2h.2Z"/>
        <path class="cls-4" d="M539.3,728.5c-1.7,3.5-14,1.2-16.5,1s-20.3-9.2-20.6-11.2-6.4-6.4-8.2-6.4-10.1-6.7-10.9-7.7c-.2-.5-.3-1-.2-1.5l11.6,7.4s7.4,4.7,9.4,7.5,17.6,8.7,18.8,8.8c1,0,11.2-1.9,16.8-1,.2,1.1,0,2.2-.3,3.2h.1Z"/>
        <path class="cls-9" d="M369.9,706.9s-5.1,6.3-11.9,6.8c-3.7,0-6.7,3-6.9,6.7,0,0,1.2,3.8-15.2,9.2-9.9,3.2-16.1,2.2-19.7,0-2-1.1-3.4-2.9-4.1-5-1.1-4,20.8-34,20.8-34l19.9-1.2,14.2,6.4,2.2,8.1.8,3.1h0Z"/>
        <path class="cls-4" d="M369.9,706.9s-5.1,6.3-11.9,6.8c-3.7,0-6.7,3-6.9,6.7,0,0,1.2,3.8-15.2,9.2-9.9,3.2-16.1,2.2-19.7,0-2-1.1-3.4-2.9-4.1-5-1.1-4,20.8-34,20.8-34l19.9-1.2,14.2,6.4,2.2,8.1.8,3.1h0Z"/>
        <path class="cls-1" d="M369.9,706.9s-5.1,6.3-11.9,6.8c-3.7,0-6.7,3-6.9,6.7,0,0,1.2,3.8-15.2,9.2-9.9,3.2-16.1,2.2-19.7,0,9.3-1,29.9-6.9,32-8.9,2.5-2.5,5.6-9.3,7.7-9.4,1.5,0,8.9-4.5,13.3-7.3l.8,3h0Z"/>
        <path class="cls-4" d="M369.9,706.9s-5.1,6.3-11.9,6.8c-3.7,0-6.7,3-6.9,6.7,0,0,1.2,3.8-15.2,9.2-9.9,3.2-16.1,2.2-19.7,0,9.3-1,29.9-6.9,32-8.9,2.5-2.5,5.6-9.3,7.7-9.4,1.5,0,8.9-4.5,13.3-7.3l.8,3h0Z"/>
        <path class="cls-9" d="M522.4,679.3c-2.2,5.2,0,15.8,0,15.8,0,0-33.1,1.7-41.3-3.7s-13.8-36.6-13.8-36.6c0,0,1.2-36.6,0-38.3s-5.7-9.9-4.2-11.6-1.2-10.9-3.2-14.8-1.2-15.3-1.2-15.3l-4.9-30.1-7.7-35.8-6.4-24s-6.7-19.5-8.9-27.7-4.6-.7-4.6-.7c-.2,7.9-18.5,43.5-18.5,43.5,0,0-2.7,21.5-5.7,29.2s-6.2,34.3-6.2,34.3c0,0-4.7,54.3-8.6,63.5s-6.6,22.8-6.6,22.8c0,0,1,18.8-1.5,20.3s-2,12.8-2,12.8c0,0,1.5,10.9-4.2,12.6s-4.7,5.4-4.7,5.4c0,0-31.6,5.2-36.8-8.6s2-17.5,2.3-18.5,4.3-2.7.9-6.7,4.5-14.8,4.5-14.8c0,0,1.2-15.3,3.5-15.8s1.5-22.7,1.5-22.7l2.5-23.2s3.2-51.9,2.5-53.9-.2-11.9,2.2-16.5,4.4-47.9,4.4-47.9c0,0-.5-21.2,1.5-25.2s1.7-10.8,2-17.9c.2-5.4.3-9.8.3-9.8l27.7-10.4,35.6-11.4,29.9,14.3,43.7,8.4.5,7.5,8.3,115.3,4.7,43.5s2,20.5,2.2,24.2,2.7,27.9,2.7,27.9c0,0,5.2,11.6,2,15.6s-2,7.2-2,7.2c0,0,10.1,12.8,7.9,18l-.3-.2Z"/>
        <polygon class="cls-4" points="470.6 181.7 459.2 384.2 397.5 371.2 385.2 290.1 397.3 181.1 406.5 182.3 422.5 184.3 438.5 185.3 455.7 183.4 470.6 181.7"/>
        <polygon class="cls-15" points="470.6 183.2 459.2 385.7 397.5 372.7 385.2 291.5 397.3 182.6 406.5 183.8 422.5 185.8 438.5 186.8 455.7 184.9 470.6 183.2"/>
        <path class="cls-9" d="M419.8,188.6l22.2.7-6.2,8.8s.4,17.7,3.4,22.8,2.1,83.4,2.1,83.4l-5.9,11.2-10.1-12.6v-103.4c.1,0-5.5-10.9-5.5-10.9h0Z"/>
        <path class="cls-4" d="M419.8,188.6l22.2.7-6.2,8.8s.4,17.7,3.4,22.8,2.1,83.4,2.1,83.4l-5.9,11.2-10.1-12.6v-103.4c.1,0-5.5-10.9-5.5-10.9h0Z"/>
        <polygon class="cls-4" points="454.7 165.7 433.9 188.6 445.8 201 465.4 181.9 454.7 165.7"/>
        <path class="cls-15" d="M453.3,165.7l-19.4,21.5,11.9,12.4,19.7-19.1-9.6-14.5c-.5-.7-1.4-1-2.2-.5-.1,0-.3.2-.4.3h0Z"/>
        <polygon class="cls-4" points="425.1 187.5 404.1 166.5 402.2 177.5 411.8 201.6 425.1 187.5"/>
        <polygon class="cls-15" points="425.9 186.1 404.9 165 402.9 176 412.5 200.1 425.9 186.1"/>
        <path class="cls-4" d="M496.6,427.7c-10.1,4.8-20.9,8-31.9,9.3-20.4,2.6-33.7-23.3-33.7-23.3l-7.8,10.1c-2.5,10.8-40.2,13.5-55.5,9.4-3.2-.8-6.2-2.2-8.8-4.2.2-5.4.3-9.8.3-9.8l27.7-10.4,35.6-11.4,29.9,14.3,43.7,8.4.5,7.5h0Z"/>
        <path class="cls-4" d="M470.6,183.2l-11.4,202.5-61.8-13-12.2-81.2,12.1-109,9.1,1.2c-.2,4-.7,7.9-1.3,11.8-1.5,6.9,7.7,56.1,7.7,56.1,0,0,17.4,55.1,25.2,47.2s18.9-49.9,18.9-49.9c7.5-15.6.1-59.2-.4-60.1-.4-1.3-.6-2.6-.7-4l14.9-1.5h-.1Z"/>
        <path class="cls-4" d="M497.3,339.8l.5,19.8-5.7,5.2-3.9-48h8.5l.6,23Z"/>
        <path class="cls-4" d="M363.1,303.3h0c0,1.6-.3,3.2-.7,4.8v-.7c-.4-.2,0-2,.8-4.1h0Z"/>
        <path class="cls-4" d="M374.1,316.9l-3.9,48s-5.8-5.3-13.4-12.2l.9-8.5s3.2-20.9,4.4-31.2c.5,1.4,1.2,2.7,2,3.9h10Z"/>
        <path class="cls-9" d="M407.6,165.8s-3.7-5.4-8.8,5.1c0,0-13.2,7.7-17.8,8.5s-20.8,6.5-20.8,6.5c-2.4,1.8-5.4,2.7-8.4,2.7-5.1,0-9.3,11.1-8.6,17.2s-.4,10.5-5.1,10.8-2.1,10-2.1,10l31.3,35.8s2,33,1,34-4.6,10.6-3.7,11-4.7,36.8-4.7,36.8l-7.5,70.8s0,11.9,15.3,15.9c15.3,4.1,53,1.4,55.5-9.4l7.8-10.1s13.3,26,33.7,23.3c20.4-2.7,33.4-10,33.4-10l-2.2-84.9-1.5-61.1,31.9-52.2s-8.5-16.3-7.8-23.7,2.2-13-15.9-15.6c0,0-15.3-2.3-24.3-8.5-5.4-3.7-11.2-6.7-17.4-8.8,0,0-4.1-7.4-7.6-4.2,0,0,2.6,11.4,2.3,13.4s.5,11.1,1.1,12,8,44.5.4,60.1c0,0-11.1,42-18.9,49.9s-25.2-47.2-25.2-47.2c0,0-9.1-49.2-7.7-56.1s2.5-32,2.5-32h-.2Z"/>
        <circle class="cls-9" cx="434" cy="322.3" r="5.4"/>
        <circle class="cls-9" cx="434" cy="347.9" r="5.4"/>
        <circle class="cls-4" cx="434" cy="322.3" r="5.4"/>
        <circle class="cls-4" cx="434" cy="347.9" r="5.4"/>
        <path class="cls-4" d="M482.9,671.9s22.3,1.7,24.5,3.5-24.5-3.5-24.5-3.5Z"/>
        <path class="cls-4" d="M350,654.4s4.7,5.9,2.7,8.7-2.7-8.7-2.7-8.7Z"/>
        <path class="cls-4" d="M355.7,675.7s8.6-5.7,12.1-1.9-12.1,1.9-12.1,1.9Z"/>
        <path class="cls-4" d="M454.1,140.3v14.3c-1.8.8-3.7,1.2-5.7,1.2h-37.5c-2,0-3.9-.4-5.7-1.2v-14.3c0-7.8,6.4-14.2,14.2-14.2h20.4c7.8,0,14.2,6.4,14.2,14.2h.1Z"/>
        <path class="cls-4" d="M408.6,79v10.5c0,1.3-1,2.3-2.3,2.3s-2.3-1-2.3-2.3v-8.9c1.4-.8,3-1.4,4.6-1.7h0Z"/>
        <rect class="cls-17" x="396.8" y="79.9" width="65.9" height="73.4" rx="12" ry="12"/>
        <path class="cls-4" d="M448.4,129v29.9h-37.4v-30c2.5-1.9,5.5-2.9,8.5-2.9h20.4c3.1,0,6.1,1.1,8.5,2.9h0Z"/>
        <rect class="cls-4" x="410.3" y="79.9" width="38.6" height="76.6"/>
        <rect class="cls-12" x="411" y="79.9" width="37.5" height="76.6"/>
        <rect class="cls-17" x="413.8" y="106.3" width="12.1" height="2.2"/>
        <rect class="cls-17" x="433.9" y="106.3" width="12.1" height="2.2"/>
        <rect class="cls-17" x="419.5" y="131.1" width="20.4" height="1.3"/>
        <path class="cls-8" d="M686.8,213.4l14.5,71.5c.3,1.6,1.7,2.8,3.4,3l9.7.9c.7,1.2,1.4,2.5,1.9,3.9,1.7,4,2.8,8.8,6.5,11.2,2,2,6.5,1.6,9.1,1.7,2.7,0,5.4.3,8,1.1h-.9c1.7.7,3.3,1.5,4.9,2.4,0,.2.2.3.3.5.4.6.7,1.4,1.4,1.7-.2.4.8.4,2.3.2,0,0,.3,0,.4.1.4.3.7.6,1,1,2.5,3.3,7.2,4.2,11.4,4.3s8.6-.2,12.3,1.8c.9.5,1.7,1.1,2.6,1.5v1.3c.4,1.4,1,2.7,1.7,4s.7,2.9,0,4.2c-.3.5-.8,1-1.1,1.5-.4.9-.6,1.8-.6,2.8-.3,4.5-.6,9.2.7,13.6.7,2.5,1.9,5.2,1.1,7.7-.5,1.5-1.7,2.8-1.8,4.4s.8,3.2,1.4,4.8c1.4,3.8.6,8.3-.3,12.2h.2c-.7.8-1.3,1.8-1.7,2.8-1.5,3.3-1.4,7.1-1.3,10.7.2,6.8.4,13.7,2.3,20.2.3.9.5,1.9.7,2.9,0,.9,0,1.8-.2,2.8-.5,2.6-1,5.2-1.7,7.8-.4,1.1-.5,2.3-.4,3.4.2,1.5,1.1,2.8,1.8,4.2,2.5,5.6-.2,12.5,2.2,18.1.6,1.3,1.4,2.5,1.9,3.9,1.1,3,.5,6.2.8,9.4.4,2.2.9,4.4,1.6,6.5,1.8,6.9-1.2,14.3.5,21.3,1.5,6,2.9,12,3,18.1,0,4.3-.5,8.5,0,12.8s2.3,8.6,5.9,10.9c1.9,1.1,4.1,1.7,6.3,1.9,4.3,22.4,4,45.4,7.8,67.9.8,4.5,1.7,9,2.1,13.6,2.1,21.4-5.9,42.2-10.4,63.3l-.7.4c-5.5,3.5-11.5,7.4-13.7,13.5-.7,1.9-.8,4.3.7,5.6.6.4,1.1.8,1.6,1.2,1.2,1.5.2,4.1,1.6,5.3,1,.2,1.9.3,2.9.3-.7,1.6-1.3,3.2-2,4.8-.6,1.4-1.2,3-.8,4.4.3.9.8,1.8,1.4,2.7,1,2.2,1.5,4.7,1.4,7.2,0,.8,0,1.6.6,2.3.3.3.6.5.9.6,9.1,4,19.5,2.8,27.5-3,.4-.2.7-.6.9-.9,0-.3.2-.5.3-.8.6-2.6,1.3-5.2,1.9-7.8,0-.3.2-.6.2-.9.7-3.1,1.5-6.1,2.2-9.2,1-4.3,2.1-8.6,2.8-13v15.8c0,1.3,0,2.5,0,3.8h3.2c.2,0,.3,0,.4-.2,0-.3.2-.7.2-1,.2-3.1.3-6.2.3-9.4,0-5.5.2-11,0-16.5,0-1.2,0-3.8,0-5.5.5-1.2.9-2.5,1.3-3.7.5-1.7,1-3.5,1.4-5.2h2c0,10.1-1,20.2-2.9,30.1,1.9,1.8,5.4.8,6.9-1.4s1.8-5,2-7.6c.7-8.7,2.1-17.3,3.5-25.9,0-1.5.6-2.9,1.2-4.2.7-1.1,1.7-2,2.3-3.2.6-1.5.8-3.2.5-4.8-.4-3.8-1.3-7.7-3.6-10.7-2.2-2.8-5.8-4.8-9.3-4.4l-.2-.4c-2.1-4.1-1.8-9-1.6-13.6.3-5.2.6-10.4.9-15.6.8-5.7,1.5-11.4,1.9-17.2,1-3.7,2.3-7.3,3.2-11,0-3.6,1.3-7.4,1.3-11.1s-.3-7.8-.9-11.6c-1.1-7.9-3.2-15.6-4.9-23.3-.3-1.3-.5-2.7-.7-4.1,1.2-.7,2.2-1.5,3.2-2.4-1.8-13.6-3.3-28.2,3.1-40.3,1.9-3.6,4.5-7,5.2-11,.2-1,.2-2.1.4-3.1.3-1.2.7-2.4,1.2-3.5l12.7-28.8,2.1-4.6c2.2-5,4.4-10,6.3-15.2,2.2-6,4-12.2,5.7-18.4,1-3.7,2-7.5,1.9-11.3-.2-3.4-1-6.8-2.4-9.9-.3-.7-.6-1.4-1-2.1.4-.1.8-.2,1.2-.3.8-6,1.6-12.7-1.8-17.8-.7-.8-1.2-1.7-1.6-2.7-.6-2.1.7-4.2,1.1-6.3.9-4.3-2.1-8.4-4.6-12-.4-.5-.7-1-.9-1.6-.5-1.7.5-3.5.6-5.2,0-.4,0-.9-.3-1.3,9.7.6,19.2,3.1,28.8,3.5,6.1.2,13-.7,16.9-5.4,2.5-3,3.4-7,3.6-10.8.4-7.1-1-14.2-2.2-21.2-.8-4.8-1.4-9.6-1.9-14.4,1,0,2,.1,3,.1,5.7,0,11.7-.8,16.4-4s7.9-9.2,6.4-14.7c-.8-3.1-3-5.7-4.6-8.5-5.6-9.9-4-22.4.8-32.6,2.2-4.9,5.2-9.9,4.3-15.2-1.3-7.4-9.2-11.2-15.2-15.9-10.6-8.3-16.3-21.3-15.2-34.7.5-4.9,1.8-10-.2-14.5-2.1-4.8-7.3-7.3-11.7-10.3-6.8-4.6-12.3-10.8-15.9-18.1-2.2-4.6-4.1-8.7-9.3-10.3-4.2-1.1-8.7-1.2-12.9-.2l.9-.4c-.4,0-.8,0-1.2.2l-.6.2c-4-.9-8.2-.9-12.2,0-8.1,1.9-17,7.8-23.7,12.6-2,1.4-3.8,3-5.5,4.8-.2.2-.4.4-.5.6-.8.9-1.5,1.9-2,2.9-.3.8-.6,1.6-.8,2.4-.7,2.3-1,4.7-.8,7.1-.4.5-.7,1-1,1.5-8.8,14-5.2,32.4,8.3,42.1-1.2,2.7-2.6,5.4-4.2,7.9-1.7,2.8-3.5,5.5-5.4,8.2l-20,6.2c-1.3.4-2.5.8-3.7,1.3-1.5.6-2.8,1.4-4.1,2.4-4.1,3.2-6.2,8.3-5.5,13.5,0,.5.2,1,.3,1.5-.6,3.1-1.1,6.2-1.5,9.3-.6,4.2-1.2,8.3-1.8,12.5-2.1,4.1-3,8.8-2.6,13.4,0,2.8.3,5.6.7,8.3v7.4c.2,3.1.2,6.2,0,9.3-.3,2.8-.9,5.6-1.7,8.4,0,.5-.3,1-.7,1.3h-1.5l-1.5-.2v-.6l-15.8-77.2c-.4-1.8-1.9-3-3.7-3h-57.9c-2.1,0-3.8,1.7-3.8,3.8v.7h.8ZM870.3,305.5c0-.3.3-.6.4-.9.6-1,1.5-1.8,2-2.8.6-1.2.6-2.5,0-3.7-.6-1,1-2,1.5-3,.2-.8.3-1.7.2-2.6.2-1.5.7-2.8,1.6-4,1.1-1.7,2.2-3.5,3.3-5.2.3-.5.7-1,1-1.5.2.3.4.7.6,1,.8.9,1.4,2,1.8,3.2v2.5c0,2.6,1.6,4.8,2.8,7.1s2.1,5.1.8,7.3c-.5.8-1,2-.2,2.4s1,0,1.4.3c.5.5-.2,1.3-.8,1.5-4.3,1.9-9.2,1.9-13.6,0-.9-.5-1.9-1-2.9-1.5h.1ZM747.3,292.2l16,1.6c-1.3.6-2.8,1-4.3.9l-3.9-1.2s0,.3,0,.7c-.7-.2-1.5-.4-2.2-.5-1.9-.4-3.7-.9-5.5-1.5h0Z"/>
        <path class="cls-9" d="M870.5,119c3.6,7.3,9,13.5,15.7,18,4.3,2.9,9.5,5.4,11.5,10.2,1.9,4.5.6,9.6.2,14.4-1.1,13.3,4.5,26.3,15,34.5,5.9,4.6,13.8,8.4,15.1,15.8.9,5.2-2,10.3-4.3,15.1-4.7,10.2-6.3,22.7-.8,32.5,1.6,2.8,3.7,5.3,4.5,8.4,1.5,5.5-1.7,11.4-6.3,14.6s-10.6,4-16.2,4-8.6-.6-11.5-3.5c-2-1.9-2.9-4.6-3.9-7.2l-7.2-20.2c-1.3-3.6-2.7-7.4-5.4-10.2-5.7-5.9-15.1-5.2-23.3-5.1-12.1.1-24.1-1.8-35.6-5.6-6.7-2.3-14-6.1-15.5-13-1.5-6.7,3.1-13.2,7.1-18.8,3-4.2,5.9-8.4,8.6-12.9,2.6-4.3,5.2-8.8,5.9-13.8,1.2-8.3-2.7-16.3-5.7-24.1s-5.1-17-.7-24.1c1.9-2.8,4.3-5.1,7.1-7,6.5-4.8,15.3-10.6,23.4-12.5,4.3-1,8.8-.9,13.1.2,5.2,1.6,7,5.7,9.2,10.3h0Z"/>
        <path class="cls-16" d="M782.3,215.4c-1.6,5.5-2.7,11.1-3.4,16.8-2,13.7-4,27.5-3.6,41.3.2,3.1.2,6.2,0,9.3-.3,2.8-.9,5.6-1.6,8.4,0,.5-.3,1-.7,1.3-.5.2-1,0-1.5,0-1.8-.2-3.1,1.5-4.5,2.7-2.7,2.2-6.6,2.5-9.6.7.9,4.2-.7,8.5-4.1,11-3.4,2.4-7.8,3.3-11.9,2.2,2-.3,4,1.1,5.2,2.9.4.6.7,1.4,1.4,1.7s1.9,0,2.7.3c.4.3.7.6,1,1,2.5,3.3,7.1,4.1,11.2,4.3s8.5-.2,12.2,1.8c.9.5,1.8,1.1,2.7,1.5,2.9,1.2,6.3,0,8.6-2.1s3.5-5.1,4.4-8.1c3.7-12,3-24.9,2.2-37.5-1.2-20-3.8-40.4-10.5-59.3l-.2-.2Z"/>
        <path class="cls-4" d="M782.3,215.4c-1.6,5.5-2.7,11.1-3.4,16.8-2,13.7-4,27.5-3.6,41.3.2,3.1.2,6.2,0,9.3-.3,2.8-.9,5.6-1.6,8.4,0,.5-.3,1-.7,1.3-.5.2-1,0-1.5,0-1.8-.2-3.1,1.5-4.5,2.7-2.7,2.2-6.6,2.5-9.6.7.9,4.2-.7,8.5-4.1,11-3.4,2.4-7.8,3.3-11.9,2.2,2-.3,4,1.1,5.2,2.9.4.6.7,1.4,1.4,1.7s1.9,0,2.7.3c.4.3.7.6,1,1,2.5,3.3,7.1,4.1,11.2,4.3s8.5-.2,12.2,1.8c.9.5,1.8,1.1,2.7,1.5,2.9,1.2,6.3,0,8.6-2.1s3.5-5.1,4.4-8.1c3.7-12,3-24.9,2.2-37.5-1.2-20-3.8-40.4-10.5-59.3l-.2-.2Z"/>
        <path class="cls-14" d="M843,581.2c-1,4.3-2.8,8.5-3.7,12.8-.7,3.7-1.1,7.5-1.2,11.3l-1.1,19.3c-.3,4.6-.5,9.4,1.6,13.5,1.4,2.8,3.8,5.2,4.5,8.3,1.1,4.8-2.4,9.4-5.6,13.2l-16,18.5c-5,5.8-10.5,11.9-17.9,13.9-1.1.4-2.3.4-3.4,0-2.1-.7-3.1-3.2-2.8-5.3.5-2.1,1.4-4.1,2.8-5.8,4.2-5.9,8.7-11.7,11.4-18.3,3.5-8.5,3.8-17.9,3.6-27.1-.8-37.4-10.2-74.3-9.2-111.7,8.2-.6,16.6-2,24.8-1.9,7.3,0,6.4,7.5,7.7,13.3,1.7,7.7,3.7,15.4,4.9,23.2.6,3.8.9,7.7.8,11.5,0,3.7-1.3,7.4-1.3,11.1h.1Z"/>
        <path class="cls-5" d="M843,581.2c-1,4.3-2.8,8.5-3.7,12.8-.7,3.7-1.1,7.5-1.2,11.3l-1.1,19.3c-.3,4.6-.5,9.4,1.6,13.5,1.4,2.8,3.8,5.2,4.5,8.3,1.1,4.8-2.4,9.4-5.6,13.2l-16,18.5c-5,5.8-10.5,11.9-17.9,13.9-1.1.4-2.3.4-3.4,0-2.1-.7-3.1-3.2-2.8-5.3.5-2.1,1.4-4.1,2.8-5.8,4.2-5.9,8.7-11.7,11.4-18.3,3.5-8.5,3.8-17.9,3.6-27.1-.8-37.4-10.2-74.3-9.2-111.7,8.2-.6,16.6-2,24.8-1.9,7.3,0,6.4,7.5,7.7,13.3,1.7,7.7,3.7,15.4,4.9,23.2.6,3.8.9,7.7.8,11.5,0,3.7-1.3,7.4-1.3,11.1h.1Z"/>
        <path class="cls-9" d="M838.1,638.7c3.7-.8,7.6,1.2,9.9,4.3s3.2,6.9,3.6,10.6c.3,1.6,0,3.3-.5,4.8-.6,1.2-1.6,2.1-2.3,3.2-.7,1.3-1.1,2.8-1.2,4.2-1.4,8.5-2.8,17.1-3.5,25.8-.2,2.6-.4,5.4-2,7.6s-4.9,3.2-6.8,1.4c1.9-9.9,2.9-19.9,2.9-29.9-4.4-.6-8.2,2.8-11,6.2-2.9,3.4-5.6,7-8,10.8-2.2,3.5-4.2,7.1-7,10.2-5.8,6.2-14.3,9.1-22.6,7.7-1.4-1.2-.4-3.8-1.6-5.2-.5-.5-1-.9-1.5-1.3-1.5-1.3-1.3-3.7-.7-5.6,2.2-6.1,8-10,13.5-13.4,9.9-6.2,20-12.4,30-18.4,3.8-2.3,6.7-5.9,8.3-10.1.4-1,1.9-13.1.7-12.7l-.2-.2Z"/>
        <path class="cls-5" d="M838.1,638.7c3.7-.8,7.6,1.2,9.9,4.3s3.2,6.9,3.6,10.6c.3,1.6,0,3.3-.5,4.8-.6,1.2-1.6,2.1-2.3,3.2-.7,1.3-1.1,2.8-1.2,4.2-1.4,8.5-2.8,17.1-3.5,25.8-.2,2.6-.4,5.4-2,7.6s-4.9,3.2-6.8,1.4c1.9-9.9,2.9-19.9,2.9-29.9-4.4-.6-8.2,2.8-11,6.2-2.9,3.4-5.6,7-8,10.8-2.2,3.5-4.2,7.1-7,10.2-5.8,6.2-14.3,9.1-22.6,7.7-1.4-1.2-.4-3.8-1.6-5.2-.5-.5-1-.9-1.5-1.3-1.5-1.3-1.3-3.7-.7-5.6,2.2-6.1,8-10,13.5-13.4,9.9-6.2,20-12.4,30-18.4,3.8-2.3,6.7-5.9,8.3-10.1.4-1,1.9-13.1.7-12.7l-.2-.2Z"/>
        <path class="cls-14" d="M839.8,570.4c2,25-3.6,49.8-8.6,74.4-.5,2-.7,4-.8,6,.2,2.5.6,5,1.2,7.4,1.9,10.1-.5,20.5-2.9,30.5-1.7,6.9-4,14.8-10.5,17.8-4.6,2.1-9.9,1.2-14.9.2-1.6-.2-3.2-.8-4.5-1.8-1.8-1.7-1.8-4.5-1.7-6.9,1.7-27.6,15.7-54,13-81.5-.5-4.5-1.4-9-2.1-13.6-3.9-23.4-3.4-47.4-8.3-70.6-.2-.8-.2-1.7,0-2.5.4-.8,1.1-1.4,1.9-1.8,4.5-2.7,9.3-5.1,14.6-5.8,4.1-.6,9.2,0,12.6,2.4,3.6,2.7,3.8,8.3,4.9,12.5,2.7,10.9,5.1,21.9,6,33.2h0Z"/>
        <path class="cls-9" d="M833.2,710.6c0,.3,0,.7-.2,1,0,0-.2.2-.4.2h-3.1c0-1.3-.2-2.5,0-3.8v-8.5c0-6.7,0-13.5.3-20.2,0-.2,0-.5,0-.7,0,0,.2-.3.3-.3.7-.3,2.5-1.4,3.1-.2s.3,5.2.4,6.8v16.4c0,3.1-.3,6.2-.4,9.3h0Z"/>
        <path class="cls-9" d="M778.7,415.1c0,.9,0,1.8-.2,2.7-.5,2.6-1,5.2-1.6,7.8-.4,1.1-.5,2.3-.4,3.4.2,1.5,1.1,2.8,1.8,4.2,2.5,5.5-.2,12.4,2.2,18,.6,1.3,1.4,2.5,1.9,3.9,1.1,2.9.5,6.2.8,9.3.4,2.2.9,4.4,1.6,6.5,1.8,6.9-1.2,14.3.5,21.2,1.5,5.9,2.9,11.9,3,18,0,4.2-.5,8.5,0,12.7s2.2,8.6,5.8,10.8c2.8,1.8,6.3,2,9.7,2,6.5,0,12.9,0,19.4-.6s13.4-1.5,17.9-6.1c-1.7-13.5-3.3-28,3.1-40.1,1.9-3.6,4.5-6.9,5.1-10.9.2-1,.2-2,.4-3.1.3-1.2.7-2.3,1.2-3.4l12.6-28.7c.7-1.5,1.3-3.1,2-4.6,2.2-5,4.4-10,6.2-15.1,2.2-6,3.9-12.2,5.6-18.3,1-3.7,2-7.5,1.9-11.3-.2-3.4-1-6.7-2.3-9.8-.8-1.8-1.6-3.6-2.5-5.3-25-5.9-50.7-8.1-76.3-6.5-4.1,0-8.1.8-12,2-2.7.9-5.1,2.5-7,4.5-.9,1-1.6,2-2.1,3.2-1.5,3.3-1.4,7-1.3,10.6.2,6.8.4,13.6,2.3,20.1.3.9.6,1.9.7,2.9h0Z"/>
        <path class="cls-9" d="M796.2,696.8c3.8,2.9,8.2,4.7,12.9,5.4,4.1.6,8.7.2,12-2.4,3.8-3,5-8,6.1-12.7l1.4-6.2c.5-2.2,1-4.5,1.4-6.7,1.1-6,1.4-12,1-18.1,3.4,1.3,5.4,5.4,5.7,9s-.9,7.2-1.9,10.7c-.4,1.7-1,3.3-1.9,4.9-.6,1-1.4,1.9-1.9,3-.7,1.6-1,3.3-1.1,5-.8,5.6-1.9,11.2-3.3,16.7l-2.2,9.1-.2.9-2,7.7c0,.3,0,.5-.3.8-.2.4-.5.7-.9.9-7.9,5.8-18.3,6.9-27.2,2.9-.3,0-.7-.3-.9-.6-.5-.7-.7-1.5-.6-2.3,0-2.5-.4-4.9-1.4-7.2-.6-.8-1-1.7-1.4-2.7-.4-1.5.2-3,.8-4.4l4.6-10.8c.5-1.3.4-1.9,1.3-3h0Z"/>
        <path class="cls-14" d="M807,249.2c.2,2.4.6,4.7,1.4,7,.6,1.6,1.5,3.1,2.8,4.2,2.1-2.9,6-3.9,8.8-6,2.5-1.9,4.3-4.5,6.2-7,3.7-4.9,8-9.4,12-14.1.6-.7,1.2-1.4,1.8-2.1,2-2.5,3.9-5.1,5.5-7.9,3.3-5.7,5.6-12.3,10.6-16.6,2.7-2.4,6.1-3.9,8.5-6.6-1.6-2.4-2.2-5.3-2.8-8.2-.6-2.8-1.1-5.6-1.4-8.4,0-.7,0-1.5-.2-2.2v-1c0-2.3,1.5-6.2-.9-7.5-2.2-1.2-5.7-1.2-8.2-1.2h-.4c-5.9,0-11.6,1.8-16.5,5.1-1.1.7-2.1,1.6-2.9,2.6-1.3,2-1.4,4.4-1.3,6.8v2.4c0,2.7-.2,5.5-2,7.4-2,2-5.2,2.1-7.9,2.9-.5.1-.9.3-1.3.5-3,1.3-5.5,3.5-7.3,6.2-2,3.1-3.5,6.6-4.3,10.2-.8,3.3-1.2,6.6-1.4,10-.5,7.7.3,15.6,1.1,23.4h.1Z"/>
        <path class="cls-4" d="M830.1,187.8v.8c3.3,1.2,11.4-2.2,15.1-2.2,7.4,0,9.7,1.5,15.1-2.9,0-1.1-.2-2.1-.2-3.2,0-2.3,1.5-6.2-.9-7.5s-6.1-1.2-8.6-1.2c-5.9,0-11.6,1.8-16.5,5.1-1.1.7-2.1,1.6-2.9,2.6-1.6,2.4-1.3,5.6-1.2,8.4h.1Z"/>
        <path class="cls-14" d="M809.5,156.9c0,17.2,14,31.2,31.2,31.2h0c17.2,0,31.2-14,31.2-31.2-.3-17.2-14.5-31-31.8-30.7-16.8.3-30.4,13.9-30.7,30.7h0Z"/>
        <path class="cls-15" d="M862,193.8c1-.8,2.2-1.3,3.5-1.5,1.8,0,3.3,1.5,4.1,3.2s1,3.5,1.7,5.2c.9,2.3,2.5,4.3,4.6,5.6,1.5.9,3.2,1.6,4.2,3,1.6,2.2.6,5.4-.7,7.8-5,9-14,14.9-22.7,20.4l-9.8,6.2c-3.9,2.6-8,5-12.2,7.1-6.8,3.4-14.2,5.5-20.9,8.9-3.1,1.6-6.2,3.4-9.6,4-.7-2.3-1.2-4.7-1.4-7.1-1.7-14.9-3.3-30.1,0-44.8.6-2.8,1.5-5.6,3.5-7.7,1.3-1.2,2.8-2.2,4.3-3,4-2.1,8-4,12.2-5.7,2-.9,4.1-1.4,6.3-1.4-.2,1.6-.7,3.2-1.4,4.7l-15.8,35.1c-1,2.2-2,4.5-1.9,6.9,0,3.4,2.4,6.8,1.5,10.1,9.1-13.3,19.6-25.7,31.3-36.9.5-.4.9-1,1.2-1.5.3-.9.3-1.9.2-2.9,0-1.8.3-4.3,1.8-5.5,1.1-.9,2.7-1.1,3.8-1.9,4.1-2.6,8.1-5.6,12.1-8.3h.1Z"/>
        <path class="cls-4" d="M778.6,381c7.8,4.1,16.5,6.2,25.3,7s17.6.5,26.4.1c6.7-.2,13.3-.5,20-.8,9.1-.4,18-1.1,26.7-3.8-.8-1.8-1.6-3.6-2.5-5.3-25-5.9-50.7-8.1-76.3-6.5-4.1,0-8.1.8-12,2-2.7.9-5.1,2.5-7,4.5,0,.9-.4,1.8-.6,2.7h0Z"/>
        <path class="cls-16" d="M780,283.4c3.5,11.7,1.1,24.5-1.1,36.5-1.3.6-1.7,2.4-1.4,3.8.4,1.4,1,2.7,1.7,4s.7,2.9,0,4.2c-.3.5-.8,1-1.1,1.5-.4.9-.6,1.8-.6,2.8-.3,4.5-.6,9.1.7,13.5.7,2.5,1.9,5.2,1.1,7.7-.5,1.5-1.6,2.8-1.8,4.4s.8,3.2,1.4,4.8c1.4,3.7.6,8.2-.3,12.1,7.8,4.1,16.5,6.2,25.3,7s17.6.5,26.4.2l20-.8c9.2-.4,18.2-1.1,26.9-3.9.8-6,1.5-12.6-1.8-17.7-.7-.8-1.2-1.7-1.6-2.7-.6-2.1.7-4.1,1.1-6.3.8-4.3-2-8.4-4.5-12-.4-.5-.7-1-.9-1.6-.5-1.7.5-3.5.6-5.2,0-.5,0-1-.3-1.4-.4-.7-1.1-1.2-1.4-1.9-.4-.9-.5-1.9-.3-2.9.5-6.2,1.2-12.5,2.3-18.6,0-.6.2-1.1.3-1.7.2-.9.5-1.7.9-2.5.6-1,1.4-1.8,2-2.8.6-1.1.6-2.5,0-3.6-.6-1,1-2,1.5-3,.2-.8.3-1.7,0-2.6.2-1.5.7-2.8,1.6-4,1.1-1.7,2.2-3.4,3.3-5.1,5-7.7,10.2-15.3,15.5-22.7,2.6-3.6,5.3-7.1,7.9-10.6,2.2-2.8,4.4-5.7,5.4-9.1.2-.6.3-1.2.5-1.8.6-3.3,0-6.6-1.3-9.6-1.3-2.6-3.2-4.7-4.9-7-1.9-2.6-3.5-5.4-5.7-7.7s-5.1-4.2-8.3-4.2-4,.5-5.3-.8c-.5-.5-.7-1.1-1.2-1.6-1.4-1.3-3.6-.4-5.2.5l-31.3,17.7-5.1,2.9c-.9.5-1.9,1.1-2.8,1.6-4.4,2.5-8.6,5.4-12.5,8.5-5.8,4.6-12.2,8.9-17.3,14.4-.5.5-.9,1-1.4,1.5-.9-6.4-1.8-12.7-2.7-19.1-.3-1.8-.5-3.7-.4-5.6.2-1.8.7-3.6,1.3-5.4.2-.6.4-1.2.6-1.9l3.4-10.1c1.7-5,3.4-10.1,7.1-13.8.9-.8,1.7-1.6,2.5-2.5h0c.7-1,.9-2.2.6-3.3l-26.3,8.2c-1.2.4-2.5.8-3.7,1.3-1.4.6-2.8,1.4-4,2.4-4,3.2-6.1,8.3-5.4,13.4.3,1.6.8,3.2,1.2,4.8.6,2.9,1.5,6.3.3,9.1s-2.4,5.1-3.6,7.7c-1,2-1.8,4-2.5,6.1-.7,2.9-1,5.8-.8,8.8.2,6.6,1.3,13.1,3.4,19.4.6,2.1,1.4,4.1,2,6.1v.2Z"/>
        <polygon class="cls-9" points="833.8 298.3 771.3 292.4 760.4 291.1 770.4 294.7 833.8 298.3"/>
        <polygon class="cls-9" points="835.2 301.3 835.2 296.6 768.9 293.3 765.7 296.1 835.2 301.3"/>
        <path class="cls-14" d="M834.9,292.3c-1.4-.4-2.9-.3-4.3-.6-1.8-.4-3.5-1.6-5.3-1.8-1.1,0-2.3,0-3.4.2l-8.6,1.5c-.7.1-1.4.3-1.7,1,0,.6,0,1.2.5,1.6,1.5,1.6,4,1.9,6.2,2l6,.4c1.2,0,2.3.2,3.3.8,1.1.6,1.6,1.9,1.1,3-.3.5-.8,1-1.4,1.2-2.4,1.3-5.1,1.8-7.8,1.5-2.2-.4-4.3-1-6.4-1.8-5.3-1.7-10.8-2.3-16.3-1.7-1.4.1-3.1.5-3.6,1.9-.3,1,0,2,.6,2.8,2.1,3,6.4,3.1,10,3.9,3.4.8,6.5,2.4,9.1,4.7-.8,1.6,0,3.6.7,5.2.9,1.9,2,3.6,3.2,5.3.7,1,1.6,1.9,2.7,2.4.7.3,1.5.4,2.3.4,7.4.5,14.9,0,22.2-1.2.8,0,1.5-.4,2.1-.9.4-.5.6-1.1.7-1.7.8-3.7,1.4-7.5,2-11.3.4-2.4.5-4.9-.7-7.1-.9-1.7-2.3-2.3-3.8-3.4-3.3-2.6-5.3-7-9.5-8.1v-.2Z"/>
        <path class="cls-9" d="M754.3,214.7l15.5,76.9c.4,2-.9,4-3,4.4h-1.1l-58.5-5.8c-1.6-.2-3-1.4-3.3-3l-14.3-71.2c-.4-2,.9-4,3-4.4h58c1.8,0,3.3,1.3,3.7,3h0Z"/>
        <path class="cls-14" d="M725.2,306.2c-3.7-2.4-4.8-7.1-6.5-11.1-1.4-3-2.9-5.8-4.7-8.6-1.5-2.5-3-5.5-1.8-8.1.9-1.7,2.5-2.9,4.3-3.5,1.7-.8,3.5-1,5.3-.6,2,.5,3.5,2.2,4.8,3.8l4.8,5.6c2.2,2.6,4.5,5.2,7.4,6.9,1.8,1,3.6,1.8,5.5,2.4,3.5,1.1,7,2.1,10.5,3,2,.4,4,1,5.9,1.8.8.3,1.4.9,1.7,1.6.2.9,0,1.9-.6,2.6-1.2,2.3-2.6,6.9-5.2,7.7-2.4.6-4.9,1-7.3,1.1-2.4.3-4.4-.7-6.6-1.7-2.8-1.1-5.7-1.5-8.7-1.4-2.6,0-7,.4-9-1.6h.2Z"/>
        <path class="cls-16" d="M757.2,295.7s-2.2,14.8-16,13.2c0,0,7.3,2.9,6.6,4.6s17-3.2,17-3.2l.9-7.7s.6-4.2,0-4.4-8.5-2.5-8.5-2.5Z"/>
        <path class="cls-4" d="M757.2,295.7s-2.2,14.8-16,13.2c0,0,7.3,2.9,6.6,4.6s17-3.2,17-3.2l.9-7.7s.6-4.2,0-4.4-8.5-2.5-8.5-2.5Z"/>
        <path class="cls-4" d="M820.9,234c-1.4.7-2.5,1.8-3.2,3.1-1.2,1.8-2,3.8-2.6,5.9-.7,2.5-1,5.4-2.9,7.2"/>
        <path class="cls-4" d="M878.9,274.9c-1,3.6-.6,7.4,1.2,10.7,5-7.7,10.2-15.3,15.5-22.7,2.6-3.6,5.2-7.1,7.9-10.6,2.2-2.8,4.4-5.7,5.4-9.1.2-.6.3-1.2.5-1.8-1.3-2-3.3-3.4-5.6-4-3.6,10.5-12.8,18.1-19.4,27-2.5,3.1-4.3,6.6-5.5,10.5h0Z"/>
        <path class="cls-4" d="M832.6,328.7l21.8.7c1.9,0,4.2.4,4.7,2.2.2.6,0,1.2.3,1.7.6,2,3.3,2.2,5.3,2.2s3.6,0,5.4.2c0-.5,0-1-.3-1.4-.4-.7-1.1-1.2-1.4-1.9-.4-.9-.5-1.9-.3-2.9.5-6.2,1.2-12.5,2.3-18.6,0-.6.2-1.1.3-1.7-1.8-.9-3.7-1.8-5.7-1.6-1.8.2-3.4,1.2-5.2,1.1-3.1-.1-5.2-3.6-8.3-3.8-.7,0-1.4,0-2-.2-1-.5-1.1-1.8-1.6-2.8-.8-1.4-2.8-1.8-4.4-1.4,0,3.3-.2,6.6-.6,9.8-.2,1.4-.5,2.8-1,4.2-.6,1.4-1.3,2.7-2.2,3.9-2.3,3.5-4.5,6.8-6.9,10.3h-.2Z"/>
        <path class="cls-16" d="M904.9,236.2c3.9,1,6.6,4.6,7.7,8.4s.9,7.9.8,11.9c-.4,14.8.6,29.6,3,44.2,1.1,7,2.6,14,2.2,21.1-.2,3.8-1.1,7.8-3.6,10.8-3.9,4.7-10.6,5.6-16.7,5.4-10.9-.4-21.6-3.6-32.5-3.5-2.1,0-4.7-.2-5.3-2.2-.2-.6,0-1.2-.3-1.7-.6-1.8-2.9-2.1-4.7-2.2l-21.8-.7c2.3-3.4,4.6-6.8,6.9-10.3.9-1.2,1.6-2.5,2.2-3.9.5-1.4.8-2.8,1-4.2.5-3.3.7-6.5.6-9.8,1.6-.4,3.7,0,4.4,1.4.5,1,.7,2.3,1.7,2.8.6.2,1.3.3,2,.2,3.1.2,5.2,3.7,8.3,3.8,1.8.1,3.4-1,5.2-1.1,2.8-.3,5.3,1.6,7.9,2.7,4.3,1.9,9.1,1.9,13.4,0,.6-.3,1.3-1.1.8-1.5-.3-.3-.9,0-1.3-.3-.8-.4-.2-1.6.2-2.3,1.3-2.2.4-5-.8-7.3s-2.8-4.5-2.8-7v-2.5c-.4-1.2-1-2.2-1.8-3.2-2.2-3.3-2.5-7.6-1.6-11.4,1.1-3.8,2.9-7.4,5.3-10.5,6.6-9,15.8-16.5,19.4-27.1h.2Z"/>
        <path class="cls-4" d="M846,228.8l-5.1,2.9c1.6.7,3.1,1.4,4.8,1.9,11.4,3.8,7.3,9.2,19.4,9,8.2,0,17.6-.7,23.3,5.1,2.7,2.8,4.1,6.5,5.4,10.2.6,1.6,1.2,3.3,1.8,5,2.6-3.6,5.2-7.1,7.9-10.6,2.2-2.8,4.4-5.7,5.4-9.1,1.2-3.8.9-7.8-.9-11.4-1.3-2.6-3.2-4.7-4.9-7-1.9-2.6-3.5-5.4-5.7-7.7s-5.1-4.2-8.3-4.2-4,.5-5.3-.8c-.5-.5-.7-1.1-1.2-1.6-1.4-1.3-3.6-.4-5.2.5l-31.3,17.7h-.1Z"/>
        <path class="cls-9" d="M815.8,133.9c.2-1.5.5-2.9,1.1-4.3.5-1.1,1.2-2.1,2-2.9,5.3-6,13-9.5,21-9.5s1.4,0,2,.3c.2,0,.3.2.5.3,5.7-3.9,12.4-7.6,18.6-9.1,4.3-1,8.8-.9,13.1.2,5.2,1.6,7,5.7,9.2,10.2,3.6,7.3,9,13.5,15.7,18,4.3,2.9,9.5,5.4,11.5,10.2,1.9,4.5.6,9.6.2,14.4-1.1,13.3,4.5,26.3,15,34.5,5.9,4.6,13.8,8.4,15.1,15.8.9,5.2-2,10.3-4.3,15.1-4.7,10.2-6.3,22.7-.8,32.5,1.6,2.8,3.7,5.3,4.5,8.4,1.5,5.5-1.7,11.4-6.3,14.6s-10.6,4-16.2,4-8.6-.6-11.5-3.5c-2-1.9-2.9-4.6-3.9-7.2-2.4-6.7-4.8-13.5-7.2-20.2-1.3-3.6-2.7-7.4-5.4-10.2-5.7-5.9-15.1-5.2-23.3-5.1-12.1.1-8-5.2-19.4-9-6.7-2.3-14-6.1-15.6-13-1.5-6.7,3.1-13.2,7.1-18.8,3-4.2,5.9-8.4,8.6-12.9,2.6-4.3,5.2-8.8,5.9-13.8,1.2-8.3-18.8-12.9-21.8-20.7-.9-2.2-1.6-4.5-2.2-6.7-1.4-.1-2.8-.2-3.7-.3-3.8-.2-8.2-1.7-9.5-5.3-.7-1.9-.4-4,0-6h0Z"/>
        <g class="cls-7">
          <path d="M849.5,114.7c-.6-.2-1.3-.4-2-.3h-.3c4.3-2.7,8.9-4.7,13.7-6.1.4,0,.8-.2,1.2-.2-4.2,2-8.3,4.3-12.1,6.9,0,0-.3-.2-.5-.3h0Z"/>
          <path d="M815.8,133.6c.2-1.5.5-2.9,1.1-4.3.5-1.1,1.2-2.1,2-2.9,4.2-4.8,10-8,16.3-9.1-3.3,1.6-6.2,3.8-8.7,6.6-.8.9-1.5,1.9-2,2.9-.6,1.4-.9,2.8-1.1,4.3-.5,2-.5,4,0,6,1.3,3.6,5.6,5.1,9.5,5.3.9,0,2.3.2,3.7.3.6,2.3,1.3,4.5,2.2,6.7,3,7.8,23,12.4,21.8,20.7-.7,5-3.3,9.5-5.9,13.7s-5.6,8.7-8.6,12.9c-4.1,5.6-8.7,12-7.1,18.8s8.8,10.8,15.6,13c11.4,3.9,7.3,9.2,19.4,9,8.2-.1,17.6-.7,23.3,5.1,2.7,2.8,4.1,6.5,5.4,10.2,2.4,6.7,4.8,13.5,7.2,20.2.9,2.6,1.9,5.3,3.9,7.2,2.9,2.9,7.4,3.5,11.5,3.5s4.7-.2,7-.5c-4.4,2.4-9.6,3-14.6,3s-8.6-.6-11.5-3.5c-2-1.9-2.9-4.6-3.9-7.2-2.4-6.7-4.8-13.5-7.2-20.2-1.3-3.6-2.7-7.4-5.4-10.2-5.7-5.9-15.1-5.2-23.3-5.1-12.1.1-8-5.2-19.4-9-6.7-2.3-14-6.1-15.6-13-1.5-6.7,3.1-13.2,7.1-18.8,3-4.2,5.9-8.5,8.6-12.9,2.6-4.3,5.2-8.8,5.9-13.8,1.2-8.3-18.8-12.9-21.8-20.7-.9-2.2-1.6-4.4-2.2-6.7-1.4-.1-2.8-.2-3.7-.3-3.8-.2-8.2-1.7-9.5-5.3-.5-2-.6-4,0-6h0Z"/>
        </g>
      </g>
    </g>
  </g>
</svg>