<?xml version="1.0" encoding="utf-8"?>
<svg viewBox="-157.269 190.948 1527.541 840.48" xmlns="http://www.w3.org/2000/svg">
  <path d="M 507.495 352.33 C 507.495 305.779 469.625 267.908 423.073 267.908 C 376.522 267.906 338.651 305.779 338.651 352.33 C 338.651 398.881 376.522 436.752 423.073 436.752 C 469.624 436.75 507.495 398.879 507.495 352.33 L 507.495 352.33 Z M 359.212 352.33 C 359.212 317.118 387.857 288.471 423.069 288.471 C 458.28 288.471 486.925 317.119 486.925 352.33 C 486.925 387.541 458.28 416.186 423.069 416.186 C 387.857 416.186 359.212 387.541 359.212 352.33 L 359.212 352.33 Z"/>
  <path d="M 972.99 941.422 L 854.647 402.746 C 850.31 382.94 832.451 368.562 812.178 368.562 L 566.487 368.565 C 567.573 362.923 568.173 357.492 568.173 352.337 C 568.173 272.342 503.092 207.261 423.097 207.261 C 343.102 207.261 278.021 272.34 278.021 352.337 C 278.021 392.486 313.296 449.083 348.152 495.209 L 250.147 941.429 C 247.308 954.393 250.444 967.751 258.755 978.078 C 267.049 988.382 279.392 994.293 292.619 994.293 L 930.513 994.293 C 943.741 994.293 956.084 988.382 964.377 978.078 C 972.686 967.751 975.824 954.393 972.983 941.421 L 972.99 941.422 Z M 423.099 227.848 C 491.755 227.848 547.607 283.704 547.607 352.356 C 547.607 359.22 546.283 366.772 543.982 374.771 C 543.649 375.537 543.429 376.354 543.291 377.205 C 524.237 438.768 447.378 526.308 423.059 552.962 C 382.375 508.742 298.59 406.469 298.59 352.361 C 298.592 283.706 354.445 227.853 423.098 227.853 L 423.099 227.848 Z M 948.363 965.23 C 943.995 970.658 937.49 973.773 930.522 973.773 L 292.628 973.773 C 285.659 973.773 279.157 970.658 274.789 965.232 C 270.403 959.78 268.748 952.728 270.246 945.882 L 364.585 516.327 C 390.825 549.002 413.406 572.813 415.657 575.176 C 417.599 577.207 420.287 578.358 423.097 578.358 C 425.908 578.358 428.595 577.207 430.538 575.176 C 435.349 570.134 532.773 467.379 560.725 389.181 L 812.181 389.181 C 822.865 389.181 832.278 396.759 834.565 407.204 L 952.908 945.88 C 954.404 952.728 952.749 959.783 948.363 965.233 L 948.363 965.23 Z"/>
  <path d="M 450.967 607.61 C 450.967 601.93 446.363 597.326 440.683 597.326 L 423.07 597.326 C 417.39 597.326 412.786 601.93 412.786 607.61 C 412.786 613.29 417.39 617.894 423.07 617.894 L 440.683 617.894 C 446.363 617.891 450.967 613.287 450.967 607.61 Z"/>
  <path d="M 546.447 617.894 L 581.702 617.894 C 587.381 617.894 591.985 613.29 591.985 607.61 C 591.985 601.93 587.382 597.326 581.702 597.326 L 546.447 597.326 C 540.767 597.326 536.163 601.93 536.163 607.61 C 536.165 613.29 540.769 617.894 546.447 617.894 Z"/>
  <path d="M 402.899 890.593 L 367.644 890.593 C 361.964 890.593 357.36 895.197 357.36 900.877 C 357.36 906.557 361.964 911.161 367.644 911.161 L 402.899 911.161 C 408.579 911.161 413.183 906.557 413.183 900.877 C 413.183 895.194 408.579 890.593 402.899 890.593 Z"/>
  <path d="M 475.942 617.894 L 511.197 617.894 C 516.877 617.894 521.481 613.29 521.481 607.61 C 521.481 601.93 516.877 597.326 511.197 597.326 L 475.942 597.326 C 470.262 597.326 465.658 601.93 465.658 607.61 C 465.658 613.29 470.262 617.894 475.942 617.894 Z"/>
  <path d="M 502.183 699.719 C 504.032 703.19 507.588 705.168 511.268 705.168 C 512.9 705.168 514.552 704.778 516.094 703.961 C 520.939 701.379 526.416 700.016 531.925 700.016 L 545.662 700.016 C 551.342 700.016 555.946 695.412 555.946 689.732 C 555.946 684.052 551.342 679.448 545.662 679.448 L 531.925 679.448 C 523.056 679.448 514.237 681.646 506.426 685.807 C 501.412 688.479 499.514 694.704 502.183 699.718 L 502.183 699.719 Z"/>
  <path d="M 687.469 617.894 L 722.724 617.894 C 728.404 617.894 733.008 613.29 733.008 607.61 C 733.008 601.93 728.404 597.326 722.724 597.326 L 687.469 597.329 C 681.789 597.329 677.185 601.932 677.185 607.612 C 677.185 613.29 681.789 617.894 687.469 617.894 L 687.469 617.894 Z"/>
  <path d="M 580.918 679.446 C 575.239 679.446 570.635 684.05 570.635 689.73 C 570.635 695.41 575.238 700.014 580.918 700.014 L 616.173 700.014 C 621.853 700.014 626.457 695.41 626.457 689.73 C 626.457 684.05 621.854 679.446 616.173 679.446 L 580.918 679.446 Z"/>
  <path d="M 757.981 617.894 L 763.576 617.894 C 771.07 617.894 778.294 620.622 783.918 625.574 C 785.873 627.296 788.296 628.142 790.709 628.142 C 793.561 628.142 796.397 626.963 798.431 624.655 C 802.184 620.392 801.774 613.895 797.511 610.141 C 788.129 601.879 776.078 597.326 763.576 597.326 L 757.98 597.329 C 752.3 597.329 747.696 601.933 747.696 607.613 C 747.696 613.29 752.3 617.894 757.98 617.894 L 757.981 617.894 Z"/>
  <path d="M 651.423 679.446 C 645.743 679.446 641.139 684.05 641.139 689.73 C 641.139 695.41 645.743 700.014 651.423 700.014 L 686.678 700.014 C 692.358 700.014 696.962 695.41 696.962 689.73 C 696.962 684.05 692.358 679.446 686.678 679.446 L 651.423 679.446 Z"/>
  <path d="M 616.958 617.894 L 652.213 617.894 C 657.893 617.894 662.497 613.29 662.497 607.61 C 662.497 601.93 657.893 597.326 652.213 597.326 L 616.958 597.329 C 611.278 597.329 606.674 601.932 606.674 607.612 C 606.677 613.29 611.278 617.894 616.958 617.894 L 616.958 617.894 Z"/>
  <path d="M 734.579 789.853 C 730.673 785.734 724.162 785.564 720.043 789.471 C 715.923 793.381 715.752 799.888 719.661 804.008 C 726.43 811.14 730.98 820.028 732.796 829.543 C 732.812 829.628 732.847 829.82 732.863 829.904 C 733.839 834.782 738.112 838.12 742.905 838.12 C 743.566 838.12 744.235 838.056 744.909 837.925 C 750.463 836.839 754.088 831.418 753.028 825.856 C 750.445 812.301 744.066 799.85 734.579 789.853 L 734.579 789.853 Z"/>
  <path d="M 743.394 852.96 C 738.132 850.813 732.134 853.342 729.99 858.599 C 726.26 867.747 720.016 875.595 711.936 881.297 C 707.296 884.571 706.187 890.986 709.461 895.626 C 711.465 898.465 714.641 899.984 717.872 899.984 C 719.921 899.984 721.991 899.372 723.79 898.101 C 735.088 890.129 743.817 879.155 749.033 866.366 C 751.174 861.107 748.651 855.104 743.394 852.96 L 743.394 852.96 Z"/>
  <path d="M 699.491 769.489 C 693.932 768.131 688.193 767.444 682.434 767.442 L 661.943 767.442 C 656.263 767.442 651.659 772.046 651.659 777.726 C 651.659 783.406 656.263 788.009 661.943 788.009 L 682.431 788.009 C 686.548 788.012 690.647 788.504 694.618 789.472 C 695.438 789.672 696.255 789.767 697.065 789.767 C 701.694 789.767 705.898 786.616 707.046 781.92 C 708.389 776.401 705.007 770.837 699.491 769.489 L 699.491 769.489 Z"/>
  <path d="M 757.193 679.446 L 721.938 679.446 C 716.259 679.446 711.655 684.05 711.655 689.73 C 711.655 695.41 716.258 700.014 721.938 700.014 L 757.193 700.014 C 762.873 700.014 767.477 695.41 767.477 689.73 C 767.477 684.05 762.874 679.446 757.193 679.446 Z"/>
  <path d="M 804.717 638.789 L 804.635 638.789 C 798.994 638.789 794.398 643.339 794.354 648.991 C 794.285 657.899 790.314 666.346 783.458 672.167 C 779.128 675.843 778.601 682.33 782.274 686.66 C 784.309 689.055 787.204 690.287 790.119 690.287 C 792.471 690.287 794.836 689.486 796.768 687.843 C 808.186 678.149 814.801 664.048 814.919 649.153 C 814.965 643.473 810.397 638.834 804.717 638.79 L 804.717 638.789 Z"/>
  <path d="M 684.524 890.593 C 683.83 890.621 683.131 890.634 682.429 890.634 L 649.679 890.634 C 643.999 890.634 639.395 895.238 639.395 900.918 C 639.395 906.598 643.999 911.202 649.679 911.202 L 682.429 911.202 C 683.405 911.202 684.376 911.181 685.342 911.143 C 691.016 910.917 695.433 906.134 695.208 900.459 C 694.982 894.785 690.214 890.327 684.524 890.593 L 684.524 890.593 Z"/>
  <path d="M 473.41 890.593 L 438.155 890.593 C 432.475 890.593 427.871 895.197 427.871 900.877 C 427.871 906.557 432.475 911.161 438.155 911.161 L 473.41 911.161 C 479.09 911.161 483.694 906.557 483.694 900.877 C 483.692 895.194 479.09 890.593 473.41 890.593 Z"/>
  <path d="M 543.922 890.593 L 508.667 890.593 C 502.987 890.593 498.383 895.197 498.383 900.877 C 498.383 906.557 502.986 911.161 508.667 911.161 L 543.922 911.161 C 549.601 911.161 554.205 906.557 554.205 900.877 C 554.203 895.194 549.599 890.593 543.922 890.593 L 543.922 890.593 Z"/>
  <path d="M 502.655 750.469 C 499.732 745.386 498.189 739.629 498.189 733.816 C 498.189 731.172 498.507 728.502 499.135 725.884 C 499.258 725.372 499.391 724.864 499.537 724.36 C 501.097 718.9 497.938 713.207 492.479 711.645 C 487.004 710.082 481.326 713.243 479.764 718.703 C 479.538 719.492 479.328 720.286 479.136 721.093 C 478.134 725.279 477.624 729.56 477.624 733.814 C 477.622 743.213 480.112 752.516 484.824 760.714 C 486.725 764.022 490.188 765.874 493.749 765.874 C 495.486 765.874 497.249 765.433 498.863 764.506 C 503.784 761.68 505.483 755.393 502.655 750.469 L 502.655 750.469 Z"/>
  <path d="M 614.426 890.593 L 579.171 890.593 C 573.491 890.593 568.887 895.197 568.887 900.877 C 568.887 906.557 573.491 911.161 579.171 911.161 L 614.426 911.161 C 620.106 911.161 624.71 906.557 624.71 900.877 C 624.71 895.194 620.106 890.593 614.426 890.593 Z"/>
  <path d="M 556.18 767.442 L 531.926 767.442 C 529.082 767.442 526.269 767.094 523.561 766.41 C 518.063 765.019 512.463 768.352 511.072 773.857 C 509.678 779.36 513.013 784.956 518.519 786.347 C 522.872 787.448 527.383 788.007 531.925 788.007 L 556.179 788.007 C 561.859 788.007 566.463 783.403 566.463 777.723 C 566.46 772.046 561.859 767.442 556.179 767.442 L 556.18 767.442 Z"/>
  <path d="M 626.691 767.442 L 591.436 767.442 C 585.756 767.442 581.152 772.046 581.152 777.726 C 581.152 783.406 585.756 788.01 591.436 788.01 L 626.691 788.01 C 632.371 788.01 636.975 783.406 636.975 777.726 C 636.972 772.046 632.368 767.442 626.691 767.442 Z"/>
</svg>