<?xml version="1.0" encoding="utf-8"?>
<svg viewBox="-49.286 54.94 1329.667 961.762" xmlns="http://www.w3.org/2000/svg">
  <path d="M 35.721 845.194 C 32.901 849.913 26.78 851.456 22.041 848.635 C 17.322 845.815 15.779 839.694 18.6 834.955 L 278.96 399.975 C 281.78 395.257 287.901 393.714 292.64 396.534 C 293.378 396.975 294.019 397.495 294.601 398.073 L 385.3 480.253 L 618.74 219.604 L 822.102 435.294 L 923.462 369.216 C 927.701 366.455 933.263 367.337 936.462 371.095 L 1017.962 466.357 C 1019.443 468.076 1020.224 470.158 1020.341 472.279 L 1023.122 500.959 L 1075.442 550.26 C 1076.622 551.362 1077.462 552.682 1077.982 554.1 L 1156.56 768.5 L 1174.138 809.5 L 1179.579 815.281 C 1183.36 819.301 1183.157 825.601 1179.157 829.383 C 1175.138 833.164 1168.837 832.961 1165.055 828.961 L 1158.575 822.063 C 1158.473 821.961 1158.375 821.844 1158.274 821.743 L 616.954 246.403 L 88.694 848.803 C 85.073 852.943 78.772 853.361 74.635 849.744 C 70.494 846.123 70.076 839.822 73.693 835.685 L 127.795 774.005 L 234.435 591.465 C 236.377 588.125 240.674 587.004 244.013 588.945 C 247.353 590.887 248.474 595.184 246.533 598.524 L 176.353 718.644 L 372.233 495.284 L 289.913 420.706 L 35.793 845.266 L 35.721 845.194 Z M 466.441 448.474 C 469 445.595 473.422 445.333 476.32 447.896 C 479.199 450.454 479.461 454.876 476.898 457.775 L 209.138 758.335 C 206.579 761.214 202.158 761.475 199.259 758.913 C 196.38 756.354 196.119 751.932 198.681 749.034 L 466.441 448.474 Z M 231.721 541.673 C 233.662 538.333 237.959 537.212 241.299 539.153 C 244.639 541.095 245.76 545.392 243.819 548.732 L 126.339 749.812 C 124.397 753.151 120.1 754.272 116.761 752.331 C 113.421 750.39 112.3 746.093 114.241 742.753 L 231.721 541.673 Z M 712.581 440.913 C 709.96 438.073 710.159 433.651 713.003 431.034 C 715.843 428.413 720.265 428.612 722.882 431.456 L 1117.642 859.016 C 1120.263 861.856 1120.064 866.278 1117.22 868.895 C 1114.38 871.516 1109.958 871.317 1107.341 868.473 L 712.581 440.913 Z M 642.202 321.313 C 639.581 318.473 639.78 314.051 642.624 311.434 C 645.464 308.813 649.886 309.012 652.503 311.856 L 1047.263 739.416 C 1049.884 742.256 1049.685 746.678 1046.841 749.295 C 1044.001 751.916 1039.579 751.717 1036.962 748.873 L 642.202 321.313 Z M 636.663 562.313 C 638.124 558.754 642.202 557.051 645.765 558.512 C 649.323 559.973 651.026 564.051 649.565 567.614 L 471.765 997.954 C 470.304 1001.512 466.226 1003.215 462.664 1001.755 C 459.105 1000.294 457.402 996.215 458.863 992.653 L 636.663 562.313 Z M 626.183 502.973 C 627.644 499.414 631.722 497.711 635.285 499.172 C 638.843 500.633 640.546 504.711 639.085 508.274 L 461.285 938.614 C 459.824 942.172 455.746 943.875 452.184 942.415 C 448.625 940.954 446.922 936.875 448.383 933.313 L 626.183 502.973 Z M 905.964 486.871 C 909.202 484.769 913.523 485.691 915.624 488.93 C 917.726 492.168 916.804 496.488 913.566 498.59 L 893.765 511.488 L 1135.065 767.968 L 1059.987 563.128 L 1006.686 512.909 C 1004.987 511.307 1003.826 509.108 1003.584 506.588 L 1000.725 476.947 L 926.963 390.728 L 835.943 450.068 L 843.103 457.69 L 894.365 424.268 C 897.603 422.166 901.924 423.088 904.025 426.326 C 906.127 429.564 905.205 433.885 901.967 435.986 L 852.826 468.025 L 863.705 479.603 L 902.006 454.623 C 905.244 452.522 909.564 453.444 911.666 456.682 C 913.767 459.92 912.845 464.241 909.607 466.342 L 873.427 489.944 L 884.048 501.225 L 905.97 486.944 L 905.964 486.871 Z" transform="matrix(1, 0, 0, 1, 0, -5.684341886080802e-14)"/>
  <path d="M 619.94 86.315 C 622.049 86.315 624.007 87.396 625.12 89.184 L 661.691 147.474 C 662.636 148.976 663.142 150.714 663.142 152.487 C 663.142 157.701 658.923 161.92 653.709 161.92 L 586.17 161.92 C 580.956 161.92 576.737 157.701 576.737 152.487 C 576.737 150.714 577.243 148.976 578.188 147.474 L 614.742 89.184 C 615.856 87.396 617.83 86.315 619.94 86.315 Z M 630.909 118.717 L 619.94 101.234 L 606.591 122.514 L 609.679 126.632 C 610.759 128.067 612.92 128.067 613.999 126.632 L 618.32 120.878 C 619.332 119.511 620.935 118.717 622.64 118.717 L 630.909 118.717 Z" style="" transform="matrix(1, 0, 0, 1, 0, -5.684341886080802e-14)"/>
  <path d="M 748.37 595.904 C 750.012 597.38 750.144 599.884 748.668 601.526 L 736.728 614.793 C 735.999 615.605 734.97 616.086 733.876 616.103 C 732.781 616.119 731.736 615.705 730.957 614.942 L 724.307 608.309 C 722.764 606.75 722.764 604.229 724.307 602.67 C 725.849 601.111 728.387 601.111 729.929 602.67 L 733.594 606.335 L 742.731 596.186 C 744.207 594.544 746.711 594.411 748.354 595.887 L 748.37 595.904 Z M 748.37 622.438 C 750.012 623.914 750.144 626.418 748.668 628.059 L 736.728 641.326 C 735.999 642.139 734.97 642.62 733.876 642.637 C 732.781 642.653 731.736 642.239 730.957 641.476 L 724.307 634.842 C 722.748 633.283 722.748 630.763 724.307 629.221 C 725.866 627.678 728.387 627.662 729.929 629.221 L 733.594 632.885 L 742.731 622.736 C 744.207 621.095 746.711 620.962 748.354 622.438 L 748.37 622.438 Z M 760.294 605.489 C 760.294 602.554 762.665 600.183 765.6 600.183 L 802.748 600.183 C 805.683 600.183 808.055 602.554 808.055 605.489 C 808.055 608.425 805.683 610.796 802.748 610.796 L 765.6 610.796 C 762.665 610.796 760.294 608.425 760.294 605.489 Z M 760.294 632.023 C 760.294 629.088 762.665 626.716 765.6 626.716 L 802.748 626.716 C 805.683 626.716 808.055 629.088 808.055 632.023 C 808.055 634.958 805.683 637.33 802.748 637.33 L 765.6 637.33 C 762.665 637.33 760.294 634.958 760.294 632.023 Z M 749.68 658.557 C 749.68 655.621 752.051 653.25 754.987 653.25 L 802.748 653.25 C 805.683 653.25 808.055 655.621 808.055 658.557 C 808.055 661.492 805.683 663.864 802.748 663.864 L 754.987 663.864 C 752.051 663.864 749.68 661.492 749.68 658.557 Z M 731.106 650.597 C 737.234 650.597 741.064 657.23 738 662.537 C 736.578 665 733.95 666.517 731.106 666.517 C 724.978 666.517 721.148 659.884 724.213 654.577 C 725.634 652.114 728.263 650.597 731.106 650.597 Z" style="" transform="matrix(1, 0, 0, 1, 0, -5.684341886080802e-14)"/>
  <path d="M 445.361 675.404 L 434.612 675.404 L 434.612 670.03 L 391.613 670.03 L 391.613 675.404 L 380.864 675.404 L 380.864 670.03 L 359.365 670.03 L 359.365 696.903 L 466.86 696.903 L 466.86 670.03 L 445.361 670.03 L 445.361 675.404 M 456.111 632.406 L 439.987 632.406 L 439.987 621.656 C 439.987 615.745 435.149 610.907 429.237 610.907 L 396.988 610.907 C 391.076 610.907 386.239 615.745 386.239 621.656 L 386.239 632.406 L 370.115 632.406 C 364.203 632.406 359.365 637.243 359.365 643.155 L 359.365 664.655 L 380.864 664.655 L 380.864 653.905 L 391.613 653.905 L 391.613 664.655 L 434.612 664.655 L 434.612 653.905 L 445.361 653.905 L 445.361 664.655 L 466.86 664.655 L 466.86 643.155 C 466.86 637.243 462.023 632.406 456.111 632.406 M 429.237 632.406 L 396.988 632.406 L 396.988 621.656 L 429.237 621.656 L 429.237 632.406 Z" style="" transform="matrix(1, 0, 0, 1, 0, -5.684341886080802e-14)"/>
  <path d="M 254.159 320.114 L 271.857 280.303 C 274.445 274.483 278.675 269.559 284.039 266.141 L 308.893 250.237 C 309.401 249.916 309.993 249.746 310.585 249.746 C 312.311 249.73 313.715 251.134 313.715 252.876 L 313.715 253.147 C 313.715 253.587 313.631 254.01 313.478 254.416 L 303.36 279.66 C 303.039 280.455 302.887 281.301 302.887 282.147 C 302.887 283.078 303.089 284.008 303.462 284.87 L 319.129 320.114 L 284.089 320.114 L 286.086 314.124 L 292.921 311.84 C 294.021 311.468 294.765 310.436 294.765 309.268 C 294.765 308.101 294.021 307.069 292.921 306.697 L 286.086 304.412 L 283.802 297.577 C 283.429 296.494 282.398 295.75 281.23 295.75 C 280.063 295.75 279.03 296.494 278.658 297.594 L 276.374 304.43 L 269.539 306.714 C 268.439 307.086 267.695 308.118 267.695 309.286 C 267.695 310.453 268.439 311.485 269.539 311.857 L 276.374 314.141 L 278.371 320.114 L 254.159 320.114 Z M 290.637 273.67 C 290.451 273.112 289.943 272.74 289.351 272.74 C 288.759 272.74 288.251 273.112 288.066 273.67 L 286.932 277.088 L 283.514 278.222 C 282.956 278.408 282.583 278.915 282.583 279.507 C 282.583 280.1 282.956 280.607 283.514 280.793 L 286.932 281.927 L 288.066 285.345 C 288.251 285.903 288.759 286.275 289.351 286.275 C 289.943 286.275 290.451 285.903 290.637 285.345 L 291.771 281.927 L 295.188 280.793 C 295.747 280.607 296.119 280.1 296.119 279.507 C 296.119 278.915 295.747 278.408 295.188 278.222 L 291.771 277.088 L 290.637 273.67 Z M 248.745 325.528 L 324.543 325.528 C 327.538 325.528 329.957 327.947 329.957 330.942 C 329.957 333.936 327.538 336.356 324.543 336.356 L 248.745 336.356 C 245.751 336.356 243.331 333.936 243.331 330.942 C 243.331 327.947 245.751 325.528 248.745 325.528 Z" style="" transform="matrix(1, 0, 0, 1, 0, -5.684341886080802e-14)"/>
  <path d="M 701.402 852.836 L 693.643 852.836 C 699.334 852.836 703.99 848.18 703.99 842.49 C 703.99 836.799 699.334 832.144 693.643 832.144 L 693.643 811.452 C 693.643 806.279 693.643 801.107 688.057 796.658 C 688.316 795.571 688.471 794.485 688.471 793.347 C 688.471 783.364 678.125 775.242 665.192 775.242 C 653.501 775.242 643.88 782.018 642.276 790.761 L 631.568 790.761 L 619.722 779.329 L 616.049 783.001 L 626.395 793.347 L 616.049 803.693 L 619.722 807.366 L 631.568 795.934 L 642.276 795.934 C 643.88 804.676 653.501 811.452 665.192 811.452 C 667.778 811.452 670.365 811.039 672.59 810.418 C 672.796 810.78 672.951 811.142 672.951 811.452 L 672.951 832.144 L 641.914 832.144 C 636.223 832.144 631.568 836.799 631.568 842.49 C 631.568 848.18 636.223 852.836 641.914 852.836 L 634.154 852.836 C 627.011 852.836 621.222 858.629 621.222 865.768 C 621.222 866.648 621.222 867.527 621.48 868.355 L 621.222 868.355 C 615.531 868.355 610.876 873.011 610.876 878.701 L 701.402 878.701 C 711.355 878.701 717.579 867.926 712.603 859.303 C 710.29 855.304 706.022 852.836 701.402 852.836 M 662.606 790.761 C 659.761 790.761 657.433 788.432 657.433 785.587 C 657.433 782.742 659.761 780.415 662.606 780.415 C 665.451 780.415 667.778 782.742 667.778 785.587 C 667.778 788.432 665.451 790.761 662.606 790.761 Z" style="" transform="matrix(1, 0, 0, 1, 0, -5.684341886080802e-14)"/>
  <path d="M 614.801 403.858 C 620.925 403.858 625.889 408.826 625.889 414.946 C 625.889 421.07 620.925 426.034 614.801 426.034 C 610.096 426.049 605.897 423.085 604.341 418.642 L 600.017 418.642 L 600.017 411.25 L 604.341 411.25 C 605.856 406.926 609.959 403.858 614.801 403.858 M 614.801 411.25 C 612.757 411.25 611.105 412.906 611.105 414.946 C 611.105 416.99 612.757 418.642 614.801 418.642 C 616.841 418.642 618.497 416.99 618.497 414.946 C 618.497 412.906 616.841 411.25 614.801 411.25 M 614.801 377.986 C 617.717 377.986 620.086 375.621 620.086 372.701 C 620.086 368.636 615.68 366.093 612.158 368.125 C 610.521 369.072 609.516 370.816 609.516 372.701 C 609.516 375.621 611.881 377.986 614.801 377.986 M 614.801 357.917 C 622.965 357.917 629.584 364.537 629.584 372.701 C 629.584 383.752 614.801 400.162 614.801 400.162 C 614.801 400.162 600.017 383.752 600.017 372.701 C 600.017 364.537 606.636 357.917 614.801 357.917 M 580.909 411.25 L 585.233 411.25 L 585.233 418.642 L 580.909 418.642 C 579.349 423.085 575.154 426.049 570.449 426.034 C 564.325 426.034 559.361 421.07 559.361 414.946 C 559.361 410.105 562.429 406.002 566.753 404.486 L 566.753 400.162 L 574.145 400.162 L 574.145 404.486 C 577.286 405.595 579.8 408.109 580.909 411.25 M 570.449 411.25 C 568.405 411.25 566.753 412.906 566.753 414.946 C 566.753 416.99 568.405 418.642 570.449 418.642 C 572.489 418.642 574.145 416.99 574.145 414.946 C 574.145 412.906 572.489 411.25 570.449 411.25 M 570.449 359.506 C 576.574 359.506 581.537 364.474 581.537 370.594 C 581.537 375.436 578.469 379.539 574.145 381.054 L 574.145 385.378 L 566.753 385.378 L 566.753 381.054 C 562.314 379.498 559.346 375.299 559.361 370.594 C 559.361 364.474 564.325 359.506 570.449 359.506 M 570.449 366.898 C 568.405 366.898 566.753 368.554 566.753 370.594 C 566.753 372.638 568.405 374.29 570.449 374.29 C 572.489 374.29 574.145 372.638 574.145 370.594 C 574.145 368.554 572.489 366.898 570.449 366.898 M 588.929 418.642 L 588.929 411.25 L 596.321 411.25 L 596.321 418.642 L 588.929 418.642 M 574.145 396.466 L 566.753 396.466 L 566.753 389.074 L 574.145 389.074 L 574.145 396.466 Z" style="" transform="matrix(1, 0, 0, 1, 0, -5.684341886080802e-14)"/>
  <path d="M 918.364 310.547 C 915.23 313.681 910.134 313.681 906.983 310.547 L 891.544 295.092 C 888.41 291.957 888.41 286.861 891.544 283.71 L 900.043 275.211 L 908.089 283.257 C 909.128 284.297 910.838 284.297 911.877 283.257 C 912.916 282.218 912.916 280.508 911.877 279.469 L 903.831 271.423 L 910.77 264.483 L 918.817 272.529 C 919.856 273.568 921.566 273.568 922.605 272.529 C 923.645 271.49 923.645 269.78 922.605 268.741 L 914.559 260.695 L 921.499 253.755 L 929.545 261.801 C 930.584 262.84 932.294 262.84 933.333 261.801 C 934.373 260.762 934.373 259.052 933.333 258.013 L 925.287 249.967 L 932.227 243.027 L 940.273 251.073 C 941.313 252.112 943.022 252.112 944.062 251.073 C 945.101 250.034 945.101 248.324 944.062 247.284 L 936.015 239.238 L 944.514 230.739 C 947.649 227.605 952.744 227.605 955.896 230.739 L 971.334 246.178 C 974.469 249.312 974.469 254.409 971.334 257.56 L 918.364 310.547 Z" style="" transform="matrix(1, 0, 0, 1, 0, -5.684341886080802e-14)"/>
  <path d="M 521.551 206.229 L 521.551 178.147 L 531.388 178.147 Q 536.499 178.147 539.141 180.105 Q 541.784 182.062 541.784 185.843 Q 541.784 187.906 540.723 189.478 Q 539.662 191.05 537.772 191.783 Q 539.932 192.323 541.176 193.962 Q 542.42 195.602 542.42 197.974 Q 542.42 202.024 539.836 204.107 Q 537.251 206.19 532.468 206.229 Z M 527.338 194.001 L 527.338 201.581 L 532.294 201.581 Q 534.339 201.581 535.486 200.607 Q 536.634 199.633 536.634 197.916 Q 536.634 194.059 532.641 194.001 Z M 527.338 189.912 L 531.619 189.912 Q 535.997 189.835 535.997 186.421 Q 535.997 184.512 534.888 183.673 Q 533.779 182.834 531.388 182.834 L 527.338 182.834 Z" style="fill: rgb(51, 51, 51);"/>
  <path d="M 552.271 206.229 L 546.677 206.229 L 546.677 185.36 L 552.271 185.36 Z M 546.35 179.96 Q 546.35 178.706 547.189 177.896 Q 548.028 177.086 549.474 177.086 Q 550.901 177.086 551.75 177.896 Q 552.599 178.706 552.599 179.96 Q 552.599 181.233 551.74 182.043 Q 550.882 182.853 549.474 182.853 Q 548.066 182.853 547.208 182.043 Q 546.35 181.233 546.35 179.96 Z" style="fill: rgb(51, 51, 51);"/>
  <path d="M 562.74 206.229 L 557.146 206.229 L 557.146 176.604 L 562.74 176.604 Z" style="fill: rgb(51, 51, 51);"/>
  <path d="M 566.458 195.64 Q 566.458 190.761 568.647 187.868 Q 570.836 184.975 574.636 184.975 Q 577.683 184.975 579.669 187.251 L 579.669 176.604 L 585.263 176.604 L 585.263 206.229 L 580.229 206.229 L 579.959 204.011 Q 577.876 206.615 574.597 206.615 Q 570.913 206.615 568.685 203.712 Q 566.458 200.809 566.458 195.64 Z M 572.032 196.045 Q 572.032 198.977 573.054 200.539 Q 574.076 202.102 576.024 202.102 Q 578.609 202.102 579.669 199.922 L 579.669 191.687 Q 578.628 189.507 576.063 189.507 Q 572.032 189.507 572.032 196.045 Z" style="fill: rgb(51, 51, 51);"/>
  <path d="M 602.082 204.107 Q 600.018 206.615 596.373 206.615 Q 593.017 206.615 591.252 204.686 Q 589.487 202.757 589.449 199.035 L 589.449 185.36 L 595.023 185.36 L 595.023 198.842 Q 595.023 202.102 597.993 202.102 Q 600.828 202.102 601.889 200.134 L 601.889 185.36 L 607.482 185.36 L 607.482 206.229 L 602.236 206.229 Z" style="fill: rgb(51, 51, 51);"/>
  <path d="M 616.816 185.36 L 616.989 187.771 Q 619.227 184.975 622.988 184.975 Q 626.305 184.975 627.925 186.923 Q 629.545 188.871 629.584 192.747 L 629.584 206.229 L 624.01 206.229 L 624.01 192.882 Q 624.01 191.108 623.238 190.308 Q 622.467 189.507 620.673 189.507 Q 618.32 189.507 617.144 191.513 L 617.144 206.229 L 611.57 206.229 L 611.57 185.36 Z" style="fill: rgb(51, 51, 51);"/>
  <path d="M 632.993 195.64 Q 632.993 190.838 635.278 187.906 Q 637.564 184.975 641.44 184.975 Q 644.873 184.975 646.783 187.328 L 647.014 185.36 L 652.068 185.36 L 652.068 205.535 Q 652.068 208.273 650.823 210.299 Q 649.579 212.324 647.323 213.385 Q 645.066 214.445 642.038 214.445 Q 639.743 214.445 637.564 213.529 Q 635.384 212.613 634.266 211.167 L 636.734 207.772 Q 638.817 210.106 641.787 210.106 Q 644.005 210.106 645.24 208.92 Q 646.474 207.733 646.474 205.554 L 646.474 204.435 Q 644.546 206.615 641.402 206.615 Q 637.641 206.615 635.317 203.673 Q 632.993 200.732 632.993 195.872 Z M 638.567 196.045 Q 638.567 198.881 639.704 200.491 Q 640.842 202.102 642.829 202.102 Q 645.375 202.102 646.474 200.192 L 646.474 191.417 Q 645.356 189.507 642.868 189.507 Q 640.862 189.507 639.714 191.146 Q 638.567 192.786 638.567 196.045 Z" style="fill: rgb(51, 51, 51);"/>
  <path d="M 681.075 177.858 L 681.075 182.448 L 680.535 182.448 Q 676.755 182.506 674.45 184.415 Q 672.145 186.325 671.682 189.719 Q 673.92 187.443 677.333 187.443 Q 680.998 187.443 683.158 190.066 Q 685.318 192.689 685.318 196.971 Q 685.318 199.71 684.132 201.928 Q 682.946 204.146 680.776 205.38 Q 678.606 206.615 675.868 206.615 Q 671.432 206.615 668.703 203.529 Q 665.973 200.443 665.973 195.293 L 665.973 193.287 Q 665.973 188.716 667.7 185.216 Q 669.426 181.715 672.656 179.796 Q 675.887 177.877 680.149 177.858 Z M 675.636 191.918 Q 674.286 191.918 673.187 192.622 Q 672.087 193.326 671.567 194.483 L 671.567 196.18 Q 671.567 198.977 672.666 200.549 Q 673.765 202.121 675.752 202.121 Q 677.546 202.121 678.655 200.703 Q 679.764 199.286 679.764 197.029 Q 679.764 194.734 678.645 193.326 Q 677.526 191.918 675.636 191.918 Z" style="fill: rgb(51, 51, 51);"/>
  <path d="M 689.131 203.49 Q 689.131 202.159 690.028 201.33 Q 690.925 200.501 692.275 200.501 Q 693.644 200.501 694.541 201.33 Q 695.438 202.159 695.438 203.49 Q 695.438 204.802 694.551 205.621 Q 693.664 206.441 692.275 206.441 Q 690.906 206.441 690.018 205.621 Q 689.131 204.802 689.131 203.49 Z" style="fill: rgb(51, 51, 51);"/>
  <path d="M 718.988 194.618 Q 718.988 200.443 716.578 203.529 Q 714.167 206.615 709.518 206.615 Q 704.928 206.615 702.498 203.587 Q 700.068 200.559 700.01 194.907 L 700.01 189.739 Q 700.01 183.856 702.45 180.809 Q 704.89 177.761 709.48 177.761 Q 714.07 177.761 716.5 180.78 Q 718.931 183.798 718.988 189.449 Z M 713.414 188.948 Q 713.414 185.457 712.46 183.866 Q 711.505 182.274 709.48 182.274 Q 707.513 182.274 706.577 183.788 Q 705.642 185.303 705.584 188.523 L 705.584 195.351 Q 705.584 198.784 706.519 200.453 Q 707.455 202.121 709.518 202.121 Q 711.563 202.121 712.469 200.52 Q 713.376 198.919 713.414 195.621 Z" style="fill: rgb(51, 51, 51);"/>
  <path d="M 857.956 351.179 L 870.242 351.179 L 870.242 355.827 L 852.17 355.827 L 852.17 327.745 L 857.956 327.745 Z" style="fill: rgb(51, 51, 51);"/>
  <path d="M 882.792 356.213 Q 878.201 356.213 875.318 353.397 Q 872.435 350.581 872.435 345.894 L 872.435 345.354 Q 872.435 342.21 873.65 339.732 Q 874.865 337.254 877.092 335.913 Q 879.32 334.573 882.175 334.573 Q 886.456 334.573 888.915 337.273 Q 891.375 339.973 891.375 344.93 L 891.375 347.206 L 878.086 347.206 Q 878.356 349.25 879.716 350.484 Q 881.075 351.719 883.158 351.719 Q 886.379 351.719 888.192 349.385 L 890.931 352.452 Q 889.677 354.226 887.536 355.219 Q 885.396 356.213 882.792 356.213 Z M 882.155 339.086 Q 880.497 339.086 879.465 340.204 Q 878.433 341.323 878.144 343.406 L 885.897 343.406 L 885.897 342.962 Q 885.858 341.111 884.894 340.098 Q 883.93 339.086 882.155 339.086 Z" style="fill: rgb(51, 51, 51);"/>
  <path d="M 900.421 355.827 L 894.828 355.827 L 894.828 334.958 L 900.421 334.958 Z M 894.5 329.558 Q 894.5 328.304 895.339 327.494 Q 896.178 326.684 897.624 326.684 Q 899.052 326.684 899.9 327.494 Q 900.749 328.304 900.749 329.558 Q 900.749 330.831 899.891 331.641 Q 899.032 332.451 897.624 332.451 Q 896.216 332.451 895.358 331.641 Q 894.5 330.831 894.5 329.558 Z" style="fill: rgb(51, 51, 51);"/>
  <path d="M 911.681 329.828 L 911.681 334.958 L 915.249 334.958 L 915.249 339.047 L 911.681 339.047 L 911.681 349.462 Q 911.681 350.619 912.124 351.121 Q 912.568 351.622 913.821 351.622 Q 914.747 351.622 915.461 351.487 L 915.461 355.711 Q 913.821 356.213 912.086 356.213 Q 906.222 356.213 906.107 350.292 L 906.107 339.047 L 903.059 339.047 L 903.059 334.958 L 906.107 334.958 L 906.107 329.828 Z" style="fill: rgb(51, 51, 51);"/>
  <path d="M 924.234 355.827 L 918.64 355.827 L 918.64 326.202 L 924.234 326.202 Z" style="fill: rgb(51, 51, 51);"/>
  <path d="M 934.702 355.827 L 929.109 355.827 L 929.109 334.958 L 934.702 334.958 Z M 928.781 329.558 Q 928.781 328.304 929.62 327.494 Q 930.459 326.684 931.906 326.684 Q 933.333 326.684 934.182 327.494 Q 935.03 328.304 935.03 329.558 Q 935.03 330.831 934.172 331.641 Q 933.314 332.451 931.906 332.451 Q 930.498 332.451 929.64 331.641 Q 928.781 330.831 928.781 329.558 Z" style="fill: rgb(51, 51, 51);"/>
  <path d="M 944.427 334.958 L 944.6 337.369 Q 946.838 334.573 950.599 334.573 Q 953.916 334.573 955.536 336.521 Q 957.156 338.469 957.195 342.345 L 957.195 355.827 L 951.621 355.827 L 951.621 342.48 Q 951.621 340.706 950.849 339.905 Q 950.078 339.105 948.284 339.105 Q 945.931 339.105 944.755 341.111 L 944.755 355.827 L 939.181 355.827 L 939.181 334.958 Z" style="fill: rgb(51, 51, 51);"/>
  <path d="M 967.296 355.827 L 961.703 355.827 L 961.703 334.958 L 967.296 334.958 Z M 961.375 329.558 Q 961.375 328.304 962.214 327.494 Q 963.053 326.684 964.5 326.684 Q 965.927 326.684 966.776 327.494 Q 967.624 328.304 967.624 329.558 Q 967.624 330.831 966.766 331.641 Q 965.908 332.451 964.5 332.451 Q 963.092 332.451 962.233 331.641 Q 961.375 330.831 961.375 329.558 Z" style="fill: rgb(51, 51, 51);"/>
  <path d="M 981.488 356.213 Q 976.897 356.213 974.014 353.397 Q 971.13 350.581 971.13 345.894 L 971.13 345.354 Q 971.13 342.21 972.345 339.732 Q 973.561 337.254 975.788 335.913 Q 978.016 334.573 980.87 334.573 Q 985.152 334.573 987.611 337.273 Q 990.07 339.973 990.07 344.93 L 990.07 347.206 L 976.781 347.206 Q 977.052 349.25 978.411 350.484 Q 979.771 351.719 981.854 351.719 Q 985.075 351.719 986.888 349.385 L 989.627 352.452 Q 988.373 354.226 986.232 355.219 Q 984.091 356.213 981.488 356.213 Z M 980.851 339.086 Q 979.192 339.086 978.161 340.204 Q 977.129 341.323 976.839 343.406 L 984.593 343.406 L 984.593 342.962 Q 984.554 341.111 983.59 340.098 Q 982.625 339.086 980.851 339.086 Z" style="fill: rgb(51, 51, 51);"/>
  <path d="M 998.365 334.958 L 998.538 337.369 Q 1000.776 334.573 1004.536 334.573 Q 1007.854 334.573 1009.474 336.521 Q 1011.094 338.469 1011.133 342.345 L 1011.133 355.827 L 1005.559 355.827 L 1005.559 342.48 Q 1005.559 340.706 1004.787 339.905 Q 1004.016 339.105 1002.222 339.105 Q 999.869 339.105 998.693 341.111 L 998.693 355.827 L 993.119 355.827 L 993.119 334.958 Z" style="fill: rgb(51, 51, 51);"/>
  <path d="M 249.678 376.021 Q 248.116 377.892 245.261 378.924 Q 242.407 379.956 238.935 379.956 Q 235.29 379.956 232.541 378.365 Q 229.793 376.773 228.298 373.745 Q 226.804 370.717 226.765 366.628 L 226.765 364.719 Q 226.765 360.514 228.183 357.438 Q 229.6 354.362 232.271 352.732 Q 234.943 351.102 238.53 351.102 Q 243.525 351.102 246.341 353.484 Q 249.157 355.866 249.678 360.418 L 244.046 360.418 Q 243.661 358.007 242.339 356.888 Q 241.018 355.77 238.704 355.77 Q 235.753 355.77 234.21 357.988 Q 232.667 360.206 232.648 364.584 L 232.648 366.378 Q 232.648 370.794 234.326 373.051 Q 236.004 375.308 239.244 375.308 Q 242.503 375.308 243.892 373.919 L 243.892 369.078 L 238.627 369.078 L 238.627 364.815 L 249.678 364.815 Z" style="fill: rgb(51, 51, 51);"/>
  <path d="M 266.489 377.448 Q 264.426 379.956 260.781 379.956 Q 257.425 379.956 255.66 378.027 Q 253.895 376.098 253.856 372.376 L 253.856 358.701 L 259.43 358.701 L 259.43 372.183 Q 259.43 375.443 262.401 375.443 Q 265.236 375.443 266.297 373.475 L 266.297 358.701 L 271.89 358.701 L 271.89 379.57 L 266.644 379.57 Z" style="fill: rgb(51, 51, 51);"/>
  <path d="M 281.976 379.57 L 276.382 379.57 L 276.382 358.701 L 281.976 358.701 Z M 276.055 353.301 Q 276.055 352.047 276.894 351.237 Q 277.733 350.427 279.179 350.427 Q 280.606 350.427 281.455 351.237 Q 282.304 352.047 282.304 353.301 Q 282.304 354.574 281.445 355.384 Q 280.587 356.194 279.179 356.194 Q 277.771 356.194 276.913 355.384 Q 276.055 354.574 276.055 353.301 Z" style="fill: rgb(51, 51, 51);"/>
  <path d="M 285.694 368.981 Q 285.694 364.102 287.883 361.209 Q 290.072 358.316 293.872 358.316 Q 296.919 358.316 298.906 360.592 L 298.906 349.945 L 304.499 349.945 L 304.499 379.57 L 299.465 379.57 L 299.195 377.352 Q 297.112 379.956 293.833 379.956 Q 290.149 379.956 287.922 377.053 Q 285.694 374.15 285.694 368.981 Z M 291.268 369.386 Q 291.268 372.318 292.29 373.88 Q 293.312 375.443 295.26 375.443 Q 297.845 375.443 298.906 373.263 L 298.906 365.028 Q 297.864 362.848 295.299 362.848 Q 291.268 362.848 291.268 369.386 Z" style="fill: rgb(51, 51, 51);"/>
  <path d="M 318.425 379.956 Q 313.834 379.956 310.951 377.14 Q 308.068 374.324 308.068 369.637 L 308.068 369.097 Q 308.068 365.953 309.283 363.475 Q 310.498 360.997 312.725 359.656 Q 314.953 358.316 317.808 358.316 Q 322.089 358.316 324.548 361.016 Q 327.008 363.716 327.008 368.673 L 327.008 370.949 L 313.719 370.949 Q 313.989 372.993 315.348 374.228 Q 316.708 375.462 318.791 375.462 Q 322.012 375.462 323.825 373.128 L 326.564 376.195 Q 325.31 377.969 323.169 378.962 Q 321.029 379.956 318.425 379.956 Z M 317.788 362.829 Q 316.13 362.829 315.098 363.947 Q 314.066 365.066 313.777 367.149 L 321.53 367.149 L 321.53 366.706 Q 321.491 364.854 320.527 363.841 Q 319.563 362.829 317.788 362.829 Z" style="fill: rgb(51, 51, 51);"/>
  <path d="M 341.466 373.803 Q 341.466 372.781 340.453 372.193 Q 339.441 371.604 337.203 371.142 Q 329.759 369.579 329.759 364.815 Q 329.759 362.038 332.063 360.177 Q 334.368 358.316 338.091 358.316 Q 342.064 358.316 344.446 360.186 Q 346.828 362.057 346.828 365.047 L 341.254 365.047 Q 341.254 363.851 340.482 363.07 Q 339.711 362.289 338.071 362.289 Q 336.663 362.289 335.892 362.925 Q 335.12 363.562 335.12 364.545 Q 335.12 365.471 335.998 366.04 Q 336.876 366.609 338.959 367.024 Q 341.042 367.438 342.469 367.959 Q 346.886 369.579 346.886 373.572 Q 346.886 376.426 344.436 378.191 Q 341.987 379.956 338.11 379.956 Q 335.487 379.956 333.452 379.02 Q 331.417 378.085 330.26 376.455 Q 329.103 374.825 329.103 372.935 L 334.388 372.935 Q 334.465 374.42 335.487 375.211 Q 336.509 376.002 338.226 376.002 Q 339.826 376.002 340.646 375.394 Q 341.466 374.787 341.466 373.803 Z" style="fill: rgb(51, 51, 51);"/>
  <path d="M 630.357 708.813 L 620.212 708.813 L 618.284 714.599 L 612.131 714.599 L 622.585 686.517 L 627.946 686.517 L 638.458 714.599 L 632.305 714.599 Z M 621.775 704.126 L 628.795 704.126 L 625.266 693.615 Z" style="fill: rgb(51, 51, 51);"/>
  <path d="M 644.916 693.73 L 645.089 696.141 Q 647.327 693.345 651.088 693.345 Q 654.405 693.345 656.025 695.293 Q 657.645 697.241 657.684 701.117 L 657.684 714.599 L 652.11 714.599 L 652.11 701.252 Q 652.11 699.478 651.338 698.678 Q 650.567 697.877 648.773 697.877 Q 646.42 697.877 645.244 699.883 L 645.244 714.599 L 639.67 714.599 L 639.67 693.73 Z" style="fill: rgb(51, 51, 51);"/>
  <path d="M 680.052 707.019 L 682.791 693.73 L 688.172 693.73 L 682.849 714.599 L 678.181 714.599 L 674.227 701.465 L 670.273 714.599 L 665.625 714.599 L 660.302 693.73 L 665.683 693.73 L 668.402 707 L 672.221 693.73 L 676.252 693.73 Z" style="fill: rgb(51, 51, 51);"/>
  <path d="M 700.531 714.985 Q 695.941 714.985 693.057 712.169 Q 690.174 709.353 690.174 704.666 L 690.174 704.126 Q 690.174 700.982 691.389 698.504 Q 692.604 696.026 694.832 694.685 Q 697.06 693.345 699.914 693.345 Q 704.196 693.345 706.655 696.045 Q 709.114 698.745 709.114 703.702 L 709.114 705.978 L 695.825 705.978 Q 696.095 708.022 697.455 709.257 Q 698.815 710.491 700.898 710.491 Q 704.119 710.491 705.932 708.157 L 708.67 711.224 Q 707.417 712.998 705.276 713.992 Q 703.135 714.985 700.531 714.985 Z M 699.895 697.858 Q 698.236 697.858 697.204 698.977 Q 696.172 700.095 695.883 702.178 L 703.636 702.178 L 703.636 701.735 Q 703.598 699.883 702.634 698.87 Q 701.669 697.858 699.895 697.858 Z" style="fill: rgb(51, 51, 51);"/>
  <path d="M 717.4 693.73 L 717.574 696.141 Q 719.811 693.345 723.572 693.345 Q 726.89 693.345 728.51 695.293 Q 730.13 697.241 730.169 701.117 L 730.169 714.599 L 724.595 714.599 L 724.595 701.252 Q 724.595 699.478 723.823 698.678 Q 723.052 697.877 721.258 697.877 Q 718.905 697.877 717.728 699.883 L 717.728 714.599 L 712.154 714.599 L 712.154 693.73 Z" style="fill: rgb(51, 51, 51);"/>
  <path d="M 733.527 704.01 Q 733.527 699.131 735.716 696.238 Q 737.905 693.345 741.705 693.345 Q 744.752 693.345 746.739 695.621 L 746.739 684.974 L 752.332 684.974 L 752.332 714.599 L 747.298 714.599 L 747.028 712.381 Q 744.945 714.985 741.666 714.985 Q 737.983 714.985 735.755 712.082 Q 733.527 709.179 733.527 704.01 Z M 739.101 704.415 Q 739.101 707.347 740.123 708.909 Q 741.146 710.472 743.094 710.472 Q 745.678 710.472 746.739 708.292 L 746.739 700.057 Q 745.697 697.877 743.132 697.877 Q 739.101 697.877 739.101 704.415 Z" style="fill: rgb(51, 51, 51);"/>
  <path d="M 769.143 712.477 Q 767.08 714.985 763.434 714.985 Q 760.078 714.985 758.314 713.056 Q 756.549 711.127 756.51 707.405 L 756.51 693.73 L 762.084 693.73 L 762.084 707.212 Q 762.084 710.472 765.055 710.472 Q 767.89 710.472 768.951 708.504 L 768.951 693.73 L 774.544 693.73 L 774.544 714.599 L 769.298 714.599 Z" style="fill: rgb(51, 51, 51);"/>
  <path d="M 783.877 693.73 L 784.051 696.141 Q 786.288 693.345 790.049 693.345 Q 793.367 693.345 794.987 695.293 Q 796.607 697.241 796.645 701.117 L 796.645 714.599 L 791.071 714.599 L 791.071 701.252 Q 791.071 699.478 790.3 698.678 Q 789.528 697.877 787.735 697.877 Q 785.382 697.877 784.205 699.883 L 784.205 714.599 L 778.631 714.599 L 778.631 693.73 Z" style="fill: rgb(51, 51, 51);"/>
  <path d="M 800.054 704.01 Q 800.054 699.208 802.34 696.276 Q 804.625 693.345 808.502 693.345 Q 811.935 693.345 813.844 695.698 L 814.076 693.73 L 819.129 693.73 L 819.129 713.905 Q 819.129 716.643 817.885 718.669 Q 816.641 720.694 814.385 721.755 Q 812.128 722.815 809.1 722.815 Q 806.805 722.815 804.625 721.899 Q 802.446 720.983 801.327 719.537 L 803.796 716.142 Q 805.879 718.476 808.849 718.476 Q 811.067 718.476 812.302 717.29 Q 813.536 716.103 813.536 713.924 L 813.536 712.805 Q 811.607 714.985 808.463 714.985 Q 804.702 714.985 802.378 712.044 Q 800.054 709.102 800.054 704.242 Z M 805.628 704.415 Q 805.628 707.251 806.766 708.861 Q 807.904 710.472 809.891 710.472 Q 812.437 710.472 813.536 708.562 L 813.536 699.787 Q 812.417 697.877 809.929 697.877 Q 807.923 697.877 806.776 699.517 Q 805.628 701.156 805.628 704.415 Z" style="fill: rgb(51, 51, 51);"/>
  <path d="M 834.713 708.832 Q 834.713 707.81 833.701 707.222 Q 832.688 706.633 830.451 706.171 Q 823.006 704.608 823.006 699.844 Q 823.006 697.067 825.311 695.206 Q 827.616 693.345 831.338 693.345 Q 835.311 693.345 837.693 695.216 Q 840.075 697.086 840.075 700.076 L 834.501 700.076 Q 834.501 698.88 833.73 698.099 Q 832.958 697.318 831.319 697.318 Q 829.911 697.318 829.139 697.954 Q 828.368 698.591 828.368 699.574 Q 828.368 700.5 829.246 701.069 Q 830.123 701.638 832.206 702.053 Q 834.289 702.467 835.716 702.988 Q 840.133 704.608 840.133 708.601 Q 840.133 711.455 837.684 713.22 Q 835.234 714.985 831.357 714.985 Q 828.734 714.985 826.7 714.049 Q 824.665 713.114 823.508 711.484 Q 822.35 709.854 822.35 707.964 L 827.635 707.964 Q 827.712 709.449 828.734 710.24 Q 829.757 711.031 831.473 711.031 Q 833.074 711.031 833.894 710.423 Q 834.713 709.816 834.713 708.832 Z" style="fill: rgb(51, 51, 51);"/>
  <path d="M 845.24 714.599 L 845.24 697.819 L 842.134 697.819 L 842.134 693.73 L 845.24 693.73 L 845.24 691.956 Q 845.24 688.446 847.255 686.507 Q 849.271 684.569 852.897 684.569 Q 854.054 684.569 855.732 684.955 L 855.674 689.275 Q 854.98 689.102 853.977 689.102 Q 850.833 689.102 850.833 692.052 L 850.833 693.73 L 854.98 693.73 L 854.98 697.819 L 850.833 697.819 L 850.833 714.599 Z" style="fill: rgb(51, 51, 51);"/>
  <path d="M 869.965 714.599 Q 869.58 713.847 869.406 712.728 Q 867.381 714.985 864.141 714.985 Q 861.074 714.985 859.058 713.21 Q 857.043 711.436 857.043 708.736 Q 857.043 705.418 859.502 703.644 Q 861.961 701.87 866.609 701.85 L 869.175 701.85 L 869.175 700.654 Q 869.175 699.208 868.432 698.34 Q 867.689 697.472 866.089 697.472 Q 864.681 697.472 863.88 698.147 Q 863.08 698.822 863.08 699.999 L 857.506 699.999 Q 857.506 698.186 858.625 696.643 Q 859.743 695.1 861.788 694.222 Q 863.832 693.345 866.378 693.345 Q 870.235 693.345 872.502 695.283 Q 874.768 697.221 874.768 700.732 L 874.768 709.777 Q 874.787 712.747 875.597 714.271 L 875.597 714.599 Z M 865.356 710.722 Q 866.59 710.722 867.632 710.173 Q 868.673 709.623 869.175 708.697 L 869.175 705.11 L 867.092 705.11 Q 862.906 705.11 862.636 708.003 L 862.617 708.331 Q 862.617 709.372 863.35 710.047 Q 864.083 710.722 865.356 710.722 Z M 864.333 688.272 Q 864.333 689.294 863.581 689.998 Q 862.829 690.702 861.653 690.702 Q 860.457 690.702 859.724 689.989 Q 858.991 689.275 858.991 688.272 Q 858.991 687.269 859.724 686.546 Q 860.457 685.823 861.653 685.823 Q 862.848 685.823 863.591 686.546 Q 864.333 687.269 864.333 688.272 Z M 868.384 688.272 Q 868.384 687.231 869.165 686.527 Q 869.946 685.823 871.065 685.823 Q 872.203 685.823 872.964 686.536 Q 873.726 687.25 873.726 688.272 Q 873.726 689.275 872.993 689.998 Q 872.26 690.722 871.065 690.722 Q 869.869 690.722 869.126 689.998 Q 868.384 689.275 868.384 688.272 Z" style="fill: rgb(51, 51, 51);"/>
  <path d="M 884.927 714.599 L 879.334 714.599 L 879.334 684.974 L 884.927 684.974 Z" style="fill: rgb(51, 51, 51);"/>
  <path d="M 895.403 714.599 L 889.81 714.599 L 889.81 684.974 L 895.403 684.974 Z" style="fill: rgb(51, 51, 51);"/>
  <path d="M 909.595 714.985 Q 905.004 714.985 902.121 712.169 Q 899.237 709.353 899.237 704.666 L 899.237 704.126 Q 899.237 700.982 900.453 698.504 Q 901.668 696.026 903.895 694.685 Q 906.123 693.345 908.977 693.345 Q 913.259 693.345 915.718 696.045 Q 918.177 698.745 918.177 703.702 L 918.177 705.978 L 904.889 705.978 Q 905.159 708.022 906.518 709.257 Q 907.878 710.491 909.961 710.491 Q 913.182 710.491 914.995 708.157 L 917.734 711.224 Q 916.48 712.998 914.339 713.992 Q 912.198 714.985 909.595 714.985 Z M 908.958 697.858 Q 907.299 697.858 906.268 698.977 Q 905.236 700.095 904.946 702.178 L 912.7 702.178 L 912.7 701.735 Q 912.661 699.883 911.697 698.87 Q 910.733 697.858 908.958 697.858 Z" style="fill: rgb(51, 51, 51);"/>
  <path d="M 610.203 910.55 L 605.593 910.55 L 605.593 920.83 L 599.807 920.83 L 599.807 892.748 L 610.242 892.748 Q 615.218 892.748 617.918 894.966 Q 620.618 897.184 620.618 901.234 Q 620.618 904.108 619.374 906.027 Q 618.13 907.946 615.603 909.084 L 621.679 920.56 L 621.679 920.83 L 615.468 920.83 Z M 605.593 905.863 L 610.261 905.863 Q 612.44 905.863 613.636 904.754 Q 614.832 903.645 614.832 901.697 Q 614.832 899.711 613.704 898.573 Q 612.575 897.435 610.242 897.435 L 605.593 897.435 Z" style="fill: rgb(51, 51, 51);"/>
  <path d="M 630.527 920.83 L 624.933 920.83 L 624.933 899.961 L 630.527 899.961 Z M 624.606 894.561 Q 624.606 893.307 625.445 892.497 Q 626.284 891.687 627.73 891.687 Q 629.157 891.687 630.006 892.497 Q 630.855 893.307 630.855 894.561 Q 630.855 895.834 629.996 896.644 Q 629.138 897.454 627.73 897.454 Q 626.322 897.454 625.464 896.644 Q 624.606 895.834 624.606 894.561 Z" style="fill: rgb(51, 51, 51);"/>
  <path d="M 646.415 915.063 Q 646.415 914.041 645.403 913.453 Q 644.39 912.865 642.153 912.402 Q 634.708 910.839 634.708 906.075 Q 634.708 903.298 637.013 901.437 Q 639.318 899.576 643.04 899.576 Q 647.013 899.576 649.395 901.447 Q 651.777 903.317 651.777 906.307 L 646.203 906.307 Q 646.203 905.111 645.432 904.33 Q 644.66 903.549 643.021 903.549 Q 641.613 903.549 640.841 904.185 Q 640.07 904.822 640.07 905.805 Q 640.07 906.731 640.947 907.3 Q 641.825 907.869 643.908 908.284 Q 645.991 908.698 647.418 909.219 Q 651.835 910.839 651.835 914.832 Q 651.835 917.686 649.385 919.451 Q 646.936 921.216 643.059 921.216 Q 640.436 921.216 638.401 920.28 Q 636.367 919.345 635.209 917.715 Q 634.052 916.085 634.052 914.195 L 639.337 914.195 Q 639.414 915.68 640.436 916.471 Q 641.458 917.262 643.175 917.262 Q 644.776 917.262 645.595 916.654 Q 646.415 916.047 646.415 915.063 Z" style="fill: rgb(51, 51, 51);"/>
  <path d="M 661.3 920.83 L 655.707 920.83 L 655.707 899.961 L 661.3 899.961 Z M 655.379 894.561 Q 655.379 893.307 656.218 892.497 Q 657.057 891.687 658.504 891.687 Q 659.931 891.687 660.779 892.497 Q 661.628 893.307 661.628 894.561 Q 661.628 895.834 660.77 896.644 Q 659.912 897.454 658.504 897.454 Q 657.096 897.454 656.237 896.644 Q 655.379 895.834 655.379 894.561 Z" style="fill: rgb(51, 51, 51);"/>
  <path d="M 673.474 912.459 L 671.468 914.465 L 671.468 920.83 L 665.894 920.83 L 665.894 891.205 L 671.468 891.205 L 671.468 907.618 L 672.548 906.23 L 677.891 899.961 L 684.583 899.961 L 677.042 908.66 L 685.239 920.83 L 678.836 920.83 Z" style="fill: rgb(51, 51, 51);"/>
  <path d="M 696.21 921.216 Q 691.62 921.216 688.737 918.4 Q 685.853 915.584 685.853 910.897 L 685.853 910.357 Q 685.853 907.213 687.068 904.735 Q 688.283 902.257 690.511 900.916 Q 692.739 899.576 695.593 899.576 Q 699.875 899.576 702.334 902.276 Q 704.793 904.976 704.793 909.933 L 704.793 912.209 L 691.504 912.209 Q 691.774 914.253 693.134 915.488 Q 694.494 916.722 696.577 916.722 Q 699.798 916.722 701.611 914.388 L 704.349 917.455 Q 703.096 919.229 700.955 920.223 Q 698.814 921.216 696.21 921.216 Z M 695.574 904.089 Q 693.915 904.089 692.883 905.208 Q 691.851 906.326 691.562 908.409 L 699.315 908.409 L 699.315 907.966 Q 699.277 906.114 698.313 905.101 Q 697.348 904.089 695.574 904.089 Z" style="fill: rgb(51, 51, 51);"/>
  <path d="M 713.08 899.961 L 713.253 902.372 Q 715.49 899.576 719.251 899.576 Q 722.569 899.576 724.189 901.524 Q 725.809 903.472 725.848 907.348 L 725.848 920.83 L 720.274 920.83 L 720.274 907.483 Q 720.274 905.709 719.502 904.909 Q 718.731 904.108 716.937 904.108 Q 714.584 904.108 713.407 906.114 L 713.407 920.83 L 707.833 920.83 L 707.833 899.961 Z" style="fill: rgb(51, 51, 51);"/>
  <path d="M 390.48 719.749 L 381.878 719.749 L 381.878 743.144 L 376.092 743.144 L 376.092 719.749 L 367.606 719.749 L 367.606 715.062 L 390.48 715.062 Z" style="fill: rgb(51, 51, 51);"/>
  <path d="M 388.529 732.517 Q 388.529 729.412 389.725 726.981 Q 390.921 724.551 393.168 723.22 Q 395.414 721.89 398.385 721.89 Q 402.609 721.89 405.28 724.474 Q 407.951 727.059 408.26 731.495 L 408.298 732.922 Q 408.298 737.724 405.617 740.627 Q 402.936 743.53 398.423 743.53 Q 393.91 743.53 391.22 740.637 Q 388.529 737.744 388.529 732.768 Z M 394.103 732.922 Q 394.103 735.892 395.222 737.464 Q 396.34 739.036 398.423 739.036 Q 400.448 739.036 401.586 737.483 Q 402.724 735.931 402.724 732.517 Q 402.724 729.604 401.586 728.004 Q 400.448 726.403 398.385 726.403 Q 396.34 726.403 395.222 727.994 Q 394.103 729.585 394.103 732.922 Z" style="fill: rgb(51, 51, 51);"/>
  <path d="M 410.857 732.517 Q 410.857 729.412 412.053 726.981 Q 413.249 724.551 415.496 723.22 Q 417.743 721.89 420.713 721.89 Q 424.937 721.89 427.608 724.474 Q 430.279 727.059 430.588 731.495 L 430.626 732.922 Q 430.626 737.724 427.946 740.627 Q 425.265 743.53 420.751 743.53 Q 416.238 743.53 413.548 740.637 Q 410.857 737.744 410.857 732.768 Z M 416.431 732.922 Q 416.431 735.892 417.55 737.464 Q 418.668 739.036 420.751 739.036 Q 422.777 739.036 423.915 737.483 Q 425.052 735.931 425.052 732.517 Q 425.052 729.604 423.915 728.004 Q 422.777 726.403 420.713 726.403 Q 418.668 726.403 417.55 727.994 Q 416.431 729.585 416.431 732.922 Z" style="fill: rgb(51, 51, 51);"/>
  <path d="M 439.936 743.144 L 434.343 743.144 L 434.343 713.519 L 439.936 713.519 Z" style="fill: rgb(51, 51, 51);"/>
  <path d="M 455.832 737.377 Q 455.832 736.355 454.82 735.767 Q 453.807 735.178 451.57 734.716 Q 444.125 733.153 444.125 728.389 Q 444.125 725.612 446.43 723.751 Q 448.735 721.89 452.457 721.89 Q 456.43 721.89 458.812 723.76 Q 461.194 725.631 461.194 728.621 L 455.62 728.621 Q 455.62 727.425 454.849 726.644 Q 454.077 725.863 452.438 725.863 Q 451.03 725.863 450.258 726.499 Q 449.487 727.136 449.487 728.119 Q 449.487 729.045 450.364 729.614 Q 451.242 730.183 453.325 730.598 Q 455.408 731.012 456.835 731.533 Q 461.252 733.153 461.252 737.146 Q 461.252 740 458.802 741.765 Q 456.353 743.53 452.476 743.53 Q 449.853 743.53 447.818 742.594 Q 445.784 741.659 444.626 740.029 Q 443.469 738.399 443.469 736.509 L 448.754 736.509 Q 448.831 737.994 449.853 738.785 Q 450.875 739.576 452.592 739.576 Q 454.193 739.576 455.012 738.968 Q 455.832 738.361 455.832 737.377 Z" style="fill: rgb(51, 51, 51);"/>
  <path d="M 557.671 455.141 Q 557.671 459.076 556.398 461.979 Q 555.125 464.881 552.869 466.637 L 557.536 470.301 L 553.852 473.561 L 547.873 468.758 Q 546.851 468.932 545.752 468.932 Q 542.261 468.932 539.522 467.254 Q 536.783 465.576 535.279 462.461 Q 533.774 459.346 533.755 455.296 L 533.755 453.907 Q 533.755 449.76 535.25 446.607 Q 536.745 443.453 539.474 441.766 Q 542.203 440.078 545.713 440.078 Q 549.223 440.078 551.953 441.766 Q 554.682 443.453 556.176 446.607 Q 557.671 449.76 557.671 453.888 Z M 551.808 453.869 Q 551.808 449.452 550.226 447.157 Q 548.645 444.861 545.713 444.861 Q 542.801 444.861 541.219 447.128 Q 539.638 449.394 539.618 453.772 L 539.618 455.141 Q 539.618 459.443 541.2 461.815 Q 542.781 464.187 545.752 464.187 Q 548.664 464.187 550.226 461.902 Q 551.789 459.616 551.808 455.238 Z" style="fill: rgb(51, 51, 51);"/>
  <path d="M 574.04 466.424 Q 571.976 468.932 568.331 468.932 Q 564.975 468.932 563.21 467.003 Q 561.445 465.074 561.407 461.352 L 561.407 447.677 L 566.981 447.677 L 566.981 461.159 Q 566.981 464.419 569.951 464.419 Q 572.786 464.419 573.847 462.451 L 573.847 447.677 L 579.44 447.677 L 579.44 468.546 L 574.194 468.546 Z" style="fill: rgb(51, 51, 51);"/>
  <path d="M 593.248 468.932 Q 588.658 468.932 585.775 466.116 Q 582.891 463.3 582.891 458.613 L 582.891 458.073 Q 582.891 454.929 584.106 452.451 Q 585.321 449.973 587.549 448.632 Q 589.777 447.292 592.631 447.292 Q 596.913 447.292 599.372 449.992 Q 601.831 452.692 601.831 457.649 L 601.831 459.925 L 588.542 459.925 Q 588.812 461.969 590.172 463.203 Q 591.532 464.438 593.615 464.438 Q 596.836 464.438 598.649 462.104 L 601.387 465.171 Q 600.134 466.945 597.993 467.938 Q 595.852 468.932 593.248 468.932 Z M 592.612 451.805 Q 590.953 451.805 589.921 452.923 Q 588.889 454.042 588.6 456.125 L 596.354 456.125 L 596.354 455.682 Q 596.315 453.83 595.351 452.817 Q 594.386 451.805 592.612 451.805 Z" style="fill: rgb(51, 51, 51);"/>
  <path d="M 616.289 462.779 Q 616.289 461.757 615.277 461.169 Q 614.264 460.58 612.027 460.118 Q 604.582 458.555 604.582 453.791 Q 604.582 451.014 606.887 449.153 Q 609.192 447.292 612.914 447.292 Q 616.887 447.292 619.269 449.162 Q 621.651 451.033 621.651 454.023 L 616.077 454.023 Q 616.077 452.827 615.306 452.046 Q 614.534 451.265 612.895 451.265 Q 611.487 451.265 610.715 451.901 Q 609.944 452.538 609.944 453.521 Q 609.944 454.447 610.822 455.016 Q 611.699 455.585 613.782 456 Q 615.865 456.414 617.292 456.935 Q 621.709 458.555 621.709 462.548 Q 621.709 465.402 619.26 467.167 Q 616.81 468.932 612.933 468.932 Q 610.31 468.932 608.276 467.996 Q 606.241 467.061 605.084 465.431 Q 603.926 463.801 603.926 461.911 L 609.211 461.911 Q 609.288 463.396 610.31 464.187 Q 611.333 464.978 613.049 464.978 Q 614.65 464.978 615.47 464.37 Q 616.289 463.763 616.289 462.779 Z" style="fill: rgb(51, 51, 51);"/>
  <path d="M 631.973 442.547 L 631.973 447.677 L 635.541 447.677 L 635.541 451.766 L 631.973 451.766 L 631.973 462.181 Q 631.973 463.339 632.417 463.84 Q 632.86 464.341 634.114 464.341 Q 635.04 464.341 635.753 464.206 L 635.753 468.43 Q 634.114 468.932 632.378 468.932 Q 626.515 468.932 626.399 463.011 L 626.399 451.766 L 623.352 451.766 L 623.352 447.677 L 626.399 447.677 L 626.399 442.547 Z" style="fill: rgb(51, 51, 51);"/>
  <path d="M 649.946 462.779 Q 649.946 461.757 648.933 461.169 Q 647.921 460.58 645.683 460.118 Q 638.239 458.555 638.239 453.791 Q 638.239 451.014 640.543 449.153 Q 642.848 447.292 646.571 447.292 Q 650.544 447.292 652.926 449.162 Q 655.308 451.033 655.308 454.023 L 649.734 454.023 Q 649.734 452.827 648.962 452.046 Q 648.191 451.265 646.551 451.265 Q 645.143 451.265 644.372 451.901 Q 643.6 452.538 643.6 453.521 Q 643.6 454.447 644.478 455.016 Q 645.355 455.585 647.438 456 Q 649.521 456.414 650.949 456.935 Q 655.365 458.555 655.365 462.548 Q 655.365 465.402 652.916 467.167 Q 650.467 468.932 646.59 468.932 Q 643.967 468.932 641.932 467.996 Q 639.897 467.061 638.74 465.431 Q 637.583 463.801 637.583 461.911 L 642.867 461.911 Q 642.945 463.396 643.967 464.187 Q 644.989 464.978 646.706 464.978 Q 648.306 464.978 649.126 464.37 Q 649.946 463.763 649.946 462.779 Z" style="fill: rgb(51, 51, 51);"/>
  <path d="M 894.816 780.574 C 896.947 779.16 899.736 779.16 901.867 780.574 L 905.315 782.841 C 906.477 783.596 907.834 783.964 909.209 783.886 L 913.335 783.634 C 915.892 783.48 918.294 784.874 919.437 787.16 L 921.297 790.86 C 921.916 792.1 922.923 793.088 924.144 793.707 L 927.883 795.586 C 930.168 796.73 931.563 799.131 931.408 801.688 L 931.156 805.815 C 931.079 807.19 931.447 808.566 932.203 809.708 L 934.489 813.156 C 935.903 815.287 935.903 818.077 934.489 820.208 L 932.203 823.675 C 931.447 824.838 931.079 826.193 931.156 827.569 L 931.408 831.695 C 931.563 834.252 930.168 836.654 927.883 837.797 L 924.183 839.656 C 922.943 840.276 921.956 841.283 921.335 842.504 L 919.456 846.242 C 918.314 848.528 915.911 849.923 913.355 849.768 L 909.229 849.516 C 907.853 849.439 906.477 849.806 905.334 850.563 L 901.886 852.848 C 899.756 854.262 896.966 854.262 894.835 852.848 L 891.368 850.563 C 890.206 849.806 888.849 849.439 887.475 849.516 L 883.349 849.768 C 880.792 849.923 878.39 848.528 877.247 846.242 L 875.386 842.542 C 874.767 841.303 873.76 840.315 872.539 839.695 L 868.8 837.816 C 866.515 836.673 865.12 834.271 865.275 831.714 L 865.527 827.588 C 865.605 826.212 865.236 824.838 864.481 823.694 L 862.215 820.227 C 860.801 818.096 860.801 815.306 862.215 813.175 L 864.481 809.728 C 865.236 808.566 865.605 807.209 865.527 805.835 L 865.275 801.709 C 865.12 799.152 866.515 796.749 868.8 795.607 L 872.5 793.747 C 873.74 793.107 874.748 792.1 875.367 790.86 L 877.227 787.16 C 878.369 784.874 880.772 783.48 883.329 783.634 L 887.455 783.886 C 888.83 783.964 890.206 783.596 891.349 782.841 L 894.816 780.574 Z M 913.838 816.701 C 913.838 804.772 900.925 797.316 890.594 803.281 C 885.798 806.049 882.845 811.164 882.845 816.701 C 882.845 828.632 895.759 836.087 906.09 830.123 C 910.885 827.354 913.838 822.238 913.838 816.701 Z M 861.401 865.091 L 869.75 845.235 C 869.788 845.254 869.808 845.275 869.827 845.313 L 871.686 849.013 C 873.953 853.507 878.661 856.238 883.697 855.948 L 887.823 855.696 C 887.861 855.696 887.92 855.696 887.959 855.734 L 891.406 858.02 C 892.394 858.66 893.441 859.163 894.525 859.512 L 887.242 876.811 C 886.797 877.876 885.809 878.592 884.666 878.69 C 883.523 878.787 882.419 878.263 881.799 877.295 L 875.561 867.745 L 864.694 869.352 C 863.589 869.507 862.486 869.062 861.789 868.19 C 861.091 867.319 860.955 866.117 861.382 865.091 L 861.401 865.091 Z M 909.441 876.792 L 902.158 859.512 C 903.243 859.163 904.289 858.679 905.277 858.02 L 908.724 855.734 C 908.764 855.715 908.802 855.696 908.86 855.696 L 912.986 855.948 C 918.023 856.238 922.73 853.507 924.997 849.013 L 926.856 845.313 C 926.875 845.275 926.895 845.254 926.934 845.235 L 935.303 865.091 C 935.729 866.117 935.573 867.3 934.896 868.19 C 934.217 869.081 933.094 869.526 931.989 869.352 L 921.123 867.745 L 914.885 877.275 C 914.264 878.244 913.161 878.766 912.018 878.67 C 910.874 878.573 909.886 877.837 909.441 876.792 Z" style="" transform="matrix(1, 0, 0, 1, 0, -5.684341886080802e-14)"/>
  <path d="M 845.245 911.476 Q 844.918 916.008 841.899 918.612 Q 838.881 921.216 833.943 921.216 Q 828.543 921.216 825.447 917.58 Q 822.352 913.945 822.352 907.599 L 822.352 905.883 Q 822.352 901.832 823.779 898.746 Q 825.206 895.66 827.858 894.011 Q 830.51 892.362 834.02 892.362 Q 838.881 892.362 841.851 894.966 Q 844.821 897.57 845.284 902.276 L 839.498 902.276 Q 839.286 899.556 837.984 898.332 Q 836.682 897.107 834.02 897.107 Q 831.127 897.107 829.69 899.18 Q 828.254 901.254 828.215 905.613 L 828.215 907.734 Q 828.215 912.286 829.594 914.388 Q 830.973 916.49 833.943 916.49 Q 836.624 916.49 837.945 915.266 Q 839.266 914.041 839.459 911.476 Z" style="fill: rgb(51, 51, 51);"/>
  <path d="M 854.109 902.237 Q 856.327 899.576 859.683 899.576 Q 866.472 899.576 866.568 907.464 L 866.568 920.83 L 860.994 920.83 L 860.994 907.618 Q 860.994 905.825 860.223 904.966 Q 859.451 904.108 857.658 904.108 Q 855.208 904.108 854.109 905.998 L 854.109 920.83 L 848.535 920.83 L 848.535 891.205 L 854.109 891.205 Z" style="fill: rgb(51, 51, 51);"/>
  <path d="M 882.865 920.83 Q 882.479 920.078 882.305 918.959 Q 880.28 921.216 877.04 921.216 Q 873.973 921.216 871.958 919.441 Q 869.942 917.667 869.942 914.967 Q 869.942 911.649 872.401 909.875 Q 874.86 908.101 879.509 908.081 L 882.074 908.081 L 882.074 906.885 Q 882.074 905.439 881.331 904.571 Q 880.589 903.703 878.988 903.703 Q 877.58 903.703 876.78 904.378 Q 875.979 905.053 875.979 906.23 L 870.405 906.23 Q 870.405 904.417 871.524 902.874 Q 872.642 901.331 874.687 900.453 Q 876.731 899.576 879.277 899.576 Q 883.135 899.576 885.401 901.514 Q 887.667 903.452 887.667 906.963 L 887.667 916.008 Q 887.686 918.979 888.496 920.502 L 888.496 920.83 Z M 878.255 916.953 Q 879.489 916.953 880.531 916.404 Q 881.572 915.854 882.074 914.928 L 882.074 911.341 L 879.991 911.341 Q 875.806 911.341 875.536 914.234 L 875.516 914.562 Q 875.516 915.603 876.249 916.278 Q 876.982 916.953 878.255 916.953 Z" style="fill: rgb(51, 51, 51);"/>
  <path d="M 897.074 899.961 L 897.247 902.372 Q 899.485 899.576 903.246 899.576 Q 906.563 899.576 908.183 901.524 Q 909.803 903.472 909.842 907.348 L 909.842 920.83 L 904.268 920.83 L 904.268 907.483 Q 904.268 905.709 903.497 904.909 Q 902.725 904.108 900.931 904.108 Q 898.578 904.108 897.402 906.114 L 897.402 920.83 L 891.828 920.83 L 891.828 899.961 Z" style="fill: rgb(51, 51, 51);"/>
  <path d="M 922.748 916.722 Q 924.291 916.722 925.255 915.873 Q 926.22 915.025 926.258 913.617 L 931.485 913.617 Q 931.466 915.738 930.328 917.503 Q 929.19 919.268 927.213 920.242 Q 925.236 921.216 922.844 921.216 Q 918.37 921.216 915.785 918.371 Q 913.201 915.526 913.201 910.511 L 913.201 910.145 Q 913.201 905.323 915.766 902.449 Q 918.331 899.576 922.806 899.576 Q 926.721 899.576 929.084 901.803 Q 931.446 904.031 931.485 907.734 L 926.258 907.734 Q 926.22 906.114 925.255 905.101 Q 924.291 904.089 922.709 904.089 Q 920.761 904.089 919.768 905.506 Q 918.775 906.924 918.775 910.106 L 918.775 910.685 Q 918.775 913.906 919.758 915.314 Q 920.742 916.722 922.748 916.722 Z" style="fill: rgb(51, 51, 51);"/>
  <path d="M 944.267 921.216 Q 939.677 921.216 936.794 918.4 Q 933.91 915.584 933.91 910.897 L 933.91 910.357 Q 933.91 907.213 935.125 904.735 Q 936.34 902.257 938.568 900.916 Q 940.796 899.576 943.65 899.576 Q 947.932 899.576 950.391 902.276 Q 952.85 904.976 952.85 909.933 L 952.85 912.209 L 939.561 912.209 Q 939.831 914.253 941.191 915.488 Q 942.551 916.722 944.634 916.722 Q 947.855 916.722 949.668 914.388 L 952.407 917.455 Q 951.153 919.229 949.012 920.223 Q 946.871 921.216 944.267 921.216 Z M 943.631 904.089 Q 941.972 904.089 940.94 905.208 Q 939.909 906.326 939.619 908.409 L 947.373 908.409 L 947.373 907.966 Q 947.334 906.114 946.37 905.101 Q 945.405 904.089 943.631 904.089 Z" style="fill: rgb(51, 51, 51);"/>
  <path d="M 961.145 899.961 L 961.318 902.372 Q 963.555 899.576 967.316 899.576 Q 970.634 899.576 972.254 901.524 Q 973.874 903.472 973.913 907.348 L 973.913 920.83 L 968.339 920.83 L 968.339 907.483 Q 968.339 905.709 967.567 904.909 Q 966.796 904.108 965.002 904.108 Q 962.649 904.108 961.472 906.114 L 961.472 920.83 L 955.898 920.83 L 955.898 899.961 Z" style="fill: rgb(51, 51, 51);"/>
</svg>
